<?xml version="1.0" encoding="UTF-8" standalone="no"?><svg xmlns="http://www.w3.org/2000/svg" xmlns:xlink="http://www.w3.org/1999/xlink" contentScriptType="application/ecmascript" contentStyleType="text/css" preserveAspectRatio="true" version="1.1" viewBox="0 0 205 235" zoomAndPan="magnify"><defs><filter height="300%" id="ffw7sphlnidzs" width="300%" x="-1" y="-1"><feGaussianBlur result="blurOut" stdDeviation="2.0"/><feColorMatrix in="blurOut" result="blurOut2" type="matrix" values="0 0 0 0 0 0 0 0 0 0 0 0 0 0 0 0 0 0 .4 0"/><feOffset dx="4.0" dy="4.0" in="blurOut2" result="blurOut3"/><feBlend in="SourceGraphic" in2="blurOut3" mode="normal"/></filter></defs><g><!--class EJB--><rect fill="#FEFECE" filter="url(#ffw7sphlnidzs)" height="32" id="EJB" style="stroke: #A80036; stroke-width: 1.5;" width="74" x="6" y="100"/><ellipse cx="21" cy="116" fill="#ADD1B2" rx="11" ry="11" style="stroke: #A80036; stroke-width: 1.0;"/><path d="M23.3438,111.6719 L23.5156,111.75 C23.7344,111.4375 23.9375,111.3438 24.2344,111.3438 C24.5313,111.3438 24.8125,111.4844 24.9688,111.75 C25.0625,111.9063 25.0781,112.0313 25.0781,112.4688 L25.0781,113.8906 C25.0781,114.3125 25.0469,114.5 24.9375,114.6563 C24.7656,114.875 24.5,115.0156 24.2344,115.0156 C24.0156,115.0156 23.7813,114.9063 23.6406,114.7656 C23.5,114.6406 23.4688,114.5156 23.4063,114.1094 C23.3125,113.7031 23.1406,113.4844 22.6563,113.2031 C22.1875,112.9531 21.5781,112.7969 21,112.7969 C19.2656,112.7969 18.0156,114.1094 18.0156,115.8906 L18.0156,116.9844 C18.0156,118.6875 19.3125,119.7813 21.3594,119.7813 C22.125,119.7813 22.8125,119.6563 23.2344,119.3906 C23.4219,119.2969 23.4219,119.2969 23.875,118.8125 C24.0625,118.625 24.2656,118.5469 24.4844,118.5469 C24.9531,118.5469 25.3438,118.9375 25.3438,119.3906 C25.3438,119.7813 25.0156,120.2344 24.4375,120.6406 C23.6875,121.1875 22.5313,121.4844 21.3125,121.4844 C18.4219,121.4844 16.3125,119.5938 16.3125,117.0156 L16.3125,115.8906 C16.3125,113.1719 18.3125,111.0938 20.9375,111.0938 C21.8125,111.0938 22.4063,111.2344 23.3438,111.6719 Z "/><text fill="#000000" font-family="sans-serif" font-size="12" lengthAdjust="spacingAndGlyphs" textLength="42" x="35" y="120.1543">EJB JAR</text><!--class JAR--><rect fill="#FEFECE" filter="url(#ffw7sphlnidzs)" height="32" id="JAR" style="stroke: #A80036; stroke-width: 1.5;" width="51" x="115.5" y="100"/><ellipse cx="130.5" cy="116" fill="#ADD1B2" rx="11" ry="11" style="stroke: #A80036; stroke-width: 1.0;"/><path d="M132.8438,111.6719 L133.0156,111.75 C133.2344,111.4375 133.4375,111.3438 133.7344,111.3438 C134.0313,111.3438 134.3125,111.4844 134.4688,111.75 C134.5625,111.9063 134.5781,112.0313 134.5781,112.4688 L134.5781,113.8906 C134.5781,114.3125 134.5469,114.5 134.4375,114.6563 C134.2656,114.875 134,115.0156 133.7344,115.0156 C133.5156,115.0156 133.2813,114.9063 133.1406,114.7656 C133,114.6406 132.9688,114.5156 132.9063,114.1094 C132.8125,113.7031 132.6406,113.4844 132.1563,113.2031 C131.6875,112.9531 131.0781,112.7969 130.5,112.7969 C128.7656,112.7969 127.5156,114.1094 127.5156,115.8906 L127.5156,116.9844 C127.5156,118.6875 128.8125,119.7813 130.8594,119.7813 C131.625,119.7813 132.3125,119.6563 132.7344,119.3906 C132.9219,119.2969 132.9219,119.2969 133.375,118.8125 C133.5625,118.625 133.7656,118.5469 133.9844,118.5469 C134.4531,118.5469 134.8438,118.9375 134.8438,119.3906 C134.8438,119.7813 134.5156,120.2344 133.9375,120.6406 C133.1875,121.1875 132.0313,121.4844 130.8125,121.4844 C127.9219,121.4844 125.8125,119.5938 125.8125,117.0156 L125.8125,115.8906 C125.8125,113.1719 127.8125,111.0938 130.4375,111.0938 C131.3125,111.0938 131.9063,111.2344 132.8438,111.6719 Z "/><text fill="#000000" font-family="sans-serif" font-size="12" lengthAdjust="spacingAndGlyphs" textLength="19" x="144.5" y="120.1543">JAR</text><!--class WAR--><rect fill="#FEFECE" filter="url(#ffw7sphlnidzs)" height="32" id="WAR" style="stroke: #A80036; stroke-width: 1.5;" width="59" x="111.5" y="8"/><ellipse cx="126.5" cy="24" fill="#ADD1B2" rx="11" ry="11" style="stroke: #A80036; stroke-width: 1.0;"/><path d="M128.8438,19.6719 L129.0156,19.75 C129.2344,19.4375 129.4375,19.3438 129.7344,19.3438 C130.0313,19.3438 130.3125,19.4844 130.4688,19.75 C130.5625,19.9063 130.5781,20.0313 130.5781,20.4688 L130.5781,21.8906 C130.5781,22.3125 130.5469,22.5 130.4375,22.6563 C130.2656,22.875 130,23.0156 129.7344,23.0156 C129.5156,23.0156 129.2813,22.9063 129.1406,22.7656 C129,22.6406 128.9688,22.5156 128.9063,22.1094 C128.8125,21.7031 128.6406,21.4844 128.1563,21.2031 C127.6875,20.9531 127.0781,20.7969 126.5,20.7969 C124.7656,20.7969 123.5156,22.1094 123.5156,23.8906 L123.5156,24.9844 C123.5156,26.6875 124.8125,27.7813 126.8594,27.7813 C127.625,27.7813 128.3125,27.6563 128.7344,27.3906 C128.9219,27.2969 128.9219,27.2969 129.375,26.8125 C129.5625,26.625 129.7656,26.5469 129.9844,26.5469 C130.4531,26.5469 130.8438,26.9375 130.8438,27.3906 C130.8438,27.7813 130.5156,28.2344 129.9375,28.6406 C129.1875,29.1875 128.0313,29.4844 126.8125,29.4844 C123.9219,29.4844 121.8125,27.5938 121.8125,25.0156 L121.8125,23.8906 C121.8125,21.1719 123.8125,19.0938 126.4375,19.0938 C127.3125,19.0938 127.9063,19.2344 128.8438,19.6719 Z "/><text fill="#000000" font-family="sans-serif" font-size="12" lengthAdjust="spacingAndGlyphs" textLength="27" x="140.5" y="28.1543">WAR</text><!--class EAR--><rect fill="#FEFECE" filter="url(#ffw7sphlnidzs)" height="32" id="EAR" style="stroke: #A80036; stroke-width: 1.5;" width="56" x="20" y="8"/><ellipse cx="35" cy="24" fill="#ADD1B2" rx="11" ry="11" style="stroke: #A80036; stroke-width: 1.0;"/><path d="M37.3438,19.6719 L37.5156,19.75 C37.7344,19.4375 37.9375,19.3438 38.2344,19.3438 C38.5313,19.3438 38.8125,19.4844 38.9688,19.75 C39.0625,19.9063 39.0781,20.0313 39.0781,20.4688 L39.0781,21.8906 C39.0781,22.3125 39.0469,22.5 38.9375,22.6563 C38.7656,22.875 38.5,23.0156 38.2344,23.0156 C38.0156,23.0156 37.7813,22.9063 37.6406,22.7656 C37.5,22.6406 37.4688,22.5156 37.4063,22.1094 C37.3125,21.7031 37.1406,21.4844 36.6563,21.2031 C36.1875,20.9531 35.5781,20.7969 35,20.7969 C33.2656,20.7969 32.0156,22.1094 32.0156,23.8906 L32.0156,24.9844 C32.0156,26.6875 33.3125,27.7813 35.3594,27.7813 C36.125,27.7813 36.8125,27.6563 37.2344,27.3906 C37.4219,27.2969 37.4219,27.2969 37.875,26.8125 C38.0625,26.625 38.2656,26.5469 38.4844,26.5469 C38.9531,26.5469 39.3438,26.9375 39.3438,27.3906 C39.3438,27.7813 39.0156,28.2344 38.4375,28.6406 C37.6875,29.1875 36.5313,29.4844 35.3125,29.4844 C32.4219,29.4844 30.3125,27.5938 30.3125,25.0156 L30.3125,23.8906 C30.3125,21.1719 32.3125,19.0938 34.9375,19.0938 C35.8125,19.0938 36.4063,19.2344 37.3438,19.6719 Z "/><text fill="#000000" font-family="sans-serif" font-size="12" lengthAdjust="spacingAndGlyphs" textLength="24" x="49" y="28.1543">EAR</text><!--class Class--><rect fill="#FEFECE" filter="url(#ffw7sphlnidzs)" height="32" id="Class" style="stroke: #A80036; stroke-width: 1.5;" width="65" x="108.5" y="192"/><ellipse cx="123.5" cy="208" fill="#ADD1B2" rx="11" ry="11" style="stroke: #A80036; stroke-width: 1.0;"/><path d="M125.8438,203.6719 L126.0156,203.75 C126.2344,203.4375 126.4375,203.3438 126.7344,203.3438 C127.0313,203.3438 127.3125,203.4844 127.4688,203.75 C127.5625,203.9063 127.5781,204.0313 127.5781,204.4688 L127.5781,205.8906 C127.5781,206.3125 127.5469,206.5 127.4375,206.6563 C127.2656,206.875 127,207.0156 126.7344,207.0156 C126.5156,207.0156 126.2813,206.9063 126.1406,206.7656 C126,206.6406 125.9688,206.5156 125.9063,206.1094 C125.8125,205.7031 125.6406,205.4844 125.1563,205.2031 C124.6875,204.9531 124.0781,204.7969 123.5,204.7969 C121.7656,204.7969 120.5156,206.1094 120.5156,207.8906 L120.5156,208.9844 C120.5156,210.6875 121.8125,211.7813 123.8594,211.7813 C124.625,211.7813 125.3125,211.6563 125.7344,211.3906 C125.9219,211.2969 125.9219,211.2969 126.375,210.8125 C126.5625,210.625 126.7656,210.5469 126.9844,210.5469 C127.4531,210.5469 127.8438,210.9375 127.8438,211.3906 C127.8438,211.7813 127.5156,212.2344 126.9375,212.6406 C126.1875,213.1875 125.0313,213.4844 123.8125,213.4844 C120.9219,213.4844 118.8125,211.5938 118.8125,209.0156 L118.8125,207.8906 C118.8125,205.1719 120.8125,203.0938 123.4375,203.0938 C124.3125,203.0938 124.9063,203.2344 125.8438,203.6719 Z "/><text fill="#000000" font-family="sans-serif" font-size="12" lengthAdjust="spacingAndGlyphs" textLength="33" x="137.5" y="212.1543">Class</text><!--link JAR to Class--><path d="M141,132.2673 C141,147.2264 141,170.1201 141,186.6261 " fill="none" id="JAR-Class" style="stroke: #A80036; stroke-width: 1.0; stroke-dasharray: 7.0,7.0;"/><polygon fill="#A80036" points="141,191.9582,145,182.9582,141,186.9582,137,182.9582,141,191.9582" style="stroke: #A80036; stroke-width: 1.0;"/><text fill="#000000" font-family="sans-serif" font-size="13" lengthAdjust="spacingAndGlyphs" textLength="7" x="132.7969" y="180.9554">*</text><!--link EJB to Class--><path d="M59.6244,132.2673 C76.4798,147.7467 102.5865,171.7223 120.665,188.3247 " fill="none" id="EJB-Class" style="stroke: #A80036; stroke-width: 1.0; stroke-dasharray: 7.0,7.0;"/><polygon fill="#A80036" points="124.621,191.9582,120.697,182.9248,120.938,188.5765,115.2863,188.8176,124.621,191.9582" style="stroke: #A80036; stroke-width: 1.0;"/><text fill="#000000" font-family="sans-serif" font-size="13" lengthAdjust="spacingAndGlyphs" textLength="7" x="110.7876" y="180.9554">*</text><!--link WAR to JAR--><path d="M141,40.267 C141,55.226 141,78.12 141,94.626 " fill="none" id="WAR-JAR" style="stroke: #A80036; stroke-width: 1.0; stroke-dasharray: 7.0,7.0;"/><polygon fill="#A80036" points="141,99.958,145,90.958,141,94.958,137,90.958,141,99.958" style="stroke: #A80036; stroke-width: 1.0;"/><text fill="#000000" font-family="sans-serif" font-size="13" lengthAdjust="spacingAndGlyphs" textLength="7" x="132.7969" y="88.9552">*</text><!--link WAR to EJB--><path d="M124.376,40.267 C107.52,55.747 81.4135,79.722 63.3354,96.325 " fill="none" id="WAR-EJB" style="stroke: #A80036; stroke-width: 1.0; stroke-dasharray: 7.0,7.0;"/><polygon fill="#A80036" points="59.3788,99.958,68.7133,96.8168,63.0616,96.5761,63.3022,90.9244,59.3788,99.958" style="stroke: #A80036; stroke-width: 1.0;"/><text fill="#000000" font-family="sans-serif" font-size="13" lengthAdjust="spacingAndGlyphs" textLength="7" x="56.8059" y="88.9552">*</text><!--link WAR to Class--><path d="M153.898,40.189 C169.612,60.575 193.017,98.145 184,132 C178.539,152.5043 165.996,173.235 155.858,187.6886 " fill="none" id="WAR-Class" style="stroke: #A80036; stroke-width: 1.0; stroke-dasharray: 7.0,7.0;"/><polygon fill="#A80036" points="152.799,191.9655,161.2878,186.9714,155.7074,187.8984,154.7804,182.318,152.799,191.9655" style="stroke: #A80036; stroke-width: 1.0;"/><text fill="#000000" font-family="sans-serif" font-size="13" lengthAdjust="spacingAndGlyphs" textLength="7" x="148.6518" y="180.9652">*</text><!--link EAR to WAR--><path d="M76.3359,24 C86.3022,24 96.2685,24 106.235,24 " fill="none" id="EAR-WAR" style="stroke: #A80036; stroke-width: 1.0; stroke-dasharray: 7.0,7.0;"/><polygon fill="#A80036" points="111.447,24,102.447,20,106.447,24,102.447,28,111.447,24" style="stroke: #A80036; stroke-width: 1.0;"/><text fill="#000000" font-family="sans-serif" font-size="13" lengthAdjust="spacingAndGlyphs" textLength="7" x="96.3897" y="19.255">*</text><!--link EAR to JAR--><path d="M63.7762,40.267 C79.7716,55.747 104.5463,79.722 121.702,96.325 " fill="none" id="EAR-JAR" style="stroke: #A80036; stroke-width: 1.0; stroke-dasharray: 7.0,7.0;"/><polygon fill="#A80036" points="125.457,99.958,121.7697,90.8254,121.8634,96.4815,116.2073,96.5752,125.457,99.958" style="stroke: #A80036; stroke-width: 1.0;"/><text fill="#000000" font-family="sans-serif" font-size="13" lengthAdjust="spacingAndGlyphs" textLength="7" x="111.911" y="88.9552">*</text><!--link EAR to EJB--><path d="M47.1518,40.267 C46.3208,55.226 45.0489,78.12 44.1319,94.626 " fill="none" id="EAR-EJB" style="stroke: #A80036; stroke-width: 1.0; stroke-dasharray: 7.0,7.0;"/><polygon fill="#A80036" points="43.8357,99.958,48.3284,91.1936,44.1128,94.9657,40.3407,90.7501,43.8357,99.958" style="stroke: #A80036; stroke-width: 1.0;"/><text fill="#000000" font-family="sans-serif" font-size="13" lengthAdjust="spacingAndGlyphs" textLength="7" x="35.9198" y="88.9552">*</text><!--
@startuml
class "EJB JAR" as EJB
class JAR
class WAR
class EAR
class Class
JAR ..> "*" Class
EJB ..> "*" Class
WAR ..> "*" JAR
WAR ..> "*" EJB
WAR ..> "*" Class
EAR .right.> "*" WAR
EAR ..> "*" JAR
EAR ..> "*" EJB
hide empty members
@enduml

PlantUML version 1.2017.16beta1(Unknown compile time)
(GPL source distribution)
Java Runtime: Java(TM) SE Runtime Environment
JVM: Java HotSpot(TM) 64-Bit Server VM
Java Version: 1.7.0_25-b15
Operating System: Linux
Default Encoding: UTF-8
Language: en
Country: US
--></g></svg>