<?xml version="1.0" encoding="UTF-8" standalone="no"?><svg xmlns="http://www.w3.org/2000/svg" xmlns:xlink="http://www.w3.org/1999/xlink" contentScriptType="application/ecmascript" contentStyleType="text/css" preserveAspectRatio="none" version="1.1" viewBox="0 0 411 247" zoomAndPan="magnify"><defs><filter height="300%" id="fvxq1zjgm23bm" width="300%" x="-1" y="-1"><feGaussianBlur result="blurOut" stdDeviation="2.0"/><feColorMatrix in="blurOut" result="blurOut2" type="matrix" values="0 0 0 0 0 0 0 0 0 0 0 0 0 0 0 0 0 0 .4 0"/><feOffset dx="4.0" dy="4.0" in="blurOut2" result="blurOut3"/><feBlend in="SourceGraphic" in2="blurOut3" mode="normal"/></filter></defs><g><!--entity back--><rect fill="#FEFECE" filter="url(#fvxq1zjgm23bm)" height="36.2969" style="stroke: #A80036; stroke-width: 1.5;" width="64" x="192" y="200"/><rect fill="#FEFECE" height="5" style="stroke: #A80036; stroke-width: 1.5;" width="10" x="187" y="205"/><rect fill="#FEFECE" height="5" style="stroke: #A80036; stroke-width: 1.5;" width="10" x="187" y="226.2969"/><text fill="#000000" font-family="sans-serif" font-size="14" lengthAdjust="spacingAndGlyphs" textLength="44" x="202" y="222.9951">Server</text><!--entity js--><rect fill="#FEFECE" filter="url(#fvxq1zjgm23bm)" height="36.2969" style="stroke: #A80036; stroke-width: 1.5;" width="126" x="6" y="8"/><rect fill="#FEFECE" height="5" style="stroke: #A80036; stroke-width: 1.5;" width="10" x="1" y="13"/><rect fill="#FEFECE" height="5" style="stroke: #A80036; stroke-width: 1.5;" width="10" x="1" y="34.2969"/><text fill="#000000" font-family="sans-serif" font-size="14" lengthAdjust="spacingAndGlyphs" textLength="106" x="16" y="30.9951">JavaScript client</text><!--entity android--><rect fill="#FEFECE" filter="url(#fvxq1zjgm23bm)" height="36.2969" style="stroke: #A80036; stroke-width: 1.5;" width="114" x="167" y="8"/><rect fill="#FEFECE" height="5" style="stroke: #A80036; stroke-width: 1.5;" width="10" x="162" y="13"/><rect fill="#FEFECE" height="5" style="stroke: #A80036; stroke-width: 1.5;" width="10" x="162" y="34.2969"/><text fill="#000000" font-family="sans-serif" font-size="14" lengthAdjust="spacingAndGlyphs" textLength="94" x="177" y="30.9951">Android client</text><!--entity ios--><rect fill="#FEFECE" filter="url(#fvxq1zjgm23bm)" height="36.2969" style="stroke: #A80036; stroke-width: 1.5;" width="84" x="316" y="8"/><rect fill="#FEFECE" height="5" style="stroke: #A80036; stroke-width: 1.5;" width="10" x="311" y="13"/><rect fill="#FEFECE" height="5" style="stroke: #A80036; stroke-width: 1.5;" width="10" x="311" y="34.2969"/><text fill="#000000" font-family="sans-serif" font-size="14" lengthAdjust="spacingAndGlyphs" textLength="64" x="326" y="30.9951">iOS client</text><!--entity microservice--><rect fill="#FEFECE" filter="url(#fvxq1zjgm23bm)" height="36.2969" style="stroke: #A80036; stroke-width: 1.5;" width="106" x="286" y="104"/><rect fill="#FEFECE" height="5" style="stroke: #A80036; stroke-width: 1.5;" width="10" x="281" y="109"/><rect fill="#FEFECE" height="5" style="stroke: #A80036; stroke-width: 1.5;" width="10" x="281" y="130.2969"/><text fill="#000000" font-family="sans-serif" font-size="14" lengthAdjust="spacingAndGlyphs" textLength="86" x="296" y="126.9951">Microservice</text><!--entity browser--><rect fill="#FEFECE" filter="url(#fvxq1zjgm23bm)" height="36.2969" style="stroke: #A80036; stroke-width: 1.5;" width="77" x="84.5" y="104"/><rect fill="#FEFECE" height="5" style="stroke: #A80036; stroke-width: 1.5;" width="10" x="79.5" y="109"/><rect fill="#FEFECE" height="5" style="stroke: #A80036; stroke-width: 1.5;" width="10" x="79.5" y="130.2969"/><text fill="#000000" font-family="sans-serif" font-size="14" lengthAdjust="spacingAndGlyphs" textLength="57" x="94.5" y="126.9951">Browser</text><!--entity i--><ellipse cx="224" cy="122" fill="#FEFECE" filter="url(#fvxq1zjgm23bm)" rx="8" ry="8" style="stroke: #A80036; stroke-width: 2.0;"/><!--link i to back--><path d="M224,131.014 C224,146.1985 224,179.4629 224,199.8785 " fill="none" id="i-back" style="stroke: #A80036; stroke-width: 1.0;"/><!--link js to i--><path d="M97.0693,44.023 C130.578,64.344 185.245,97.497 210.467,112.793 " fill="none" id="js-i" style="stroke: #A80036; stroke-width: 1.0; stroke-dasharray: 7.0,7.0;"/><polygon fill="#A80036" points="214.822,115.434,209.2005,107.347,210.5467,112.8414,205.0523,114.1875,214.822,115.434" style="stroke: #A80036; stroke-width: 1.0;"/><!--link android to i--><path d="M224,44.241 C224,62.527 224,91.022 224,107.665 " fill="none" id="android-i" style="stroke: #A80036; stroke-width: 1.0; stroke-dasharray: 7.0,7.0;"/><polygon fill="#A80036" points="224,112.823,228,103.823,224,107.823,220,103.823,224,112.823" style="stroke: #A80036; stroke-width: 1.0;"/><!--link ios to i--><path d="M333.734,44.023 C305.451,63.863 259.732,95.934 237.291,111.677 " fill="none" id="ios-i" style="stroke: #A80036; stroke-width: 1.0; stroke-dasharray: 7.0,7.0;"/><polygon fill="#A80036" points="233.125,114.599,242.7899,112.7046,237.2181,111.7274,238.1953,106.1556,233.125,114.599" style="stroke: #A80036; stroke-width: 1.0;"/><!--link i to microservice--><path d="M233.127,122 C244.361,122 265.57,122 285.991,122 " fill="none" id="i-microservice" style="stroke: #A80036; stroke-width: 1.0; stroke-dasharray: 7.0,7.0;"/><polygon fill="#A80036" points="233.127,122,242.127,126,238.127,122,242.127,118,233.127,122" style="stroke: #A80036; stroke-width: 1.0;"/><!--link browser to i--><path d="M161.71,122 C181.163,122 203.195,122 214.816,122 " fill="none" id="browser-i" style="stroke: #A80036; stroke-width: 1.0; stroke-dasharray: 7.0,7.0;"/><polygon fill="#A80036" points="214.816,122,205.816,118,209.816,122,205.816,126,214.816,122" style="stroke: #A80036; stroke-width: 1.0;"/><!--
@startuml
skinparam backgroundColor white
[Server] as back
[JavaScript client] as js
[Android client] as android
[iOS client] as ios
[Microservice] as microservice
[Browser] as browser
() " " as i
back -up- i
js ..> i
android ..> i
ios ..> i
microservice .left.> i
browser .right.> i
@enduml

PlantUML version 1.2017.16beta1(Unknown compile time)
(GPL source distribution)
Java Runtime: Java(TM) SE Runtime Environment
JVM: Java HotSpot(TM) 64-Bit Server VM
Java Version: 1.7.0_25-b15
Operating System: Linux
Default Encoding: UTF-8
Language: en
Country: US
--></g></svg>