<?xml version="1.0" encoding="UTF-8" standalone="no"?><svg xmlns="http://www.w3.org/2000/svg" xmlns:xlink="http://www.w3.org/1999/xlink" contentScriptType="application/ecmascript" contentStyleType="text/css" preserveAspectRatio="none" version="1.1" viewBox="0 0 361 275" zoomAndPan="magnify"><defs><filter height="300%" id="f54f5oar66pqz" width="300%" x="-1" y="-1"><feGaussianBlur result="blurOut" stdDeviation="2.0"/><feColorMatrix in="blurOut" result="blurOut2" type="matrix" values="0 0 0 0 0 0 0 0 0 0 0 0 0 0 0 0 0 0 .4 0"/><feOffset dx="4.0" dy="4.0" in="blurOut2" result="blurOut3"/><feBlend in="SourceGraphic" in2="blurOut3" mode="normal"/></filter></defs><g><!--cluster WildFly--><polygon fill="#FFFFFF" filter="url(#f54f5oar66pqz)" points="22,34,32,24,339,24,339,253,329,263,22,263,22,34" style="stroke: #000000; stroke-width: 2.0;"/><line style="stroke: #000000; stroke-width: 2.0;" x1="329" x2="338" y1="34" y2="25"/><line style="stroke: #000000; stroke-width: 2.0;" x1="22" x2="329" y1="34" y2="34"/><line style="stroke: #000000; stroke-width: 2.0;" x1="329" x2="329" y1="34" y2="263"/><text fill="#000000" font-family="sans-serif" font-size="14" font-weight="bold" lengthAdjust="spacingAndGlyphs" textLength="55" x="149" y="49.9951">WildFly</text><!--entity javaee--><rect fill="#FEFECE" filter="url(#f54f5oar66pqz)" height="52.5938" style="stroke: #A80036; stroke-width: 1.5;" width="127" x="173.5" y="64"/><rect fill="#FEFECE" height="5" style="stroke: #A80036; stroke-width: 1.5;" width="10" x="168.5" y="69"/><rect fill="#FEFECE" height="5" style="stroke: #A80036; stroke-width: 1.5;" width="10" x="168.5" y="106.5938"/><text fill="#000000" font-family="sans-serif" font-size="14" font-style="italic" lengthAdjust="spacingAndGlyphs" textLength="107" x="183.5" y="86.9951">«CDI, JPA, etc.»</text><text fill="#000000" font-family="sans-serif" font-size="14" lengthAdjust="spacingAndGlyphs" textLength="89" x="192.5" y="103.292">javaee-api.jar</text><!--entity weld--><rect fill="#FEFECE" filter="url(#f54f5oar66pqz)" height="52.5938" style="stroke: #A80036; stroke-width: 1.5;" width="108" x="38" y="194"/><rect fill="#FEFECE" height="5" style="stroke: #A80036; stroke-width: 1.5;" width="10" x="33" y="199"/><rect fill="#FEFECE" height="5" style="stroke: #A80036; stroke-width: 1.5;" width="10" x="33" y="236.5938"/><text fill="#000000" font-family="sans-serif" font-size="14" font-style="italic" lengthAdjust="spacingAndGlyphs" textLength="43" x="70.5" y="216.9951">«CDI»</text><text fill="#000000" font-family="sans-serif" font-size="14" lengthAdjust="spacingAndGlyphs" textLength="88" x="48" y="233.292">weld-core.jar</text><!--entity hibernate--><rect fill="#FEFECE" filter="url(#f54f5oar66pqz)" height="52.5938" style="stroke: #A80036; stroke-width: 1.5;" width="142" x="181" y="194"/><rect fill="#FEFECE" height="5" style="stroke: #A80036; stroke-width: 1.5;" width="10" x="176" y="199"/><rect fill="#FEFECE" height="5" style="stroke: #A80036; stroke-width: 1.5;" width="10" x="176" y="236.5938"/><text fill="#000000" font-family="sans-serif" font-size="14" font-style="italic" lengthAdjust="spacingAndGlyphs" textLength="40" x="232" y="216.9951">«JPA»</text><text fill="#000000" font-family="sans-serif" font-size="14" lengthAdjust="spacingAndGlyphs" textLength="122" x="191" y="233.292">hibernate-core.jar</text><!--entity jsoup.jar--><rect fill="#FEFECE" filter="url(#f54f5oar66pqz)" height="36.2969" style="stroke: #A80036; stroke-width: 1.5;" width="78" x="53" y="72.5"/><rect fill="#FEFECE" height="5" style="stroke: #A80036; stroke-width: 1.5;" width="10" x="48" y="77.5"/><rect fill="#FEFECE" height="5" style="stroke: #A80036; stroke-width: 1.5;" width="10" x="48" y="98.7969"/><text fill="#000000" font-family="sans-serif" font-size="14" lengthAdjust="spacingAndGlyphs" textLength="58" x="63" y="95.4951">jsoup.jar</text><!--link javaee to weld--><path d="M191.858,120.092 C180.096,128.264 167.722,137.535 157,147 C140.778,161.32 124.528,179.4449 112.334,193.9899 " fill="none" id="javaee-weld" style="stroke: #A80036; stroke-width: 1.0; stroke-dasharray: 7.0,7.0;"/><polygon fill="#A80036" points="196.159,117.133,186.477,118.9384,192.0396,119.9669,191.0112,125.5294,196.159,117.133" style="stroke: #A80036; stroke-width: 1.0;"/><text fill="#000000" font-family="sans-serif" font-size="13" lengthAdjust="spacingAndGlyphs" textLength="76" x="158" y="160.0669">implements</text><!--link javaee to hibernate--><path d="M240.6,122.221 C243.17,144.148 246.585,173.294 249.006,193.9493 " fill="none" id="javaee-hibernate" style="stroke: #A80036; stroke-width: 1.0; stroke-dasharray: 7.0,7.0;"/><polygon fill="#A80036" points="239.999,117.095,237.0751,126.4998,240.5817,122.0609,245.0206,125.5675,239.999,117.095" style="stroke: #A80036; stroke-width: 1.0;"/><text fill="#000000" font-family="sans-serif" font-size="13" lengthAdjust="spacingAndGlyphs" textLength="76" x="246" y="160.0669">implements</text><!--
@startuml
node "WildFly" {
 component [javaee-api.jar] << CDI, JPA, etc. >> as javaee
 component [weld-core.jar] << CDI >> as weld
 component [hibernate-core.jar] << JPA >> as hibernate
 component [jsoup.jar]
 weld .up.> javaee : implements
 hibernate .up.> javaee : implements
}
@enduml

PlantUML version 1.2017.16beta1(Unknown compile time)
(GPL source distribution)
Java Runtime: Java(TM) SE Runtime Environment
JVM: Java HotSpot(TM) 64-Bit Server VM
Java Version: 1.7.0_25-b15
Operating System: Linux
Default Encoding: UTF-8
Language: en
Country: US
--></g></svg>