<?xml version="1.0" encoding="UTF-8" standalone="no"?><svg xmlns="http://www.w3.org/2000/svg" xmlns:xlink="http://www.w3.org/1999/xlink" contentScriptType="application/ecmascript" contentStyleType="text/css" preserveAspectRatio="true" version="1.1" viewBox="0 0 500 278" zoomAndPan="magnify"><defs><filter height="300%" id="f12b8po7gu1bkp" width="300%" x="-1" y="-1"><feGaussianBlur result="blurOut" stdDeviation="2.0"/><feColorMatrix in="blurOut" result="blurOut2" type="matrix" values="0 0 0 0 0 0 0 0 0 0 0 0 0 0 0 0 0 0 .4 0"/><feOffset dx="4.0" dy="4.0" in="blurOut2" result="blurOut3"/><feBlend in="SourceGraphic" in2="blurOut3" mode="normal"/></filter></defs><g><!--cluster javax.servlet--><polygon fill="#FFFFFF" filter="url(#f12b8po7gu1bkp)" points="22,24,128,24,135,46.2969,478,46.2969,478,266,22,266,22,24" style="stroke: #000000; stroke-width: 2.0;"/><line style="stroke: #000000; stroke-width: 2.0;" x1="22" x2="135" y1="46.2969" y2="46.2969"/><text fill="#000000" font-family="sans-serif" font-size="14" font-weight="bold" lengthAdjust="spacingAndGlyphs" textLength="100" x="26" y="38.9951">javax.servlet</text><!--class Filter--><rect fill="#FEFECE" filter="url(#f12b8po7gu1bkp)" height="78.4141" id="Filter" style="stroke: #A80036; stroke-width: 1.5;" width="424" x="38" y="59"/><ellipse cx="230.25" cy="75" fill="#B4A7E5" rx="11" ry="11" style="stroke: #A80036; stroke-width: 1.0;"/><path d="M231.2031,71.7813 L231.2031,78.2969 L232.9219,78.2969 C233.375,78.2969 233.5156,78.3281 233.6875,78.4531 C233.9219,78.625 234.0313,78.875 234.0313,79.1563 C234.0313,79.7188 233.6719,80 232.9219,80 L227.7813,80 C227.375,80 227.1719,79.9531 227.0156,79.8281 C226.7969,79.6719 226.6563,79.4063 226.6563,79.1563 C226.6563,78.8594 226.8125,78.5781 227.0625,78.4219 C227.2188,78.3125 227.3438,78.2969 227.7813,78.2969 L229.5,78.2969 L229.5,71.7813 L227.7813,71.7813 C227.3594,71.7813 227.1719,71.75 227.0156,71.6406 C226.7969,71.4688 226.6563,71.2188 226.6563,70.9375 C226.6563,70.6563 226.8125,70.3594 227.0625,70.2031 C227.2188,70.1094 227.3438,70.0938 227.7813,70.0938 L232.9219,70.0938 C233.375,70.0938 233.5156,70.125 233.6875,70.2344 C233.9219,70.4063 234.0313,70.6719 234.0313,70.9375 C234.0313,71.2344 233.8906,71.5156 233.625,71.6719 C233.5,71.75 233.3125,71.7813 232.9219,71.7813 Z "/><text fill="#000000" font-family="sans-serif" font-size="12" font-style="italic" lengthAdjust="spacingAndGlyphs" textLength="31" x="250.75" y="79.1543">Filter</text><line style="stroke: #A80036; stroke-width: 1.5;" x1="39" x2="461" y1="91" y2="91"/><ellipse cx="49" cy="102.9023" fill="#84BE84" rx="3" ry="3" style="stroke: #038048; stroke-width: 1.0;"/><text fill="#000000" font-family="sans-serif" font-size="11" font-style="italic" lengthAdjust="spacingAndGlyphs" textLength="131" x="58" y="105.2104">init(config: FilterConfig)</text><ellipse cx="49" cy="115.707" fill="#84BE84" rx="3" ry="3" style="stroke: #038048; stroke-width: 1.0;"/><text fill="#000000" font-family="sans-serif" font-size="11" font-style="italic" lengthAdjust="spacingAndGlyphs" textLength="398" x="58" y="118.0151">doFilter(req: ServletRequest, res: ServletResponse, chain: FilterChain)</text><ellipse cx="49" cy="128.5117" fill="#84BE84" rx="3" ry="3" style="stroke: #038048; stroke-width: 1.0;"/><text fill="#000000" font-family="sans-serif" font-size="11" font-style="italic" lengthAdjust="spacingAndGlyphs" textLength="51" x="58" y="130.8198">destroy()</text><!--class FilterChain--><rect fill="#FEFECE" filter="url(#f12b8po7gu1bkp)" height="52.8047" id="FilterChain" style="stroke: #A80036; stroke-width: 1.5;" width="318" x="91" y="197"/><ellipse cx="212.75" cy="213" fill="#B4A7E5" rx="11" ry="11" style="stroke: #A80036; stroke-width: 1.0;"/><path d="M213.7031,209.7813 L213.7031,216.2969 L215.4219,216.2969 C215.875,216.2969 216.0156,216.3281 216.1875,216.4531 C216.4219,216.625 216.5313,216.875 216.5313,217.1563 C216.5313,217.7188 216.1719,218 215.4219,218 L210.2813,218 C209.875,218 209.6719,217.9531 209.5156,217.8281 C209.2969,217.6719 209.1563,217.4063 209.1563,217.1563 C209.1563,216.8594 209.3125,216.5781 209.5625,216.4219 C209.7188,216.3125 209.8438,216.2969 210.2813,216.2969 L212,216.2969 L212,209.7813 L210.2813,209.7813 C209.8594,209.7813 209.6719,209.75 209.5156,209.6406 C209.2969,209.4688 209.1563,209.2188 209.1563,208.9375 C209.1563,208.6563 209.3125,208.3594 209.5625,208.2031 C209.7188,208.1094 209.8438,208.0938 210.2813,208.0938 L215.4219,208.0938 C215.875,208.0938 216.0156,208.125 216.1875,208.2344 C216.4219,208.4063 216.5313,208.6719 216.5313,208.9375 C216.5313,209.2344 216.3906,209.5156 216.125,209.6719 C216,209.75 215.8125,209.7813 215.4219,209.7813 Z "/><text fill="#000000" font-family="sans-serif" font-size="12" font-style="italic" lengthAdjust="spacingAndGlyphs" textLength="66" x="233.25" y="217.1543">FilterChain</text><line style="stroke: #A80036; stroke-width: 1.5;" x1="92" x2="408" y1="229" y2="229"/><ellipse cx="102" cy="240.9023" fill="#84BE84" rx="3" ry="3" style="stroke: #038048; stroke-width: 1.0;"/><text fill="#000000" font-family="sans-serif" font-size="11" font-style="italic" lengthAdjust="spacingAndGlyphs" textLength="292" x="111" y="243.2104">doFilter(req: ServletRequest, res: ServletResponse)</text><!--link Filter to FilterChain--><path d="M250,137.062 C250,154.661 250,175.285 250,191.8609 " fill="none" id="Filter-FilterChain" style="stroke: #A80036; stroke-width: 1.0; stroke-dasharray: 7.0,7.0;"/><polygon fill="#A80036" points="250,196.8674,254,187.8674,250,191.8674,246,187.8674,250,196.8674" style="stroke: #A80036; stroke-width: 1.0;"/><!--
@startuml
package "javax.servlet" {
 interface Filter {
  {abstract} + init(config: FilterConfig)
  {abstract} + doFilter(req: ServletRequest, res: ServletResponse, chain: FilterChain)
  {abstract} + destroy()
 }
 interface FilterChain {
  {abstract} + doFilter(req: ServletRequest, res: ServletResponse)
 }
 Filter .down.> FilterChain
}
hide empty attributes
hide empty methods
@enduml

PlantUML version 1.2017.16beta5(Unknown compile time)
(GPL source distribution)
Java Runtime: Java(TM) SE Runtime Environment
JVM: Java HotSpot(TM) 64-Bit Server VM
Java Version: 1.7.0_25-b15
Operating System: Linux
Default Encoding: UTF-8
Language: en
Country: US
--></g></svg>