<?xml version="1.0" encoding="UTF-8" standalone="no"?><svg xmlns="http://www.w3.org/2000/svg" xmlns:xlink="http://www.w3.org/1999/xlink" contentScriptType="application/ecmascript" contentStyleType="text/css" preserveAspectRatio="true" version="1.1" viewBox="0 0 362 300" zoomAndPan="magnify"><defs><filter height="300%" id="f1doq514hvuat" width="300%" x="-1" y="-1"><feGaussianBlur result="blurOut" stdDeviation="2.0"/><feColorMatrix in="blurOut" result="blurOut2" type="matrix" values="0 0 0 0 0 0 0 0 0 0 0 0 0 0 0 0 0 0 .4 0"/><feOffset dx="4.0" dy="4.0" in="blurOut2" result="blurOut3"/><feBlend in="SourceGraphic" in2="blurOut3" mode="normal"/></filter></defs><g><!--class Locale--><rect fill="#FEFECE" filter="url(#f1doq514hvuat)" height="281.6797" id="Locale" style="stroke: #A80036; stroke-width: 1.5;" width="345" x="6" y="8"/><ellipse cx="154.25" cy="24" fill="#ADD1B2" rx="11" ry="11" style="stroke: #A80036; stroke-width: 1.0;"/><path d="M156.5938,19.6719 L156.7656,19.75 C156.9844,19.4375 157.1875,19.3438 157.4844,19.3438 C157.7813,19.3438 158.0625,19.4844 158.2188,19.75 C158.3125,19.9063 158.3281,20.0313 158.3281,20.4688 L158.3281,21.8906 C158.3281,22.3125 158.2969,22.5 158.1875,22.6563 C158.0156,22.875 157.75,23.0156 157.4844,23.0156 C157.2656,23.0156 157.0313,22.9063 156.8906,22.7656 C156.75,22.6406 156.7188,22.5156 156.6563,22.1094 C156.5625,21.7031 156.3906,21.4844 155.9063,21.2031 C155.4375,20.9531 154.8281,20.7969 154.25,20.7969 C152.5156,20.7969 151.2656,22.1094 151.2656,23.8906 L151.2656,24.9844 C151.2656,26.6875 152.5625,27.7813 154.6094,27.7813 C155.375,27.7813 156.0625,27.6563 156.4844,27.3906 C156.6719,27.2969 156.6719,27.2969 157.125,26.8125 C157.3125,26.625 157.5156,26.5469 157.7344,26.5469 C158.2031,26.5469 158.5938,26.9375 158.5938,27.3906 C158.5938,27.7813 158.2656,28.2344 157.6875,28.6406 C156.9375,29.1875 155.7813,29.4844 154.5625,29.4844 C151.6719,29.4844 149.5625,27.5938 149.5625,25.0156 L149.5625,23.8906 C149.5625,21.1719 151.5625,19.0938 154.1875,19.0938 C155.0625,19.0938 155.6563,19.2344 156.5938,19.6719 Z "/><text fill="#000000" font-family="sans-serif" font-size="12" lengthAdjust="spacingAndGlyphs" textLength="40" x="174.75" y="28.1543">Locale</text><line style="stroke: #A80036; stroke-width: 1.5;" x1="7" x2="350" y1="40" y2="40"/><ellipse cx="17" cy="51.9023" fill="none" rx="3" ry="3" style="stroke: #038048; stroke-width: 1.0;"/><text fill="#000000" font-family="sans-serif" font-size="11" lengthAdjust="spacingAndGlyphs" text-decoration="underline" textLength="93" x="26" y="54.2104">ENGLISH: Locale</text><line style="stroke: #000000; stroke-width: 1.0;" x1="26" x2="119" y1="56.2104" y2="56.2104"/><ellipse cx="17" cy="64.707" fill="none" rx="3" ry="3" style="stroke: #038048; stroke-width: 1.0;"/><text fill="#000000" font-family="sans-serif" font-size="11" lengthAdjust="spacingAndGlyphs" text-decoration="underline" textLength="60" x="26" y="67.0151">US: Locale</text><line style="stroke: #000000; stroke-width: 1.0;" x1="26" x2="86" y1="69.0151" y2="69.0151"/><ellipse cx="17" cy="77.5117" fill="none" rx="3" ry="3" style="stroke: #038048; stroke-width: 1.0;"/><text fill="#000000" font-family="sans-serif" font-size="11" lengthAdjust="spacingAndGlyphs" text-decoration="underline" textLength="59" x="26" y="79.8198">UK: Locale</text><line style="stroke: #000000; stroke-width: 1.0;" x1="26" x2="85" y1="81.8198" y2="81.8198"/><text fill="#000000" font-family="sans-serif" font-size="11" lengthAdjust="spacingAndGlyphs" textLength="12" x="26" y="92.6245">...</text><line style="stroke: #A80036; stroke-width: 1.0; stroke-dasharray: 1.0,2.0;" x1="7" x2="350" y1="99.2188" y2="99.2188"/><ellipse cx="17" cy="111.1211" fill="#84BE84" rx="3" ry="3" style="stroke: #038048; stroke-width: 1.0;"/><text fill="#000000" font-family="sans-serif" font-size="11" lengthAdjust="spacingAndGlyphs" text-decoration="underline" textLength="110" x="26" y="113.4292">getDefault(): Locale</text><line style="stroke: #000000; stroke-width: 1.0;" x1="26" x2="136" y1="115.4292" y2="115.4292"/><ellipse cx="17" cy="123.9258" fill="#84BE84" rx="3" ry="3" style="stroke: #038048; stroke-width: 1.0;"/><text fill="#000000" font-family="sans-serif" font-size="11" lengthAdjust="spacingAndGlyphs" text-decoration="underline" textLength="171" x="26" y="126.2339">getAvailableLocales(): Locale[]</text><line style="stroke: #000000; stroke-width: 1.0;" x1="26" x2="197" y1="128.2339" y2="128.2339"/><ellipse cx="17" cy="136.7305" fill="#84BE84" rx="3" ry="3" style="stroke: #038048; stroke-width: 1.0;"/><text fill="#000000" font-family="sans-serif" font-size="11" lengthAdjust="spacingAndGlyphs" text-decoration="underline" textLength="151" x="26" y="139.0386">getISOCountries(): String[]</text><line style="stroke: #000000; stroke-width: 1.0;" x1="26" x2="177" y1="141.0386" y2="141.0386"/><ellipse cx="17" cy="149.5352" fill="#84BE84" rx="3" ry="3" style="stroke: #038048; stroke-width: 1.0;"/><text fill="#000000" font-family="sans-serif" font-size="11" lengthAdjust="spacingAndGlyphs" text-decoration="underline" textLength="158" x="26" y="151.8433">getISOLanguages(): String[]</text><line style="stroke: #000000; stroke-width: 1.0;" x1="26" x2="184" y1="153.8433" y2="153.8433"/><ellipse cx="17" cy="162.3398" fill="#84BE84" rx="3" ry="3" style="stroke: #038048; stroke-width: 1.0;"/><text fill="#000000" font-family="sans-serif" font-size="11" lengthAdjust="spacingAndGlyphs" text-decoration="underline" textLength="169" x="26" y="164.6479">setDefault(newLocale: Locale)</text><line style="stroke: #000000; stroke-width: 1.0;" x1="26" x2="195" y1="166.6479" y2="166.6479"/><line style="stroke: #A80036; stroke-width: 1.0; stroke-dasharray: 1.0,2.0;" x1="7" x2="350" y1="171.2422" y2="171.2422"/><ellipse cx="17" cy="183.1445" fill="#84BE84" rx="3" ry="3" style="stroke: #038048; stroke-width: 1.0;"/><text fill="#000000" font-family="sans-serif" font-size="11" lengthAdjust="spacingAndGlyphs" textLength="138" x="26" y="185.4526">Locale(language: String)</text><ellipse cx="17" cy="195.9492" fill="#84BE84" rx="3" ry="3" style="stroke: #038048; stroke-width: 1.0;"/><text fill="#000000" font-family="sans-serif" font-size="11" lengthAdjust="spacingAndGlyphs" textLength="230" x="26" y="198.2573">Locale(language: String, country: String)</text><ellipse cx="17" cy="208.7539" fill="#84BE84" rx="3" ry="3" style="stroke: #038048; stroke-width: 1.0;"/><text fill="#000000" font-family="sans-serif" font-size="11" lengthAdjust="spacingAndGlyphs" textLength="319" x="26" y="211.062">Locale(language: String, country: String, variant: String)</text><line style="stroke: #A80036; stroke-width: 1.0; stroke-dasharray: 1.0,2.0;" x1="7" x2="350" y1="217.6563" y2="217.6563"/><ellipse cx="17" cy="229.5586" fill="#84BE84" rx="3" ry="3" style="stroke: #038048; stroke-width: 1.0;"/><text fill="#000000" font-family="sans-serif" font-size="11" lengthAdjust="spacingAndGlyphs" textLength="112" x="26" y="231.8667">getCountry(): String</text><ellipse cx="17" cy="242.3633" fill="#84BE84" rx="3" ry="3" style="stroke: #038048; stroke-width: 1.0;"/><text fill="#000000" font-family="sans-serif" font-size="11" lengthAdjust="spacingAndGlyphs" textLength="139" x="26" y="244.6714">getISO3Country(): String</text><ellipse cx="17" cy="255.168" fill="#84BE84" rx="3" ry="3" style="stroke: #038048; stroke-width: 1.0;"/><text fill="#000000" font-family="sans-serif" font-size="11" lengthAdjust="spacingAndGlyphs" textLength="123" x="26" y="257.4761">getLanguage(): String</text><ellipse cx="17" cy="267.9727" fill="#84BE84" rx="3" ry="3" style="stroke: #038048; stroke-width: 1.0;"/><text fill="#000000" font-family="sans-serif" font-size="11" lengthAdjust="spacingAndGlyphs" textLength="150" x="26" y="270.2808">getISO3Language(): String</text><ellipse cx="17" cy="280.7773" fill="#84BE84" rx="3" ry="3" style="stroke: #038048; stroke-width: 1.0;"/><text fill="#000000" font-family="sans-serif" font-size="11" lengthAdjust="spacingAndGlyphs" textLength="108" x="26" y="283.0854">getVariant(): String</text><!--
@startuml
class Locale {
 + {static} ENGLISH: Locale
 + {static} US: Locale
 + {static} UK: Locale
 ...
....
 + {static} getDefault(): Locale
 + {static} getAvailableLocales(): Locale[]
 + {static} getISOCountries(): String[]
 + {static} getISOLanguages(): String[]
 + {static} setDefault(newLocale: Locale)
....
 + Locale(language: String)
 + Locale(language: String, country: String)
 + Locale(language: String, country: String, variant: String)
....
 + getCountry(): String
 + getISO3Country(): String
 + getLanguage(): String
 + getISO3Language(): String
 + getVariant(): String
}
@enduml

PlantUML version 1.2017.18(Fri Oct 06 16:56:32 UTC 2017)
(GPL source distribution)
Java Runtime: Java(TM) SE Runtime Environment
JVM: Java HotSpot(TM) 64-Bit Server VM
Java Version: 1.7.0_25-b15
Operating System: Linux
Default Encoding: UTF-8
Language: en
Country: US
--></g></svg>