<?xml version="1.0" encoding="UTF-8" standalone="no"?><svg xmlns="http://www.w3.org/2000/svg" xmlns:xlink="http://www.w3.org/1999/xlink" contentScriptType="application/ecmascript" contentStyleType="text/css" preserveAspectRatio="true" version="1.1" viewBox="0 0 349 324" zoomAndPan="magnify"><defs><filter height="300%" id="fncmlk48r4e57" width="300%" x="-1" y="-1"><feGaussianBlur result="blurOut" stdDeviation="2.0"/><feColorMatrix in="blurOut" result="blurOut2" type="matrix" values="0 0 0 0 0 0 0 0 0 0 0 0 0 0 0 0 0 0 .4 0"/><feOffset dx="4.0" dy="4.0" in="blurOut2" result="blurOut3"/><feBlend in="SourceGraphic" in2="blurOut3" mode="normal"/></filter></defs><g><rect fill="#FFFFFF" filter="url(#fncmlk48r4e57)" height="207.125" style="stroke: #A80036; stroke-width: 1.0;" width="10" x="32" y="96.2969"/><rect fill="#FFFFFF" filter="url(#fncmlk48r4e57)" height="176.9922" style="stroke: #A80036; stroke-width: 1.0;" width="10" x="125" y="117.2969"/><rect fill="#FFFFFF" filter="url(#fncmlk48r4e57)" height="57.2656" style="stroke: #A80036; stroke-width: 1.0;" width="10" x="215" y="208.0234"/><rect fill="#FFFFFF" filter="url(#fncmlk48r4e57)" height="14.1328" style="stroke: #A80036; stroke-width: 1.0;" width="10" x="298.5" y="237.1563"/><rect fill="#FEFECE" filter="url(#fncmlk48r4e57)" height="46.5938" style="stroke: #A80036; stroke-width: 1.5;" width="74" x="264.5" y="125.4297"/><text fill="#000000" font-family="sans-serif" font-size="14" font-style="italic" lengthAdjust="spacingAndGlyphs" textLength="60" x="271.5" y="146.4297">«Model»</text><text fill="#000000" font-family="sans-serif" font-size="14" lengthAdjust="spacingAndGlyphs" text-decoration="underline" textLength="54" x="274.5" y="162.7266">m:Bean</text><line style="stroke: #000000; stroke-width: 1.0;" x1="274.5" x2="328.5" y1="164.7266" y2="164.7266"/><line style="stroke: #A80036; stroke-width: 1.0; stroke-dasharray: 5.0,5.0;" x1="37" x2="37" y1="86.2969" y2="312.4219"/><line style="stroke: #A80036; stroke-width: 1.0; stroke-dasharray: 5.0,5.0;" x1="129.5" x2="129.5" y1="86.2969" y2="312.4219"/><line style="stroke: #A80036; stroke-width: 1.0; stroke-dasharray: 5.0,5.0;" x1="219.5" x2="219.5" y1="86.2969" y2="312.4219"/><line style="stroke: #A80036; stroke-width: 1.0; stroke-dasharray: 5.0,5.0;" x1="303.5" x2="303.5" y1="166.2266" y2="312.4219"/><text fill="#000000" font-family="sans-serif" font-size="14" lengthAdjust="spacingAndGlyphs" text-decoration="underline" textLength="52" x="8" y="82.9951">c:Client</text><line style="stroke: #000000; stroke-width: 1.0;" x1="8" x2="60" y1="84.9951" y2="84.9951"/><ellipse cx="37" cy="13" fill="#FEFECE" filter="url(#fncmlk48r4e57)" rx="8" ry="8" style="stroke: #A80036; stroke-width: 2.0;"/><path d="M37,21 L37,48 M24,29 L50,29 M37,48 L24,63 M37,48 L50,63 " fill="#FEFECE" filter="url(#fncmlk48r4e57)" style="stroke: #A80036; stroke-width: 2.0;"/><text fill="#000000" font-family="sans-serif" font-size="14" font-style="italic" lengthAdjust="spacingAndGlyphs" textLength="85" x="84.5" y="67.7031">«Controller»</text><text fill="#000000" font-family="sans-serif" font-size="14" lengthAdjust="spacingAndGlyphs" text-decoration="underline" textLength="60" x="97" y="84">c:Servlet</text><line style="stroke: #000000; stroke-width: 1.0;" x1="97" x2="157" y1="86" y2="86"/><ellipse cx="130" cy="37.7031" fill="#FEFECE" filter="url(#fncmlk48r4e57)" rx="12" ry="12" style="stroke: #A80036; stroke-width: 2.0;"/><polygon fill="#A80036" points="126,25.7031,132,20.7031,130,25.7031,132,30.7031,126,25.7031" style="stroke: #A80036; stroke-width: 1.0;"/><rect fill="#FEFECE" filter="url(#fncmlk48r4e57)" height="46.5938" style="stroke: #A80036; stroke-width: 1.5;" width="65" x="185.5" y="34.7031"/><text fill="#000000" font-family="sans-serif" font-size="14" font-style="italic" lengthAdjust="spacingAndGlyphs" textLength="51" x="192.5" y="55.7031">«View»</text><text fill="#000000" font-family="sans-serif" font-size="14" lengthAdjust="spacingAndGlyphs" text-decoration="underline" textLength="33" x="201.5" y="72">v:JSP</text><line style="stroke: #000000; stroke-width: 1.0;" x1="201.5" x2="234.5" y1="74" y2="74"/><rect fill="#FFFFFF" filter="url(#fncmlk48r4e57)" height="207.125" style="stroke: #A80036; stroke-width: 1.0;" width="10" x="32" y="96.2969"/><rect fill="#FFFFFF" filter="url(#fncmlk48r4e57)" height="176.9922" style="stroke: #A80036; stroke-width: 1.0;" width="10" x="125" y="117.2969"/><rect fill="#FFFFFF" filter="url(#fncmlk48r4e57)" height="57.2656" style="stroke: #A80036; stroke-width: 1.0;" width="10" x="215" y="208.0234"/><rect fill="#FFFFFF" filter="url(#fncmlk48r4e57)" height="14.1328" style="stroke: #A80036; stroke-width: 1.0;" width="10" x="298.5" y="237.1563"/><polygon fill="#A80036" points="113,113.2969,123,117.2969,113,121.2969,117,117.2969" style="stroke: #A80036; stroke-width: 1.0;"/><line style="stroke: #A80036; stroke-width: 1.0;" x1="42" x2="119" y1="117.2969" y2="117.2969"/><text fill="#000000" font-family="sans-serif" font-size="13" lengthAdjust="spacingAndGlyphs" textLength="49" x="49" y="112.3638">request</text><polygon fill="#A80036" points="252.5,142.4297,262.5,146.4297,252.5,150.4297,256.5,146.4297" style="stroke: #A80036; stroke-width: 1.0;"/><line style="stroke: #A80036; stroke-width: 1.0;" x1="135" x2="258.5" y1="146.4297" y2="146.4297"/><text fill="#000000" font-family="sans-serif" font-size="13" lengthAdjust="spacingAndGlyphs" textLength="35" x="142" y="141.4966">new()</text><rect fill="#FEFECE" filter="url(#fncmlk48r4e57)" height="46.5938" style="stroke: #A80036; stroke-width: 1.5;" width="74" x="264.5" y="125.4297"/><text fill="#000000" font-family="sans-serif" font-size="14" font-style="italic" lengthAdjust="spacingAndGlyphs" textLength="60" x="271.5" y="146.4297">«Model»</text><text fill="#000000" font-family="sans-serif" font-size="14" lengthAdjust="spacingAndGlyphs" text-decoration="underline" textLength="54" x="274.5" y="162.7266">m:Bean</text><line style="stroke: #000000; stroke-width: 1.0;" x1="274.5" x2="328.5" y1="164.7266" y2="164.7266"/><polygon fill="#A80036" points="203,204.0234,213,208.0234,203,212.0234,207,208.0234" style="stroke: #A80036; stroke-width: 1.0;"/><line style="stroke: #A80036; stroke-width: 1.0;" x1="135" x2="209" y1="208.0234" y2="208.0234"/><text fill="#000000" font-family="sans-serif" font-size="13" lengthAdjust="spacingAndGlyphs" textLength="47" x="142" y="203.0903">forward</text><polygon fill="#A80036" points="286.5,233.1563,296.5,237.1563,286.5,241.1563,290.5,237.1563" style="stroke: #A80036; stroke-width: 1.0;"/><line style="stroke: #A80036; stroke-width: 1.0;" x1="225" x2="292.5" y1="237.1563" y2="237.1563"/><text fill="#000000" font-family="sans-serif" font-size="13" lengthAdjust="spacingAndGlyphs" textLength="54" x="232" y="232.2231">get data</text><polygon fill="#A80036" points="236,247.2891,226,251.2891,236,255.2891,232,251.2891" style="stroke: #A80036; stroke-width: 1.0;"/><line style="stroke: #A80036; stroke-width: 1.0; stroke-dasharray: 2.0,2.0;" x1="230" x2="302.5" y1="251.2891" y2="251.2891"/><polygon fill="#A80036" points="146,261.2891,136,265.2891,146,269.2891,142,265.2891" style="stroke: #A80036; stroke-width: 1.0;"/><line style="stroke: #A80036; stroke-width: 1.0; stroke-dasharray: 2.0,2.0;" x1="140" x2="219" y1="265.2891" y2="265.2891"/><polygon fill="#A80036" points="53,290.2891,43,294.2891,53,298.2891,49,294.2891" style="stroke: #A80036; stroke-width: 1.0;"/><line style="stroke: #A80036; stroke-width: 1.0; stroke-dasharray: 2.0,2.0;" x1="47" x2="129" y1="294.2891" y2="294.2891"/><text fill="#000000" font-family="sans-serif" font-size="13" lengthAdjust="spacingAndGlyphs" textLength="59" x="59" y="289.356">response</text><!--
@startuml
actor "<u>c:Client</u>" as client
control "<u>c:Servlet</u>" as controller <<Controller>>
participant "<u>v:JSP</u>" as jsp <<View>>
participant "<u>m:Bean</u>" as model <<Model>>
activate client
client -> controller: request
activate controller
create model
controller -> model: new()
controller -> jsp: forward
activate jsp
jsp -> model: get data
activate model
jsp <- - model
deactivate model
controller <- - jsp
deactivate jsp
client <- - controller: response
deactivate controller
hide footbox
@enduml

PlantUML version 1.2017.16beta5(Unknown compile time)
(GPL source distribution)
Java Runtime: Java(TM) SE Runtime Environment
JVM: Java HotSpot(TM) 64-Bit Server VM
Java Version: 1.7.0_25-b15
Operating System: Linux
Default Encoding: UTF-8
Language: en
Country: US
--></g></svg>