<?xml version="1.0" encoding="UTF-8" standalone="no"?><svg xmlns="http://www.w3.org/2000/svg" xmlns:xlink="http://www.w3.org/1999/xlink" contentScriptType="application/ecmascript" contentStyleType="text/css" preserveAspectRatio="true" version="1.1" viewBox="0 0 325 234" zoomAndPan="magnify"><defs><filter height="300%" id="f1ixrvsreg4zy3" width="300%" x="-1" y="-1"><feGaussianBlur result="blurOut" stdDeviation="2.0"/><feColorMatrix in="blurOut" result="blurOut2" type="matrix" values="0 0 0 0 0 0 0 0 0 0 0 0 0 0 0 0 0 0 .4 0"/><feOffset dx="4.0" dy="4.0" in="blurOut2" result="blurOut3"/><feBlend in="SourceGraphic" in2="blurOut3" mode="normal"/></filter></defs><g><rect fill="#FFFFFF" filter="url(#f1ixrvsreg4zy3)" height="108.3984" style="stroke: #A80036; stroke-width: 1.0;" width="10" x="32" y="96.2969"/><rect fill="#FFFFFF" filter="url(#f1ixrvsreg4zy3)" height="29.1328" style="stroke: #A80036; stroke-width: 1.0;" width="10" x="255" y="117.2969"/><rect fill="#FFFFFF" filter="url(#f1ixrvsreg4zy3)" height="29.1328" style="stroke: #A80036; stroke-width: 1.0;" width="10" x="255" y="175.5625"/><line style="stroke: #A80036; stroke-width: 1.0; stroke-dasharray: 5.0,5.0;" x1="37" x2="37" y1="86.2969" y2="222.8281"/><line style="stroke: #A80036; stroke-width: 1.0; stroke-dasharray: 5.0,5.0;" x1="260" x2="260" y1="86.2969" y2="222.8281"/><text fill="#000000" font-family="sans-serif" font-size="14" lengthAdjust="spacingAndGlyphs" text-decoration="underline" textLength="52" x="8" y="82.9951">c:Client</text><line style="stroke: #000000; stroke-width: 1.0;" x1="8" x2="60" y1="84.9951" y2="84.9951"/><ellipse cx="37" cy="13" fill="#FEFECE" filter="url(#f1ixrvsreg4zy3)" rx="8" ry="8" style="stroke: #A80036; stroke-width: 2.0;"/><path d="M37,21 L37,48 M24,29 L50,29 M37,48 L24,63 M37,48 L50,63 " fill="#FEFECE" filter="url(#f1ixrvsreg4zy3)" style="stroke: #A80036; stroke-width: 2.0;"/><rect fill="#FEFECE" filter="url(#f1ixrvsreg4zy3)" height="30.2969" style="stroke: #A80036; stroke-width: 1.5;" width="112" x="202" y="51"/><text fill="#000000" font-family="sans-serif" font-size="14" lengthAdjust="spacingAndGlyphs" text-decoration="underline" textLength="98" x="209" y="70.9951">s:HTTP Server</text><line style="stroke: #000000; stroke-width: 1.0;" x1="209" x2="307" y1="72.9951" y2="72.9951"/><rect fill="#FFFFFF" filter="url(#f1ixrvsreg4zy3)" height="108.3984" style="stroke: #A80036; stroke-width: 1.0;" width="10" x="32" y="96.2969"/><rect fill="#FFFFFF" filter="url(#f1ixrvsreg4zy3)" height="29.1328" style="stroke: #A80036; stroke-width: 1.0;" width="10" x="255" y="117.2969"/><rect fill="#FFFFFF" filter="url(#f1ixrvsreg4zy3)" height="29.1328" style="stroke: #A80036; stroke-width: 1.0;" width="10" x="255" y="175.5625"/><polygon fill="#A80036" points="243,113.2969,253,117.2969,243,121.2969,247,117.2969" style="stroke: #A80036; stroke-width: 1.0;"/><line style="stroke: #A80036; stroke-width: 1.0;" x1="42" x2="249" y1="117.2969" y2="117.2969"/><text fill="#000000" font-family="sans-serif" font-size="13" lengthAdjust="spacingAndGlyphs" textLength="94" x="49" y="112.3638">1. GET request</text><polygon fill="#A80036" points="53,142.4297,43,146.4297,53,150.4297,49,146.4297" style="stroke: #A80036; stroke-width: 1.0;"/><line style="stroke: #A80036; stroke-width: 1.0;" x1="47" x2="259" y1="146.4297" y2="146.4297"/><text fill="#000000" font-family="sans-serif" font-size="13" lengthAdjust="spacingAndGlyphs" textLength="138" x="59" y="141.4966">2. 302 response code</text><polygon fill="#A80036" points="243,171.5625,253,175.5625,243,179.5625,247,175.5625" style="stroke: #A80036; stroke-width: 1.0;"/><line style="stroke: #A80036; stroke-width: 1.0;" x1="42" x2="249" y1="175.5625" y2="175.5625"/><text fill="#000000" font-family="sans-serif" font-size="13" lengthAdjust="spacingAndGlyphs" textLength="194" x="49" y="170.6294">3. Request for redirected page</text><polygon fill="#A80036" points="48,200.6953,38,204.6953,48,208.6953,44,204.6953" style="stroke: #A80036; stroke-width: 1.0;"/><line style="stroke: #A80036; stroke-width: 1.0;" x1="42" x2="259" y1="204.6953" y2="204.6953"/><text fill="#000000" font-family="sans-serif" font-size="13" lengthAdjust="spacingAndGlyphs" textLength="138" x="54" y="199.7622">4. 200 response code</text><!--
@startuml
actor "<u>c:Client</u>" as client
participant "<u>s:HTTP Server</u>" as server
activate client
client -> server: 1. GET request
activate server
client <- server: 2. 302 response code
deactivate server
client -> server: 3. Request for redirected page
activate server
client <- server: 4. 200 response code
deactivate server
deactivate client
hide footbox
@enduml

PlantUML version 1.2017.16beta5(Unknown compile time)
(GPL source distribution)
Java Runtime: Java(TM) SE Runtime Environment
JVM: Java HotSpot(TM) 64-Bit Server VM
Java Version: 1.7.0_25-b15
Operating System: Linux
Default Encoding: UTF-8
Language: en
Country: US
--></g></svg>