<?xml version="1.0" encoding="UTF-8" standalone="no"?><svg xmlns="http://www.w3.org/2000/svg" xmlns:xlink="http://www.w3.org/1999/xlink" contentScriptType="application/ecmascript" contentStyleType="text/css" preserveAspectRatio="true" version="1.1" viewBox="0 0 566 244" zoomAndPan="magnify"><defs><filter height="300%" id="fsruloeadj1gx" width="300%" x="-1" y="-1"><feGaussianBlur result="blurOut" stdDeviation="2.0"/><feColorMatrix in="blurOut" result="blurOut2" type="matrix" values="0 0 0 0 0 0 0 0 0 0 0 0 0 0 0 0 0 0 .4 0"/><feOffset dx="4.0" dy="4.0" in="blurOut2" result="blurOut3"/><feBlend in="SourceGraphic" in2="blurOut3" mode="normal"/></filter></defs><g><!--class ResourceBundle--><rect fill="#FEFECE" filter="url(#fsruloeadj1gx)" height="99.2188" id="ResourceBundle" style="stroke: #A80036; stroke-width: 1.5;" width="379" x="92" y="8"/><ellipse cx="226.25" cy="24" fill="#ADD1B2" rx="11" ry="11" style="stroke: #A80036; stroke-width: 1.0;"/><path d="M228.5938,19.6719 L228.7656,19.75 C228.9844,19.4375 229.1875,19.3438 229.4844,19.3438 C229.7813,19.3438 230.0625,19.4844 230.2188,19.75 C230.3125,19.9063 230.3281,20.0313 230.3281,20.4688 L230.3281,21.8906 C230.3281,22.3125 230.2969,22.5 230.1875,22.6563 C230.0156,22.875 229.75,23.0156 229.4844,23.0156 C229.2656,23.0156 229.0313,22.9063 228.8906,22.7656 C228.75,22.6406 228.7188,22.5156 228.6563,22.1094 C228.5625,21.7031 228.3906,21.4844 227.9063,21.2031 C227.4375,20.9531 226.8281,20.7969 226.25,20.7969 C224.5156,20.7969 223.2656,22.1094 223.2656,23.8906 L223.2656,24.9844 C223.2656,26.6875 224.5625,27.7813 226.6094,27.7813 C227.375,27.7813 228.0625,27.6563 228.4844,27.3906 C228.6719,27.2969 228.6719,27.2969 229.125,26.8125 C229.3125,26.625 229.5156,26.5469 229.7344,26.5469 C230.2031,26.5469 230.5938,26.9375 230.5938,27.3906 C230.5938,27.7813 230.2656,28.2344 229.6875,28.6406 C228.9375,29.1875 227.7813,29.4844 226.5625,29.4844 C223.6719,29.4844 221.5625,27.5938 221.5625,25.0156 L221.5625,23.8906 C221.5625,21.1719 223.5625,19.0938 226.1875,19.0938 C227.0625,19.0938 227.6563,19.2344 228.5938,19.6719 Z "/><text fill="#000000" font-family="sans-serif" font-size="12" lengthAdjust="spacingAndGlyphs" textLength="102" x="246.75" y="28.1543">ResourceBundle</text><line style="stroke: #A80036; stroke-width: 1.5;" x1="93" x2="470" y1="40" y2="40"/><ellipse cx="103" cy="51.9023" fill="#84BE84" rx="3" ry="3" style="stroke: #038048; stroke-width: 1.0;"/><text fill="#000000" font-family="sans-serif" font-size="11" lengthAdjust="spacingAndGlyphs" text-decoration="underline" textLength="268" x="112" y="54.2104">getBundle(baseName: String): ResourceBundle</text><line style="stroke: #000000; stroke-width: 1.0;" x1="112" x2="380" y1="56.2104" y2="56.2104"/><ellipse cx="103" cy="64.707" fill="#84BE84" rx="3" ry="3" style="stroke: #038048; stroke-width: 1.0;"/><text fill="#000000" font-family="sans-serif" font-size="11" lengthAdjust="spacingAndGlyphs" text-decoration="underline" textLength="353" x="112" y="67.0151">getBundle(baseName: String, locale: Locale): ResourceBundle</text><line style="stroke: #000000; stroke-width: 1.0;" x1="112" x2="465" y1="69.0151" y2="69.0151"/><line style="stroke: #A80036; stroke-width: 1.0; stroke-dasharray: 1.0,2.0;" x1="93" x2="470" y1="73.6094" y2="73.6094"/><ellipse cx="103" cy="85.5117" fill="#84BE84" rx="3" ry="3" style="stroke: #038048; stroke-width: 1.0;"/><text fill="#000000" font-family="sans-serif" font-size="11" lengthAdjust="spacingAndGlyphs" textLength="167" x="112" y="87.8198">getObject(key: String): Object</text><ellipse cx="103" cy="98.3164" fill="#84BE84" rx="3" ry="3" style="stroke: #038048; stroke-width: 1.0;"/><text fill="#000000" font-family="sans-serif" font-size="11" lengthAdjust="spacingAndGlyphs" textLength="163" x="112" y="100.6245">getString(key: String): String</text><!--class PropertyResourceBundle--><rect fill="#FEFECE" filter="url(#fsruloeadj1gx)" height="65.6094" id="PropertyResourceBundle" style="stroke: #A80036; stroke-width: 1.5;" width="293" x="6" y="168"/><ellipse cx="70.75" cy="184" fill="#ADD1B2" rx="11" ry="11" style="stroke: #A80036; stroke-width: 1.0;"/><path d="M73.0938,179.6719 L73.2656,179.75 C73.4844,179.4375 73.6875,179.3438 73.9844,179.3438 C74.2813,179.3438 74.5625,179.4844 74.7188,179.75 C74.8125,179.9063 74.8281,180.0313 74.8281,180.4688 L74.8281,181.8906 C74.8281,182.3125 74.7969,182.5 74.6875,182.6563 C74.5156,182.875 74.25,183.0156 73.9844,183.0156 C73.7656,183.0156 73.5313,182.9063 73.3906,182.7656 C73.25,182.6406 73.2188,182.5156 73.1563,182.1094 C73.0625,181.7031 72.8906,181.4844 72.4063,181.2031 C71.9375,180.9531 71.3281,180.7969 70.75,180.7969 C69.0156,180.7969 67.7656,182.1094 67.7656,183.8906 L67.7656,184.9844 C67.7656,186.6875 69.0625,187.7813 71.1094,187.7813 C71.875,187.7813 72.5625,187.6563 72.9844,187.3906 C73.1719,187.2969 73.1719,187.2969 73.625,186.8125 C73.8125,186.625 74.0156,186.5469 74.2344,186.5469 C74.7031,186.5469 75.0938,186.9375 75.0938,187.3906 C75.0938,187.7813 74.7656,188.2344 74.1875,188.6406 C73.4375,189.1875 72.2813,189.4844 71.0625,189.4844 C68.1719,189.4844 66.0625,187.5938 66.0625,185.0156 L66.0625,183.8906 C66.0625,181.1719 68.0625,179.0938 70.6875,179.0938 C71.5625,179.0938 72.1563,179.2344 73.0938,179.6719 Z "/><text fill="#000000" font-family="sans-serif" font-size="12" lengthAdjust="spacingAndGlyphs" textLength="155" x="91.25" y="188.1543">PropertyResourceBundle</text><line style="stroke: #A80036; stroke-width: 1.5;" x1="7" x2="298" y1="200" y2="200"/><ellipse cx="17" cy="211.9023" fill="#84BE84" rx="3" ry="3" style="stroke: #038048; stroke-width: 1.0;"/><text fill="#000000" font-family="sans-serif" font-size="11" lengthAdjust="spacingAndGlyphs" textLength="267" x="26" y="214.2104">PropertyResourceBundle(stream: InputStream)</text><ellipse cx="17" cy="224.707" fill="#84BE84" rx="3" ry="3" style="stroke: #038048; stroke-width: 1.0;"/><text fill="#000000" font-family="sans-serif" font-size="11" lengthAdjust="spacingAndGlyphs" textLength="234" x="26" y="227.0151">PropertyResourceBundle(reader: Reader)</text><!--class ListResourceBundle--><rect fill="#FEFECE" filter="url(#fsruloeadj1gx)" height="32" id="ListResourceBundle" style="stroke: #A80036; stroke-width: 1.5;" width="154" x="334.5" y="185"/><ellipse cx="349.5" cy="201" fill="#A9DCDF" rx="11" ry="11" style="stroke: #A80036; stroke-width: 1.0;"/><path d="M351.0781,202.8125 L347.0313,202.8125 L346.6406,203.7969 L347.0313,203.7969 C347.4844,203.7969 347.625,203.8281 347.7969,203.9531 C348.0156,204.125 348.1406,204.375 348.1406,204.6563 C348.1406,204.9375 348,205.2344 347.7344,205.375 C347.6094,205.4688 347.3906,205.5 347.0313,205.5 L344.7656,205.5 C344.0156,205.5 343.6406,205.2188 343.6406,204.6563 C343.6406,204.3594 343.7969,204.0781 344.0469,203.9219 C344.2031,203.8125 344.3594,203.7969 344.7813,203.7969 L347.4219,197.2813 L346.3438,197.2813 C345.9063,197.2813 345.7344,197.25 345.5625,197.1406 C345.3438,196.9688 345.2031,196.7188 345.2031,196.4375 C345.2031,196.1563 345.3594,195.875 345.6094,195.7031 C345.7656,195.6094 345.8906,195.5938 346.3438,195.5938 L350.0156,195.5938 L353.4063,203.7969 C353.875,203.7969 354.0313,203.8281 354.2031,203.9688 C354.4219,204.125 354.5625,204.375 354.5625,204.6563 C354.5625,204.9375 354.4063,205.2344 354.1563,205.375 C354.0156,205.4688 353.7969,205.5 353.4375,205.5 L351.0781,205.5 C350.6563,205.5 350.4531,205.4531 350.3125,205.3281 C350.0938,205.1719 349.9531,204.9219 349.9531,204.6563 C349.9531,204.3594 350.1094,204.0781 350.3594,203.9219 C350.5156,203.8125 350.625,203.7969 351.0781,203.7969 L351.4688,203.7969 Z M350.375,201.1094 L349.0469,197.8438 L347.7031,201.1094 Z "/><text fill="#000000" font-family="sans-serif" font-size="12" font-style="italic" lengthAdjust="spacingAndGlyphs" textLength="122" x="363.5" y="205.1543">ListResourceBundle</text><!--link ResourceBundle to ResourceBundle--><path d="M471.079,44.835 C492.283,47.224 506,51.445 506,57.5 C506,63.034 494.54,67.037 476.376,69.509 " fill="none" id="ResourceBundle-ResourceBundle" style="stroke: #A80036; stroke-width: 1.0;"/><polygon fill="#A80036" points="471.079,70.165,480.5022,73.0292,476.0411,69.5508,479.5195,65.0897,471.079,70.165" style="stroke: #A80036; stroke-width: 1.0;"/><text fill="#000000" font-family="sans-serif" font-size="13" lengthAdjust="spacingAndGlyphs" textLength="42" x="512" y="62.0669">parent</text><text fill="#000000" font-family="sans-serif" font-size="13" lengthAdjust="spacingAndGlyphs" textLength="8" x="479.2456" y="67.448">1</text><!--link ResourceBundle to PropertyResourceBundle--><path d="M223.544,122.072 C209.159,137.8504 194.337,154.1095 181.976,167.6673 " fill="none" id="ResourceBundle-PropertyResourceBundle" style="stroke: #A80036; stroke-width: 1.0;"/><polygon fill="none" points="218.458,117.26,237.106,107.196,228.804,126.692,218.458,117.26" style="stroke: #A80036; stroke-width: 1.0;"/><!--link ResourceBundle to ListResourceBundle--><path d="M340.031,122.209 C361.375,145.4409 383.658,169.6956 397.553,184.8193 " fill="none" id="ResourceBundle-ListResourceBundle" style="stroke: #A80036; stroke-width: 1.0;"/><polygon fill="none" points="334.615,126.66,326.239,107.196,344.924,117.188,334.615,126.66" style="stroke: #A80036; stroke-width: 1.0;"/><!--
@startuml
class ResourceBundle {
 + {static} getBundle(baseName: String): ResourceBundle
 + {static} getBundle(baseName: String, locale: Locale): ResourceBundle
....
 + getObject(key: String): Object
 + getString(key: String): String
}
class PropertyResourceBundle {
 + PropertyResourceBundle(stream: InputStream)
 + PropertyResourceBundle(reader: Reader)
}
abstract class ListResourceBundle
ResourceBundle - -> "1" ResourceBundle: parent
PropertyResourceBundle -up-|> ResourceBundle
ListResourceBundle -up-|> ResourceBundle
hide empty attributes
hide empty methods
@enduml

PlantUML version 1.2017.18(Fri Oct 06 16:56:32 UTC 2017)
(GPL source distribution)
Java Runtime: Java(TM) SE Runtime Environment
JVM: Java HotSpot(TM) 64-Bit Server VM
Java Version: 1.7.0_25-b15
Operating System: Linux
Default Encoding: UTF-8
Language: en
Country: US
--></g></svg>