<?xml version="1.0" encoding="UTF-8" standalone="no"?><svg xmlns="http://www.w3.org/2000/svg" xmlns:xlink="http://www.w3.org/1999/xlink" contentScriptType="application/ecmascript" contentStyleType="text/css" height="366px" preserveAspectRatio="none" style="width:747px;height:366px;" version="1.1" viewBox="0 0 747 366" width="747px" zoomAndPan="magnify"><defs><filter height="300%" id="ff37dlzqyha78" width="300%" x="-1" y="-1"><feGaussianBlur result="blurOut" stdDeviation="2.0"/><feColorMatrix in="blurOut" result="blurOut2" type="matrix" values="0 0 0 0 0 0 0 0 0 0 0 0 0 0 0 0 0 0 .4 0"/><feOffset dx="4.0" dy="4.0" in="blurOut2" result="blurOut3"/><feBlend in="SourceGraphic" in2="blurOut3" mode="normal"/></filter></defs><g><!--cluster javax.servlet--><polygon fill="#FFFFFF" filter="url(#ff37dlzqyha78)" points="22,24,128,24,135,46.2969,509,46.2969,509,354,22,354,22,24" style="stroke: #000000; stroke-width: 2.0;"/><line style="stroke: #000000; stroke-width: 2.0;" x1="22" x2="135" y1="46.2969" y2="46.2969"/><text fill="#000000" font-family="sans-serif" font-size="14" font-weight="bold" lengthAdjust="spacingAndGlyphs" textLength="100" x="26" y="38.9951">javax.servlet</text><!--cluster http--><polygon fill="#FFFFFF" filter="url(#ff37dlzqyha78)" points="203,175,241,175,248,197.2969,485,197.2969,485,330,203,330,203,175" style="stroke: #000000; stroke-width: 2.0;"/><line style="stroke: #000000; stroke-width: 2.0;" x1="203" x2="248" y1="197.2969" y2="197.2969"/><text fill="#000000" font-family="sans-serif" font-size="14" font-weight="bold" lengthAdjust="spacingAndGlyphs" textLength="32" x="207" y="189.9951">http</text><!--cluster java.io--><polygon fill="#FFFFFF" filter="url(#ff37dlzqyha78)" points="533,181.5,589,181.5,596,203.7969,725,203.7969,725,323.5,533,323.5,533,181.5" style="stroke: #000000; stroke-width: 2.0;"/><line style="stroke: #000000; stroke-width: 2.0;" x1="533" x2="596" y1="203.7969" y2="203.7969"/><text fill="#000000" font-family="sans-serif" font-size="14" font-weight="bold" lengthAdjust="spacingAndGlyphs" textLength="50" x="537" y="196.4951">java.io</text><!--class ServletOutputStream--><rect fill="#FEFECE" filter="url(#ff37dlzqyha78)" height="91.2188" id="ServletOutputStream" style="stroke: #A80036; stroke-width: 1.5;" width="162" x="38" y="59"/><ellipse cx="53" cy="75" fill="#A9DCDF" rx="11" ry="11" style="stroke: #A80036; stroke-width: 1.0;"/><path d="M54.5781,76.8125 L50.5313,76.8125 L50.1406,77.7969 L50.5313,77.7969 C50.9844,77.7969 51.125,77.8281 51.2969,77.9531 C51.5156,78.125 51.6406,78.375 51.6406,78.6563 C51.6406,78.9375 51.5,79.2344 51.2344,79.375 C51.1094,79.4688 50.8906,79.5 50.5313,79.5 L48.2656,79.5 C47.5156,79.5 47.1406,79.2188 47.1406,78.6563 C47.1406,78.3594 47.2969,78.0781 47.5469,77.9219 C47.7031,77.8125 47.8594,77.7969 48.2813,77.7969 L50.9219,71.2813 L49.8438,71.2813 C49.4063,71.2813 49.2344,71.25 49.0625,71.1406 C48.8438,70.9688 48.7031,70.7188 48.7031,70.4375 C48.7031,70.1563 48.8594,69.875 49.1094,69.7031 C49.2656,69.6094 49.3906,69.5938 49.8438,69.5938 L53.5156,69.5938 L56.9063,77.7969 C57.375,77.7969 57.5313,77.8281 57.7031,77.9688 C57.9219,78.125 58.0625,78.375 58.0625,78.6563 C58.0625,78.9375 57.9063,79.2344 57.6563,79.375 C57.5156,79.4688 57.2969,79.5 56.9375,79.5 L54.5781,79.5 C54.1563,79.5 53.9531,79.4531 53.8125,79.3281 C53.5938,79.1719 53.4531,78.9219 53.4531,78.6563 C53.4531,78.3594 53.6094,78.0781 53.8594,77.9219 C54.0156,77.8125 54.125,77.7969 54.5781,77.7969 L54.9688,77.7969 Z M53.875,75.1094 L52.5469,71.8438 L51.2031,75.1094 Z "/><text fill="#000000" font-family="sans-serif" font-size="12" font-style="italic" lengthAdjust="spacingAndGlyphs" textLength="130" x="67" y="79.1543">ServletOutputStream</text><line style="stroke: #A80036; stroke-width: 1.5;" x1="39" x2="199" y1="91" y2="91"/><ellipse cx="49" cy="102.9023" fill="#84BE84" rx="3" ry="3" style="stroke: #038048; stroke-width: 1.0;"/><text fill="#000000" font-family="sans-serif" font-size="11" font-style="italic" lengthAdjust="spacingAndGlyphs" textLength="123" x="58" y="105.2104">print(value: primitive)</text><ellipse cx="49" cy="115.707" fill="#84BE84" rx="3" ry="3" style="stroke: #038048; stroke-width: 1.0;"/><text fill="#000000" font-family="sans-serif" font-size="11" font-style="italic" lengthAdjust="spacingAndGlyphs" textLength="106" x="58" y="118.0151">print(value: String)</text><ellipse cx="49" cy="128.5117" fill="#84BE84" rx="3" ry="3" style="stroke: #038048; stroke-width: 1.0;"/><text fill="#000000" font-family="sans-serif" font-size="11" font-style="italic" lengthAdjust="spacingAndGlyphs" textLength="133" x="58" y="130.8198">println(value: primitive)</text><ellipse cx="49" cy="141.3164" fill="#84BE84" rx="3" ry="3" style="stroke: #038048; stroke-width: 1.0;"/><text fill="#000000" font-family="sans-serif" font-size="11" font-style="italic" lengthAdjust="spacingAndGlyphs" textLength="116" x="58" y="143.6245">println(value: String)</text><!--class ServletResponse--><rect fill="#FEFECE" filter="url(#ff37dlzqyha78)" height="78.4141" id="ServletResponse" style="stroke: #A80036; stroke-width: 1.5;" width="258" x="235" y="65.5"/><ellipse cx="308.25" cy="81.5" fill="#B4A7E5" rx="11" ry="11" style="stroke: #A80036; stroke-width: 1.0;"/><path d="M309.2031,78.2813 L309.2031,84.7969 L310.9219,84.7969 C311.375,84.7969 311.5156,84.8281 311.6875,84.9531 C311.9219,85.125 312.0313,85.375 312.0313,85.6563 C312.0313,86.2188 311.6719,86.5 310.9219,86.5 L305.7813,86.5 C305.375,86.5 305.1719,86.4531 305.0156,86.3281 C304.7969,86.1719 304.6563,85.9063 304.6563,85.6563 C304.6563,85.3594 304.8125,85.0781 305.0625,84.9219 C305.2188,84.8125 305.3438,84.7969 305.7813,84.7969 L307.5,84.7969 L307.5,78.2813 L305.7813,78.2813 C305.3594,78.2813 305.1719,78.25 305.0156,78.1406 C304.7969,77.9688 304.6563,77.7188 304.6563,77.4375 C304.6563,77.1563 304.8125,76.8594 305.0625,76.7031 C305.2188,76.6094 305.3438,76.5938 305.7813,76.5938 L310.9219,76.5938 C311.375,76.5938 311.5156,76.625 311.6875,76.7344 C311.9219,76.9063 312.0313,77.1719 312.0313,77.4375 C312.0313,77.7344 311.8906,78.0156 311.625,78.1719 C311.5,78.25 311.3125,78.2813 310.9219,78.2813 Z "/><text fill="#000000" font-family="sans-serif" font-size="12" font-style="italic" lengthAdjust="spacingAndGlyphs" textLength="103" x="328.75" y="85.6543">ServletResponse</text><line style="stroke: #A80036; stroke-width: 1.5;" x1="236" x2="492" y1="97.5" y2="97.5"/><ellipse cx="246" cy="109.4023" fill="#84BE84" rx="3" ry="3" style="stroke: #038048; stroke-width: 1.0;"/><text fill="#000000" font-family="sans-serif" font-size="11" font-style="italic" lengthAdjust="spacingAndGlyphs" textLength="232" x="255" y="111.7104">getOutputStream(): ServletOutputStream</text><ellipse cx="246" cy="122.207" fill="#84BE84" rx="3" ry="3" style="stroke: #038048; stroke-width: 1.0;"/><text fill="#000000" font-family="sans-serif" font-size="11" font-style="italic" lengthAdjust="spacingAndGlyphs" textLength="130" x="255" y="124.5151">getWriter(): PrintWriter</text><ellipse cx="246" cy="135.0117" fill="#84BE84" rx="3" ry="3" style="stroke: #038048; stroke-width: 1.0;"/><text fill="#000000" font-family="sans-serif" font-size="11" font-style="italic" lengthAdjust="spacingAndGlyphs" textLength="163" x="255" y="137.3198">setContentType(type: String)</text><!--class HttpServletResponse--><rect fill="#FEFECE" filter="url(#ff37dlzqyha78)" height="104.0234" id="HttpServletResponse" style="stroke: #A80036; stroke-width: 1.5;" width="249" x="219.5" y="210"/><ellipse cx="274.75" cy="226" fill="#B4A7E5" rx="11" ry="11" style="stroke: #A80036; stroke-width: 1.0;"/><path d="M275.7031,222.7813 L275.7031,229.2969 L277.4219,229.2969 C277.875,229.2969 278.0156,229.3281 278.1875,229.4531 C278.4219,229.625 278.5313,229.875 278.5313,230.1563 C278.5313,230.7188 278.1719,231 277.4219,231 L272.2813,231 C271.875,231 271.6719,230.9531 271.5156,230.8281 C271.2969,230.6719 271.1563,230.4063 271.1563,230.1563 C271.1563,229.8594 271.3125,229.5781 271.5625,229.4219 C271.7188,229.3125 271.8438,229.2969 272.2813,229.2969 L274,229.2969 L274,222.7813 L272.2813,222.7813 C271.8594,222.7813 271.6719,222.75 271.5156,222.6406 C271.2969,222.4688 271.1563,222.2188 271.1563,221.9375 C271.1563,221.6563 271.3125,221.3594 271.5625,221.2031 C271.7188,221.1094 271.8438,221.0938 272.2813,221.0938 L277.4219,221.0938 C277.875,221.0938 278.0156,221.125 278.1875,221.2344 C278.4219,221.4063 278.5313,221.6719 278.5313,221.9375 C278.5313,222.2344 278.3906,222.5156 278.125,222.6719 C278,222.75 277.8125,222.7813 277.4219,222.7813 Z "/><text fill="#000000" font-family="sans-serif" font-size="12" font-style="italic" lengthAdjust="spacingAndGlyphs" textLength="130" x="295.25" y="230.1543">HttpServletResponse</text><line style="stroke: #A80036; stroke-width: 1.5;" x1="220.5" x2="467.5" y1="242" y2="242"/><ellipse cx="230.5" cy="253.9023" fill="#84BE84" rx="3" ry="3" style="stroke: #038048; stroke-width: 1.0;"/><text fill="#000000" font-family="sans-serif" font-size="11" font-style="italic" lengthAdjust="spacingAndGlyphs" textLength="149" x="239.5" y="256.2104">addCookie(cookie: Cookie)</text><ellipse cx="230.5" cy="266.707" fill="#84BE84" rx="3" ry="3" style="stroke: #038048; stroke-width: 1.0;"/><text fill="#000000" font-family="sans-serif" font-size="11" font-style="italic" lengthAdjust="spacingAndGlyphs" textLength="223" x="239.5" y="269.0151">addHeader(name: String, value: String)</text><ellipse cx="230.5" cy="279.5117" fill="#84BE84" rx="3" ry="3" style="stroke: #038048; stroke-width: 1.0;"/><text fill="#000000" font-family="sans-serif" font-size="11" font-style="italic" lengthAdjust="spacingAndGlyphs" textLength="98" x="239.5" y="281.8198">sendError(sc: int)</text><ellipse cx="230.5" cy="292.3164" fill="#84BE84" rx="3" ry="3" style="stroke: #038048; stroke-width: 1.0;"/><text fill="#000000" font-family="sans-serif" font-size="11" font-style="italic" lengthAdjust="spacingAndGlyphs" textLength="167" x="239.5" y="294.6245">sendRedirect(location: String)</text><ellipse cx="230.5" cy="305.1211" fill="#84BE84" rx="3" ry="3" style="stroke: #038048; stroke-width: 1.0;"/><text fill="#000000" font-family="sans-serif" font-size="11" font-style="italic" lengthAdjust="spacingAndGlyphs" textLength="219" x="239.5" y="307.4292">setHeader(name: String, value: String)</text><!--class PrintWriter--><rect fill="#FEFECE" filter="url(#ff37dlzqyha78)" height="91.2188" id="PrintWriter" style="stroke: #A80036; stroke-width: 1.5;" width="159" x="549.5" y="216.5"/><ellipse cx="591.95" cy="232.5" fill="#ADD1B2" rx="11" ry="11" style="stroke: #A80036; stroke-width: 1.0;"/><path d="M594.2938,228.1719 L594.4656,228.25 C594.6844,227.9375 594.8875,227.8438 595.1844,227.8438 C595.4813,227.8438 595.7625,227.9844 595.9188,228.25 C596.0125,228.4063 596.0281,228.5313 596.0281,228.9688 L596.0281,230.3906 C596.0281,230.8125 595.9969,231 595.8875,231.1563 C595.7156,231.375 595.45,231.5156 595.1844,231.5156 C594.9656,231.5156 594.7313,231.4063 594.5906,231.2656 C594.45,231.1406 594.4188,231.0156 594.3563,230.6094 C594.2625,230.2031 594.0906,229.9844 593.6063,229.7031 C593.1375,229.4531 592.5281,229.2969 591.95,229.2969 C590.2156,229.2969 588.9656,230.6094 588.9656,232.3906 L588.9656,233.4844 C588.9656,235.1875 590.2625,236.2813 592.3094,236.2813 C593.075,236.2813 593.7625,236.1563 594.1844,235.8906 C594.3719,235.7969 594.3719,235.7969 594.825,235.3125 C595.0125,235.125 595.2156,235.0469 595.4344,235.0469 C595.9031,235.0469 596.2938,235.4375 596.2938,235.8906 C596.2938,236.2813 595.9656,236.7344 595.3875,237.1406 C594.6375,237.6875 593.4813,237.9844 592.2625,237.9844 C589.3719,237.9844 587.2625,236.0938 587.2625,233.5156 L587.2625,232.3906 C587.2625,229.6719 589.2625,227.5938 591.8875,227.5938 C592.7625,227.5938 593.3563,227.7344 594.2938,228.1719 Z "/><text fill="#000000" font-family="sans-serif" font-size="12" lengthAdjust="spacingAndGlyphs" textLength="66" x="612.05" y="236.6543">PrintWriter</text><line style="stroke: #A80036; stroke-width: 1.5;" x1="550.5" x2="707.5" y1="248.5" y2="248.5"/><ellipse cx="560.5" cy="260.4023" fill="#84BE84" rx="3" ry="3" style="stroke: #038048; stroke-width: 1.0;"/><text fill="#000000" font-family="sans-serif" font-size="11" font-style="italic" lengthAdjust="spacingAndGlyphs" textLength="123" x="569.5" y="262.7104">print(value: primitive)</text><ellipse cx="560.5" cy="273.207" fill="#84BE84" rx="3" ry="3" style="stroke: #038048; stroke-width: 1.0;"/><text fill="#000000" font-family="sans-serif" font-size="11" font-style="italic" lengthAdjust="spacingAndGlyphs" textLength="106" x="569.5" y="275.5151">print(value: String)</text><ellipse cx="560.5" cy="286.0117" fill="#84BE84" rx="3" ry="3" style="stroke: #038048; stroke-width: 1.0;"/><text fill="#000000" font-family="sans-serif" font-size="11" font-style="italic" lengthAdjust="spacingAndGlyphs" textLength="133" x="569.5" y="288.3198">println(value: primitive)</text><ellipse cx="560.5" cy="298.8164" fill="#84BE84" rx="3" ry="3" style="stroke: #038048; stroke-width: 1.0;"/><text fill="#000000" font-family="sans-serif" font-size="11" font-style="italic" lengthAdjust="spacingAndGlyphs" textLength="116" x="569.5" y="301.1245">println(value: String)</text><!--link ServletResponse to HttpServletResponse--><path d="M356.552,163.41 C354.591,178.655 352.49,194.989 350.579,209.85 " fill="none" id="ServletResponse-HttpServletResponse" style="stroke: #A80036; stroke-width: 1.0;"/><polygon fill="none" points="349.613,162.483,359.107,143.54,363.499,164.269,349.613,162.483" style="stroke: #A80036; stroke-width: 1.0;"/><!--link ServletOutputStream to ServletResponse--><path d="M205.472,104.5 C215.271,104.5 225.069,104.5 234.868,104.5 " fill="none" id="ServletOutputStream-ServletResponse" style="stroke: #A80036; stroke-width: 1.0; stroke-dasharray: 7.0,7.0;"/><polygon fill="#A80036" points="200.348,104.5,209.348,108.5,205.348,104.5,209.348,100.5,200.348,104.5" style="stroke: #A80036; stroke-width: 1.0;"/><!--link HttpServletResponse to PrintWriter--><path d="M468.688,262 C493.932,262 519.177,262 544.421,262 " fill="none" id="HttpServletResponse-PrintWriter" style="stroke: #A80036; stroke-width: 1.0; stroke-dasharray: 7.0,7.0;"/><polygon fill="#A80036" points="549.47,262,540.47,258,544.47,262,540.47,266,549.47,262" style="stroke: #A80036; stroke-width: 1.0;"/><!--
@startuml
package javax.servlet {
 abstract class ServletOutputStream {
  {abstract} + print(value: primitive)
  {abstract} + print(value: String)
  {abstract} + println(value: primitive)
  {abstract} + println(value: String)
 }
 interface ServletResponse {
  {abstract} + getOutputStream(): ServletOutputStream
  {abstract} + getWriter(): PrintWriter
  {abstract} + setContentType(type: String)
 }
 package http {
  interface HttpServletResponse {
   {abstract} + addCookie(cookie: Cookie)
   {abstract} + addHeader(name: String, value: String)
   {abstract} + sendError(sc: int)
   {abstract} + sendRedirect(location: String)
   {abstract} + setHeader(name: String, value: String)
  }
 }
}
package java.io {
 class PrintWriter {
  {abstract} + print(value: primitive)
  {abstract} + print(value: String)
  {abstract} + println(value: primitive)
  {abstract} + println(value: String)
 }
}
HttpServletResponse -up-|> ServletResponse
ServletResponse .left.> ServletOutputStream
HttpServletResponse .right.> PrintWriter
hide empty attributes
hide empty methods
@enduml

PlantUML version 1.2017.16beta5(Unknown compile time)
(GPL source distribution)
Java Runtime: Java(TM) SE Runtime Environment
JVM: Java HotSpot(TM) 64-Bit Server VM
Java Version: 1.7.0_25-b15
Operating System: Linux
Default Encoding: UTF-8
Language: en
Country: US
--></g></svg>