<?xml version="1.0" encoding="UTF-8" standalone="no"?><svg xmlns="http://www.w3.org/2000/svg" xmlns:xlink="http://www.w3.org/1999/xlink" contentScriptType="application/ecmascript" contentStyleType="text/css" preserveAspectRatio="true" version="1.1" viewBox="0 0 679 524" zoomAndPan="magnify"><defs><filter height="300%" id="f4j7ro83kb9bj" width="300%" x="-1" y="-1"><feGaussianBlur result="blurOut" stdDeviation="2.0"/><feColorMatrix in="blurOut" result="blurOut2" type="matrix" values="0 0 0 0 0 0 0 0 0 0 0 0 0 0 0 0 0 0 .4 0"/><feOffset dx="4.0" dy="4.0" in="blurOut2" result="blurOut3"/><feBlend in="SourceGraphic" in2="blurOut3" mode="normal"/></filter></defs><g><!--cluster java.util--><polygon fill="#FFFFFF" filter="url(#f4j7ro83kb9bj)" points="262,24,328,24,335,46.2969,412,46.2969,412,107,262,107,262,24" style="stroke: #000000; stroke-width: 2.0;"/><line style="stroke: #000000; stroke-width: 2.0;" x1="262" x2="335" y1="46.2969" y2="46.2969"/><text fill="#000000" font-family="sans-serif" font-size="14" font-weight="bold" lengthAdjust="spacingAndGlyphs" textLength="60" x="266" y="38.9951">java.util</text><!--cluster javax.servlet--><polygon fill="#FFFFFF" filter="url(#f4j7ro83kb9bj)" points="22,131,128,131,135,153.2969,657,153.2969,657,512,22,512,22,131" style="stroke: #000000; stroke-width: 2.0;"/><line style="stroke: #000000; stroke-width: 2.0;" x1="22" x2="135" y1="153.2969" y2="153.2969"/><text fill="#000000" font-family="sans-serif" font-size="14" font-weight="bold" lengthAdjust="spacingAndGlyphs" textLength="100" x="26" y="145.9951">javax.servlet</text><!--class EventListener--><rect fill="#FEFECE" filter="url(#f4j7ro83kb9bj)" height="32" id="EventListener" style="stroke: #A80036; stroke-width: 1.5;" width="117" x="278.5" y="59"/><ellipse cx="293.5" cy="75" fill="#B4A7E5" rx="11" ry="11" style="stroke: #A80036; stroke-width: 1.0;"/><path d="M294.4531,71.7813 L294.4531,78.2969 L296.1719,78.2969 C296.625,78.2969 296.7656,78.3281 296.9375,78.4531 C297.1719,78.625 297.2813,78.875 297.2813,79.1563 C297.2813,79.7188 296.9219,80 296.1719,80 L291.0313,80 C290.625,80 290.4219,79.9531 290.2656,79.8281 C290.0469,79.6719 289.9063,79.4063 289.9063,79.1563 C289.9063,78.8594 290.0625,78.5781 290.3125,78.4219 C290.4688,78.3125 290.5938,78.2969 291.0313,78.2969 L292.75,78.2969 L292.75,71.7813 L291.0313,71.7813 C290.6094,71.7813 290.4219,71.75 290.2656,71.6406 C290.0469,71.4688 289.9063,71.2188 289.9063,70.9375 C289.9063,70.6563 290.0625,70.3594 290.3125,70.2031 C290.4688,70.1094 290.5938,70.0938 291.0313,70.0938 L296.1719,70.0938 C296.625,70.0938 296.7656,70.125 296.9375,70.2344 C297.1719,70.4063 297.2813,70.6719 297.2813,70.9375 C297.2813,71.2344 297.1406,71.5156 296.875,71.6719 C296.75,71.75 296.5625,71.7813 296.1719,71.7813 Z "/><text fill="#000000" font-family="sans-serif" font-size="12" font-style="italic" lengthAdjust="spacingAndGlyphs" textLength="85" x="307.5" y="79.1543">EventListener</text><!--class ServletContextListener--><rect fill="#FEFECE" filter="url(#f4j7ro83kb9bj)" height="65.6094" id="ServletContextListener" style="stroke: #A80036; stroke-width: 1.5;" width="290" x="82" y="166"/><ellipse cx="151.75" cy="182" fill="#B4A7E5" rx="11" ry="11" style="stroke: #A80036; stroke-width: 1.0;"/><path d="M152.7031,178.7813 L152.7031,185.2969 L154.4219,185.2969 C154.875,185.2969 155.0156,185.3281 155.1875,185.4531 C155.4219,185.625 155.5313,185.875 155.5313,186.1563 C155.5313,186.7188 155.1719,187 154.4219,187 L149.2813,187 C148.875,187 148.6719,186.9531 148.5156,186.8281 C148.2969,186.6719 148.1563,186.4063 148.1563,186.1563 C148.1563,185.8594 148.3125,185.5781 148.5625,185.4219 C148.7188,185.3125 148.8438,185.2969 149.2813,185.2969 L151,185.2969 L151,178.7813 L149.2813,178.7813 C148.8594,178.7813 148.6719,178.75 148.5156,178.6406 C148.2969,178.4688 148.1563,178.2188 148.1563,177.9375 C148.1563,177.6563 148.3125,177.3594 148.5625,177.2031 C148.7188,177.1094 148.8438,177.0938 149.2813,177.0938 L154.4219,177.0938 C154.875,177.0938 155.0156,177.125 155.1875,177.2344 C155.4219,177.4063 155.5313,177.6719 155.5313,177.9375 C155.5313,178.2344 155.3906,178.5156 155.125,178.6719 C155,178.75 154.8125,178.7813 154.4219,178.7813 Z "/><text fill="#000000" font-family="sans-serif" font-size="12" font-style="italic" lengthAdjust="spacingAndGlyphs" textLength="142" x="172.25" y="186.1543">ServletContextListener</text><line style="stroke: #A80036; stroke-width: 1.5;" x1="83" x2="371" y1="198" y2="198"/><ellipse cx="93" cy="209.9023" fill="#84BE84" rx="3" ry="3" style="stroke: #038048; stroke-width: 1.0;"/><text fill="#000000" font-family="sans-serif" font-size="11" font-style="italic" lengthAdjust="spacingAndGlyphs" textLength="259" x="102" y="212.2104">contextInitialized(event: ServletContextEvent)</text><ellipse cx="93" cy="222.707" fill="#84BE84" rx="3" ry="3" style="stroke: #038048; stroke-width: 1.0;"/><text fill="#000000" font-family="sans-serif" font-size="11" font-style="italic" lengthAdjust="spacingAndGlyphs" textLength="264" x="102" y="225.0151">contextDestroyed(event: ServletContextEvent)</text><!--class ServletContextAttributeListener--><rect fill="#FEFECE" filter="url(#f4j7ro83kb9bj)" height="78.4141" id="ServletContextAttributeListener" style="stroke: #A80036; stroke-width: 1.5;" width="341" x="299.5" y="292"/><ellipse cx="367.25" cy="308" fill="#B4A7E5" rx="11" ry="11" style="stroke: #A80036; stroke-width: 1.0;"/><path d="M368.2031,304.7813 L368.2031,311.2969 L369.9219,311.2969 C370.375,311.2969 370.5156,311.3281 370.6875,311.4531 C370.9219,311.625 371.0313,311.875 371.0313,312.1563 C371.0313,312.7188 370.6719,313 369.9219,313 L364.7813,313 C364.375,313 364.1719,312.9531 364.0156,312.8281 C363.7969,312.6719 363.6563,312.4063 363.6563,312.1563 C363.6563,311.8594 363.8125,311.5781 364.0625,311.4219 C364.2188,311.3125 364.3438,311.2969 364.7813,311.2969 L366.5,311.2969 L366.5,304.7813 L364.7813,304.7813 C364.3594,304.7813 364.1719,304.75 364.0156,304.6406 C363.7969,304.4688 363.6563,304.2188 363.6563,303.9375 C363.6563,303.6563 363.8125,303.3594 364.0625,303.2031 C364.2188,303.1094 364.3438,303.0938 364.7813,303.0938 L369.9219,303.0938 C370.375,303.0938 370.5156,303.125 370.6875,303.2344 C370.9219,303.4063 371.0313,303.6719 371.0313,303.9375 C371.0313,304.2344 370.8906,304.5156 370.625,304.6719 C370.5,304.75 370.3125,304.7813 369.9219,304.7813 Z "/><text fill="#000000" font-family="sans-serif" font-size="12" font-style="italic" lengthAdjust="spacingAndGlyphs" textLength="197" x="387.75" y="312.1543">ServletContextAttributeListener</text><line style="stroke: #A80036; stroke-width: 1.5;" x1="300.5" x2="639.5" y1="324" y2="324"/><ellipse cx="310.5" cy="335.9023" fill="#84BE84" rx="3" ry="3" style="stroke: #038048; stroke-width: 1.0;"/><text fill="#000000" font-family="sans-serif" font-size="11" font-style="italic" lengthAdjust="spacingAndGlyphs" textLength="297" x="319.5" y="338.2104">attributeAdded(event: ServletContextAttributeEvent)</text><ellipse cx="310.5" cy="348.707" fill="#84BE84" rx="3" ry="3" style="stroke: #038048; stroke-width: 1.0;"/><text fill="#000000" font-family="sans-serif" font-size="11" font-style="italic" lengthAdjust="spacingAndGlyphs" textLength="315" x="319.5" y="351.0151">attributeRemoved(event: ServletContextAttributeEvent)</text><ellipse cx="310.5" cy="361.5117" fill="#84BE84" rx="3" ry="3" style="stroke: #038048; stroke-width: 1.0;"/><text fill="#000000" font-family="sans-serif" font-size="11" font-style="italic" lengthAdjust="spacingAndGlyphs" textLength="313" x="319.5" y="363.8198">attributeReplaced(event: ServletContextAttributeEvent)</text><!--class ServletContextEvent--><rect fill="#FEFECE" filter="url(#f4j7ro83kb9bj)" height="52.8047" id="ServletContextEvent" style="stroke: #A80036; stroke-width: 1.5;" width="226" x="38" y="304.5"/><ellipse cx="83.75" cy="320.5" fill="#ADD1B2" rx="11" ry="11" style="stroke: #A80036; stroke-width: 1.0;"/><path d="M86.0938,316.1719 L86.2656,316.25 C86.4844,315.9375 86.6875,315.8438 86.9844,315.8438 C87.2813,315.8438 87.5625,315.9844 87.7188,316.25 C87.8125,316.4063 87.8281,316.5313 87.8281,316.9688 L87.8281,318.3906 C87.8281,318.8125 87.7969,319 87.6875,319.1563 C87.5156,319.375 87.25,319.5156 86.9844,319.5156 C86.7656,319.5156 86.5313,319.4063 86.3906,319.2656 C86.25,319.1406 86.2188,319.0156 86.1563,318.6094 C86.0625,318.2031 85.8906,317.9844 85.4063,317.7031 C84.9375,317.4531 84.3281,317.2969 83.75,317.2969 C82.0156,317.2969 80.7656,318.6094 80.7656,320.3906 L80.7656,321.4844 C80.7656,323.1875 82.0625,324.2813 84.1094,324.2813 C84.875,324.2813 85.5625,324.1563 85.9844,323.8906 C86.1719,323.7969 86.1719,323.7969 86.625,323.3125 C86.8125,323.125 87.0156,323.0469 87.2344,323.0469 C87.7031,323.0469 88.0938,323.4375 88.0938,323.8906 C88.0938,324.2813 87.7656,324.7344 87.1875,325.1406 C86.4375,325.6875 85.2813,325.9844 84.0625,325.9844 C81.1719,325.9844 79.0625,324.0938 79.0625,321.5156 L79.0625,320.3906 C79.0625,317.6719 81.0625,315.5938 83.6875,315.5938 C84.5625,315.5938 85.1563,315.7344 86.0938,316.1719 Z "/><text fill="#000000" font-family="sans-serif" font-size="12" lengthAdjust="spacingAndGlyphs" textLength="126" x="104.25" y="324.6543">ServletContextEvent</text><line style="stroke: #A80036; stroke-width: 1.5;" x1="39" x2="263" y1="336.5" y2="336.5"/><ellipse cx="49" cy="348.4023" fill="#84BE84" rx="3" ry="3" style="stroke: #038048; stroke-width: 1.0;"/><text fill="#000000" font-family="sans-serif" font-size="11" lengthAdjust="spacingAndGlyphs" textLength="200" x="58" y="350.7104">getServletContext(): ServletContext</text><!--class ServletContextAttributeEvent--><rect fill="#FEFECE" filter="url(#f4j7ro83kb9bj)" height="65.6094" id="ServletContextAttributeEvent" style="stroke: #A80036; stroke-width: 1.5;" width="213" x="203.5" y="430"/><ellipse cx="218.5" cy="446" fill="#ADD1B2" rx="11" ry="11" style="stroke: #A80036; stroke-width: 1.0;"/><path d="M220.8438,441.6719 L221.0156,441.75 C221.2344,441.4375 221.4375,441.3438 221.7344,441.3438 C222.0313,441.3438 222.3125,441.4844 222.4688,441.75 C222.5625,441.9063 222.5781,442.0313 222.5781,442.4688 L222.5781,443.8906 C222.5781,444.3125 222.5469,444.5 222.4375,444.6563 C222.2656,444.875 222,445.0156 221.7344,445.0156 C221.5156,445.0156 221.2813,444.9063 221.1406,444.7656 C221,444.6406 220.9688,444.5156 220.9063,444.1094 C220.8125,443.7031 220.6406,443.4844 220.1563,443.2031 C219.6875,442.9531 219.0781,442.7969 218.5,442.7969 C216.7656,442.7969 215.5156,444.1094 215.5156,445.8906 L215.5156,446.9844 C215.5156,448.6875 216.8125,449.7813 218.8594,449.7813 C219.625,449.7813 220.3125,449.6563 220.7344,449.3906 C220.9219,449.2969 220.9219,449.2969 221.375,448.8125 C221.5625,448.625 221.7656,448.5469 221.9844,448.5469 C222.4531,448.5469 222.8438,448.9375 222.8438,449.3906 C222.8438,449.7813 222.5156,450.2344 221.9375,450.6406 C221.1875,451.1875 220.0313,451.4844 218.8125,451.4844 C215.9219,451.4844 213.8125,449.5938 213.8125,447.0156 L213.8125,445.8906 C213.8125,443.1719 215.8125,441.0938 218.4375,441.0938 C219.3125,441.0938 219.9063,441.2344 220.8438,441.6719 Z "/><text fill="#000000" font-family="sans-serif" font-size="12" lengthAdjust="spacingAndGlyphs" textLength="181" x="232.5" y="450.1543">ServletContextAttributeEvent</text><line style="stroke: #A80036; stroke-width: 1.5;" x1="204.5" x2="415.5" y1="462" y2="462"/><ellipse cx="214.5" cy="473.9023" fill="#84BE84" rx="3" ry="3" style="stroke: #038048; stroke-width: 1.0;"/><text fill="#000000" font-family="sans-serif" font-size="11" lengthAdjust="spacingAndGlyphs" textLength="101" x="223.5" y="476.2104">getName(): String</text><ellipse cx="214.5" cy="486.707" fill="#84BE84" rx="3" ry="3" style="stroke: #038048; stroke-width: 1.0;"/><text fill="#000000" font-family="sans-serif" font-size="11" lengthAdjust="spacingAndGlyphs" textLength="101" x="223.5" y="489.0151">getValue(): Object</text><!--link EventListener to ServletContextListener--><path d="M309.573,106.419 C293.282,124.488 272.637,147.385 256.065,165.764 " fill="none" id="EventListener-ServletContextListener" style="stroke: #A80036; stroke-width: 1.0;"/><polygon fill="none" points="304.477,101.618,323.068,91.451,314.874,110.993,304.477,101.618" style="stroke: #A80036; stroke-width: 1.0;"/><!--link EventListener to ServletContextAttributeListener--><path d="M373.66,104.284 C379.645,110.025 385.386,116.357 390,123 C426.814,176.004 449.702,248.265 461.127,291.892 " fill="none" id="EventListener-ServletContextAttributeListener" style="stroke: #A80036; stroke-width: 1.0;"/><polygon fill="none" points="368.875,109.4,358.327,91.022,378.033,98.811,368.875,109.4" style="stroke: #A80036; stroke-width: 1.0;"/><!--link ServletContextEvent to ServletContextAttributeEvent--><path d="M197.979,370.41 C221.138,389.346 248.747,411.919 270.76,429.9173 " fill="none" id="ServletContextEvent-ServletContextAttributeEvent" style="stroke: #A80036; stroke-width: 1.0;"/><polygon fill="none" points="193.466,375.763,182.413,357.684,202.328,364.924,193.466,375.763" style="stroke: #A80036; stroke-width: 1.0;"/><!--link ServletContextListener to ServletContextEvent--><path d="M208.213,232.135 C196.117,252.826 180.496,279.546 168.633,299.838 " fill="none" id="ServletContextListener-ServletContextEvent" style="stroke: #A80036; stroke-width: 1.0; stroke-dasharray: 7.0,7.0;"/><polygon fill="#A80036" points="166.009,304.326,174.0049,298.5757,168.5328,300.0097,167.0988,294.5376,166.009,304.326" style="stroke: #A80036; stroke-width: 1.0;"/><!--link ServletContextAttributeListener to ServletContextAttributeEvent--><path d="M422.86,370.301 C400.905,388.14 374.954,409.225 353.475,426.677 " fill="none" id="ServletContextAttributeListener-ServletContextAttributeEvent" style="stroke: #A80036; stroke-width: 1.0; stroke-dasharray: 7.0,7.0;"/><polygon fill="#A80036" points="349.518,429.8912,359.0254,427.3205,353.3986,426.7383,353.9808,421.1115,349.518,429.8912" style="stroke: #A80036; stroke-width: 1.0;"/><!--
@startuml
package "java.util" {
 interface EventListener
}
package "javax.servlet" {
 interface ServletContextListener {
  {abstract} + contextInitialized(event: ServletContextEvent)
  {abstract} + contextDestroyed(event: ServletContextEvent)
 }
 interface ServletContextAttributeListener {
  {abstract} + attributeAdded(event: ServletContextAttributeEvent)
  {abstract} + attributeRemoved(event: ServletContextAttributeEvent)
  {abstract} + attributeReplaced(event: ServletContextAttributeEvent)
 }
 class ServletContextEvent {
  + getServletContext(): ServletContext
 }
 class ServletContextAttributeEvent {
  + getName(): String
  + getValue(): Object
 }
}
ServletContextListener -up-|> EventListener
ServletContextAttributeListener -up-|> EventListener
ServletContextAttributeEvent -up-|> ServletContextEvent
ServletContextListener ..> ServletContextEvent
ServletContextAttributeListener ..> ServletContextAttributeEvent
hide empty attributes
hide empty methods
@enduml

PlantUML version 1.2017.16beta5(Unknown compile time)
(GPL source distribution)
Java Runtime: Java(TM) SE Runtime Environment
JVM: Java HotSpot(TM) 64-Bit Server VM
Java Version: 1.7.0_25-b15
Operating System: Linux
Default Encoding: UTF-8
Language: en
Country: US
--></g></svg>