<?xml version="1.0" encoding="UTF-8" standalone="no"?><svg xmlns="http://www.w3.org/2000/svg" xmlns:xlink="http://www.w3.org/1999/xlink" contentScriptType="application/ecmascript" contentStyleType="text/css" preserveAspectRatio="true" version="1.1" viewBox="0 0 820 457" zoomAndPan="magnify"><defs><filter height="300%" id="f1tfco31243e5q" width="300%" x="-1" y="-1"><feGaussianBlur result="blurOut" stdDeviation="2.0"/><feColorMatrix in="blurOut" result="blurOut2" type="matrix" values="0 0 0 0 0 0 0 0 0 0 0 0 0 0 0 0 0 0 .4 0"/><feOffset dx="4.0" dy="4.0" in="blurOut2" result="blurOut3"/><feBlend in="SourceGraphic" in2="blurOut3" mode="normal"/></filter></defs><g><rect fill="#FFFFFF" filter="url(#f1tfco31243e5q)" height="331.4219" style="stroke: #A80036; stroke-width: 1.0;" width="10" x="41.5" y="96.2969"/><rect fill="#FFFFFF" filter="url(#f1tfco31243e5q)" height="310.4219" style="stroke: #A80036; stroke-width: 1.0;" width="10" x="170.5" y="117.2969"/><rect fill="#FFFFFF" filter="url(#f1tfco31243e5q)" height="65.1328" style="stroke: #A80036; stroke-width: 1.0;" width="10" x="679" y="326.4531"/><rect fill="#FFFFFF" filter="url(#f1tfco31243e5q)" height="28" style="stroke: #A80036; stroke-width: 1.0;" width="10" x="684" y="363.5859"/><rect fill="#FEFECE" filter="url(#f1tfco31243e5q)" height="30.2969" style="stroke: #A80036; stroke-width: 1.5;" width="177" x="239.5" y="125.4297"/><text fill="#000000" font-family="sans-serif" font-size="14" lengthAdjust="spacingAndGlyphs" text-decoration="underline" textLength="163" x="246.5" y="145.4248">req:HttpServletRequest</text><line style="stroke: #000000; stroke-width: 1.0;" x1="246.5" x2="409.5" y1="147.4248" y2="147.4248"/><rect fill="#FEFECE" filter="url(#f1tfco31243e5q)" height="30.2969" style="stroke: #A80036; stroke-width: 1.5;" width="197" x="430.5" y="170.7266"/><text fill="#000000" font-family="sans-serif" font-size="14" lengthAdjust="spacingAndGlyphs" text-decoration="underline" textLength="183" x="437.5" y="190.7217">resp:HttpServletResponse</text><line style="stroke: #000000; stroke-width: 1.0;" x1="437.5" x2="620.5" y1="192.7217" y2="192.7217"/><rect fill="#FFFFFF" filter="url(#f1tfco31243e5q)" height="75.4297" style="stroke: #000000; stroke-width: 2.0;" width="614" x="122.5" y="223.0234"/><text fill="#000000" font-family="sans-serif" font-size="14" lengthAdjust="spacingAndGlyphs" text-decoration="underline" textLength="79" x="641.5" y="285.1514">s:MyServlet</text><line style="stroke: #000000; stroke-width: 1.0;" x1="641.5" x2="720.5" y1="287.1514" y2="287.1514"/><ellipse cx="684" cy="256.1563" fill="#FEFECE" filter="url(#f1tfco31243e5q)" rx="12" ry="12" style="stroke: #A80036; stroke-width: 2.0;"/><polygon fill="#A80036" points="680,244.1563,686,239.1563,684,244.1563,686,249.1563,680,244.1563" style="stroke: #A80036; stroke-width: 1.0;"/><line style="stroke: #A80036; stroke-width: 1.0; stroke-dasharray: 5.0,5.0;" x1="46" x2="46" y1="86.2969" y2="445.8516"/><line style="stroke: #A80036; stroke-width: 1.0; stroke-dasharray: 5.0,5.0;" x1="175.5" x2="175.5" y1="86.2969" y2="445.8516"/><line style="stroke: #A80036; stroke-width: 1.0; stroke-dasharray: 5.0,5.0;" x1="329.5" x2="329.5" y1="158.0781" y2="445.8516"/><line style="stroke: #A80036; stroke-width: 1.0; stroke-dasharray: 5.0,5.0;" x1="530.5" x2="530.5" y1="203.375" y2="445.8516"/><line style="stroke: #A80036; stroke-width: 1.0; stroke-dasharray: 5.0,5.0;" x1="683.5" x2="683.5" y1="279.3047" y2="445.8516"/><text fill="#000000" font-family="sans-serif" font-size="14" lengthAdjust="spacingAndGlyphs" text-decoration="underline" textLength="71" x="8" y="82.9951">b:Browser</text><line style="stroke: #000000; stroke-width: 1.0;" x1="8" x2="79" y1="84.9951" y2="84.9951"/><ellipse cx="46.5" cy="13" fill="#FEFECE" filter="url(#f1tfco31243e5q)" rx="8" ry="8" style="stroke: #A80036; stroke-width: 2.0;"/><path d="M46.5,21 L46.5,48 M33.5,29 L59.5,29 M46.5,48 L33.5,63 M46.5,48 L59.5,63 " fill="#FEFECE" filter="url(#f1tfco31243e5q)" style="stroke: #A80036; stroke-width: 2.0;"/><text fill="#000000" font-family="sans-serif" font-size="14" lengthAdjust="spacingAndGlyphs" text-decoration="underline" textLength="80" x="132.5" y="82.9951">c:Container</text><line style="stroke: #000000; stroke-width: 1.0;" x1="132.5" x2="212.5" y1="84.9951" y2="84.9951"/><path d="M155,42 L155,66 M155,54 L172,54 " fill="#FEFECE" filter="url(#f1tfco31243e5q)" style="stroke: #A80036; stroke-width: 2.0;"/><ellipse cx="184" cy="54" fill="#FEFECE" filter="url(#f1tfco31243e5q)" rx="12" ry="12" style="stroke: #A80036; stroke-width: 2.0;"/><rect fill="#FFFFFF" filter="url(#f1tfco31243e5q)" height="331.4219" style="stroke: #A80036; stroke-width: 1.0;" width="10" x="41.5" y="96.2969"/><rect fill="#FFFFFF" filter="url(#f1tfco31243e5q)" height="310.4219" style="stroke: #A80036; stroke-width: 1.0;" width="10" x="170.5" y="117.2969"/><rect fill="#FFFFFF" filter="url(#f1tfco31243e5q)" height="65.1328" style="stroke: #A80036; stroke-width: 1.0;" width="10" x="679" y="326.4531"/><rect fill="#FFFFFF" filter="url(#f1tfco31243e5q)" height="28" style="stroke: #A80036; stroke-width: 1.0;" width="10" x="684" y="363.5859"/><polygon fill="#A80036" points="158.5,113.2969,168.5,117.2969,158.5,121.2969,162.5,117.2969" style="stroke: #A80036; stroke-width: 1.0;"/><line style="stroke: #A80036; stroke-width: 1.0;" x1="51.5" x2="164.5" y1="117.2969" y2="117.2969"/><text fill="#000000" font-family="sans-serif" font-size="13" lengthAdjust="spacingAndGlyphs" textLength="85" x="58.5" y="112.3638">HTTP request</text><polygon fill="#A80036" points="227.5,142.4297,237.5,146.4297,227.5,150.4297,231.5,146.4297" style="stroke: #A80036; stroke-width: 1.0;"/><line style="stroke: #A80036; stroke-width: 1.0;" x1="180.5" x2="233.5" y1="146.4297" y2="146.4297"/><text fill="#000000" font-family="sans-serif" font-size="13" lengthAdjust="spacingAndGlyphs" textLength="35" x="187.5" y="141.4966">new()</text><rect fill="#FEFECE" filter="url(#f1tfco31243e5q)" height="30.2969" style="stroke: #A80036; stroke-width: 1.5;" width="177" x="239.5" y="125.4297"/><text fill="#000000" font-family="sans-serif" font-size="14" lengthAdjust="spacingAndGlyphs" text-decoration="underline" textLength="163" x="246.5" y="145.4248">req:HttpServletRequest</text><line style="stroke: #000000; stroke-width: 1.0;" x1="246.5" x2="409.5" y1="147.4248" y2="147.4248"/><polygon fill="#A80036" points="418.5,187.7266,428.5,191.7266,418.5,195.7266,422.5,191.7266" style="stroke: #A80036; stroke-width: 1.0;"/><line style="stroke: #A80036; stroke-width: 1.0;" x1="180.5" x2="424.5" y1="191.7266" y2="191.7266"/><text fill="#000000" font-family="sans-serif" font-size="13" lengthAdjust="spacingAndGlyphs" textLength="35" x="187.5" y="186.7935">new()</text><rect fill="#FEFECE" filter="url(#f1tfco31243e5q)" height="30.2969" style="stroke: #A80036; stroke-width: 1.5;" width="197" x="430.5" y="170.7266"/><text fill="#000000" font-family="sans-serif" font-size="14" lengthAdjust="spacingAndGlyphs" text-decoration="underline" textLength="183" x="437.5" y="190.7217">resp:HttpServletResponse</text><line style="stroke: #000000; stroke-width: 1.0;" x1="437.5" x2="620.5" y1="192.7217" y2="192.7217"/><rect fill="none" height="75.4297" style="stroke: #000000; stroke-width: 2.0;" width="614" x="122.5" y="223.0234"/><polygon fill="#EEEEEE" points="122.5,223.0234,186.5,223.0234,186.5,230.0234,176.5,240.0234,122.5,240.0234,122.5,223.0234" style="stroke: #000000; stroke-width: 2.0;"/><text fill="#000000" font-family="sans-serif" font-size="13" font-weight="bold" lengthAdjust="spacingAndGlyphs" textLength="19" x="137.5" y="236.0903">alt</text><text fill="#000000" font-family="sans-serif" font-size="11" font-weight="bold" lengthAdjust="spacingAndGlyphs" textLength="88" x="201.5" y="235.2339">[If necessary]</text><polygon fill="#A80036" points="629.5,257.1563,639.5,261.1563,629.5,265.1563,633.5,261.1563" style="stroke: #A80036; stroke-width: 1.0;"/><line style="stroke: #A80036; stroke-width: 1.0;" x1="180.5" x2="635.5" y1="261.1563" y2="261.1563"/><text fill="#000000" font-family="sans-serif" font-size="13" lengthAdjust="spacingAndGlyphs" textLength="35" x="187.5" y="256.2231">new()</text><text fill="#000000" font-family="sans-serif" font-size="14" lengthAdjust="spacingAndGlyphs" text-decoration="underline" textLength="79" x="641.5" y="285.1514">s:MyServlet</text><line style="stroke: #000000; stroke-width: 1.0;" x1="641.5" x2="720.5" y1="287.1514" y2="287.1514"/><ellipse cx="684" cy="256.1563" fill="#FEFECE" filter="url(#f1tfco31243e5q)" rx="12" ry="12" style="stroke: #A80036; stroke-width: 2.0;"/><polygon fill="#A80036" points="680,244.1563,686,239.1563,684,244.1563,686,249.1563,680,244.1563" style="stroke: #A80036; stroke-width: 1.0;"/><polygon fill="#A80036" points="667,322.4531,677,326.4531,667,330.4531,671,326.4531" style="stroke: #A80036; stroke-width: 1.0;"/><line style="stroke: #A80036; stroke-width: 1.0;" x1="180.5" x2="673" y1="326.4531" y2="326.4531"/><text fill="#000000" font-family="sans-serif" font-size="13" lengthAdjust="spacingAndGlyphs" textLength="112" x="187.5" y="321.52">service(req, resp)</text><line style="stroke: #A80036; stroke-width: 1.0;" x1="694" x2="736" y1="355.7188" y2="355.7188"/><line style="stroke: #A80036; stroke-width: 1.0;" x1="736" x2="736" y1="355.7188" y2="368.7188"/><line style="stroke: #A80036; stroke-width: 1.0;" x1="695" x2="736" y1="368.7188" y2="368.7188"/><polygon fill="#A80036" points="705,364.7188,695,368.7188,705,372.7188,701,368.7188" style="stroke: #A80036; stroke-width: 1.0;"/><text fill="#000000" font-family="sans-serif" font-size="13" lengthAdjust="spacingAndGlyphs" textLength="107" x="701" y="350.6528">doXXX(req, resp)</text><polygon fill="#A80036" points="57.5,423.7188,47.5,427.7188,57.5,431.7188,53.5,427.7188" style="stroke: #A80036; stroke-width: 1.0;"/><line style="stroke: #A80036; stroke-width: 1.0;" x1="51.5" x2="174.5" y1="427.7188" y2="427.7188"/><text fill="#000000" font-family="sans-serif" font-size="13" lengthAdjust="spacingAndGlyphs" textLength="95" x="63.5" y="422.7856">HTTP response</text><!--
@startuml
actor "<u>b:Browser</u>" as browser
boundary "<u>c:Container</u>" as container
participant "<u>req:HttpServletRequest</u>" as req
participant "<u>resp:HttpServletResponse</u>" as resp
control "<u>s:MyServlet</u>" as servlet
activate browser
browser -> container: HTTP request
activate container
create req
container -> req: new()
create resp
container -> resp: new()
create servlet
alt If necessary
container -> servlet: new()
end alt
container -> servlet: service(req, resp)
activate servlet
servlet -> servlet: doXXX(req, resp)
activate servlet
deactivate servlet
deactivate servlet
browser <- container : HTTP response
deactivate container
deactivate browser
hide footbox
@enduml

PlantUML version 1.2017.16beta5(Unknown compile time)
(GPL source distribution)
Java Runtime: Java(TM) SE Runtime Environment
JVM: Java HotSpot(TM) 64-Bit Server VM
Java Version: 1.7.0_25-b15
Operating System: Linux
Default Encoding: UTF-8
Language: en
Country: US
--></g></svg>