<?xml version="1.0" encoding="UTF-8" standalone="no"?><svg xmlns="http://www.w3.org/2000/svg" xmlns:xlink="http://www.w3.org/1999/xlink" contentScriptType="application/ecmascript" contentStyleType="text/css" preserveAspectRatio="true" version="1.1" viewBox="0 0 728 487" zoomAndPan="magnify"><defs><filter height="300%" id="fqnu3m5texvwe" width="300%" x="-1" y="-1"><feGaussianBlur result="blurOut" stdDeviation="2.0"/><feColorMatrix in="blurOut" result="blurOut2" type="matrix" values="0 0 0 0 0 0 0 0 0 0 0 0 0 0 0 0 0 0 .4 0"/><feOffset dx="4.0" dy="4.0" in="blurOut2" result="blurOut3"/><feBlend in="SourceGraphic" in2="blurOut3" mode="normal"/></filter></defs><g><!--cluster javax.servlet--><polygon fill="#FFFFFF" filter="url(#fqnu3m5texvwe)" points="22,24,128,24,135,46.2969,706,46.2969,706,258,22,258,22,24" style="stroke: #000000; stroke-width: 2.0;"/><line style="stroke: #000000; stroke-width: 2.0;" x1="22" x2="135" y1="46.2969" y2="46.2969"/><text fill="#000000" font-family="sans-serif" font-size="14" font-weight="bold" lengthAdjust="spacingAndGlyphs" textLength="100" x="26" y="38.9951">javax.servlet</text><!--cluster javax.servlet.http--><polygon fill="#FFFFFF" filter="url(#fqnu3m5texvwe)" points="149,282,292,282,299,304.2969,563,304.2969,563,475,149,475,149,282" style="stroke: #000000; stroke-width: 2.0;"/><line style="stroke: #000000; stroke-width: 2.0;" x1="149" x2="299" y1="304.2969" y2="304.2969"/><text fill="#000000" font-family="sans-serif" font-size="14" font-weight="bold" lengthAdjust="spacingAndGlyphs" textLength="137" x="153" y="296.9951">javax.servlet.http</text><!--class Servlet--><rect fill="#FEFECE" filter="url(#fqnu3m5texvwe)" height="78.4141" id="Servlet" style="stroke: #A80036; stroke-width: 1.5;" width="317" x="38.5" y="65.5"/><ellipse cx="171.25" cy="81.5" fill="#B4A7E5" rx="11" ry="11" style="stroke: #A80036; stroke-width: 1.0;"/><path d="M172.2031,78.2813 L172.2031,84.7969 L173.9219,84.7969 C174.375,84.7969 174.5156,84.8281 174.6875,84.9531 C174.9219,85.125 175.0313,85.375 175.0313,85.6563 C175.0313,86.2188 174.6719,86.5 173.9219,86.5 L168.7813,86.5 C168.375,86.5 168.1719,86.4531 168.0156,86.3281 C167.7969,86.1719 167.6563,85.9063 167.6563,85.6563 C167.6563,85.3594 167.8125,85.0781 168.0625,84.9219 C168.2188,84.8125 168.3438,84.7969 168.7813,84.7969 L170.5,84.7969 L170.5,78.2813 L168.7813,78.2813 C168.3594,78.2813 168.1719,78.25 168.0156,78.1406 C167.7969,77.9688 167.6563,77.7188 167.6563,77.4375 C167.6563,77.1563 167.8125,76.8594 168.0625,76.7031 C168.2188,76.6094 168.3438,76.5938 168.7813,76.5938 L173.9219,76.5938 C174.375,76.5938 174.5156,76.625 174.6875,76.7344 C174.9219,76.9063 175.0313,77.1719 175.0313,77.4375 C175.0313,77.7344 174.8906,78.0156 174.625,78.1719 C174.5,78.25 174.3125,78.2813 173.9219,78.2813 Z "/><text fill="#000000" font-family="sans-serif" font-size="12" font-style="italic" lengthAdjust="spacingAndGlyphs" textLength="43" x="191.75" y="85.6543">Servlet</text><line style="stroke: #A80036; stroke-width: 1.5;" x1="39.5" x2="354.5" y1="97.5" y2="97.5"/><ellipse cx="49.5" cy="109.4023" fill="#84BE84" rx="3" ry="3" style="stroke: #038048; stroke-width: 1.0;"/><text fill="#000000" font-family="sans-serif" font-size="11" font-style="italic" lengthAdjust="spacingAndGlyphs" textLength="139" x="58.5" y="111.7104">init(ServletConfig config)</text><ellipse cx="49.5" cy="122.207" fill="#84BE84" rx="3" ry="3" style="stroke: #038048; stroke-width: 1.0;"/><text fill="#000000" font-family="sans-serif" font-size="11" font-style="italic" lengthAdjust="spacingAndGlyphs" textLength="291" x="58.5" y="124.5151">service(req: ServletRequest, res: ServletResponse)</text><ellipse cx="49.5" cy="135.0117" fill="#84BE84" rx="3" ry="3" style="stroke: #038048; stroke-width: 1.0;"/><text fill="#000000" font-family="sans-serif" font-size="11" font-style="italic" lengthAdjust="spacingAndGlyphs" textLength="51" x="58.5" y="137.3198">destroy()</text><!--class ServletConfig--><rect fill="#FEFECE" filter="url(#fqnu3m5texvwe)" height="91.2188" id="ServletConfig" style="stroke: #A80036; stroke-width: 1.5;" width="299" x="390.5" y="59"/><ellipse cx="494.75" cy="75" fill="#B4A7E5" rx="11" ry="11" style="stroke: #A80036; stroke-width: 1.0;"/><path d="M495.7031,71.7813 L495.7031,78.2969 L497.4219,78.2969 C497.875,78.2969 498.0156,78.3281 498.1875,78.4531 C498.4219,78.625 498.5313,78.875 498.5313,79.1563 C498.5313,79.7188 498.1719,80 497.4219,80 L492.2813,80 C491.875,80 491.6719,79.9531 491.5156,79.8281 C491.2969,79.6719 491.1563,79.4063 491.1563,79.1563 C491.1563,78.8594 491.3125,78.5781 491.5625,78.4219 C491.7188,78.3125 491.8438,78.2969 492.2813,78.2969 L494,78.2969 L494,71.7813 L492.2813,71.7813 C491.8594,71.7813 491.6719,71.75 491.5156,71.6406 C491.2969,71.4688 491.1563,71.2188 491.1563,70.9375 C491.1563,70.6563 491.3125,70.3594 491.5625,70.2031 C491.7188,70.1094 491.8438,70.0938 492.2813,70.0938 L497.4219,70.0938 C497.875,70.0938 498.0156,70.125 498.1875,70.2344 C498.4219,70.4063 498.5313,70.6719 498.5313,70.9375 C498.5313,71.2344 498.3906,71.5156 498.125,71.6719 C498,71.75 497.8125,71.7813 497.4219,71.7813 Z "/><text fill="#000000" font-family="sans-serif" font-size="12" font-style="italic" lengthAdjust="spacingAndGlyphs" textLength="82" x="515.25" y="79.1543">ServletConfig</text><line style="stroke: #A80036; stroke-width: 1.5;" x1="391.5" x2="688.5" y1="91" y2="91"/><ellipse cx="401.5" cy="102.9023" fill="#84BE84" rx="3" ry="3" style="stroke: #038048; stroke-width: 1.0;"/><text fill="#000000" font-family="sans-serif" font-size="11" font-style="italic" lengthAdjust="spacingAndGlyphs" textLength="140" x="410.5" y="105.2104">getServletName(): String</text><ellipse cx="401.5" cy="115.707" fill="#84BE84" rx="3" ry="3" style="stroke: #038048; stroke-width: 1.0;"/><text fill="#000000" font-family="sans-serif" font-size="11" font-style="italic" lengthAdjust="spacingAndGlyphs" textLength="202" x="410.5" y="118.0151">getServletContext(): ServletContext</text><ellipse cx="401.5" cy="128.5117" fill="#84BE84" rx="3" ry="3" style="stroke: #038048; stroke-width: 1.0;"/><text fill="#000000" font-family="sans-serif" font-size="11" font-style="italic" lengthAdjust="spacingAndGlyphs" textLength="217" x="410.5" y="130.8198">getInitParameter(name: String): String</text><ellipse cx="401.5" cy="141.3164" fill="#84BE84" rx="3" ry="3" style="stroke: #038048; stroke-width: 1.0;"/><text fill="#000000" font-family="sans-serif" font-size="11" font-style="italic" lengthAdjust="spacingAndGlyphs" textLength="273" x="410.5" y="143.6245">getInitParameterNames(): Enumeration&lt;String&gt;</text><!--class GenericServlet--><rect fill="#FEFECE" filter="url(#fqnu3m5texvwe)" height="32" id="GenericServlet" style="stroke: #A80036; stroke-width: 1.5;" width="123" x="294.5" y="210"/><ellipse cx="309.5" cy="226" fill="#A9DCDF" rx="11" ry="11" style="stroke: #A80036; stroke-width: 1.0;"/><path d="M311.0781,227.8125 L307.0313,227.8125 L306.6406,228.7969 L307.0313,228.7969 C307.4844,228.7969 307.625,228.8281 307.7969,228.9531 C308.0156,229.125 308.1406,229.375 308.1406,229.6563 C308.1406,229.9375 308,230.2344 307.7344,230.375 C307.6094,230.4688 307.3906,230.5 307.0313,230.5 L304.7656,230.5 C304.0156,230.5 303.6406,230.2188 303.6406,229.6563 C303.6406,229.3594 303.7969,229.0781 304.0469,228.9219 C304.2031,228.8125 304.3594,228.7969 304.7813,228.7969 L307.4219,222.2813 L306.3438,222.2813 C305.9063,222.2813 305.7344,222.25 305.5625,222.1406 C305.3438,221.9688 305.2031,221.7188 305.2031,221.4375 C305.2031,221.1563 305.3594,220.875 305.6094,220.7031 C305.7656,220.6094 305.8906,220.5938 306.3438,220.5938 L310.0156,220.5938 L313.4063,228.7969 C313.875,228.7969 314.0313,228.8281 314.2031,228.9688 C314.4219,229.125 314.5625,229.375 314.5625,229.6563 C314.5625,229.9375 314.4063,230.2344 314.1563,230.375 C314.0156,230.4688 313.7969,230.5 313.4375,230.5 L311.0781,230.5 C310.6563,230.5 310.4531,230.4531 310.3125,230.3281 C310.0938,230.1719 309.9531,229.9219 309.9531,229.6563 C309.9531,229.3594 310.1094,229.0781 310.3594,228.9219 C310.5156,228.8125 310.625,228.7969 311.0781,228.7969 L311.4688,228.7969 Z M310.375,226.1094 L309.0469,222.8438 L307.7031,226.1094 Z "/><text fill="#000000" font-family="sans-serif" font-size="12" font-style="italic" lengthAdjust="spacingAndGlyphs" textLength="91" x="323.5" y="230.1543">GenericServlet</text><!--class HttpServlet--><rect fill="#FEFECE" filter="url(#fqnu3m5texvwe)" height="142.4375" id="HttpServlet" style="stroke: #A80036; stroke-width: 1.5;" width="382" x="165" y="317"/><ellipse cx="316.75" cy="333" fill="#A9DCDF" rx="11" ry="11" style="stroke: #A80036; stroke-width: 1.0;"/><path d="M318.3281,334.8125 L314.2813,334.8125 L313.8906,335.7969 L314.2813,335.7969 C314.7344,335.7969 314.875,335.8281 315.0469,335.9531 C315.2656,336.125 315.3906,336.375 315.3906,336.6563 C315.3906,336.9375 315.25,337.2344 314.9844,337.375 C314.8594,337.4688 314.6406,337.5 314.2813,337.5 L312.0156,337.5 C311.2656,337.5 310.8906,337.2188 310.8906,336.6563 C310.8906,336.3594 311.0469,336.0781 311.2969,335.9219 C311.4531,335.8125 311.6094,335.7969 312.0313,335.7969 L314.6719,329.2813 L313.5938,329.2813 C313.1563,329.2813 312.9844,329.25 312.8125,329.1406 C312.5938,328.9688 312.4531,328.7188 312.4531,328.4375 C312.4531,328.1563 312.6094,327.875 312.8594,327.7031 C313.0156,327.6094 313.1406,327.5938 313.5938,327.5938 L317.2656,327.5938 L320.6563,335.7969 C321.125,335.7969 321.2813,335.8281 321.4531,335.9688 C321.6719,336.125 321.8125,336.375 321.8125,336.6563 C321.8125,336.9375 321.6563,337.2344 321.4063,337.375 C321.2656,337.4688 321.0469,337.5 320.6875,337.5 L318.3281,337.5 C317.9063,337.5 317.7031,337.4531 317.5625,337.3281 C317.3438,337.1719 317.2031,336.9219 317.2031,336.6563 C317.2031,336.3594 317.3594,336.0781 317.6094,335.9219 C317.7656,335.8125 317.875,335.7969 318.3281,335.7969 L318.7188,335.7969 Z M317.625,333.1094 L316.2969,329.8438 L314.9531,333.1094 Z "/><text fill="#000000" font-family="sans-serif" font-size="12" font-style="italic" lengthAdjust="spacingAndGlyphs" textLength="70" x="337.25" y="337.1543">HttpServlet</text><line style="stroke: #A80036; stroke-width: 1.5;" x1="166" x2="546" y1="349" y2="349"/><polygon fill="#FFFF44" points="176,355.9023,180,359.9023,176,363.9023,172,359.9023" style="stroke: #B38D22; stroke-width: 1.0;"/><text fill="#000000" font-family="sans-serif" font-size="11" lengthAdjust="spacingAndGlyphs" textLength="348" x="185" y="363.2104">doDelete(req: HttpServletRequest, res: HttpServletResponse)</text><polygon fill="#FFFF44" points="176,368.707,180,372.707,176,376.707,172,372.707" style="stroke: #B38D22; stroke-width: 1.0;"/><text fill="#000000" font-family="sans-serif" font-size="11" lengthAdjust="spacingAndGlyphs" textLength="332" x="185" y="376.0151">doGet(req: HttpServletRequest, res: HttpServletResponse)</text><polygon fill="#FFFF44" points="176,381.5117,180,385.5117,176,389.5117,172,385.5117" style="stroke: #B38D22; stroke-width: 1.0;"/><text fill="#000000" font-family="sans-serif" font-size="11" lengthAdjust="spacingAndGlyphs" textLength="341" x="185" y="388.8198">doHead(req: HttpServletRequest, res: HttpServletResponse)</text><polygon fill="#FFFF44" points="176,394.3164,180,398.3164,176,402.3164,172,398.3164" style="stroke: #B38D22; stroke-width: 1.0;"/><text fill="#000000" font-family="sans-serif" font-size="11" lengthAdjust="spacingAndGlyphs" textLength="356" x="185" y="401.6245">doOptions(req: HttpServletRequest, res: HttpServletResponse)</text><polygon fill="#FFFF44" points="176,407.1211,180,411.1211,176,415.1211,172,411.1211" style="stroke: #B38D22; stroke-width: 1.0;"/><text fill="#000000" font-family="sans-serif" font-size="11" lengthAdjust="spacingAndGlyphs" textLength="337" x="185" y="414.4292">doPost(req: HttpServletRequest, res: HttpServletResponse)</text><polygon fill="#FFFF44" points="176,419.9258,180,423.9258,176,427.9258,172,423.9258" style="stroke: #B38D22; stroke-width: 1.0;"/><text fill="#000000" font-family="sans-serif" font-size="11" lengthAdjust="spacingAndGlyphs" textLength="330" x="185" y="427.2339">doPut(req: HttpServletRequest, res: HttpServletResponse)</text><polygon fill="#FFFF44" points="176,432.7305,180,436.7305,176,440.7305,172,436.7305" style="stroke: #B38D22; stroke-width: 1.0;"/><text fill="#000000" font-family="sans-serif" font-size="11" lengthAdjust="spacingAndGlyphs" textLength="344" x="185" y="440.0386">doTrace(req: HttpServletRequest, res: HttpServletResponse)</text><polygon fill="#FFFF44" points="176,445.5352,180,449.5352,176,453.5352,172,449.5352" style="stroke: #B38D22; stroke-width: 1.0;"/><text fill="#000000" font-family="sans-serif" font-size="11" lengthAdjust="spacingAndGlyphs" textLength="339" x="185" y="452.8433">service(req: HttpServletRequest, res: HttpServletResponse)</text><!--link Servlet to GenericServlet--><path d="M263.934,155.806 C289.795,175.242 317.476,196.047 335.656,209.71 " fill="none" id="Servlet-GenericServlet" style="stroke: #A80036; stroke-width: 1.0;"/><polygon fill="none" points="259.528,161.251,247.746,143.639,267.939,150.059,259.528,161.251" style="stroke: #A80036; stroke-width: 1.0;"/><!--link ServletConfig to GenericServlet--><path d="M454.21,161.217 C426.586,179.157 398.212,197.585 379.111,209.99 " fill="none" id="ServletConfig-GenericServlet" style="stroke: #A80036; stroke-width: 1.0;"/><polygon fill="none" points="450.638,155.19,471.224,150.167,458.263,166.931,450.638,155.19" style="stroke: #A80036; stroke-width: 1.0;"/><!--link GenericServlet to HttpServlet--><path d="M356,262.247 C356,278.31 356,297.921 356,316.794 " fill="none" id="GenericServlet-HttpServlet" style="stroke: #A80036; stroke-width: 1.0;"/><polygon fill="none" points="349,262.052,356,242.052,363,262.052,349,262.052" style="stroke: #A80036; stroke-width: 1.0;"/><!--
@startuml
package "javax.servlet" {
 interface Servlet {
  {abstract} + init(ServletConfig config)
  {abstract} + service(req: ServletRequest, res: ServletResponse)
  {abstract} + destroy()
 }
 interface ServletConfig {
  {abstract} + getServletName(): String
  {abstract} + getServletContext(): ServletContext
  {abstract} + getInitParameter(name: String): String
  {abstract} + getInitParameterNames(): Enumeration<String>
 }
 abstract class GenericServlet {

 }
 GenericServlet -up-|> Servlet
 GenericServlet -up-|> ServletConfig
}
package "javax.servlet.http" {
 abstract class HttpServlet {
  # doDelete(req: HttpServletRequest, res: HttpServletResponse)
  # doGet(req: HttpServletRequest, res: HttpServletResponse)
  # doHead(req: HttpServletRequest, res: HttpServletResponse)
  # doOptions(req: HttpServletRequest, res: HttpServletResponse)
  # doPost(req: HttpServletRequest, res: HttpServletResponse)
  # doPut(req: HttpServletRequest, res: HttpServletResponse)
  # doTrace(req: HttpServletRequest, res: HttpServletResponse)
  # service(req: HttpServletRequest, res: HttpServletResponse)
  }
}
HttpServlet -up-|> GenericServlet
hide empty attributes
hide empty methods
@enduml

PlantUML version 1.2017.16beta1(Unknown compile time)
(GPL source distribution)
Java Runtime: Java(TM) SE Runtime Environment
JVM: Java HotSpot(TM) 64-Bit Server VM
Java Version: 1.7.0_25-b15
Operating System: Linux
Default Encoding: UTF-8
Language: en
Country: US
--></g></svg>