<?xml version="1.0" encoding="UTF-8" standalone="no"?><svg xmlns="http://www.w3.org/2000/svg" xmlns:xlink="http://www.w3.org/1999/xlink" contentScriptType="application/ecmascript" contentStyleType="text/css" height="381px" preserveAspectRatio="none" style="width:747px;height:381px;" version="1.1" viewBox="0 0 747 381" width="747px" zoomAndPan="magnify"><defs><filter height="300%" id="f99l93lfy9ph8" width="300%" x="-1" y="-1"><feGaussianBlur result="blurOut" stdDeviation="2.0"/><feColorMatrix in="blurOut" result="blurOut2" type="matrix" values="0 0 0 0 0 0 0 0 0 0 0 0 0 0 0 0 0 0 .4 0"/><feOffset dx="4.0" dy="4.0" in="blurOut2" result="blurOut3"/><feBlend in="SourceGraphic" in2="blurOut3" mode="normal"/></filter></defs><g><!--cluster javax.servlet--><polygon fill="#FFFFFF" filter="url(#f99l93lfy9ph8)" points="22,24,128,24,135,46.2969,509,46.2969,509,369,22,369,22,24" style="stroke: #000000; stroke-width: 1.5;"/><line style="stroke: #000000; stroke-width: 1.5;" x1="22" x2="135" y1="46.2969" y2="46.2969"/><text fill="#000000" font-family="sans-serif" font-size="14" font-weight="bold" lengthAdjust="spacingAndGlyphs" textLength="100" x="26" y="38.9951">javax.servlet</text><!--cluster http--><polygon fill="#FFFFFF" filter="url(#f99l93lfy9ph8)" points="203,190,241,190,248,212.2969,485,212.2969,485,345,203,345,203,190" style="stroke: #000000; stroke-width: 1.5;"/><line style="stroke: #000000; stroke-width: 1.5;" x1="203" x2="248" y1="212.2969" y2="212.2969"/><text fill="#000000" font-family="sans-serif" font-size="14" font-weight="bold" lengthAdjust="spacingAndGlyphs" textLength="32" x="207" y="204.9951">http</text><!--cluster java.io--><polygon fill="#FFFFFF" filter="url(#f99l93lfy9ph8)" points="533,24,589,24,596,46.2969,725,46.2969,725,166,533,166,533,24" style="stroke: #000000; stroke-width: 1.5;"/><line style="stroke: #000000; stroke-width: 1.5;" x1="533" x2="596" y1="46.2969" y2="46.2969"/><text fill="#000000" font-family="sans-serif" font-size="14" font-weight="bold" lengthAdjust="spacingAndGlyphs" textLength="50" x="537" y="38.9951">java.io</text><!--class ServletOutputStream--><rect fill="#FEFECE" filter="url(#f99l93lfy9ph8)" height="91.2188" id="ServletOutputStream" style="stroke: #A80036; stroke-width: 1.5;" width="162" x="38" y="59"/><ellipse cx="53" cy="75" fill="#A9DCDF" rx="11" ry="11" style="stroke: #A80036; stroke-width: 1.0;"/><path d="M54.5781,76.8125 L50.5313,76.8125 L50.1406,77.7969 L50.5313,77.7969 C50.9844,77.7969 51.125,77.8281 51.2969,77.9531 C51.5156,78.125 51.6406,78.375 51.6406,78.6563 C51.6406,78.9375 51.5,79.2344 51.2344,79.375 C51.1094,79.4688 50.8906,79.5 50.5313,79.5 L48.2656,79.5 C47.5156,79.5 47.1406,79.2188 47.1406,78.6563 C47.1406,78.3594 47.2969,78.0781 47.5469,77.9219 C47.7031,77.8125 47.8594,77.7969 48.2813,77.7969 L50.9219,71.2813 L49.8438,71.2813 C49.4063,71.2813 49.2344,71.25 49.0625,71.1406 C48.8438,70.9688 48.7031,70.7188 48.7031,70.4375 C48.7031,70.1563 48.8594,69.875 49.1094,69.7031 C49.2656,69.6094 49.3906,69.5938 49.8438,69.5938 L53.5156,69.5938 L56.9063,77.7969 C57.375,77.7969 57.5313,77.8281 57.7031,77.9688 C57.9219,78.125 58.0625,78.375 58.0625,78.6563 C58.0625,78.9375 57.9063,79.2344 57.6563,79.375 C57.5156,79.4688 57.2969,79.5 56.9375,79.5 L54.5781,79.5 C54.1563,79.5 53.9531,79.4531 53.8125,79.3281 C53.5938,79.1719 53.4531,78.9219 53.4531,78.6563 C53.4531,78.3594 53.6094,78.0781 53.8594,77.9219 C54.0156,77.8125 54.125,77.7969 54.5781,77.7969 L54.9688,77.7969 Z M53.875,75.1094 L52.5469,71.8438 L51.2031,75.1094 Z "/><text fill="#000000" font-family="sans-serif" font-size="12" font-style="italic" lengthAdjust="spacingAndGlyphs" textLength="130" x="67" y="79.1543">ServletOutputStream</text><line style="stroke: #A80036; stroke-width: 1.5;" x1="39" x2="199" y1="91" y2="91"/><ellipse cx="49" cy="102.9023" fill="#84BE84" rx="3" ry="3" style="stroke: #038048; stroke-width: 1.0;"/><text fill="#000000" font-family="sans-serif" font-size="11" font-style="italic" lengthAdjust="spacingAndGlyphs" textLength="123" x="58" y="105.2104">print(value: primitive)</text><ellipse cx="49" cy="115.707" fill="#84BE84" rx="3" ry="3" style="stroke: #038048; stroke-width: 1.0;"/><text fill="#000000" font-family="sans-serif" font-size="11" font-style="italic" lengthAdjust="spacingAndGlyphs" textLength="106" x="58" y="118.0151">print(value: String)</text><ellipse cx="49" cy="128.5117" fill="#84BE84" rx="3" ry="3" style="stroke: #038048; stroke-width: 1.0;"/><text fill="#000000" font-family="sans-serif" font-size="11" font-style="italic" lengthAdjust="spacingAndGlyphs" textLength="133" x="58" y="130.8198">println(value: primitive)</text><ellipse cx="49" cy="141.3164" fill="#84BE84" rx="3" ry="3" style="stroke: #038048; stroke-width: 1.0;"/><text fill="#000000" font-family="sans-serif" font-size="11" font-style="italic" lengthAdjust="spacingAndGlyphs" textLength="116" x="58" y="143.6245">println(value: String)</text><!--class ServletResponse--><rect fill="#FEFECE" filter="url(#f99l93lfy9ph8)" height="78.4141" id="ServletResponse" style="stroke: #A80036; stroke-width: 1.5;" width="258" x="235" y="65.5"/><ellipse cx="308.25" cy="81.5" fill="#B4A7E5" rx="11" ry="11" style="stroke: #A80036; stroke-width: 1.0;"/><path d="M309.2031,78.2813 L309.2031,84.7969 L310.9219,84.7969 C311.375,84.7969 311.5156,84.8281 311.6875,84.9531 C311.9219,85.125 312.0313,85.375 312.0313,85.6563 C312.0313,86.2188 311.6719,86.5 310.9219,86.5 L305.7813,86.5 C305.375,86.5 305.1719,86.4531 305.0156,86.3281 C304.7969,86.1719 304.6563,85.9063 304.6563,85.6563 C304.6563,85.3594 304.8125,85.0781 305.0625,84.9219 C305.2188,84.8125 305.3438,84.7969 305.7813,84.7969 L307.5,84.7969 L307.5,78.2813 L305.7813,78.2813 C305.3594,78.2813 305.1719,78.25 305.0156,78.1406 C304.7969,77.9688 304.6563,77.7188 304.6563,77.4375 C304.6563,77.1563 304.8125,76.8594 305.0625,76.7031 C305.2188,76.6094 305.3438,76.5938 305.7813,76.5938 L310.9219,76.5938 C311.375,76.5938 311.5156,76.625 311.6875,76.7344 C311.9219,76.9063 312.0313,77.1719 312.0313,77.4375 C312.0313,77.7344 311.8906,78.0156 311.625,78.1719 C311.5,78.25 311.3125,78.2813 310.9219,78.2813 Z "/><text fill="#000000" font-family="sans-serif" font-size="12" font-style="italic" lengthAdjust="spacingAndGlyphs" textLength="103" x="328.75" y="85.6543">ServletResponse</text><line style="stroke: #A80036; stroke-width: 1.5;" x1="236" x2="492" y1="97.5" y2="97.5"/><ellipse cx="246" cy="109.4023" fill="#84BE84" rx="3" ry="3" style="stroke: #038048; stroke-width: 1.0;"/><text fill="#000000" font-family="sans-serif" font-size="11" font-style="italic" lengthAdjust="spacingAndGlyphs" textLength="232" x="255" y="111.7104">getOutputStream(): ServletOutputStream</text><ellipse cx="246" cy="122.207" fill="#84BE84" rx="3" ry="3" style="stroke: #038048; stroke-width: 1.0;"/><text fill="#000000" font-family="sans-serif" font-size="11" font-style="italic" lengthAdjust="spacingAndGlyphs" textLength="130" x="255" y="124.5151">getWriter(): PrintWriter</text><ellipse cx="246" cy="135.0117" fill="#84BE84" rx="3" ry="3" style="stroke: #038048; stroke-width: 1.0;"/><text fill="#000000" font-family="sans-serif" font-size="11" font-style="italic" lengthAdjust="spacingAndGlyphs" textLength="163" x="255" y="137.3198">setContentType(type: String)</text><!--class HttpServletResponse--><rect fill="#FEFECE" filter="url(#f99l93lfy9ph8)" height="104.0234" id="HttpServletResponse" style="stroke: #A80036; stroke-width: 1.5;" width="249" x="219.5" y="225"/><ellipse cx="274.75" cy="241" fill="#B4A7E5" rx="11" ry="11" style="stroke: #A80036; stroke-width: 1.0;"/><path d="M275.7031,237.7813 L275.7031,244.2969 L277.4219,244.2969 C277.875,244.2969 278.0156,244.3281 278.1875,244.4531 C278.4219,244.625 278.5313,244.875 278.5313,245.1563 C278.5313,245.7188 278.1719,246 277.4219,246 L272.2813,246 C271.875,246 271.6719,245.9531 271.5156,245.8281 C271.2969,245.6719 271.1563,245.4063 271.1563,245.1563 C271.1563,244.8594 271.3125,244.5781 271.5625,244.4219 C271.7188,244.3125 271.8438,244.2969 272.2813,244.2969 L274,244.2969 L274,237.7813 L272.2813,237.7813 C271.8594,237.7813 271.6719,237.75 271.5156,237.6406 C271.2969,237.4688 271.1563,237.2188 271.1563,236.9375 C271.1563,236.6563 271.3125,236.3594 271.5625,236.2031 C271.7188,236.1094 271.8438,236.0938 272.2813,236.0938 L277.4219,236.0938 C277.875,236.0938 278.0156,236.125 278.1875,236.2344 C278.4219,236.4063 278.5313,236.6719 278.5313,236.9375 C278.5313,237.2344 278.3906,237.5156 278.125,237.6719 C278,237.75 277.8125,237.7813 277.4219,237.7813 Z "/><text fill="#000000" font-family="sans-serif" font-size="12" font-style="italic" lengthAdjust="spacingAndGlyphs" textLength="130" x="295.25" y="245.1543">HttpServletResponse</text><line style="stroke: #A80036; stroke-width: 1.5;" x1="220.5" x2="467.5" y1="257" y2="257"/><ellipse cx="230.5" cy="268.9023" fill="#84BE84" rx="3" ry="3" style="stroke: #038048; stroke-width: 1.0;"/><text fill="#000000" font-family="sans-serif" font-size="11" font-style="italic" lengthAdjust="spacingAndGlyphs" textLength="149" x="239.5" y="271.2104">addCookie(cookie: Cookie)</text><ellipse cx="230.5" cy="281.707" fill="#84BE84" rx="3" ry="3" style="stroke: #038048; stroke-width: 1.0;"/><text fill="#000000" font-family="sans-serif" font-size="11" font-style="italic" lengthAdjust="spacingAndGlyphs" textLength="223" x="239.5" y="284.0151">addHeader(name: String, value: String)</text><ellipse cx="230.5" cy="294.5117" fill="#84BE84" rx="3" ry="3" style="stroke: #038048; stroke-width: 1.0;"/><text fill="#000000" font-family="sans-serif" font-size="11" font-style="italic" lengthAdjust="spacingAndGlyphs" textLength="98" x="239.5" y="296.8198">sendError(sc: int)</text><ellipse cx="230.5" cy="307.3164" fill="#84BE84" rx="3" ry="3" style="stroke: #038048; stroke-width: 1.0;"/><text fill="#000000" font-family="sans-serif" font-size="11" font-style="italic" lengthAdjust="spacingAndGlyphs" textLength="167" x="239.5" y="309.6245">sendRedirect(location: String)</text><ellipse cx="230.5" cy="320.1211" fill="#84BE84" rx="3" ry="3" style="stroke: #038048; stroke-width: 1.0;"/><text fill="#000000" font-family="sans-serif" font-size="11" font-style="italic" lengthAdjust="spacingAndGlyphs" textLength="219" x="239.5" y="322.4292">setHeader(name: String, value: String)</text><!--class PrintWriter--><rect fill="#FEFECE" filter="url(#f99l93lfy9ph8)" height="91.2188" id="PrintWriter" style="stroke: #A80036; stroke-width: 1.5;" width="159" x="549.5" y="59"/><ellipse cx="591.95" cy="75" fill="#ADD1B2" rx="11" ry="11" style="stroke: #A80036; stroke-width: 1.0;"/><path d="M594.2938,70.6719 L594.4656,70.75 C594.6844,70.4375 594.8875,70.3438 595.1844,70.3438 C595.4813,70.3438 595.7625,70.4844 595.9188,70.75 C596.0125,70.9063 596.0281,71.0313 596.0281,71.4688 L596.0281,72.8906 C596.0281,73.3125 595.9969,73.5 595.8875,73.6563 C595.7156,73.875 595.45,74.0156 595.1844,74.0156 C594.9656,74.0156 594.7313,73.9063 594.5906,73.7656 C594.45,73.6406 594.4188,73.5156 594.3563,73.1094 C594.2625,72.7031 594.0906,72.4844 593.6063,72.2031 C593.1375,71.9531 592.5281,71.7969 591.95,71.7969 C590.2156,71.7969 588.9656,73.1094 588.9656,74.8906 L588.9656,75.9844 C588.9656,77.6875 590.2625,78.7813 592.3094,78.7813 C593.075,78.7813 593.7625,78.6563 594.1844,78.3906 C594.3719,78.2969 594.3719,78.2969 594.825,77.8125 C595.0125,77.625 595.2156,77.5469 595.4344,77.5469 C595.9031,77.5469 596.2938,77.9375 596.2938,78.3906 C596.2938,78.7813 595.9656,79.2344 595.3875,79.6406 C594.6375,80.1875 593.4813,80.4844 592.2625,80.4844 C589.3719,80.4844 587.2625,78.5938 587.2625,76.0156 L587.2625,74.8906 C587.2625,72.1719 589.2625,70.0938 591.8875,70.0938 C592.7625,70.0938 593.3563,70.2344 594.2938,70.6719 Z "/><text fill="#000000" font-family="sans-serif" font-size="12" lengthAdjust="spacingAndGlyphs" textLength="66" x="612.05" y="79.1543">PrintWriter</text><line style="stroke: #A80036; stroke-width: 1.5;" x1="550.5" x2="707.5" y1="91" y2="91"/><ellipse cx="560.5" cy="102.9023" fill="#84BE84" rx="3" ry="3" style="stroke: #038048; stroke-width: 1.0;"/><text fill="#000000" font-family="sans-serif" font-size="11" font-style="italic" lengthAdjust="spacingAndGlyphs" textLength="123" x="569.5" y="105.2104">print(value: primitive)</text><ellipse cx="560.5" cy="115.707" fill="#84BE84" rx="3" ry="3" style="stroke: #038048; stroke-width: 1.0;"/><text fill="#000000" font-family="sans-serif" font-size="11" font-style="italic" lengthAdjust="spacingAndGlyphs" textLength="106" x="569.5" y="118.0151">print(value: String)</text><ellipse cx="560.5" cy="128.5117" fill="#84BE84" rx="3" ry="3" style="stroke: #038048; stroke-width: 1.0;"/><text fill="#000000" font-family="sans-serif" font-size="11" font-style="italic" lengthAdjust="spacingAndGlyphs" textLength="133" x="569.5" y="130.8198">println(value: primitive)</text><ellipse cx="560.5" cy="141.3164" fill="#84BE84" rx="3" ry="3" style="stroke: #038048; stroke-width: 1.0;"/><text fill="#000000" font-family="sans-serif" font-size="11" font-style="italic" lengthAdjust="spacingAndGlyphs" textLength="116" x="569.5" y="143.6245">println(value: String)</text><!--link ServletResponse to HttpServletResponse--><path d="M357.158,163.832 C354.83,183.678 352.247,205.694 349.991,224.927 " fill="none" id="ServletResponse-HttpServletResponse" style="stroke: #A80036; stroke-width: 1.0;"/><polygon fill="none" points="350.229,162.812,359.512,143.764,364.134,164.443,350.229,162.812" style="stroke: #A80036; stroke-width: 1.0;"/><!--link ServletOutputStream to ServletResponse--><path d="M205.472,104.5 C215.271,104.5 225.069,104.5 234.868,104.5 " fill="none" id="ServletOutputStream-ServletResponse" style="stroke: #A80036; stroke-width: 1.0; stroke-dasharray: 7.0,7.0;"/><polygon fill="#A80036" points="200.348,104.5,209.348,108.5,205.348,104.5,209.348,100.5,200.348,104.5" style="stroke: #A80036; stroke-width: 1.0;"/><!--link ServletResponse to PrintWriter--><path d="M493.136,133.731 C510.13,133.922 527.124,132.669 544.118,129.972 " fill="none" id="ServletResponse-PrintWriter" style="stroke: #A80036; stroke-width: 1.0; stroke-dasharray: 7.0,7.0;"/><polygon fill="#A80036" points="549.392,129.089,539.855,126.6302,544.4606,129.9147,541.1761,134.5203,549.392,129.089" style="stroke: #A80036; stroke-width: 1.0;"/><!--
@startuml
package javax.servlet {
 abstract class ServletOutputStream {
  {abstract} + print(value: primitive)
  {abstract} + print(value: String)
  {abstract} + println(value: primitive)
  {abstract} + println(value: String)
 }
 interface ServletResponse {
  {abstract} + getOutputStream(): ServletOutputStream
  {abstract} + getWriter(): PrintWriter
  {abstract} + setContentType(type: String)
 }
 package http {
  interface HttpServletResponse {
   {abstract} + addCookie(cookie: Cookie)
   {abstract} + addHeader(name: String, value: String)
   {abstract} + sendError(sc: int)
   {abstract} + sendRedirect(location: String)
   {abstract} + setHeader(name: String, value: String)
  }
 }
}
package java.io {
 class PrintWriter {
  {abstract} + print(value: primitive)
  {abstract} + print(value: String)
  {abstract} + println(value: primitive)
  {abstract} + println(value: String)
 }
}
HttpServletResponse -up-|> ServletResponse
ServletResponse .left.> ServletOutputStream
ServletResponse .right.> PrintWriter
hide empty attributes
hide empty methods
@enduml

PlantUML version 1.2018.11beta1(Unknown compile time)
(GPL source distribution)
Java Runtime: Java(TM) SE Runtime Environment
JVM: Java HotSpot(TM) 64-Bit Server VM
Java Version: 1.7.0_25-b15
Operating System: Linux
Default Encoding: UTF-8
Language: en
Country: US
--></g></svg>