<?xml version="1.0" encoding="UTF-8" standalone="no"?><svg xmlns="http://www.w3.org/2000/svg" xmlns:xlink="http://www.w3.org/1999/xlink" contentScriptType="application/ecmascript" contentStyleType="text/css" height="496px" preserveAspectRatio="none" style="width:728px;height:496px;" version="1.1" viewBox="0 0 728 496" width="728px" zoomAndPan="magnify"><defs><filter height="300%" id="fyp9uvs6o12j" width="300%" x="-1" y="-1"><feGaussianBlur result="blurOut" stdDeviation="2.0"/><feColorMatrix in="blurOut" result="blurOut2" type="matrix" values="0 0 0 0 0 0 0 0 0 0 0 0 0 0 0 0 0 0 .4 0"/><feOffset dx="4.0" dy="4.0" in="blurOut2" result="blurOut3"/><feBlend in="SourceGraphic" in2="blurOut3" mode="normal"/></filter></defs><g><!--cluster javax.servlet--><polygon fill="#FFFFFF" filter="url(#fyp9uvs6o12j)" points="22,24,128,24,135,46.2969,706,46.2969,706,484,22,484,22,24" style="stroke: #000000; stroke-width: 1.5;"/><line style="stroke: #000000; stroke-width: 1.5;" x1="22" x2="135" y1="46.2969" y2="46.2969"/><text fill="#000000" font-family="sans-serif" font-size="14" font-weight="bold" lengthAdjust="spacingAndGlyphs" textLength="100" x="26" y="38.9951">javax.servlet</text><!--cluster http--><polygon fill="#FFFFFF" filter="url(#fyp9uvs6o12j)" points="157,267,195,267,202,289.2969,571,289.2969,571,460,157,460,157,267" style="stroke: #000000; stroke-width: 1.5;"/><line style="stroke: #000000; stroke-width: 1.5;" x1="157" x2="202" y1="289.2969" y2="289.2969"/><text fill="#000000" font-family="sans-serif" font-size="14" font-weight="bold" lengthAdjust="spacingAndGlyphs" textLength="32" x="161" y="281.9951">http</text><!--class Servlet--><rect fill="#FEFECE" filter="url(#fyp9uvs6o12j)" height="78.4141" id="Servlet" style="stroke: #A80036; stroke-width: 1.5;" width="317" x="38.5" y="65.5"/><ellipse cx="171.25" cy="81.5" fill="#B4A7E5" rx="11" ry="11" style="stroke: #A80036; stroke-width: 1.0;"/><path d="M172.2031,78.2813 L172.2031,84.7969 L173.9219,84.7969 C174.375,84.7969 174.5156,84.8281 174.6875,84.9531 C174.9219,85.125 175.0313,85.375 175.0313,85.6563 C175.0313,86.2188 174.6719,86.5 173.9219,86.5 L168.7813,86.5 C168.375,86.5 168.1719,86.4531 168.0156,86.3281 C167.7969,86.1719 167.6563,85.9063 167.6563,85.6563 C167.6563,85.3594 167.8125,85.0781 168.0625,84.9219 C168.2188,84.8125 168.3438,84.7969 168.7813,84.7969 L170.5,84.7969 L170.5,78.2813 L168.7813,78.2813 C168.3594,78.2813 168.1719,78.25 168.0156,78.1406 C167.7969,77.9688 167.6563,77.7188 167.6563,77.4375 C167.6563,77.1563 167.8125,76.8594 168.0625,76.7031 C168.2188,76.6094 168.3438,76.5938 168.7813,76.5938 L173.9219,76.5938 C174.375,76.5938 174.5156,76.625 174.6875,76.7344 C174.9219,76.9063 175.0313,77.1719 175.0313,77.4375 C175.0313,77.7344 174.8906,78.0156 174.625,78.1719 C174.5,78.25 174.3125,78.2813 173.9219,78.2813 Z "/><text fill="#000000" font-family="sans-serif" font-size="12" font-style="italic" lengthAdjust="spacingAndGlyphs" textLength="43" x="191.75" y="85.6543">Servlet</text><line style="stroke: #A80036; stroke-width: 1.5;" x1="39.5" x2="354.5" y1="97.5" y2="97.5"/><ellipse cx="49.5" cy="109.4023" fill="#84BE84" rx="3" ry="3" style="stroke: #038048; stroke-width: 1.0;"/><text fill="#000000" font-family="sans-serif" font-size="11" font-style="italic" lengthAdjust="spacingAndGlyphs" textLength="139" x="58.5" y="111.7104">init(ServletConfig config)</text><ellipse cx="49.5" cy="122.207" fill="#84BE84" rx="3" ry="3" style="stroke: #038048; stroke-width: 1.0;"/><text fill="#000000" font-family="sans-serif" font-size="11" font-style="italic" lengthAdjust="spacingAndGlyphs" textLength="291" x="58.5" y="124.5151">service(req: ServletRequest, res: ServletResponse)</text><ellipse cx="49.5" cy="135.0117" fill="#84BE84" rx="3" ry="3" style="stroke: #038048; stroke-width: 1.0;"/><text fill="#000000" font-family="sans-serif" font-size="11" font-style="italic" lengthAdjust="spacingAndGlyphs" textLength="51" x="58.5" y="137.3198">destroy()</text><!--class ServletConfig--><rect fill="#FEFECE" filter="url(#fyp9uvs6o12j)" height="91.2188" id="ServletConfig" style="stroke: #A80036; stroke-width: 1.5;" width="299" x="390.5" y="59"/><ellipse cx="494.75" cy="75" fill="#B4A7E5" rx="11" ry="11" style="stroke: #A80036; stroke-width: 1.0;"/><path d="M495.7031,71.7813 L495.7031,78.2969 L497.4219,78.2969 C497.875,78.2969 498.0156,78.3281 498.1875,78.4531 C498.4219,78.625 498.5313,78.875 498.5313,79.1563 C498.5313,79.7188 498.1719,80 497.4219,80 L492.2813,80 C491.875,80 491.6719,79.9531 491.5156,79.8281 C491.2969,79.6719 491.1563,79.4063 491.1563,79.1563 C491.1563,78.8594 491.3125,78.5781 491.5625,78.4219 C491.7188,78.3125 491.8438,78.2969 492.2813,78.2969 L494,78.2969 L494,71.7813 L492.2813,71.7813 C491.8594,71.7813 491.6719,71.75 491.5156,71.6406 C491.2969,71.4688 491.1563,71.2188 491.1563,70.9375 C491.1563,70.6563 491.3125,70.3594 491.5625,70.2031 C491.7188,70.1094 491.8438,70.0938 492.2813,70.0938 L497.4219,70.0938 C497.875,70.0938 498.0156,70.125 498.1875,70.2344 C498.4219,70.4063 498.5313,70.6719 498.5313,70.9375 C498.5313,71.2344 498.3906,71.5156 498.125,71.6719 C498,71.75 497.8125,71.7813 497.4219,71.7813 Z "/><text fill="#000000" font-family="sans-serif" font-size="12" font-style="italic" lengthAdjust="spacingAndGlyphs" textLength="82" x="515.25" y="79.1543">ServletConfig</text><line style="stroke: #A80036; stroke-width: 1.5;" x1="391.5" x2="688.5" y1="91" y2="91"/><ellipse cx="401.5" cy="102.9023" fill="#84BE84" rx="3" ry="3" style="stroke: #038048; stroke-width: 1.0;"/><text fill="#000000" font-family="sans-serif" font-size="11" font-style="italic" lengthAdjust="spacingAndGlyphs" textLength="140" x="410.5" y="105.2104">getServletName(): String</text><ellipse cx="401.5" cy="115.707" fill="#84BE84" rx="3" ry="3" style="stroke: #038048; stroke-width: 1.0;"/><text fill="#000000" font-family="sans-serif" font-size="11" font-style="italic" lengthAdjust="spacingAndGlyphs" textLength="202" x="410.5" y="118.0151">getServletContext(): ServletContext</text><ellipse cx="401.5" cy="128.5117" fill="#84BE84" rx="3" ry="3" style="stroke: #038048; stroke-width: 1.0;"/><text fill="#000000" font-family="sans-serif" font-size="11" font-style="italic" lengthAdjust="spacingAndGlyphs" textLength="217" x="410.5" y="130.8198">getInitParameter(name: String): String</text><ellipse cx="401.5" cy="141.3164" fill="#84BE84" rx="3" ry="3" style="stroke: #038048; stroke-width: 1.0;"/><text fill="#000000" font-family="sans-serif" font-size="11" font-style="italic" lengthAdjust="spacingAndGlyphs" textLength="273" x="410.5" y="143.6245">getInitParameterNames(): Enumeration&lt;String&gt;</text><!--class GenericServlet--><rect fill="#FEFECE" filter="url(#fyp9uvs6o12j)" height="32" id="GenericServlet" style="stroke: #A80036; stroke-width: 1.5;" width="123" x="302.5" y="210"/><ellipse cx="317.5" cy="226" fill="#A9DCDF" rx="11" ry="11" style="stroke: #A80036; stroke-width: 1.0;"/><path d="M319.0781,227.8125 L315.0313,227.8125 L314.6406,228.7969 L315.0313,228.7969 C315.4844,228.7969 315.625,228.8281 315.7969,228.9531 C316.0156,229.125 316.1406,229.375 316.1406,229.6563 C316.1406,229.9375 316,230.2344 315.7344,230.375 C315.6094,230.4688 315.3906,230.5 315.0313,230.5 L312.7656,230.5 C312.0156,230.5 311.6406,230.2188 311.6406,229.6563 C311.6406,229.3594 311.7969,229.0781 312.0469,228.9219 C312.2031,228.8125 312.3594,228.7969 312.7813,228.7969 L315.4219,222.2813 L314.3438,222.2813 C313.9063,222.2813 313.7344,222.25 313.5625,222.1406 C313.3438,221.9688 313.2031,221.7188 313.2031,221.4375 C313.2031,221.1563 313.3594,220.875 313.6094,220.7031 C313.7656,220.6094 313.8906,220.5938 314.3438,220.5938 L318.0156,220.5938 L321.4063,228.7969 C321.875,228.7969 322.0313,228.8281 322.2031,228.9688 C322.4219,229.125 322.5625,229.375 322.5625,229.6563 C322.5625,229.9375 322.4063,230.2344 322.1563,230.375 C322.0156,230.4688 321.7969,230.5 321.4375,230.5 L319.0781,230.5 C318.6563,230.5 318.4531,230.4531 318.3125,230.3281 C318.0938,230.1719 317.9531,229.9219 317.9531,229.6563 C317.9531,229.3594 318.1094,229.0781 318.3594,228.9219 C318.5156,228.8125 318.625,228.7969 319.0781,228.7969 L319.4688,228.7969 Z M318.375,226.1094 L317.0469,222.8438 L315.7031,226.1094 Z "/><text fill="#000000" font-family="sans-serif" font-size="12" font-style="italic" lengthAdjust="spacingAndGlyphs" textLength="91" x="331.5" y="230.1543">GenericServlet</text><!--class HttpServlet--><rect fill="#FEFECE" filter="url(#fyp9uvs6o12j)" height="142.4375" id="HttpServlet" style="stroke: #A80036; stroke-width: 1.5;" width="382" x="173" y="302"/><ellipse cx="324.75" cy="318" fill="#A9DCDF" rx="11" ry="11" style="stroke: #A80036; stroke-width: 1.0;"/><path d="M326.3281,319.8125 L322.2813,319.8125 L321.8906,320.7969 L322.2813,320.7969 C322.7344,320.7969 322.875,320.8281 323.0469,320.9531 C323.2656,321.125 323.3906,321.375 323.3906,321.6563 C323.3906,321.9375 323.25,322.2344 322.9844,322.375 C322.8594,322.4688 322.6406,322.5 322.2813,322.5 L320.0156,322.5 C319.2656,322.5 318.8906,322.2188 318.8906,321.6563 C318.8906,321.3594 319.0469,321.0781 319.2969,320.9219 C319.4531,320.8125 319.6094,320.7969 320.0313,320.7969 L322.6719,314.2813 L321.5938,314.2813 C321.1563,314.2813 320.9844,314.25 320.8125,314.1406 C320.5938,313.9688 320.4531,313.7188 320.4531,313.4375 C320.4531,313.1563 320.6094,312.875 320.8594,312.7031 C321.0156,312.6094 321.1406,312.5938 321.5938,312.5938 L325.2656,312.5938 L328.6563,320.7969 C329.125,320.7969 329.2813,320.8281 329.4531,320.9688 C329.6719,321.125 329.8125,321.375 329.8125,321.6563 C329.8125,321.9375 329.6563,322.2344 329.4063,322.375 C329.2656,322.4688 329.0469,322.5 328.6875,322.5 L326.3281,322.5 C325.9063,322.5 325.7031,322.4531 325.5625,322.3281 C325.3438,322.1719 325.2031,321.9219 325.2031,321.6563 C325.2031,321.3594 325.3594,321.0781 325.6094,320.9219 C325.7656,320.8125 325.875,320.7969 326.3281,320.7969 L326.7188,320.7969 Z M325.625,318.1094 L324.2969,314.8438 L322.9531,318.1094 Z "/><text fill="#000000" font-family="sans-serif" font-size="12" font-style="italic" lengthAdjust="spacingAndGlyphs" textLength="70" x="345.25" y="322.1543">HttpServlet</text><line style="stroke: #A80036; stroke-width: 1.5;" x1="174" x2="554" y1="334" y2="334"/><polygon fill="#FFFF44" points="184,340.9023,188,344.9023,184,348.9023,180,344.9023" style="stroke: #B38D22; stroke-width: 1.0;"/><text fill="#000000" font-family="sans-serif" font-size="11" lengthAdjust="spacingAndGlyphs" textLength="348" x="193" y="348.2104">doDelete(req: HttpServletRequest, res: HttpServletResponse)</text><polygon fill="#FFFF44" points="184,353.707,188,357.707,184,361.707,180,357.707" style="stroke: #B38D22; stroke-width: 1.0;"/><text fill="#000000" font-family="sans-serif" font-size="11" lengthAdjust="spacingAndGlyphs" textLength="332" x="193" y="361.0151">doGet(req: HttpServletRequest, res: HttpServletResponse)</text><polygon fill="#FFFF44" points="184,366.5117,188,370.5117,184,374.5117,180,370.5117" style="stroke: #B38D22; stroke-width: 1.0;"/><text fill="#000000" font-family="sans-serif" font-size="11" lengthAdjust="spacingAndGlyphs" textLength="341" x="193" y="373.8198">doHead(req: HttpServletRequest, res: HttpServletResponse)</text><polygon fill="#FFFF44" points="184,379.3164,188,383.3164,184,387.3164,180,383.3164" style="stroke: #B38D22; stroke-width: 1.0;"/><text fill="#000000" font-family="sans-serif" font-size="11" lengthAdjust="spacingAndGlyphs" textLength="356" x="193" y="386.6245">doOptions(req: HttpServletRequest, res: HttpServletResponse)</text><polygon fill="#FFFF44" points="184,392.1211,188,396.1211,184,400.1211,180,396.1211" style="stroke: #B38D22; stroke-width: 1.0;"/><text fill="#000000" font-family="sans-serif" font-size="11" lengthAdjust="spacingAndGlyphs" textLength="337" x="193" y="399.4292">doPost(req: HttpServletRequest, res: HttpServletResponse)</text><polygon fill="#FFFF44" points="184,404.9258,188,408.9258,184,412.9258,180,408.9258" style="stroke: #B38D22; stroke-width: 1.0;"/><text fill="#000000" font-family="sans-serif" font-size="11" lengthAdjust="spacingAndGlyphs" textLength="330" x="193" y="412.2339">doPut(req: HttpServletRequest, res: HttpServletResponse)</text><polygon fill="#FFFF44" points="184,417.7305,188,421.7305,184,425.7305,180,421.7305" style="stroke: #B38D22; stroke-width: 1.0;"/><text fill="#000000" font-family="sans-serif" font-size="11" lengthAdjust="spacingAndGlyphs" textLength="344" x="193" y="425.0386">doTrace(req: HttpServletRequest, res: HttpServletResponse)</text><polygon fill="#FFFF44" points="184,430.5352,188,434.5352,184,438.5352,180,434.5352" style="stroke: #B38D22; stroke-width: 1.0;"/><text fill="#000000" font-family="sans-serif" font-size="11" lengthAdjust="spacingAndGlyphs" textLength="339" x="193" y="437.8433">service(req: HttpServletRequest, res: HttpServletResponse)</text><!--link Servlet to GenericServlet--><path d="M266.915,155.529 C294.188,175.045 323.447,195.982 342.632,209.71 " fill="none" id="Servlet-GenericServlet" style="stroke: #A80036; stroke-width: 1.0; stroke-dasharray: 7.0,7.0;"/><polygon fill="none" points="262.49,160.97,250.299,143.639,270.637,149.585,262.49,160.97" style="stroke: #A80036; stroke-width: 1.0;"/><!--link ServletConfig to GenericServlet--><path d="M457.566,161.471 C431.261,179.331 404.291,197.644 386.106,209.99 " fill="none" id="ServletConfig-GenericServlet" style="stroke: #A80036; stroke-width: 1.0; stroke-dasharray: 7.0,7.0;"/><polygon fill="none" points="453.735,155.611,474.214,150.167,461.6,167.193,453.735,155.611" style="stroke: #A80036; stroke-width: 1.0;"/><!--link GenericServlet to HttpServlet--><path d="M364,262.391 C364,274.306 364,288.053 364,301.695 " fill="none" id="GenericServlet-HttpServlet" style="stroke: #A80036; stroke-width: 1.0;"/><polygon fill="none" points="357,262.244,364,242.243,371,262.243,357,262.244" style="stroke: #A80036; stroke-width: 1.0;"/><!--
@startuml
package "javax.servlet" {
 interface Servlet {
  {abstract} + init(ServletConfig config)
  {abstract} + service(req: ServletRequest, res: ServletResponse)
  {abstract} + destroy()
 }
 interface ServletConfig {
  {abstract} + getServletName(): String
  {abstract} + getServletContext(): ServletContext
  {abstract} + getInitParameter(name: String): String
  {abstract} + getInitParameterNames(): Enumeration<String>
 }
 abstract class GenericServlet
 package "http" {
  abstract class HttpServlet {
   # doDelete(req: HttpServletRequest, res: HttpServletResponse)
   # doGet(req: HttpServletRequest, res: HttpServletResponse)
   # doHead(req: HttpServletRequest, res: HttpServletResponse)
   # doOptions(req: HttpServletRequest, res: HttpServletResponse)
   # doPost(req: HttpServletRequest, res: HttpServletResponse)
   # doPut(req: HttpServletRequest, res: HttpServletResponse)
   # doTrace(req: HttpServletRequest, res: HttpServletResponse)
   # service(req: HttpServletRequest, res: HttpServletResponse)
  }
 }
}
GenericServlet .up.|> Servlet
GenericServlet .up.|> ServletConfig
HttpServlet -up-|> GenericServlet
hide empty attributes
hide empty methods
@enduml

PlantUML version 1.2018.11beta1(Unknown compile time)
(GPL source distribution)
Java Runtime: Java(TM) SE Runtime Environment
JVM: Java HotSpot(TM) 64-Bit Server VM
Java Version: 1.7.0_25-b15
Operating System: Linux
Default Encoding: UTF-8
Language: en
Country: US
--></g></svg>