<?xml version="1.0" encoding="UTF-8" standalone="no"?><svg xmlns="http://www.w3.org/2000/svg" xmlns:xlink="http://www.w3.org/1999/xlink" contentScriptType="application/ecmascript" contentStyleType="text/css" preserveAspectRatio="true" version="1.1" viewBox="0 0 781 551" zoomAndPan="magnify"><defs><filter height="300%" id="fzpp6m9x2mmj7" width="300%" x="-1" y="-1"><feGaussianBlur result="blurOut" stdDeviation="2.0"/><feColorMatrix in="blurOut" result="blurOut2" type="matrix" values="0 0 0 0 0 0 0 0 0 0 0 0 0 0 0 0 0 0 .4 0"/><feOffset dx="4.0" dy="4.0" in="blurOut2" result="blurOut3"/><feBlend in="SourceGraphic" in2="blurOut3" mode="normal"/></filter></defs><g><!--cluster javax.servlet--><polygon fill="#FFFFFF" filter="url(#fzpp6m9x2mmj7)" points="22,24,128,24,135,46.2969,759,46.2969,759,539,22,539,22,24" style="stroke: #000000; stroke-width: 2.0;"/><line style="stroke: #000000; stroke-width: 2.0;" x1="22" x2="135" y1="46.2969" y2="46.2969"/><text fill="#000000" font-family="sans-serif" font-size="14" font-weight="bold" lengthAdjust="spacingAndGlyphs" textLength="100" x="26" y="38.9951">javax.servlet</text><!--cluster http--><polygon fill="#FFFFFF" filter="url(#fzpp6m9x2mmj7)" points="46,242,84,242,91,264.2969,414,264.2969,414,515,46,515,46,242" style="stroke: #000000; stroke-width: 2.0;"/><line style="stroke: #000000; stroke-width: 2.0;" x1="46" x2="91" y1="264.2969" y2="264.2969"/><text fill="#000000" font-family="sans-serif" font-size="14" font-weight="bold" lengthAdjust="spacingAndGlyphs" textLength="32" x="50" y="256.9951">http</text><!--class ServletRequest--><rect fill="#FEFECE" filter="url(#fzpp6m9x2mmj7)" height="158.4375" id="ServletRequest" style="stroke: #A80036; stroke-width: 1.5;" width="342" x="38" y="59"/><ellipse cx="157.75" cy="75" fill="#B4A7E5" rx="11" ry="11" style="stroke: #A80036; stroke-width: 1.0;"/><path d="M158.7031,71.7813 L158.7031,78.2969 L160.4219,78.2969 C160.875,78.2969 161.0156,78.3281 161.1875,78.4531 C161.4219,78.625 161.5313,78.875 161.5313,79.1563 C161.5313,79.7188 161.1719,80 160.4219,80 L155.2813,80 C154.875,80 154.6719,79.9531 154.5156,79.8281 C154.2969,79.6719 154.1563,79.4063 154.1563,79.1563 C154.1563,78.8594 154.3125,78.5781 154.5625,78.4219 C154.7188,78.3125 154.8438,78.2969 155.2813,78.2969 L157,78.2969 L157,71.7813 L155.2813,71.7813 C154.8594,71.7813 154.6719,71.75 154.5156,71.6406 C154.2969,71.4688 154.1563,71.2188 154.1563,70.9375 C154.1563,70.6563 154.3125,70.3594 154.5625,70.2031 C154.7188,70.1094 154.8438,70.0938 155.2813,70.0938 L160.4219,70.0938 C160.875,70.0938 161.0156,70.125 161.1875,70.2344 C161.4219,70.4063 161.5313,70.6719 161.5313,70.9375 C161.5313,71.2344 161.3906,71.5156 161.125,71.6719 C161,71.75 160.8125,71.7813 160.4219,71.7813 Z "/><text fill="#000000" font-family="sans-serif" font-size="12" font-style="italic" lengthAdjust="spacingAndGlyphs" textLength="94" x="178.25" y="79.1543">ServletRequest</text><line style="stroke: #A80036; stroke-width: 1.5;" x1="39" x2="379" y1="91" y2="91"/><ellipse cx="49" cy="102.9023" fill="#84BE84" rx="3" ry="3" style="stroke: #038048; stroke-width: 1.0;"/><text fill="#000000" font-family="sans-serif" font-size="11" font-style="italic" lengthAdjust="spacingAndGlyphs" textLength="192" x="58" y="105.2104">getAttribute(name: String): Object</text><ellipse cx="49" cy="115.707" fill="#84BE84" rx="3" ry="3" style="stroke: #038048; stroke-width: 1.0;"/><text fill="#000000" font-family="sans-serif" font-size="11" font-style="italic" lengthAdjust="spacingAndGlyphs" textLength="230" x="58" y="118.0151">setAttribute(name: String, value: Object)</text><ellipse cx="49" cy="128.5117" fill="#84BE84" rx="3" ry="3" style="stroke: #038048; stroke-width: 1.0;"/><text fill="#000000" font-family="sans-serif" font-size="11" font-style="italic" lengthAdjust="spacingAndGlyphs" textLength="174" x="58" y="130.8198">removeAttribute(name: String)</text><line style="stroke: #A80036; stroke-width: 1.0; stroke-dasharray: 1.0,2.0;" x1="39" x2="379" y1="137.4141" y2="137.4141"/><ellipse cx="49" cy="149.3164" fill="#84BE84" rx="3" ry="3" style="stroke: #038048; stroke-width: 1.0;"/><text fill="#000000" font-family="sans-serif" font-size="11" font-style="italic" lengthAdjust="spacingAndGlyphs" textLength="200" x="58" y="151.6245">getParameter(name: String): String</text><ellipse cx="49" cy="162.1211" fill="#84BE84" rx="3" ry="3" style="stroke: #038048; stroke-width: 1.0;"/><text fill="#000000" font-family="sans-serif" font-size="11" font-style="italic" lengthAdjust="spacingAndGlyphs" textLength="246" x="58" y="164.4292">getParameterValues(name: String): String[]</text><ellipse cx="49" cy="174.9258" fill="#84BE84" rx="3" ry="3" style="stroke: #038048; stroke-width: 1.0;"/><text fill="#000000" font-family="sans-serif" font-size="11" font-style="italic" lengthAdjust="spacingAndGlyphs" textLength="240" x="58" y="177.2339">getParameterMap(): Map&lt;String, String[]&gt;</text><ellipse cx="49" cy="187.7305" fill="#84BE84" rx="3" ry="3" style="stroke: #038048; stroke-width: 1.0;"/><text fill="#000000" font-family="sans-serif" font-size="11" font-style="italic" lengthAdjust="spacingAndGlyphs" textLength="256" x="58" y="190.0386">getParameterNames(): Enumeration&lt;String&gt;</text><line style="stroke: #A80036; stroke-width: 1.0; stroke-dasharray: 1.0,2.0;" x1="39" x2="379" y1="196.6328" y2="196.6328"/><ellipse cx="49" cy="208.5352" fill="#84BE84" rx="3" ry="3" style="stroke: #038048; stroke-width: 1.0;"/><text fill="#000000" font-family="sans-serif" font-size="11" font-style="italic" lengthAdjust="spacingAndGlyphs" textLength="316" x="58" y="210.8433">getRequestDispatcher(path : String): RequestDispatcher</text><!--class RequestDispatcher--><rect fill="#FEFECE" filter="url(#fzpp6m9x2mmj7)" height="65.6094" id="RequestDispatcher" style="stroke: #A80036; stroke-width: 1.5;" width="327" x="415.5" y="105"/><ellipse cx="515.75" cy="121" fill="#B4A7E5" rx="11" ry="11" style="stroke: #A80036; stroke-width: 1.0;"/><path d="M516.7031,117.7813 L516.7031,124.2969 L518.4219,124.2969 C518.875,124.2969 519.0156,124.3281 519.1875,124.4531 C519.4219,124.625 519.5313,124.875 519.5313,125.1563 C519.5313,125.7188 519.1719,126 518.4219,126 L513.2813,126 C512.875,126 512.6719,125.9531 512.5156,125.8281 C512.2969,125.6719 512.1563,125.4063 512.1563,125.1563 C512.1563,124.8594 512.3125,124.5781 512.5625,124.4219 C512.7188,124.3125 512.8438,124.2969 513.2813,124.2969 L515,124.2969 L515,117.7813 L513.2813,117.7813 C512.8594,117.7813 512.6719,117.75 512.5156,117.6406 C512.2969,117.4688 512.1563,117.2188 512.1563,116.9375 C512.1563,116.6563 512.3125,116.3594 512.5625,116.2031 C512.7188,116.1094 512.8438,116.0938 513.2813,116.0938 L518.4219,116.0938 C518.875,116.0938 519.0156,116.125 519.1875,116.2344 C519.4219,116.4063 519.5313,116.6719 519.5313,116.9375 C519.5313,117.2344 519.3906,117.5156 519.125,117.6719 C519,117.75 518.8125,117.7813 518.4219,117.7813 Z "/><text fill="#000000" font-family="sans-serif" font-size="12" font-style="italic" lengthAdjust="spacingAndGlyphs" textLength="118" x="536.25" y="125.1543">RequestDispatcher</text><line style="stroke: #A80036; stroke-width: 1.5;" x1="416.5" x2="741.5" y1="137" y2="137"/><ellipse cx="426.5" cy="148.9023" fill="#84BE84" rx="3" ry="3" style="stroke: #038048; stroke-width: 1.0;"/><text fill="#000000" font-family="sans-serif" font-size="11" font-style="italic" lengthAdjust="spacingAndGlyphs" textLength="297" x="435.5" y="151.2104">include(req: ServletRequest, resp: ServletResponse)</text><ellipse cx="426.5" cy="161.707" fill="#84BE84" rx="3" ry="3" style="stroke: #038048; stroke-width: 1.0;"/><text fill="#000000" font-family="sans-serif" font-size="11" font-style="italic" lengthAdjust="spacingAndGlyphs" textLength="301" x="435.5" y="164.0151">forward(req: ServletRequest, resp: ServletResponse)</text><!--class HttpServletRequest--><rect fill="#FEFECE" filter="url(#fzpp6m9x2mmj7)" height="222.4609" id="HttpServletRequest" style="stroke: #A80036; stroke-width: 1.5;" width="336" x="62" y="277"/><ellipse cx="165.25" cy="293" fill="#B4A7E5" rx="11" ry="11" style="stroke: #A80036; stroke-width: 1.0;"/><path d="M166.2031,289.7813 L166.2031,296.2969 L167.9219,296.2969 C168.375,296.2969 168.5156,296.3281 168.6875,296.4531 C168.9219,296.625 169.0313,296.875 169.0313,297.1563 C169.0313,297.7188 168.6719,298 167.9219,298 L162.7813,298 C162.375,298 162.1719,297.9531 162.0156,297.8281 C161.7969,297.6719 161.6563,297.4063 161.6563,297.1563 C161.6563,296.8594 161.8125,296.5781 162.0625,296.4219 C162.2188,296.3125 162.3438,296.2969 162.7813,296.2969 L164.5,296.2969 L164.5,289.7813 L162.7813,289.7813 C162.3594,289.7813 162.1719,289.75 162.0156,289.6406 C161.7969,289.4688 161.6563,289.2188 161.6563,288.9375 C161.6563,288.6563 161.8125,288.3594 162.0625,288.2031 C162.2188,288.1094 162.3438,288.0938 162.7813,288.0938 L167.9219,288.0938 C168.375,288.0938 168.5156,288.125 168.6875,288.2344 C168.9219,288.4063 169.0313,288.6719 169.0313,288.9375 C169.0313,289.2344 168.8906,289.5156 168.625,289.6719 C168.5,289.75 168.3125,289.7813 167.9219,289.7813 Z "/><text fill="#000000" font-family="sans-serif" font-size="12" font-style="italic" lengthAdjust="spacingAndGlyphs" textLength="121" x="185.75" y="297.1543">HttpServletRequest</text><line style="stroke: #A80036; stroke-width: 1.5;" x1="63" x2="397" y1="309" y2="309"/><ellipse cx="73" cy="320.9023" fill="#84BE84" rx="3" ry="3" style="stroke: #038048; stroke-width: 1.0;"/><text fill="#000000" font-family="sans-serif" font-size="11" font-style="italic" lengthAdjust="spacingAndGlyphs" textLength="140" x="82" y="323.2104">getHeader(name: String)</text><ellipse cx="73" cy="333.707" fill="#84BE84" rx="3" ry="3" style="stroke: #038048; stroke-width: 1.0;"/><text fill="#000000" font-family="sans-serif" font-size="11" font-style="italic" lengthAdjust="spacingAndGlyphs" textLength="237" x="82" y="336.0151">getHeaderNames(): Enumeration&lt;String&gt;</text><ellipse cx="73" cy="346.5117" fill="#84BE84" rx="3" ry="3" style="stroke: #038048; stroke-width: 1.0;"/><text fill="#000000" font-family="sans-serif" font-size="11" font-style="italic" lengthAdjust="spacingAndGlyphs" textLength="310" x="82" y="348.8198">getHeaderNames(name: String): Enumeration&lt;String&gt;</text><ellipse cx="73" cy="359.3164" fill="#84BE84" rx="3" ry="3" style="stroke: #038048; stroke-width: 1.0;"/><text fill="#000000" font-family="sans-serif" font-size="11" font-style="italic" lengthAdjust="spacingAndGlyphs" textLength="176" x="82" y="361.6245">getIntHeader(name: String): int</text><ellipse cx="73" cy="372.1211" fill="#84BE84" rx="3" ry="3" style="stroke: #038048; stroke-width: 1.0;"/><text fill="#000000" font-family="sans-serif" font-size="11" font-style="italic" lengthAdjust="spacingAndGlyphs" textLength="198" x="82" y="374.4292">getDateHeader(name: String): long</text><line style="stroke: #A80036; stroke-width: 1.0; stroke-dasharray: 1.0,2.0;" x1="63" x2="397" y1="381.0234" y2="381.0234"/><ellipse cx="73" cy="392.9258" fill="#84BE84" rx="3" ry="3" style="stroke: #038048; stroke-width: 1.0;"/><text fill="#000000" font-family="sans-serif" font-size="11" font-style="italic" lengthAdjust="spacingAndGlyphs" textLength="143" x="82" y="395.2339">getSession(): HttpSession</text><ellipse cx="73" cy="405.7305" fill="#84BE84" rx="3" ry="3" style="stroke: #038048; stroke-width: 1.0;"/><text fill="#000000" font-family="sans-serif" font-size="11" font-style="italic" lengthAdjust="spacingAndGlyphs" textLength="232" x="82" y="408.0386">getSession(create: boolean): HttpSession</text><line style="stroke: #A80036; stroke-width: 1.0; stroke-dasharray: 1.0,2.0;" x1="63" x2="397" y1="414.6328" y2="414.6328"/><ellipse cx="73" cy="426.5352" fill="#84BE84" rx="3" ry="3" style="stroke: #038048; stroke-width: 1.0;"/><text fill="#000000" font-family="sans-serif" font-size="11" font-style="italic" lengthAdjust="spacingAndGlyphs" textLength="136" x="82" y="428.8433">getContextPath(): String</text><ellipse cx="73" cy="439.3398" fill="#84BE84" rx="3" ry="3" style="stroke: #038048; stroke-width: 1.0;"/><text fill="#000000" font-family="sans-serif" font-size="11" font-style="italic" lengthAdjust="spacingAndGlyphs" textLength="135" x="82" y="441.6479">getQueryString(): String</text><ellipse cx="73" cy="452.1445" fill="#84BE84" rx="3" ry="3" style="stroke: #038048; stroke-width: 1.0;"/><text fill="#000000" font-family="sans-serif" font-size="11" font-style="italic" lengthAdjust="spacingAndGlyphs" textLength="113" x="82" y="454.4526">getPathInfo(): String</text><ellipse cx="73" cy="464.9492" fill="#84BE84" rx="3" ry="3" style="stroke: #038048; stroke-width: 1.0;"/><text fill="#000000" font-family="sans-serif" font-size="11" font-style="italic" lengthAdjust="spacingAndGlyphs" textLength="152" x="82" y="467.2573">getPathTranslated(): String</text><ellipse cx="73" cy="477.7539" fill="#84BE84" rx="3" ry="3" style="stroke: #038048; stroke-width: 1.0;"/><text fill="#000000" font-family="sans-serif" font-size="11" font-style="italic" lengthAdjust="spacingAndGlyphs" textLength="132" x="82" y="480.062">getRequestURI(): String</text><ellipse cx="73" cy="490.5586" fill="#84BE84" rx="3" ry="3" style="stroke: #038048; stroke-width: 1.0;"/><text fill="#000000" font-family="sans-serif" font-size="11" font-style="italic" lengthAdjust="spacingAndGlyphs" textLength="132" x="82" y="492.8667">getServletPath(): String</text><!--link ServletRequest to HttpServletRequest--><path d="M217.307,237.101 C218.405,250.073 219.537,263.441 220.652,276.602 " fill="none" id="ServletRequest-HttpServletRequest" style="stroke: #A80036; stroke-width: 1.0;"/><polygon fill="none" points="210.328,237.648,215.616,217.128,224.278,236.466,210.328,237.648" style="stroke: #A80036; stroke-width: 1.0;"/><!--link ServletRequest to RequestDispatcher--><path d="M380.27,138 C390.185,138 400.101,138 410.017,138 " fill="none" id="ServletRequest-RequestDispatcher" style="stroke: #A80036; stroke-width: 1.0; stroke-dasharray: 7.0,7.0;"/><polygon fill="#A80036" points="415.203,138,406.203,134,410.203,138,406.203,142,415.203,138" style="stroke: #A80036; stroke-width: 1.0;"/><!--
@startuml
package javax.servlet {
 interface ServletRequest {
  {abstract} + getAttribute(name: String): Object
  {abstract} + setAttribute(name: String, value: Object)
  {abstract} + removeAttribute(name: String)
  ....
  {abstract} + getParameter(name: String): String
  {abstract} + getParameterValues(name: String): String[]
  {abstract} + getParameterMap(): Map<String, String[]>
  {abstract} + getParameterNames(): Enumeration<String>
  ....
  {abstract} + getRequestDispatcher(path : String): RequestDispatcher

 }
 interface RequestDispatcher {
  {abstract} + include(req: ServletRequest, resp: ServletResponse)
  {abstract} + forward(req: ServletRequest, resp: ServletResponse)
 }
 package http {
  interface HttpServletRequest {
   {abstract} + getHeader(name: String)
   {abstract} + getHeaderNames(): Enumeration<String>
   {abstract} + getHeaderNames(name: String): Enumeration<String>
   {abstract} + getIntHeader(name: String): int
   {abstract} + getDateHeader(name: String): long
   ....
   {abstract} + getSession(): HttpSession
   {abstract} + getSession(create: boolean): HttpSession
   ....
   {abstract} + getContextPath(): String
   {abstract} + getQueryString(): String
   {abstract} + getPathInfo(): String
   {abstract} + getPathTranslated(): String
   {abstract} + getRequestURI(): String
   {abstract} + getServletPath(): String
  }
 }
}
HttpServletRequest -up-|> ServletRequest
ServletRequest .right.> RequestDispatcher
hide empty attributes
hide empty methods
@enduml

PlantUML version 1.2017.16beta5(Unknown compile time)
(GPL source distribution)
Java Runtime: Java(TM) SE Runtime Environment
JVM: Java HotSpot(TM) 64-Bit Server VM
Java Version: 1.7.0_25-b15
Operating System: Linux
Default Encoding: UTF-8
Language: en
Country: US
--></g></svg>