<?xml version="1.0" encoding="UTF-8" standalone="no"?><svg xmlns="http://www.w3.org/2000/svg" xmlns:xlink="http://www.w3.org/1999/xlink" contentScriptType="application/ecmascript" contentStyleType="text/css" preserveAspectRatio="true" version="1.1" viewBox="0 0 589 228" zoomAndPan="magnify"><defs><filter height="300%" id="f1x89ycz5o4ath" width="300%" x="-1" y="-1"><feGaussianBlur result="blurOut" stdDeviation="2.0"/><feColorMatrix in="blurOut" result="blurOut2" type="matrix" values="0 0 0 0 0 0 0 0 0 0 0 0 0 0 0 0 0 0 .4 0"/><feOffset dx="4.0" dy="4.0" in="blurOut2" result="blurOut3"/><feBlend in="SourceGraphic" in2="blurOut3" mode="normal"/></filter></defs><g><!--class HttpServletRequest--><rect fill="#FEFECE" filter="url(#f1x89ycz5o4ath)" height="65.6094" id="HttpServletRequest" style="stroke: #A80036; stroke-width: 1.5;" width="281" x="6" y="80"/><ellipse cx="81.75" cy="96" fill="#B4A7E5" rx="11" ry="11" style="stroke: #A80036; stroke-width: 1.0;"/><path d="M82.7031,92.7813 L82.7031,99.2969 L84.4219,99.2969 C84.875,99.2969 85.0156,99.3281 85.1875,99.4531 C85.4219,99.625 85.5313,99.875 85.5313,100.1563 C85.5313,100.7188 85.1719,101 84.4219,101 L79.2813,101 C78.875,101 78.6719,100.9531 78.5156,100.8281 C78.2969,100.6719 78.1563,100.4063 78.1563,100.1563 C78.1563,99.8594 78.3125,99.5781 78.5625,99.4219 C78.7188,99.3125 78.8438,99.2969 79.2813,99.2969 L81,99.2969 L81,92.7813 L79.2813,92.7813 C78.8594,92.7813 78.6719,92.75 78.5156,92.6406 C78.2969,92.4688 78.1563,92.2188 78.1563,91.9375 C78.1563,91.6563 78.3125,91.3594 78.5625,91.2031 C78.7188,91.1094 78.8438,91.0938 79.2813,91.0938 L84.4219,91.0938 C84.875,91.0938 85.0156,91.125 85.1875,91.2344 C85.4219,91.4063 85.5313,91.6719 85.5313,91.9375 C85.5313,92.2344 85.3906,92.5156 85.125,92.6719 C85,92.75 84.8125,92.7813 84.4219,92.7813 Z "/><text fill="#000000" font-family="sans-serif" font-size="12" font-style="italic" lengthAdjust="spacingAndGlyphs" textLength="121" x="102.25" y="100.1543">HttpServletRequest</text><line style="stroke: #A80036; stroke-width: 1.5;" x1="7" x2="286" y1="112" y2="112"/><ellipse cx="17" cy="123.9023" fill="#84BE84" rx="3" ry="3" style="stroke: #038048; stroke-width: 1.0;"/><text fill="#000000" font-family="sans-serif" font-size="11" font-style="italic" lengthAdjust="spacingAndGlyphs" textLength="166" x="26" y="126.2104">getHttpSession(): HttpSession</text><ellipse cx="17" cy="136.707" fill="#84BE84" rx="3" ry="3" style="stroke: #038048; stroke-width: 1.0;"/><text fill="#000000" font-family="sans-serif" font-size="11" font-style="italic" lengthAdjust="spacingAndGlyphs" textLength="255" x="26" y="139.0151">getHttpSession(create: boolean): HttpSession</text><!--class HttpSession--><rect fill="#FEFECE" filter="url(#f1x89ycz5o4ath)" height="209.6563" id="HttpSession" style="stroke: #A80036; stroke-width: 1.5;" width="256" x="322.5" y="8"/><ellipse cx="409.25" cy="24" fill="#B4A7E5" rx="11" ry="11" style="stroke: #A80036; stroke-width: 1.0;"/><path d="M410.2031,20.7813 L410.2031,27.2969 L411.9219,27.2969 C412.375,27.2969 412.5156,27.3281 412.6875,27.4531 C412.9219,27.625 413.0313,27.875 413.0313,28.1563 C413.0313,28.7188 412.6719,29 411.9219,29 L406.7813,29 C406.375,29 406.1719,28.9531 406.0156,28.8281 C405.7969,28.6719 405.6563,28.4063 405.6563,28.1563 C405.6563,27.8594 405.8125,27.5781 406.0625,27.4219 C406.2188,27.3125 406.3438,27.2969 406.7813,27.2969 L408.5,27.2969 L408.5,20.7813 L406.7813,20.7813 C406.3594,20.7813 406.1719,20.75 406.0156,20.6406 C405.7969,20.4688 405.6563,20.2188 405.6563,19.9375 C405.6563,19.6563 405.8125,19.3594 406.0625,19.2031 C406.2188,19.1094 406.3438,19.0938 406.7813,19.0938 L411.9219,19.0938 C412.375,19.0938 412.5156,19.125 412.6875,19.2344 C412.9219,19.4063 413.0313,19.6719 413.0313,19.9375 C413.0313,20.2344 412.8906,20.5156 412.625,20.6719 C412.5,20.75 412.3125,20.7813 411.9219,20.7813 Z "/><text fill="#000000" font-family="sans-serif" font-size="12" font-style="italic" lengthAdjust="spacingAndGlyphs" textLength="74" x="429.75" y="28.1543">HttpSession</text><line style="stroke: #A80036; stroke-width: 1.5;" x1="323.5" x2="577.5" y1="40" y2="40"/><ellipse cx="333.5" cy="51.9023" fill="#84BE84" rx="3" ry="3" style="stroke: #038048; stroke-width: 1.0;"/><text fill="#000000" font-family="sans-serif" font-size="11" font-style="italic" lengthAdjust="spacingAndGlyphs" textLength="192" x="342.5" y="54.2104">getAttribute(name: String): Object</text><ellipse cx="333.5" cy="64.707" fill="#84BE84" rx="3" ry="3" style="stroke: #038048; stroke-width: 1.0;"/><text fill="#000000" font-family="sans-serif" font-size="11" font-style="italic" lengthAdjust="spacingAndGlyphs" textLength="114" x="342.5" y="67.0151">getAttributeNames()</text><ellipse cx="333.5" cy="77.5117" fill="#84BE84" rx="3" ry="3" style="stroke: #038048; stroke-width: 1.0;"/><text fill="#000000" font-family="sans-serif" font-size="11" font-style="italic" lengthAdjust="spacingAndGlyphs" textLength="230" x="342.5" y="79.8198">setAttribute(name: String, value: Object)</text><ellipse cx="333.5" cy="90.3164" fill="#84BE84" rx="3" ry="3" style="stroke: #038048; stroke-width: 1.0;"/><text fill="#000000" font-family="sans-serif" font-size="11" font-style="italic" lengthAdjust="spacingAndGlyphs" textLength="174" x="342.5" y="92.6245">removeAttribute(name: String)</text><line style="stroke: #A80036; stroke-width: 1.0; stroke-dasharray: 1.0,2.0;" x1="323.5" x2="577.5" y1="99.2188" y2="99.2188"/><ellipse cx="333.5" cy="111.1211" fill="#84BE84" rx="3" ry="3" style="stroke: #038048; stroke-width: 1.0;"/><text fill="#000000" font-family="sans-serif" font-size="11" font-style="italic" lengthAdjust="spacingAndGlyphs" textLength="202" x="342.5" y="113.4292">getServletContext(): ServletContext</text><ellipse cx="333.5" cy="123.9258" fill="#84BE84" rx="3" ry="3" style="stroke: #038048; stroke-width: 1.0;"/><text fill="#000000" font-family="sans-serif" font-size="11" font-style="italic" lengthAdjust="spacingAndGlyphs" textLength="63" x="342.5" y="126.2339">invalidate()</text><ellipse cx="333.5" cy="136.7305" fill="#84BE84" rx="3" ry="3" style="stroke: #038048; stroke-width: 1.0;"/><text fill="#000000" font-family="sans-serif" font-size="11" font-style="italic" lengthAdjust="spacingAndGlyphs" textLength="94" x="342.5" y="139.0386">isNew(): boolean</text><line style="stroke: #A80036; stroke-width: 1.0; stroke-dasharray: 1.0,2.0;" x1="323.5" x2="577.5" y1="145.6328" y2="145.6328"/><ellipse cx="333.5" cy="157.5352" fill="#84BE84" rx="3" ry="3" style="stroke: #038048; stroke-width: 1.0;"/><text fill="#000000" font-family="sans-serif" font-size="11" font-style="italic" lengthAdjust="spacingAndGlyphs" textLength="77" x="342.5" y="159.8433">getId(): String</text><ellipse cx="333.5" cy="170.3398" fill="#84BE84" rx="3" ry="3" style="stroke: #038048; stroke-width: 1.0;"/><text fill="#000000" font-family="sans-serif" font-size="11" font-style="italic" lengthAdjust="spacingAndGlyphs" textLength="134" x="342.5" y="172.6479">getCreationTime(): long</text><ellipse cx="333.5" cy="183.1445" fill="#84BE84" rx="3" ry="3" style="stroke: #038048; stroke-width: 1.0;"/><text fill="#000000" font-family="sans-serif" font-size="11" font-style="italic" lengthAdjust="spacingAndGlyphs" textLength="162" x="342.5" y="185.4526">getLastAccessedTime(): long</text><ellipse cx="333.5" cy="195.9492" fill="#84BE84" rx="3" ry="3" style="stroke: #038048; stroke-width: 1.0;"/><text fill="#000000" font-family="sans-serif" font-size="11" font-style="italic" lengthAdjust="spacingAndGlyphs" textLength="158" x="342.5" y="198.2573">getMaxInactiveInterval(): int</text><ellipse cx="333.5" cy="208.7539" fill="#84BE84" rx="3" ry="3" style="stroke: #038048; stroke-width: 1.0;"/><text fill="#000000" font-family="sans-serif" font-size="11" font-style="italic" lengthAdjust="spacingAndGlyphs" textLength="200" x="342.5" y="211.062">setMaxInactiveInterval(interval: int)</text><!--link HttpServletRequest to HttpSession--><path d="M287.219,113 C297.176,113 307.134,113 317.092,113 " fill="none" id="HttpServletRequest-HttpSession" style="stroke: #A80036; stroke-width: 1.0; stroke-dasharray: 7.0,7.0;"/><polygon fill="#A80036" points="322.299,113,313.299,109,317.299,113,313.299,117,322.299,113" style="stroke: #A80036; stroke-width: 1.0;"/><!--
@startuml
interface HttpServletRequest {
 {abstract} + getHttpSession(): HttpSession
 {abstract} + getHttpSession(create: boolean): HttpSession
}
interface HttpSession {
 {abstract} + getAttribute(name: String): Object
 {abstract} + getAttributeNames()
 {abstract} + setAttribute(name: String, value: Object)
 {abstract} + removeAttribute(name: String)
 ....
 {abstract} + getServletContext(): ServletContext
 {abstract} + invalidate()
 {abstract} + isNew(): boolean
 ....
 {abstract} + getId(): String
 {abstract} + getCreationTime(): long
 {abstract} + getLastAccessedTime(): long
 {abstract} + getMaxInactiveInterval(): int
 {abstract} + setMaxInactiveInterval(interval: int)
}
HttpServletRequest .right.> HttpSession
hide empty attributes
@enduml

PlantUML version 1.2017.16beta5(Unknown compile time)
(GPL source distribution)
Java Runtime: Java(TM) SE Runtime Environment
JVM: Java HotSpot(TM) 64-Bit Server VM
Java Version: 1.7.0_25-b15
Operating System: Linux
Default Encoding: UTF-8
Language: en
Country: US
--></g></svg>