<?xml version="1.0" encoding="UTF-8" standalone="no"?>
<svg xmlns="http://www.w3.org/2000/svg" xmlns:xlink="http://www.w3.org/1999/xlink" contentScriptType="application/ecmascript" contentStyleType="text/css" height="514px" preserveAspectRatio="none" style="width:697px;height:514px;" version="1.1" viewBox="0 0 697 514" width="697px" zoomAndPan="magnify"><defs><filter height="300%" id="framkl591hfgm" width="300%" x="-1" y="-1"><feGaussianBlur result="blurOut" stdDeviation="2.0"/><feColorMatrix in="blurOut" result="blurOut2" type="matrix" values="0 0 0 0 0 0 0 0 0 0 0 0 0 0 0 0 0 0 .4 0"/><feOffset dx="4.0" dy="4.0" in="blurOut2" result="blurOut3"/><feBlend in="SourceGraphic" in2="blurOut3" mode="normal"/></filter></defs><g><!--cluster javax.servlet.jsp.tagext--><polygon fill="#FFFFFF" filter="url(#framkl591hfgm)" points="22,24,211,24,218,46.2969,675,46.2969,675,502,22,502,22,24" style="stroke: #000000; stroke-width: 1.5;"/><line style="stroke: #000000; stroke-width: 1.5;" x1="22" x2="218" y1="46.2969" y2="46.2969"/><text fill="#000000" font-family="sans-serif" font-size="14" font-weight="bold" lengthAdjust="spacingAndGlyphs" textLength="183" x="26" y="38.9951">javax.servlet.jsp.tagext</text><!--class JspTag--><rect fill="#FEFECE" filter="url(#framkl591hfgm)" height="32" id="JspTag" style="stroke: #A80036; stroke-width: 1.5;" width="73" x="299.5" y="131"/><ellipse cx="314.5" cy="147" fill="#B4A7E5" rx="11" ry="11" style="stroke: #A80036; stroke-width: 1.0;"/><path d="M315.4531,143.7813 L315.4531,150.2969 L317.1719,150.2969 C317.625,150.2969 317.7656,150.3281 317.9375,150.4531 C318.1719,150.625 318.2813,150.875 318.2813,151.1563 C318.2813,151.7188 317.9219,152 317.1719,152 L312.0313,152 C311.625,152 311.4219,151.9531 311.2656,151.8281 C311.0469,151.6719 310.9063,151.4063 310.9063,151.1563 C310.9063,150.8594 311.0625,150.5781 311.3125,150.4219 C311.4688,150.3125 311.5938,150.2969 312.0313,150.2969 L313.75,150.2969 L313.75,143.7813 L312.0313,143.7813 C311.6094,143.7813 311.4219,143.75 311.2656,143.6406 C311.0469,143.4688 310.9063,143.2188 310.9063,142.9375 C310.9063,142.6563 311.0625,142.3594 311.3125,142.2031 C311.4688,142.1094 311.5938,142.0938 312.0313,142.0938 L317.1719,142.0938 C317.625,142.0938 317.7656,142.125 317.9375,142.2344 C318.1719,142.4063 318.2813,142.6719 318.2813,142.9375 C318.2813,143.2344 318.1406,143.5156 317.875,143.6719 C317.75,143.75 317.5625,143.7813 317.1719,143.7813 Z "/><text fill="#000000" font-family="sans-serif" font-size="12" font-style="italic" lengthAdjust="spacingAndGlyphs" textLength="41" x="328.5" y="151.1543">JspTag</text><!--class SimpleTag--><rect fill="#FEFECE" filter="url(#framkl591hfgm)" height="104.0234" id="SimpleTag" style="stroke: #A80036; stroke-width: 1.5;" width="226" x="38" y="95"/><ellipse cx="114.75" cy="111" fill="#B4A7E5" rx="11" ry="11" style="stroke: #A80036; stroke-width: 1.0;"/><path d="M115.7031,107.7813 L115.7031,114.2969 L117.4219,114.2969 C117.875,114.2969 118.0156,114.3281 118.1875,114.4531 C118.4219,114.625 118.5313,114.875 118.5313,115.1563 C118.5313,115.7188 118.1719,116 117.4219,116 L112.2813,116 C111.875,116 111.6719,115.9531 111.5156,115.8281 C111.2969,115.6719 111.1563,115.4063 111.1563,115.1563 C111.1563,114.8594 111.3125,114.5781 111.5625,114.4219 C111.7188,114.3125 111.8438,114.2969 112.2813,114.2969 L114,114.2969 L114,107.7813 L112.2813,107.7813 C111.8594,107.7813 111.6719,107.75 111.5156,107.6406 C111.2969,107.4688 111.1563,107.2188 111.1563,106.9375 C111.1563,106.6563 111.3125,106.3594 111.5625,106.2031 C111.7188,106.1094 111.8438,106.0938 112.2813,106.0938 L117.4219,106.0938 C117.875,106.0938 118.0156,106.125 118.1875,106.2344 C118.4219,106.4063 118.5313,106.6719 118.5313,106.9375 C118.5313,107.2344 118.3906,107.5156 118.125,107.6719 C118,107.75 117.8125,107.7813 117.4219,107.7813 Z "/><text fill="#000000" font-family="sans-serif" font-size="12" font-style="italic" lengthAdjust="spacingAndGlyphs" textLength="64" x="135.25" y="115.1543">SimpleTag</text><line style="stroke: #A80036; stroke-width: 1.5;" x1="39" x2="263" y1="127" y2="127"/><ellipse cx="49" cy="138.9023" fill="#84BE84" rx="3" ry="3" style="stroke: #038048; stroke-width: 1.0;"/><text fill="#000000" font-family="sans-serif" font-size="11" font-style="italic" lengthAdjust="spacingAndGlyphs" textLength="43" x="58" y="141.2104">doTag()</text><ellipse cx="49" cy="151.707" fill="#84BE84" rx="3" ry="3" style="stroke: #038048; stroke-width: 1.0;"/><text fill="#000000" font-family="sans-serif" font-size="11" font-style="italic" lengthAdjust="spacingAndGlyphs" textLength="108" x="58" y="154.0151">getParent(): JspTag</text><ellipse cx="49" cy="164.5117" fill="#84BE84" rx="3" ry="3" style="stroke: #038048; stroke-width: 1.0;"/><text fill="#000000" font-family="sans-serif" font-size="11" font-style="italic" lengthAdjust="spacingAndGlyphs" textLength="125" x="58" y="166.8198">setParent(tag: JspTag)</text><ellipse cx="49" cy="177.3164" fill="#84BE84" rx="3" ry="3" style="stroke: #038048; stroke-width: 1.0;"/><text fill="#000000" font-family="sans-serif" font-size="11" font-style="italic" lengthAdjust="spacingAndGlyphs" textLength="170" x="58" y="179.6245">setJspContext(ctx: JspContext)</text><ellipse cx="49" cy="190.1211" fill="#84BE84" rx="3" ry="3" style="stroke: #038048; stroke-width: 1.0;"/><text fill="#000000" font-family="sans-serif" font-size="11" font-style="italic" lengthAdjust="spacingAndGlyphs" textLength="200" x="58" y="192.4292">setJspBody(fragment: JspFragment)</text><!--class Tag--><rect fill="#FEFECE" filter="url(#framkl591hfgm)" height="176.0469" id="Tag" style="stroke: #A80036; stroke-width: 1.5;" width="216" x="408" y="59"/><ellipse cx="500.25" cy="75" fill="#B4A7E5" rx="11" ry="11" style="stroke: #A80036; stroke-width: 1.0;"/><path d="M501.2031,71.7813 L501.2031,78.2969 L502.9219,78.2969 C503.375,78.2969 503.5156,78.3281 503.6875,78.4531 C503.9219,78.625 504.0313,78.875 504.0313,79.1563 C504.0313,79.7188 503.6719,80 502.9219,80 L497.7813,80 C497.375,80 497.1719,79.9531 497.0156,79.8281 C496.7969,79.6719 496.6563,79.4063 496.6563,79.1563 C496.6563,78.8594 496.8125,78.5781 497.0625,78.4219 C497.2188,78.3125 497.3438,78.2969 497.7813,78.2969 L499.5,78.2969 L499.5,71.7813 L497.7813,71.7813 C497.3594,71.7813 497.1719,71.75 497.0156,71.6406 C496.7969,71.4688 496.6563,71.2188 496.6563,70.9375 C496.6563,70.6563 496.8125,70.3594 497.0625,70.2031 C497.2188,70.1094 497.3438,70.0938 497.7813,70.0938 L502.9219,70.0938 C503.375,70.0938 503.5156,70.125 503.6875,70.2344 C503.9219,70.4063 504.0313,70.6719 504.0313,70.9375 C504.0313,71.2344 503.8906,71.5156 503.625,71.6719 C503.5,71.75 503.3125,71.7813 502.9219,71.7813 Z "/><text fill="#000000" font-family="sans-serif" font-size="12" font-style="italic" lengthAdjust="spacingAndGlyphs" textLength="23" x="520.75" y="79.1543">Tag</text><line style="stroke: #A80036; stroke-width: 1.5;" x1="409" x2="623" y1="91" y2="91"/><ellipse cx="419" cy="102.9023" fill="none" rx="3" ry="3" style="stroke: #038048; stroke-width: 1.0;"/><text fill="#000000" font-family="sans-serif" font-size="11" lengthAdjust="spacingAndGlyphs" text-decoration="underline" textLength="85" x="428" y="105.2104">SKIP_BODY: int</text><ellipse cx="419" cy="115.707" fill="none" rx="3" ry="3" style="stroke: #038048; stroke-width: 1.0;"/><text fill="#000000" font-family="sans-serif" font-size="11" lengthAdjust="spacingAndGlyphs" text-decoration="underline" textLength="141" x="428" y="118.0151">EVAL_BODY_INCLUDE: int</text><ellipse cx="419" cy="128.5117" fill="none" rx="3" ry="3" style="stroke: #038048; stroke-width: 1.0;"/><text fill="#000000" font-family="sans-serif" font-size="11" lengthAdjust="spacingAndGlyphs" text-decoration="underline" textLength="83" x="428" y="130.8198">SKIP_PAGE: int</text><ellipse cx="419" cy="141.3164" fill="none" rx="3" ry="3" style="stroke: #038048; stroke-width: 1.0;"/><text fill="#000000" font-family="sans-serif" font-size="11" lengthAdjust="spacingAndGlyphs" text-decoration="underline" textLength="85" x="428" y="143.6245">EVAL_PAGE: int</text><line style="stroke: #A80036; stroke-width: 1.5;" x1="409" x2="623" y1="150.2188" y2="150.2188"/><ellipse cx="419" cy="162.1211" fill="#84BE84" rx="3" ry="3" style="stroke: #038048; stroke-width: 1.0;"/><text fill="#000000" font-family="sans-serif" font-size="11" font-style="italic" lengthAdjust="spacingAndGlyphs" textLength="92" x="428" y="164.4292">getParent(): Tag</text><ellipse cx="419" cy="174.9258" fill="#84BE84" rx="3" ry="3" style="stroke: #038048; stroke-width: 1.0;"/><text fill="#000000" font-family="sans-serif" font-size="11" font-style="italic" lengthAdjust="spacingAndGlyphs" textLength="141" x="428" y="177.2339">void setParent(tag: Tag);</text><ellipse cx="419" cy="187.7305" fill="#84BE84" rx="3" ry="3" style="stroke: #038048; stroke-width: 1.0;"/><text fill="#000000" font-family="sans-serif" font-size="11" font-style="italic" lengthAdjust="spacingAndGlyphs" textLength="190" x="428" y="190.0386">setPageContext(PageContext ctx)</text><ellipse cx="419" cy="200.5352" fill="#84BE84" rx="3" ry="3" style="stroke: #038048; stroke-width: 1.0;"/><text fill="#000000" font-family="sans-serif" font-size="11" font-style="italic" lengthAdjust="spacingAndGlyphs" textLength="92" x="428" y="202.8433">doStartTag(): int</text><ellipse cx="419" cy="213.3398" fill="#84BE84" rx="3" ry="3" style="stroke: #038048; stroke-width: 1.0;"/><text fill="#000000" font-family="sans-serif" font-size="11" font-style="italic" lengthAdjust="spacingAndGlyphs" textLength="86" x="428" y="215.6479">doEndTag(): int</text><ellipse cx="419" cy="226.1445" fill="#84BE84" rx="3" ry="3" style="stroke: #038048; stroke-width: 1.0;"/><text fill="#000000" font-family="sans-serif" font-size="11" font-style="italic" lengthAdjust="spacingAndGlyphs" textLength="50" x="428" y="228.4526">release()</text><!--class IterationTag--><rect fill="#FEFECE" filter="url(#framkl591hfgm)" height="73.6094" id="IterationTag" style="stroke: #A80036; stroke-width: 1.5;" width="153" x="219.5" y="307.5"/><ellipse cx="254.3" cy="323.5" fill="#B4A7E5" rx="11" ry="11" style="stroke: #A80036; stroke-width: 1.0;"/><path d="M255.2531,320.2813 L255.2531,326.7969 L256.9719,326.7969 C257.425,326.7969 257.5656,326.8281 257.7375,326.9531 C257.9719,327.125 258.0813,327.375 258.0813,327.6563 C258.0813,328.2188 257.7219,328.5 256.9719,328.5 L251.8313,328.5 C251.425,328.5 251.2219,328.4531 251.0656,328.3281 C250.8469,328.1719 250.7063,327.9063 250.7063,327.6563 C250.7063,327.3594 250.8625,327.0781 251.1125,326.9219 C251.2688,326.8125 251.3938,326.7969 251.8313,326.7969 L253.55,326.7969 L253.55,320.2813 L251.8313,320.2813 C251.4094,320.2813 251.2219,320.25 251.0656,320.1406 C250.8469,319.9688 250.7063,319.7188 250.7063,319.4375 C250.7063,319.1563 250.8625,318.8594 251.1125,318.7031 C251.2688,318.6094 251.3938,318.5938 251.8313,318.5938 L256.9719,318.5938 C257.425,318.5938 257.5656,318.625 257.7375,318.7344 C257.9719,318.9063 258.0813,319.1719 258.0813,319.4375 C258.0813,319.7344 257.9406,320.0156 257.675,320.1719 C257.55,320.25 257.3625,320.2813 256.9719,320.2813 Z "/><text fill="#000000" font-family="sans-serif" font-size="12" font-style="italic" lengthAdjust="spacingAndGlyphs" textLength="77" x="272.7" y="327.6543">IterationTag</text><line style="stroke: #A80036; stroke-width: 1.5;" x1="220.5" x2="371.5" y1="339.5" y2="339.5"/><ellipse cx="230.5" cy="351.4023" fill="none" rx="3" ry="3" style="stroke: #038048; stroke-width: 1.0;"/><text fill="#000000" font-family="sans-serif" font-size="11" lengthAdjust="spacingAndGlyphs" text-decoration="underline" textLength="127" x="239.5" y="353.7104">EVAL_BODY_AGAIN: int</text><line style="stroke: #A80036; stroke-width: 1.5;" x1="220.5" x2="371.5" y1="360.3047" y2="360.3047"/><ellipse cx="230.5" cy="372.207" fill="#84BE84" rx="3" ry="3" style="stroke: #038048; stroke-width: 1.0;"/><text fill="#000000" font-family="sans-serif" font-size="11" font-style="italic" lengthAdjust="spacingAndGlyphs" textLength="79" x="239.5" y="374.5151">doAfterBody()</text><!--class BodyTag--><rect fill="#FEFECE" filter="url(#framkl591hfgm)" height="99.2188" id="BodyTag" style="stroke: #A80036; stroke-width: 1.5;" width="251" x="407.5" y="295"/><ellipse cx="501.75" cy="311" fill="#B4A7E5" rx="11" ry="11" style="stroke: #A80036; stroke-width: 1.0;"/><path d="M502.7031,307.7813 L502.7031,314.2969 L504.4219,314.2969 C504.875,314.2969 505.0156,314.3281 505.1875,314.4531 C505.4219,314.625 505.5313,314.875 505.5313,315.1563 C505.5313,315.7188 505.1719,316 504.4219,316 L499.2813,316 C498.875,316 498.6719,315.9531 498.5156,315.8281 C498.2969,315.6719 498.1563,315.4063 498.1563,315.1563 C498.1563,314.8594 498.3125,314.5781 498.5625,314.4219 C498.7188,314.3125 498.8438,314.2969 499.2813,314.2969 L501,314.2969 L501,307.7813 L499.2813,307.7813 C498.8594,307.7813 498.6719,307.75 498.5156,307.6406 C498.2969,307.4688 498.1563,307.2188 498.1563,306.9375 C498.1563,306.6563 498.3125,306.3594 498.5625,306.2031 C498.7188,306.1094 498.8438,306.0938 499.2813,306.0938 L504.4219,306.0938 C504.875,306.0938 505.0156,306.125 505.1875,306.2344 C505.4219,306.4063 505.5313,306.6719 505.5313,306.9375 C505.5313,307.2344 505.3906,307.5156 505.125,307.6719 C505,307.75 504.8125,307.7813 504.4219,307.7813 Z "/><text fill="#000000" font-family="sans-serif" font-size="12" font-style="italic" lengthAdjust="spacingAndGlyphs" textLength="54" x="522.25" y="315.1543">BodyTag</text><line style="stroke: #A80036; stroke-width: 1.5;" x1="408.5" x2="657.5" y1="327" y2="327"/><ellipse cx="418.5" cy="338.9023" fill="none" rx="3" ry="3" style="stroke: #038048; stroke-width: 1.0;"/><text fill="#000000" font-family="sans-serif" font-size="11" lengthAdjust="spacingAndGlyphs" text-decoration="underline" textLength="116" x="427.5" y="341.2104">EVAL_BODY_TAG: int</text><ellipse cx="418.5" cy="351.707" fill="none" rx="3" ry="3" style="stroke: #038048; stroke-width: 1.0;"/><text fill="#000000" font-family="sans-serif" font-size="11" lengthAdjust="spacingAndGlyphs" text-decoration="underline" textLength="150" x="427.5" y="354.0151">EVAL_BODY_BUFFERED: int</text><line style="stroke: #A80036; stroke-width: 1.5;" x1="408.5" x2="657.5" y1="360.6094" y2="360.6094"/><ellipse cx="418.5" cy="372.5117" fill="#84BE84" rx="3" ry="3" style="stroke: #038048; stroke-width: 1.0;"/><text fill="#000000" font-family="sans-serif" font-size="11" font-style="italic" lengthAdjust="spacingAndGlyphs" textLength="225" x="427.5" y="374.8198">setBodyContent(content: BodyContent);</text><ellipse cx="418.5" cy="385.3164" fill="#84BE84" rx="3" ry="3" style="stroke: #038048; stroke-width: 1.0;"/><text fill="#000000" font-family="sans-serif" font-size="11" font-style="italic" lengthAdjust="spacingAndGlyphs" textLength="68" x="427.5" y="387.6245">doInitBody()</text><!--class SimpleTagSupport--><rect fill="#FEFECE" filter="url(#framkl591hfgm)" height="32" id="SimpleTagSupport" style="stroke: #A80036; stroke-width: 1.5;" width="146" x="38" y="328.5"/><ellipse cx="53" cy="344.5" fill="#ADD1B2" rx="11" ry="11" style="stroke: #A80036; stroke-width: 1.0;"/><path d="M55.3438,340.1719 L55.5156,340.25 C55.7344,339.9375 55.9375,339.8438 56.2344,339.8438 C56.5313,339.8438 56.8125,339.9844 56.9688,340.25 C57.0625,340.4063 57.0781,340.5313 57.0781,340.9688 L57.0781,342.3906 C57.0781,342.8125 57.0469,343 56.9375,343.1563 C56.7656,343.375 56.5,343.5156 56.2344,343.5156 C56.0156,343.5156 55.7813,343.4063 55.6406,343.2656 C55.5,343.1406 55.4688,343.0156 55.4063,342.6094 C55.3125,342.2031 55.1406,341.9844 54.6563,341.7031 C54.1875,341.4531 53.5781,341.2969 53,341.2969 C51.2656,341.2969 50.0156,342.6094 50.0156,344.3906 L50.0156,345.4844 C50.0156,347.1875 51.3125,348.2813 53.3594,348.2813 C54.125,348.2813 54.8125,348.1563 55.2344,347.8906 C55.4219,347.7969 55.4219,347.7969 55.875,347.3125 C56.0625,347.125 56.2656,347.0469 56.4844,347.0469 C56.9531,347.0469 57.3438,347.4375 57.3438,347.8906 C57.3438,348.2813 57.0156,348.7344 56.4375,349.1406 C55.6875,349.6875 54.5313,349.9844 53.3125,349.9844 C50.4219,349.9844 48.3125,348.0938 48.3125,345.5156 L48.3125,344.3906 C48.3125,341.6719 50.3125,339.5938 52.9375,339.5938 C53.8125,339.5938 54.4063,339.7344 55.3438,340.1719 Z "/><text fill="#000000" font-family="sans-serif" font-size="12" lengthAdjust="spacingAndGlyphs" textLength="114" x="67" y="348.6543">SimpleTagSupport</text><!--class BodyTagSupport--><rect fill="#FEFECE" filter="url(#framkl591hfgm)" height="32" id="BodyTagSupport" style="stroke: #A80036; stroke-width: 1.5;" width="135" x="465.5" y="454"/><ellipse cx="480.5" cy="470" fill="#ADD1B2" rx="11" ry="11" style="stroke: #A80036; stroke-width: 1.0;"/><path d="M482.8438,465.6719 L483.0156,465.75 C483.2344,465.4375 483.4375,465.3438 483.7344,465.3438 C484.0313,465.3438 484.3125,465.4844 484.4688,465.75 C484.5625,465.9063 484.5781,466.0313 484.5781,466.4688 L484.5781,467.8906 C484.5781,468.3125 484.5469,468.5 484.4375,468.6563 C484.2656,468.875 484,469.0156 483.7344,469.0156 C483.5156,469.0156 483.2813,468.9063 483.1406,468.7656 C483,468.6406 482.9688,468.5156 482.9063,468.1094 C482.8125,467.7031 482.6406,467.4844 482.1563,467.2031 C481.6875,466.9531 481.0781,466.7969 480.5,466.7969 C478.7656,466.7969 477.5156,468.1094 477.5156,469.8906 L477.5156,470.9844 C477.5156,472.6875 478.8125,473.7813 480.8594,473.7813 C481.625,473.7813 482.3125,473.6563 482.7344,473.3906 C482.9219,473.2969 482.9219,473.2969 483.375,472.8125 C483.5625,472.625 483.7656,472.5469 483.9844,472.5469 C484.4531,472.5469 484.8438,472.9375 484.8438,473.3906 C484.8438,473.7813 484.5156,474.2344 483.9375,474.6406 C483.1875,475.1875 482.0313,475.4844 480.8125,475.4844 C477.9219,475.4844 475.8125,473.5938 475.8125,471.0156 L475.8125,469.8906 C475.8125,467.1719 477.8125,465.0938 480.4375,465.0938 C481.3125,465.0938 481.9063,465.2344 482.8438,465.6719 Z "/><text fill="#000000" font-family="sans-serif" font-size="12" lengthAdjust="spacingAndGlyphs" textLength="103" x="494.5" y="474.1543">BodyTagSupport</text><!--class TagSupport--><rect fill="#FEFECE" filter="url(#framkl591hfgm)" height="32" id="TagSupport" style="stroke: #A80036; stroke-width: 1.5;" width="105" x="243.5" y="454"/><ellipse cx="258.5" cy="470" fill="#ADD1B2" rx="11" ry="11" style="stroke: #A80036; stroke-width: 1.0;"/><path d="M260.8438,465.6719 L261.0156,465.75 C261.2344,465.4375 261.4375,465.3438 261.7344,465.3438 C262.0313,465.3438 262.3125,465.4844 262.4688,465.75 C262.5625,465.9063 262.5781,466.0313 262.5781,466.4688 L262.5781,467.8906 C262.5781,468.3125 262.5469,468.5 262.4375,468.6563 C262.2656,468.875 262,469.0156 261.7344,469.0156 C261.5156,469.0156 261.2813,468.9063 261.1406,468.7656 C261,468.6406 260.9688,468.5156 260.9063,468.1094 C260.8125,467.7031 260.6406,467.4844 260.1563,467.2031 C259.6875,466.9531 259.0781,466.7969 258.5,466.7969 C256.7656,466.7969 255.5156,468.1094 255.5156,469.8906 L255.5156,470.9844 C255.5156,472.6875 256.8125,473.7813 258.8594,473.7813 C259.625,473.7813 260.3125,473.6563 260.7344,473.3906 C260.9219,473.2969 260.9219,473.2969 261.375,472.8125 C261.5625,472.625 261.7656,472.5469 261.9844,472.5469 C262.4531,472.5469 262.8438,472.9375 262.8438,473.3906 C262.8438,473.7813 262.5156,474.2344 261.9375,474.6406 C261.1875,475.1875 260.0313,475.4844 258.8125,475.4844 C255.9219,475.4844 253.8125,473.5938 253.8125,471.0156 L253.8125,469.8906 C253.8125,467.1719 255.8125,465.0938 258.4375,465.0938 C259.3125,465.0938 259.9063,465.2344 260.8438,465.6719 Z "/><text fill="#000000" font-family="sans-serif" font-size="12" lengthAdjust="spacingAndGlyphs" textLength="73" x="272.5" y="474.1543">TagSupport</text><!--link JspTag to Tag--><path d="M392.694,147 C397.75,147 402.806,147 407.862,147 " fill="none" id="JspTag-Tag" style="stroke: #A80036; stroke-width: 1.0;"/><polygon fill="none" points="392.563,154,372.562,147,392.562,140,392.563,154" style="stroke: #A80036; stroke-width: 1.0;"/><!--link Tag to IterationTag--><path d="M402.739,248.648 C379.014,269.731 355.491,290.634 336.591,307.43 " fill="none" id="Tag-IterationTag" style="stroke: #A80036; stroke-width: 1.0;"/><polygon fill="none" points="398.303,243.225,417.903,235.172,407.603,253.69,398.303,243.225" style="stroke: #A80036; stroke-width: 1.0;"/><!--link IterationTag to BodyTag--><path d="M393.002,344.5 C397.751,344.5 402.5,344.5 407.249,344.5 " fill="none" id="IterationTag-BodyTag" style="stroke: #A80036; stroke-width: 1.0;"/><polygon fill="none" points="392.84,351.5,372.84,344.5,392.84,337.5,392.84,351.5" style="stroke: #A80036; stroke-width: 1.0;"/><!--link SimpleTag to JspTag--><path d="M264.096,147 C269.165,147 274.234,147 279.303,147 " fill="none" id="SimpleTag-JspTag" style="stroke: #A80036; stroke-width: 1.0;"/><polygon fill="none" points="279.486,140,299.486,147,279.486,154,279.486,140" style="stroke: #A80036; stroke-width: 1.0;"/><!--link SimpleTag to SimpleTagSupport--><path d="M136.5,218.867 C128.365,258.63 118.912,304.829 114.124,328.229 " fill="none" id="SimpleTag-SimpleTagSupport" style="stroke: #A80036; stroke-width: 1.0; stroke-dasharray: 7.0,7.0;"/><polygon fill="none" points="129.676,217.301,140.543,199.11,143.392,220.107,129.676,217.301" style="stroke: #A80036; stroke-width: 1.0;"/><!--link BodyTag to BodyTagSupport--><path d="M533,414.333 C533,429.2727 533,443.652 533,453.9105 " fill="none" id="BodyTag-BodyTagSupport" style="stroke: #A80036; stroke-width: 1.0; stroke-dasharray: 7.0,7.0;"/><polygon fill="none" points="526,414.311,533,394.31,540,414.31,526,414.311" style="stroke: #A80036; stroke-width: 1.0;"/><!--link IterationTag to TagSupport--><path d="M296,401.718 C296,420.8855 296,440.77 296,453.9038 " fill="none" id="IterationTag-TagSupport" style="stroke: #A80036; stroke-width: 1.0; stroke-dasharray: 7.0,7.0;"/><polygon fill="none" points="289,401.553,296,381.553,303,401.553,289,401.553" style="stroke: #A80036; stroke-width: 1.0;"/><!--
@startuml
package javax.servlet.jsp.tagext {
 interface JspTag
 interface SimpleTag {
  +{abstract} doTag()
  +{abstract} getParent(): JspTag
  +{abstract} setParent(tag: JspTag)
  +{abstract} setJspContext(ctx: JspContext)
  +{abstract} setJspBody(fragment: JspFragment)
 }
 interface Tag {
  +{static}SKIP_BODY: int
  +{static} EVAL_BODY_INCLUDE: int
  +{static} SKIP_PAGE: int
  +{static} EVAL_PAGE: int
  +{abstract} getParent(): Tag
  +{abstract} void setParent(tag: Tag);
  +{abstract} setPageContext(PageContext ctx)
  +{abstract} doStartTag(): int
  +{abstract} doEndTag(): int
  +{abstract} release()
 }
 interface IterationTag {
  +{static}EVAL_BODY_AGAIN: int
  +{abstract} doAfterBody()
 }
 interface BodyTag {
  +{static}EVAL_BODY_TAG: int
  +{static}EVAL_BODY_BUFFERED: int
  +{abstract} setBodyContent(content: BodyContent);
  +{abstract} doInitBody()
 }
 class SimpleTagSupport
 class BodyTagSupport
 class TagSupport
}

Tag -left-|> JspTag
IterationTag -up-|> Tag
BodyTag -left-|> IterationTag
SimpleTag -right-|> JspTag
SimpleTagSupport .up.|> SimpleTag
BodyTagSupport .up.|> BodyTag
TagSupport .up.|> IterationTag

hide empty members
@enduml

PlantUML version 1.2019.08(Sat Jul 13 19:25:14 UTC 2019)
(GPL source distribution)
Java Runtime: Java(TM) SE Runtime Environment
JVM: Java HotSpot(TM) 64-Bit Server VM
Java Version: 1.7.0_25-b15
Operating System: Linux
Default Encoding: UTF-8
Language: en
Country: US
--></g></svg>