<?xml version="1.0" encoding="UTF-8" standalone="no"?><svg xmlns="http://www.w3.org/2000/svg" xmlns:xlink="http://www.w3.org/1999/xlink" contentScriptType="application/ecmascript" contentStyleType="text/css" preserveAspectRatio="true" version="1.1" viewBox="0 0 183 143" zoomAndPan="magnify"><defs><filter height="300%" id="f3dcxty3utjtn" width="300%" x="-1" y="-1"><feGaussianBlur result="blurOut" stdDeviation="2.0"/><feColorMatrix in="blurOut" result="blurOut2" type="matrix" values="0 0 0 0 0 0 0 0 0 0 0 0 0 0 0 0 0 0 .4 0"/><feOffset dx="4.0" dy="4.0" in="blurOut2" result="blurOut3"/><feBlend in="SourceGraphic" in2="blurOut3" mode="normal"/></filter></defs><g><!--class User--><rect fill="#FEFECE" filter="url(#f3dcxty3utjtn)" height="32" id="User" style="stroke: #A80036; stroke-width: 1.5;" width="61" x="6" y="8"/><ellipse cx="21" cy="24" fill="#ADD1B2" rx="11" ry="11" style="stroke: #A80036; stroke-width: 1.0;"/><path d="M23.3438,19.6719 L23.5156,19.75 C23.7344,19.4375 23.9375,19.3438 24.2344,19.3438 C24.5313,19.3438 24.8125,19.4844 24.9688,19.75 C25.0625,19.9063 25.0781,20.0313 25.0781,20.4688 L25.0781,21.8906 C25.0781,22.3125 25.0469,22.5 24.9375,22.6563 C24.7656,22.875 24.5,23.0156 24.2344,23.0156 C24.0156,23.0156 23.7813,22.9063 23.6406,22.7656 C23.5,22.6406 23.4688,22.5156 23.4063,22.1094 C23.3125,21.7031 23.1406,21.4844 22.6563,21.2031 C22.1875,20.9531 21.5781,20.7969 21,20.7969 C19.2656,20.7969 18.0156,22.1094 18.0156,23.8906 L18.0156,24.9844 C18.0156,26.6875 19.3125,27.7813 21.3594,27.7813 C22.125,27.7813 22.8125,27.6563 23.2344,27.3906 C23.4219,27.2969 23.4219,27.2969 23.875,26.8125 C24.0625,26.625 24.2656,26.5469 24.4844,26.5469 C24.9531,26.5469 25.3438,26.9375 25.3438,27.3906 C25.3438,27.7813 25.0156,28.2344 24.4375,28.6406 C23.6875,29.1875 22.5313,29.4844 21.3125,29.4844 C18.4219,29.4844 16.3125,27.5938 16.3125,25.0156 L16.3125,23.8906 C16.3125,21.1719 18.3125,19.0938 20.9375,19.0938 C21.8125,19.0938 22.4063,19.2344 23.3438,19.6719 Z "/><text fill="#000000" font-family="sans-serif" font-size="12" lengthAdjust="spacingAndGlyphs" textLength="29" x="35" y="28.1543">User</text><!--class Group--><rect fill="#FEFECE" filter="url(#f3dcxty3utjtn)" height="32" id="Group" style="stroke: #A80036; stroke-width: 1.5;" width="70" x="102.5" y="8"/><ellipse cx="117.5" cy="24" fill="#ADD1B2" rx="11" ry="11" style="stroke: #A80036; stroke-width: 1.0;"/><path d="M119.8438,19.6719 L120.0156,19.75 C120.2344,19.4375 120.4375,19.3438 120.7344,19.3438 C121.0313,19.3438 121.3125,19.4844 121.4688,19.75 C121.5625,19.9063 121.5781,20.0313 121.5781,20.4688 L121.5781,21.8906 C121.5781,22.3125 121.5469,22.5 121.4375,22.6563 C121.2656,22.875 121,23.0156 120.7344,23.0156 C120.5156,23.0156 120.2813,22.9063 120.1406,22.7656 C120,22.6406 119.9688,22.5156 119.9063,22.1094 C119.8125,21.7031 119.6406,21.4844 119.1563,21.2031 C118.6875,20.9531 118.0781,20.7969 117.5,20.7969 C115.7656,20.7969 114.5156,22.1094 114.5156,23.8906 L114.5156,24.9844 C114.5156,26.6875 115.8125,27.7813 117.8594,27.7813 C118.625,27.7813 119.3125,27.6563 119.7344,27.3906 C119.9219,27.2969 119.9219,27.2969 120.375,26.8125 C120.5625,26.625 120.7656,26.5469 120.9844,26.5469 C121.4531,26.5469 121.8438,26.9375 121.8438,27.3906 C121.8438,27.7813 121.5156,28.2344 120.9375,28.6406 C120.1875,29.1875 119.0313,29.4844 117.8125,29.4844 C114.9219,29.4844 112.8125,27.5938 112.8125,25.0156 L112.8125,23.8906 C112.8125,21.1719 114.8125,19.0938 117.4375,19.0938 C118.3125,19.0938 118.9063,19.2344 119.8438,19.6719 Z "/><text fill="#000000" font-family="sans-serif" font-size="12" lengthAdjust="spacingAndGlyphs" textLength="38" x="131.5" y="28.1543">Group</text><!--class Role--><rect fill="#FEFECE" filter="url(#f3dcxty3utjtn)" height="32" id="Role" style="stroke: #A80036; stroke-width: 1.5;" width="59" x="57" y="100"/><ellipse cx="72" cy="116" fill="#ADD1B2" rx="11" ry="11" style="stroke: #A80036; stroke-width: 1.0;"/><path d="M74.3438,111.6719 L74.5156,111.75 C74.7344,111.4375 74.9375,111.3438 75.2344,111.3438 C75.5313,111.3438 75.8125,111.4844 75.9688,111.75 C76.0625,111.9063 76.0781,112.0313 76.0781,112.4688 L76.0781,113.8906 C76.0781,114.3125 76.0469,114.5 75.9375,114.6563 C75.7656,114.875 75.5,115.0156 75.2344,115.0156 C75.0156,115.0156 74.7813,114.9063 74.6406,114.7656 C74.5,114.6406 74.4688,114.5156 74.4063,114.1094 C74.3125,113.7031 74.1406,113.4844 73.6563,113.2031 C73.1875,112.9531 72.5781,112.7969 72,112.7969 C70.2656,112.7969 69.0156,114.1094 69.0156,115.8906 L69.0156,116.9844 C69.0156,118.6875 70.3125,119.7813 72.3594,119.7813 C73.125,119.7813 73.8125,119.6563 74.2344,119.3906 C74.4219,119.2969 74.4219,119.2969 74.875,118.8125 C75.0625,118.625 75.2656,118.5469 75.4844,118.5469 C75.9531,118.5469 76.3438,118.9375 76.3438,119.3906 C76.3438,119.7813 76.0156,120.2344 75.4375,120.6406 C74.6875,121.1875 73.5313,121.4844 72.3125,121.4844 C69.4219,121.4844 67.3125,119.5938 67.3125,117.0156 L67.3125,115.8906 C67.3125,113.1719 69.3125,111.0938 71.9375,111.0938 C72.8125,111.0938 73.4063,111.2344 74.3438,111.6719 Z "/><text fill="#000000" font-family="sans-serif" font-size="12" lengthAdjust="spacingAndGlyphs" textLength="27" x="86" y="120.1543">Role</text><!--link User to Group--><path d="M72.4856,24 C80.7395,24 88.9935,24 97.2475,24 " fill="none" id="User-Group" style="stroke: #A80036; stroke-width: 1.0;"/><polygon fill="#A80036" points="102.3867,24,93.3867,20,97.3867,24,93.3867,28,102.3867,24" style="stroke: #A80036; stroke-width: 1.0;"/><polygon fill="#A80036" points="67.2734,24,76.2734,28,72.2734,24,76.2734,20,67.2734,24" style="stroke: #A80036; stroke-width: 1.0;"/><text fill="#000000" font-family="sans-serif" font-size="13" lengthAdjust="spacingAndGlyphs" textLength="7" x="75.1991" y="19.3479">*</text><text fill="#000000" font-family="sans-serif" font-size="13" lengthAdjust="spacingAndGlyphs" textLength="7" x="87.4227" y="19.5337">*</text><!--link User to Role--><path d="M47.4806,44.7652 C55.8535,59.8364 67.3267,80.4881 75.6637,95.4947 " fill="none" id="User-Role" style="stroke: #A80036; stroke-width: 1.0;"/><polygon fill="#A80036" points="78.1434,99.9582,77.2692,90.1482,75.7152,95.5874,70.276,94.0334,78.1434,99.9582" style="stroke: #A80036; stroke-width: 1.0;"/><polygon fill="#A80036" points="44.9818,40.2673,45.856,50.0773,47.41,44.6381,52.8492,46.1921,44.9818,40.2673" style="stroke: #A80036; stroke-width: 1.0;"/><text fill="#000000" font-family="sans-serif" font-size="13" lengthAdjust="spacingAndGlyphs" textLength="7" x="39.5697" y="59.9312">*</text><text fill="#000000" font-family="sans-serif" font-size="13" lengthAdjust="spacingAndGlyphs" textLength="7" x="67.0677" y="88.9554">*</text><!--link Group to Role--><path d="M126.3,44.7652 C117.759,59.8364 106.057,80.4881 97.553,95.4947 " fill="none" id="Group-Role" style="stroke: #A80036; stroke-width: 1.0;"/><polygon fill="#A80036" points="95.0237,99.9582,102.941,94.1002,97.4889,95.6082,95.981,90.156,95.0237,99.9582" style="stroke: #A80036; stroke-width: 1.0;"/><polygon fill="#A80036" points="128.849,40.2673,120.9317,46.1253,126.3838,44.6173,127.8917,50.0695,128.849,40.2673" style="stroke: #A80036; stroke-width: 1.0;"/><text fill="#000000" font-family="sans-serif" font-size="13" lengthAdjust="spacingAndGlyphs" textLength="7" x="117.9759" y="59.9312">*</text><text fill="#000000" font-family="sans-serif" font-size="13" lengthAdjust="spacingAndGlyphs" textLength="7" x="89.7506" y="88.9554">*</text><!--
@startuml
class User
class Group
class Role
User "*" <-right-> "*" Group
User "*" <- -> "*" Role
Group "*" <- -> "*" Role
hide empty attributes
hide empty methods
@enduml

PlantUML version 1.2017.18(Fri Oct 06 16:56:32 UTC 2017)
(GPL source distribution)
Java Runtime: Java(TM) SE Runtime Environment
JVM: Java HotSpot(TM) 64-Bit Server VM
Java Version: 1.7.0_25-b15
Operating System: Linux
Default Encoding: UTF-8
Language: en
Country: US
--></g></svg>