<?xml version="1.0" encoding="UTF-8" standalone="no"?>
<svg xmlns="http://www.w3.org/2000/svg" xmlns:xlink="http://www.w3.org/1999/xlink" contentScriptType="application/ecmascript" contentStyleType="text/css" height="296px" preserveAspectRatio="none" style="width:473px;height:296px;" version="1.1" viewBox="0 0 473 296" width="473px" zoomAndPan="magnify"><defs><filter height="300%" id="f17fkptwmyi8za" width="300%" x="-1" y="-1"><feGaussianBlur result="blurOut" stdDeviation="2.0"/><feColorMatrix in="blurOut" result="blurOut2" type="matrix" values="0 0 0 0 0 0 0 0 0 0 0 0 0 0 0 0 0 0 .4 0"/><feOffset dx="4.0" dy="4.0" in="blurOut2" result="blurOut3"/><feBlend in="SourceGraphic" in2="blurOut3" mode="normal"/></filter></defs><g><!--cluster javax.interceptor--><polygon fill="#FFFFFF" filter="url(#f17fkptwmyi8za)" points="22,24,162,24,169,46.2969,451,46.2969,451,284,22,284,22,24" style="stroke: #000000; stroke-width: 1.5;"/><line style="stroke: #000000; stroke-width: 1.5;" x1="22" x2="169" y1="46.2969" y2="46.2969"/><text fill="#000000" font-family="sans-serif" font-size="14" font-weight="bold" lengthAdjust="spacingAndGlyphs" textLength="134" x="26" y="38.9951">javax.interceptor</text><!--class Interceptor--><rect fill="#FEFECE" filter="url(#f17fkptwmyi8za)" height="32" id="Interceptor" style="stroke: #A80036; stroke-width: 1.5;" width="102" x="46" y="59"/><ellipse cx="61" cy="75" fill="#E3664A" rx="11" ry="11" style="stroke: #A80036; stroke-width: 1.0;"/><path d="M62.9219,72.25 L62.9219,71.7031 C62.9219,70.5781 62.1875,69.7969 61.1406,69.7969 C59.7031,69.7969 58.6406,71.4375 58.6406,73.6094 L58.6406,76.2656 C58.6406,77.5625 58.9219,78.6094 59.5,79.4063 C59.9063,80 60.4375,80.2656 61.1875,80.2656 C61.9375,80.2656 62.6094,80.0469 62.9375,79.7188 C63.1719,79.4688 63.2656,79.4219 63.4688,79.4219 C63.8438,79.4219 64.1406,79.7344 64.1406,80.125 C64.1406,80.9219 62.75,81.5781 61.1406,81.5781 C59.7344,81.5781 58.8125,81.0156 58.0938,79.7656 C57.5781,78.8438 57.2969,77.625 57.2969,76.375 L57.2969,73.5156 C57.2969,70.5781 58.9063,68.4531 61.1094,68.4531 C62.9531,68.4531 64.2656,69.8125 64.2656,71.7031 L64.2656,76.4844 C64.5313,76.6094 64.6563,76.7969 64.6563,77.0781 C64.6563,77.5625 64.3438,77.7813 63.7188,77.7813 L62.9219,77.7813 L62.9219,77.7188 C62.6563,77.7656 62.5156,77.7813 62.3594,77.7813 C60.9063,77.7813 59.7031,76.5625 59.7031,75.1563 C59.7031,73.5781 61.0156,72.3906 62.9219,72.25 Z M62.9219,76.3594 L62.9219,73.625 C61.7969,73.7344 61.0469,74.3438 61.0469,75.1719 C61.0469,75.875 61.6563,76.4063 62.4844,76.4063 C62.5938,76.4063 62.6875,76.4063 62.9219,76.3594 Z "/><text fill="#000000" font-family="sans-serif" font-size="12" lengthAdjust="spacingAndGlyphs" textLength="70" x="75" y="79.1543">Interceptor</text><!--class InterceptorBinding--><rect fill="#FEFECE" filter="url(#f17fkptwmyi8za)" height="32" id="InterceptorBinding" style="stroke: #A80036; stroke-width: 1.5;" width="148" x="183" y="59"/><ellipse cx="198" cy="75" fill="#E3664A" rx="11" ry="11" style="stroke: #A80036; stroke-width: 1.0;"/><path d="M199.9219,72.25 L199.9219,71.7031 C199.9219,70.5781 199.1875,69.7969 198.1406,69.7969 C196.7031,69.7969 195.6406,71.4375 195.6406,73.6094 L195.6406,76.2656 C195.6406,77.5625 195.9219,78.6094 196.5,79.4063 C196.9063,80 197.4375,80.2656 198.1875,80.2656 C198.9375,80.2656 199.6094,80.0469 199.9375,79.7188 C200.1719,79.4688 200.2656,79.4219 200.4688,79.4219 C200.8438,79.4219 201.1406,79.7344 201.1406,80.125 C201.1406,80.9219 199.75,81.5781 198.1406,81.5781 C196.7344,81.5781 195.8125,81.0156 195.0938,79.7656 C194.5781,78.8438 194.2969,77.625 194.2969,76.375 L194.2969,73.5156 C194.2969,70.5781 195.9063,68.4531 198.1094,68.4531 C199.9531,68.4531 201.2656,69.8125 201.2656,71.7031 L201.2656,76.4844 C201.5313,76.6094 201.6563,76.7969 201.6563,77.0781 C201.6563,77.5625 201.3438,77.7813 200.7188,77.7813 L199.9219,77.7813 L199.9219,77.7188 C199.6563,77.7656 199.5156,77.7813 199.3594,77.7813 C197.9063,77.7813 196.7031,76.5625 196.7031,75.1563 C196.7031,73.5781 198.0156,72.3906 199.9219,72.25 Z M199.9219,76.3594 L199.9219,73.625 C198.7969,73.7344 198.0469,74.3438 198.0469,75.1719 C198.0469,75.875 198.6563,76.4063 199.4844,76.4063 C199.5938,76.4063 199.6875,76.4063 199.9219,76.3594 Z "/><text fill="#000000" font-family="sans-serif" font-size="12" lengthAdjust="spacingAndGlyphs" textLength="116" x="212" y="79.1543">InterceptorBinding</text><!--class AroundInvoke--><rect fill="#FEFECE" filter="url(#f17fkptwmyi8za)" height="32" id="AroundInvoke" style="stroke: #A80036; stroke-width: 1.5;" width="117" x="38.5" y="193.5"/><ellipse cx="53.5" cy="209.5" fill="#E3664A" rx="11" ry="11" style="stroke: #A80036; stroke-width: 1.0;"/><path d="M55.4219,206.75 L55.4219,206.2031 C55.4219,205.0781 54.6875,204.2969 53.6406,204.2969 C52.2031,204.2969 51.1406,205.9375 51.1406,208.1094 L51.1406,210.7656 C51.1406,212.0625 51.4219,213.1094 52,213.9063 C52.4063,214.5 52.9375,214.7656 53.6875,214.7656 C54.4375,214.7656 55.1094,214.5469 55.4375,214.2188 C55.6719,213.9688 55.7656,213.9219 55.9688,213.9219 C56.3438,213.9219 56.6406,214.2344 56.6406,214.625 C56.6406,215.4219 55.25,216.0781 53.6406,216.0781 C52.2344,216.0781 51.3125,215.5156 50.5938,214.2656 C50.0781,213.3438 49.7969,212.125 49.7969,210.875 L49.7969,208.0156 C49.7969,205.0781 51.4063,202.9531 53.6094,202.9531 C55.4531,202.9531 56.7656,204.3125 56.7656,206.2031 L56.7656,210.9844 C57.0313,211.1094 57.1563,211.2969 57.1563,211.5781 C57.1563,212.0625 56.8438,212.2813 56.2188,212.2813 L55.4219,212.2813 L55.4219,212.2188 C55.1563,212.2656 55.0156,212.2813 54.8594,212.2813 C53.4063,212.2813 52.2031,211.0625 52.2031,209.6563 C52.2031,208.0781 53.5156,206.8906 55.4219,206.75 Z M55.4219,210.8594 L55.4219,208.125 C54.2969,208.2344 53.5469,208.8438 53.5469,209.6719 C53.5469,210.375 54.1563,210.9063 54.9844,210.9063 C55.0938,210.9063 55.1875,210.9063 55.4219,210.8594 Z "/><text fill="#000000" font-family="sans-serif" font-size="12" lengthAdjust="spacingAndGlyphs" textLength="85" x="67.5" y="213.6543">AroundInvoke</text><!--class InvocationContext--><rect fill="#FEFECE" filter="url(#f17fkptwmyi8za)" height="116.8281" id="InvocationContext" style="stroke: #A80036; stroke-width: 1.5;" width="244" x="191" y="151"/><ellipse cx="251.75" cy="167" fill="#B4A7E5" rx="11" ry="11" style="stroke: #A80036; stroke-width: 1.0;"/><path d="M252.7031,163.7813 L252.7031,170.2969 L254.4219,170.2969 C254.875,170.2969 255.0156,170.3281 255.1875,170.4531 C255.4219,170.625 255.5313,170.875 255.5313,171.1563 C255.5313,171.7188 255.1719,172 254.4219,172 L249.2813,172 C248.875,172 248.6719,171.9531 248.5156,171.8281 C248.2969,171.6719 248.1563,171.4063 248.1563,171.1563 C248.1563,170.8594 248.3125,170.5781 248.5625,170.4219 C248.7188,170.3125 248.8438,170.2969 249.2813,170.2969 L251,170.2969 L251,163.7813 L249.2813,163.7813 C248.8594,163.7813 248.6719,163.75 248.5156,163.6406 C248.2969,163.4688 248.1563,163.2188 248.1563,162.9375 C248.1563,162.6563 248.3125,162.3594 248.5625,162.2031 C248.7188,162.1094 248.8438,162.0938 249.2813,162.0938 L254.4219,162.0938 C254.875,162.0938 255.0156,162.125 255.1875,162.2344 C255.4219,162.4063 255.5313,162.6719 255.5313,162.9375 C255.5313,163.2344 255.3906,163.5156 255.125,163.6719 C255,163.75 254.8125,163.7813 254.4219,163.7813 Z "/><text fill="#000000" font-family="sans-serif" font-size="12" font-style="italic" lengthAdjust="spacingAndGlyphs" textLength="114" x="272.25" y="171.1543">InvocationContext</text><line style="stroke: #A80036; stroke-width: 1.5;" x1="192" x2="434" y1="183" y2="183"/><ellipse cx="202" cy="194.9023" fill="#84BE84" rx="3" ry="3" style="stroke: #038048; stroke-width: 1.0;"/><text fill="#000000" font-family="sans-serif" font-size="11" font-style="italic" lengthAdjust="spacingAndGlyphs" textLength="218" x="211" y="197.2104">getContextData(): Map&lt;String,Object&gt;</text><ellipse cx="202" cy="207.707" fill="#84BE84" rx="3" ry="3" style="stroke: #038048; stroke-width: 1.0;"/><text fill="#000000" font-family="sans-serif" font-size="11" font-style="italic" lengthAdjust="spacingAndGlyphs" textLength="116" x="211" y="210.0151">getMethod(): Method</text><ellipse cx="202" cy="220.5117" fill="#84BE84" rx="3" ry="3" style="stroke: #038048; stroke-width: 1.0;"/><text fill="#000000" font-family="sans-serif" font-size="11" font-style="italic" lengthAdjust="spacingAndGlyphs" textLength="107" x="211" y="222.8198">getTarget(): Object</text><ellipse cx="202" cy="233.3164" fill="#84BE84" rx="3" ry="3" style="stroke: #038048; stroke-width: 1.0;"/><text fill="#000000" font-family="sans-serif" font-size="11" font-style="italic" lengthAdjust="spacingAndGlyphs" textLength="98" x="211" y="235.6245">proceed(): Object</text><ellipse cx="202" cy="246.1211" fill="#84BE84" rx="3" ry="3" style="stroke: #038048; stroke-width: 1.0;"/><text fill="#000000" font-family="sans-serif" font-size="11" font-style="italic" lengthAdjust="spacingAndGlyphs" textLength="144" x="211" y="248.4292">getParameters(): Object[]</text><ellipse cx="202" cy="258.9258" fill="#84BE84" rx="3" ry="3" style="stroke: #038048; stroke-width: 1.0;"/><text fill="#000000" font-family="sans-serif" font-size="11" font-style="italic" lengthAdjust="spacingAndGlyphs" textLength="186" x="211" y="261.2339">setParameters(params: Object[])</text><!--link Interceptor to InterceptorBinding--><!--link Interceptor to AroundInvoke--><!--link AroundInvoke to InvocationContext--><!--
@startuml
package javax.interceptor {
 annotation Interceptor
 annotation InterceptorBinding
 annotation AroundInvoke
 interface InvocationContext {
  +{abstract} getContextData(): Map<String,Object>
  +{abstract} getMethod(): Method
  +{abstract} getTarget(): Object
  +{abstract} proceed(): Object
  +{abstract} getParameters(): Object[]
  +{abstract} setParameters(params: Object[])
 }
}
hide empty members
@enduml

PlantUML version 1.2019.08(Sat Jul 13 19:25:14 UTC 2019)
(GPL source distribution)
Java Runtime: Java(TM) SE Runtime Environment
JVM: Java HotSpot(TM) 64-Bit Server VM
Java Version: 1.7.0_25-b15
Operating System: Linux
Default Encoding: UTF-8
Language: en
Country: US
--></g></svg>