<?xml version="1.0" encoding="UTF-8" standalone="no"?><svg xmlns="http://www.w3.org/2000/svg" xmlns:xlink="http://www.w3.org/1999/xlink" contentScriptType="application/ecmascript" contentStyleType="text/css" preserveAspectRatio="none" version="1.1" viewBox="0 0 180 143" zoomAndPan="magnify"><defs><filter height="300%" id="fx9uon56bfayg" width="300%" x="-1" y="-1"><feGaussianBlur result="blurOut" stdDeviation="2.0"/><feColorMatrix in="blurOut" result="blurOut2" type="matrix" values="0 0 0 0 0 0 0 0 0 0 0 0 0 0 0 0 0 0 .4 0"/><feOffset dx="4.0" dy="4.0" in="blurOut2" result="blurOut3"/><feBlend in="SourceGraphic" in2="blurOut3" mode="normal"/></filter></defs><g><!--class Car--><rect fill="#FEFECE" filter="url(#fx9uon56bfayg)" height="32" id="Car" style="stroke: #A80036; stroke-width: 1.5;" width="53" x="6" y="8"/><ellipse cx="21" cy="24" fill="#ADD1B2" rx="11" ry="11" style="stroke: #A80036; stroke-width: 1.0;"/><path d="M23.3438,19.6719 L23.5156,19.75 C23.7344,19.4375 23.9375,19.3438 24.2344,19.3438 C24.5313,19.3438 24.8125,19.4844 24.9688,19.75 C25.0625,19.9063 25.0781,20.0313 25.0781,20.4688 L25.0781,21.8906 C25.0781,22.3125 25.0469,22.5 24.9375,22.6563 C24.7656,22.875 24.5,23.0156 24.2344,23.0156 C24.0156,23.0156 23.7813,22.9063 23.6406,22.7656 C23.5,22.6406 23.4688,22.5156 23.4063,22.1094 C23.3125,21.7031 23.1406,21.4844 22.6563,21.2031 C22.1875,20.9531 21.5781,20.7969 21,20.7969 C19.2656,20.7969 18.0156,22.1094 18.0156,23.8906 L18.0156,24.9844 C18.0156,26.6875 19.3125,27.7813 21.3594,27.7813 C22.125,27.7813 22.8125,27.6563 23.2344,27.3906 C23.4219,27.2969 23.4219,27.2969 23.875,26.8125 C24.0625,26.625 24.2656,26.5469 24.4844,26.5469 C24.9531,26.5469 25.3438,26.9375 25.3438,27.3906 C25.3438,27.7813 25.0156,28.2344 24.4375,28.6406 C23.6875,29.1875 22.5313,29.4844 21.3125,29.4844 C18.4219,29.4844 16.3125,27.5938 16.3125,25.0156 L16.3125,23.8906 C16.3125,21.1719 18.3125,19.0938 20.9375,19.0938 C21.8125,19.0938 22.4063,19.2344 23.3438,19.6719 Z "/><text fill="#000000" font-family="sans-serif" font-size="12" lengthAdjust="spacingAndGlyphs" textLength="21" x="35" y="28.1543">Car</text><!--class Engine--><rect fill="#FEFECE" filter="url(#fx9uon56bfayg)" height="32" id="Engine" style="stroke: #A80036; stroke-width: 1.5;" width="75" x="94" y="8"/><ellipse cx="109" cy="24" fill="#B4A7E5" rx="11" ry="11" style="stroke: #A80036; stroke-width: 1.0;"/><path d="M109.9531,20.7813 L109.9531,27.2969 L111.6719,27.2969 C112.125,27.2969 112.2656,27.3281 112.4375,27.4531 C112.6719,27.625 112.7813,27.875 112.7813,28.1563 C112.7813,28.7188 112.4219,29 111.6719,29 L106.5313,29 C106.125,29 105.9219,28.9531 105.7656,28.8281 C105.5469,28.6719 105.4063,28.4063 105.4063,28.1563 C105.4063,27.8594 105.5625,27.5781 105.8125,27.4219 C105.9688,27.3125 106.0938,27.2969 106.5313,27.2969 L108.25,27.2969 L108.25,20.7813 L106.5313,20.7813 C106.1094,20.7813 105.9219,20.75 105.7656,20.6406 C105.5469,20.4688 105.4063,20.2188 105.4063,19.9375 C105.4063,19.6563 105.5625,19.3594 105.8125,19.2031 C105.9688,19.1094 106.0938,19.0938 106.5313,19.0938 L111.6719,19.0938 C112.125,19.0938 112.2656,19.125 112.4375,19.2344 C112.6719,19.4063 112.7813,19.6719 112.7813,19.9375 C112.7813,20.2344 112.6406,20.5156 112.375,20.6719 C112.25,20.75 112.0625,20.7813 111.6719,20.7813 Z "/><text fill="#000000" font-family="sans-serif" font-size="12" font-style="italic" lengthAdjust="spacingAndGlyphs" textLength="43" x="123" y="28.1543">Engine</text><!--class CarEngine--><rect fill="#FEFECE" filter="url(#fx9uon56bfayg)" height="32" id="CarEngine" style="stroke: #A80036; stroke-width: 1.5;" width="96" x="33.5" y="100"/><ellipse cx="48.5" cy="116" fill="#ADD1B2" rx="11" ry="11" style="stroke: #A80036; stroke-width: 1.0;"/><path d="M50.8438,111.6719 L51.0156,111.75 C51.2344,111.4375 51.4375,111.3438 51.7344,111.3438 C52.0313,111.3438 52.3125,111.4844 52.4688,111.75 C52.5625,111.9063 52.5781,112.0313 52.5781,112.4688 L52.5781,113.8906 C52.5781,114.3125 52.5469,114.5 52.4375,114.6563 C52.2656,114.875 52,115.0156 51.7344,115.0156 C51.5156,115.0156 51.2813,114.9063 51.1406,114.7656 C51,114.6406 50.9688,114.5156 50.9063,114.1094 C50.8125,113.7031 50.6406,113.4844 50.1563,113.2031 C49.6875,112.9531 49.0781,112.7969 48.5,112.7969 C46.7656,112.7969 45.5156,114.1094 45.5156,115.8906 L45.5156,116.9844 C45.5156,118.6875 46.8125,119.7813 48.8594,119.7813 C49.625,119.7813 50.3125,119.6563 50.7344,119.3906 C50.9219,119.2969 50.9219,119.2969 51.375,118.8125 C51.5625,118.625 51.7656,118.5469 51.9844,118.5469 C52.4531,118.5469 52.8438,118.9375 52.8438,119.3906 C52.8438,119.7813 52.5156,120.2344 51.9375,120.6406 C51.1875,121.1875 50.0313,121.4844 48.8125,121.4844 C45.9219,121.4844 43.8125,119.5938 43.8125,117.0156 L43.8125,115.8906 C43.8125,113.1719 45.8125,111.0938 48.4375,111.0938 C49.3125,111.0938 49.9063,111.2344 50.8438,111.6719 Z "/><text fill="#000000" font-family="sans-serif" font-size="12" lengthAdjust="spacingAndGlyphs" textLength="64" x="62.5" y="120.1543">CarEngine</text><!--link Car to CarEngine--><path d="M40.8122,40.2673 C49.0983,55.4866 61.8558,78.9188 70.8732,95.4814 " fill="none" id="Car-CarEngine" style="stroke: #A80036; stroke-width: 1.0; stroke-dasharray: 7.0,7.0;"/><polygon fill="#A80036" points="73.3106,99.9582,72.52,90.1411,70.9197,95.5669,65.4939,93.9666,73.3106,99.9582" style="stroke: #A80036; stroke-width: 1.0;"/><!--link Car to Engine--><path d="M59.1836,24 C69.0463,24 78.9091,24 88.7718,24 " fill="none" id="Car-Engine" style="stroke: #A80036; stroke-width: 1.0; stroke-dasharray: 7.0,7.0;"/><polygon fill="#A80036" points="93.9294,24,84.9294,20,88.9294,24,84.9294,28,93.9294,24" style="stroke: #A80036; stroke-width: 1.0;"/><!--link Engine to CarEngine--><path d="M113.081,58.1539 C105.1118,72.4988 96.1819,88.5726 89.8566,99.9582 " fill="none" id="Engine-CarEngine" style="stroke: #A80036; stroke-width: 1.0; stroke-dasharray: 7.0,7.0;"/><polygon fill="none" points="107.186,54.3509,123.018,40.2673,119.424,61.1499,107.186,54.3509" style="stroke: #A80036; stroke-width: 1.0;"/><!--
@startuml
class Car
interface Engine
class CarEngine
Car ..> CarEngine
Car .right.> Engine
CarEngine .up.|> Engine

hide empty attributes
hide empty methods
@enduml

PlantUML version 1.2017.20beta4(Unknown compile time)
(GPL source distribution)
Java Runtime: Java(TM) SE Runtime Environment
JVM: Java HotSpot(TM) 64-Bit Server VM
Java Version: 1.7.0_25-b15
Operating System: Linux
Default Encoding: UTF-8
Language: en
Country: US
--></g></svg>