<?xml version="1.0" encoding="UTF-8" standalone="no"?><svg xmlns="http://www.w3.org/2000/svg" xmlns:xlink="http://www.w3.org/1999/xlink" contentScriptType="application/ecmascript" contentStyleType="text/css" height="56px" preserveAspectRatio="none" style="width:423px;height:56px;" version="1.1" viewBox="0 0 423 56" width="423px" zoomAndPan="magnify"><defs><filter height="300%" id="f1j1eprs3yp8fh" width="300%" x="-1" y="-1"><feGaussianBlur result="blurOut" stdDeviation="2.0"/><feColorMatrix in="blurOut" result="blurOut2" type="matrix" values="0 0 0 0 0 0 0 0 0 0 0 0 0 0 0 0 0 0 .4 0"/><feOffset dx="4.0" dy="4.0" in="blurOut2" result="blurOut3"/><feBlend in="SourceGraphic" in2="blurOut3" mode="normal"/></filter></defs><g><!--class BookServlet--><rect fill="#FEFECE" filter="url(#f1j1eprs3yp8fh)" height="37.9375" id="BookServlet" style="stroke: #A80036; stroke-width: 1.5;" width="106" x="6" y="8"/><ellipse cx="21" cy="26.9688" fill="#ADD1B2" rx="11" ry="11" style="stroke: #A80036; stroke-width: 1.0;"/><path d="M23.9688,32.6094 Q23.3906,32.9063 22.75,33.0469 Q22.1094,33.2031 21.4063,33.2031 Q18.9063,33.2031 17.5781,31.5625 Q16.2656,29.9063 16.2656,26.7813 Q16.2656,23.6563 17.5781,22 Q18.9063,20.3438 21.4063,20.3438 Q22.1094,20.3438 22.75,20.5 Q23.4063,20.6563 23.9688,20.9531 L23.9688,23.6719 Q23.3438,23.0938 22.75,22.8281 Q22.1563,22.5469 21.5313,22.5469 Q20.1875,22.5469 19.5,23.625 Q18.8125,24.6875 18.8125,26.7813 Q18.8125,28.875 19.5,29.9531 Q20.1875,31.0156 21.5313,31.0156 Q22.1563,31.0156 22.75,30.75 Q23.3438,30.4688 23.9688,29.8906 L23.9688,32.6094 Z "/><text fill="#000000" font-family="sans-serif" font-size="12" font-style="italic" lengthAdjust="spacingAndGlyphs" textLength="57" x="43.5" y="24.1387">«Servlet»</text><text fill="#000000" font-family="sans-serif" font-size="12" lengthAdjust="spacingAndGlyphs" textLength="74" x="35" y="38.1074">BookServlet</text><!--class BookService--><rect fill="#FEFECE" filter="url(#f1j1eprs3yp8fh)" height="37.9375" id="BookService" style="stroke: #A80036; stroke-width: 1.5;" width="108" x="147" y="8"/><ellipse cx="162" cy="26.9688" fill="#ADD1B2" rx="11" ry="11" style="stroke: #A80036; stroke-width: 1.0;"/><path d="M164.9688,32.6094 Q164.3906,32.9063 163.75,33.0469 Q163.1094,33.2031 162.4063,33.2031 Q159.9063,33.2031 158.5781,31.5625 Q157.2656,29.9063 157.2656,26.7813 Q157.2656,23.6563 158.5781,22 Q159.9063,20.3438 162.4063,20.3438 Q163.1094,20.3438 163.75,20.5 Q164.4063,20.6563 164.9688,20.9531 L164.9688,23.6719 Q164.3438,23.0938 163.75,22.8281 Q163.1563,22.5469 162.5313,22.5469 Q161.1875,22.5469 160.5,23.625 Q159.8125,24.6875 159.8125,26.7813 Q159.8125,28.875 160.5,29.9531 Q161.1875,31.0156 162.5313,31.0156 Q163.1563,31.0156 163.75,30.75 Q164.3438,30.4688 164.9688,29.8906 L164.9688,32.6094 Z "/><text fill="#000000" font-family="sans-serif" font-size="12" font-style="italic" lengthAdjust="spacingAndGlyphs" textLength="33" x="197.5" y="24.1387">«EJB»</text><text fill="#000000" font-family="sans-serif" font-size="12" lengthAdjust="spacingAndGlyphs" textLength="76" x="176" y="38.1074">BookService</text><!--class EntityManager--><rect fill="#FEFECE" filter="url(#f1j1eprs3yp8fh)" height="32" id="EntityManager" style="stroke: #A80036; stroke-width: 1.5;" width="122" x="290" y="11"/><ellipse cx="305" cy="27" fill="#B4A7E5" rx="11" ry="11" style="stroke: #A80036; stroke-width: 1.0;"/><path d="M300.9219,22.7656 L300.9219,20.6094 L308.3125,20.6094 L308.3125,22.7656 L305.8438,22.7656 L305.8438,30.8438 L308.3125,30.8438 L308.3125,33 L300.9219,33 L300.9219,30.8438 L303.3906,30.8438 L303.3906,22.7656 L300.9219,22.7656 Z "/><text fill="#000000" font-family="sans-serif" font-size="12" font-style="italic" lengthAdjust="spacingAndGlyphs" textLength="90" x="319" y="31.1543">EntityManager</text><!--link BookServlet to BookService--><path d="M112.25,27 C122.091,27 131.931,27 141.772,27 " fill="none" id="BookServlet-BookService" style="stroke: #A80036; stroke-width: 1.0;"/><polygon fill="#A80036" points="146.918,27,137.918,23,141.918,27,137.918,31,146.918,27" style="stroke: #A80036; stroke-width: 1.0;"/><!--link BookService to EntityManager--><path d="M255.199,27 C264.972,27 274.745,27 284.517,27 " fill="none" id="BookService-EntityManager" style="stroke: #A80036; stroke-width: 1.0;"/><polygon fill="#A80036" points="289.628,27,280.628,23,284.628,27,280.628,31,289.628,27" style="stroke: #A80036; stroke-width: 1.0;"/><!--
@startuml
class BookServlet<<Servlet>>
class BookService<<EJB>>
interface EntityManager
BookServlet -right-> BookService
BookService -right-> EntityManager
hide empty attributes
hide empty methods
@enduml

PlantUML version 1.2019.06(Fri May 24 17:10:25 UTC 2019)
(APACHE source distribution)
Java Runtime: OpenJDK Runtime Environment
JVM: OpenJDK 64-Bit Server VM
Java Version: 11.0.2+9
Operating System: Linux
OS Version: 4.15.0-1028-gcp
Default Encoding: UTF-8
Language: en
Country: US
--></g></svg>