<?xml version="1.0" encoding="UTF-8" standalone="no"?><svg xmlns="http://www.w3.org/2000/svg" xmlns:xlink="http://www.w3.org/1999/xlink" contentScriptType="application/ecmascript" contentStyleType="text/css" preserveAspectRatio="true" version="1.1" viewBox="0 0 424 56" zoomAndPan="magnify"><defs><filter height="300%" id="f1j1eprs3yp8fh" width="300%" x="-1" y="-1"><feGaussianBlur result="blurOut" stdDeviation="2.0"/><feColorMatrix in="blurOut" result="blurOut2" type="matrix" values="0 0 0 0 0 0 0 0 0 0 0 0 0 0 0 0 0 0 .4 0"/><feOffset dx="4.0" dy="4.0" in="blurOut2" result="blurOut3"/><feBlend in="SourceGraphic" in2="blurOut3" mode="normal"/></filter></defs><g><!--class BookServlet--><rect fill="#FEFECE" filter="url(#f1j1eprs3yp8fh)" height="37.9375" id="BookServlet" style="stroke: #A80036; stroke-width: 1.5;" width="106" x="6" y="8"/><ellipse cx="21" cy="26.9688" fill="#ADD1B2" rx="11" ry="11" style="stroke: #A80036; stroke-width: 1.0;"/><path d="M23.3438,22.6406 L23.5156,22.7188 C23.7344,22.4063 23.9375,22.3125 24.2344,22.3125 C24.5313,22.3125 24.8125,22.4531 24.9688,22.7188 C25.0625,22.875 25.0781,23 25.0781,23.4375 L25.0781,24.8594 C25.0781,25.2813 25.0469,25.4688 24.9375,25.625 C24.7656,25.8438 24.5,25.9844 24.2344,25.9844 C24.0156,25.9844 23.7813,25.875 23.6406,25.7344 C23.5,25.6094 23.4688,25.4844 23.4063,25.0781 C23.3125,24.6719 23.1406,24.4531 22.6563,24.1719 C22.1875,23.9219 21.5781,23.7656 21,23.7656 C19.2656,23.7656 18.0156,25.0781 18.0156,26.8594 L18.0156,27.9531 C18.0156,29.6563 19.3125,30.75 21.3594,30.75 C22.125,30.75 22.8125,30.625 23.2344,30.3594 C23.4219,30.2656 23.4219,30.2656 23.875,29.7813 C24.0625,29.5938 24.2656,29.5156 24.4844,29.5156 C24.9531,29.5156 25.3438,29.9063 25.3438,30.3594 C25.3438,30.75 25.0156,31.2031 24.4375,31.6094 C23.6875,32.1563 22.5313,32.4531 21.3125,32.4531 C18.4219,32.4531 16.3125,30.5625 16.3125,27.9844 L16.3125,26.8594 C16.3125,24.1406 18.3125,22.0625 20.9375,22.0625 C21.8125,22.0625 22.4063,22.2031 23.3438,22.6406 Z "/><text fill="#000000" font-family="sans-serif" font-size="12" font-style="italic" lengthAdjust="spacingAndGlyphs" textLength="57" x="43.5" y="24.1387">«Servlet»</text><text fill="#000000" font-family="sans-serif" font-size="12" lengthAdjust="spacingAndGlyphs" textLength="74" x="35" y="38.1074">BookServlet</text><!--class BookService--><rect fill="#FEFECE" filter="url(#f1j1eprs3yp8fh)" height="37.9375" id="BookService" style="stroke: #A80036; stroke-width: 1.5;" width="108" x="147" y="8"/><ellipse cx="162" cy="26.9688" fill="#ADD1B2" rx="11" ry="11" style="stroke: #A80036; stroke-width: 1.0;"/><path d="M164.3438,22.6406 L164.5156,22.7188 C164.7344,22.4063 164.9375,22.3125 165.2344,22.3125 C165.5313,22.3125 165.8125,22.4531 165.9688,22.7188 C166.0625,22.875 166.0781,23 166.0781,23.4375 L166.0781,24.8594 C166.0781,25.2813 166.0469,25.4688 165.9375,25.625 C165.7656,25.8438 165.5,25.9844 165.2344,25.9844 C165.0156,25.9844 164.7813,25.875 164.6406,25.7344 C164.5,25.6094 164.4688,25.4844 164.4063,25.0781 C164.3125,24.6719 164.1406,24.4531 163.6563,24.1719 C163.1875,23.9219 162.5781,23.7656 162,23.7656 C160.2656,23.7656 159.0156,25.0781 159.0156,26.8594 L159.0156,27.9531 C159.0156,29.6563 160.3125,30.75 162.3594,30.75 C163.125,30.75 163.8125,30.625 164.2344,30.3594 C164.4219,30.2656 164.4219,30.2656 164.875,29.7813 C165.0625,29.5938 165.2656,29.5156 165.4844,29.5156 C165.9531,29.5156 166.3438,29.9063 166.3438,30.3594 C166.3438,30.75 166.0156,31.2031 165.4375,31.6094 C164.6875,32.1563 163.5313,32.4531 162.3125,32.4531 C159.4219,32.4531 157.3125,30.5625 157.3125,27.9844 L157.3125,26.8594 C157.3125,24.1406 159.3125,22.0625 161.9375,22.0625 C162.8125,22.0625 163.4063,22.2031 164.3438,22.6406 Z "/><text fill="#000000" font-family="sans-serif" font-size="12" font-style="italic" lengthAdjust="spacingAndGlyphs" textLength="34" x="197" y="24.1387">«EJB»</text><text fill="#000000" font-family="sans-serif" font-size="12" lengthAdjust="spacingAndGlyphs" textLength="76" x="176" y="38.1074">BookService</text><!--class EntityManager--><rect fill="#FEFECE" filter="url(#f1j1eprs3yp8fh)" height="32" id="EntityManager" style="stroke: #A80036; stroke-width: 1.5;" width="123" x="290.5" y="11"/><ellipse cx="305.5" cy="27" fill="#B4A7E5" rx="11" ry="11" style="stroke: #A80036; stroke-width: 1.0;"/><path d="M306.4531,23.7813 L306.4531,30.2969 L308.1719,30.2969 C308.625,30.2969 308.7656,30.3281 308.9375,30.4531 C309.1719,30.625 309.2813,30.875 309.2813,31.1563 C309.2813,31.7188 308.9219,32 308.1719,32 L303.0313,32 C302.625,32 302.4219,31.9531 302.2656,31.8281 C302.0469,31.6719 301.9063,31.4063 301.9063,31.1563 C301.9063,30.8594 302.0625,30.5781 302.3125,30.4219 C302.4688,30.3125 302.5938,30.2969 303.0313,30.2969 L304.75,30.2969 L304.75,23.7813 L303.0313,23.7813 C302.6094,23.7813 302.4219,23.75 302.2656,23.6406 C302.0469,23.4688 301.9063,23.2188 301.9063,22.9375 C301.9063,22.6563 302.0625,22.3594 302.3125,22.2031 C302.4688,22.1094 302.5938,22.0938 303.0313,22.0938 L308.1719,22.0938 C308.625,22.0938 308.7656,22.125 308.9375,22.2344 C309.1719,22.4063 309.2813,22.6719 309.2813,22.9375 C309.2813,23.2344 309.1406,23.5156 308.875,23.6719 C308.75,23.75 308.5625,23.7813 308.1719,23.7813 Z "/><text fill="#000000" font-family="sans-serif" font-size="12" font-style="italic" lengthAdjust="spacingAndGlyphs" textLength="91" x="319.5" y="31.1543">EntityManager</text><!--link BookServlet to BookService--><path d="M112.25,27 C122.091,27 131.931,27 141.772,27 " fill="none" id="BookServlet-BookService" style="stroke: #A80036; stroke-width: 1.0;"/><polygon fill="#A80036" points="146.918,27,137.918,23,141.918,27,137.918,31,146.918,27" style="stroke: #A80036; stroke-width: 1.0;"/><!--link BookService to EntityManager--><path d="M255.266,27 C265.241,27 275.216,27 285.191,27 " fill="none" id="BookService-EntityManager" style="stroke: #A80036; stroke-width: 1.0;"/><polygon fill="#A80036" points="290.407,27,281.407,23,285.407,27,281.407,31,290.407,27" style="stroke: #A80036; stroke-width: 1.0;"/><!--
@startuml
class BookServlet<<Servlet>>
class BookService<<EJB>>
interface EntityManager
BookServlet -right-> BookService
BookService -right-> EntityManager
hide empty attributes
hide empty methods
@enduml

PlantUML version 1.2017.16(Sun Sep 03 10:53:37 UTC 2017)
(GPL source distribution)
Java Runtime: Java(TM) SE Runtime Environment
JVM: Java HotSpot(TM) 64-Bit Server VM
Java Version: 1.7.0_25-b15
Operating System: Linux
Default Encoding: UTF-8
Language: en
Country: US
--></g></svg>