<?xml version="1.0" encoding="UTF-8" standalone="no"?>
<svg xmlns="http://www.w3.org/2000/svg" xmlns:xlink="http://www.w3.org/1999/xlink" contentScriptType="application/ecmascript" contentStyleType="text/css" height="294px" preserveAspectRatio="none" style="width:502px;height:294px;" version="1.1" viewBox="0 0 502 294" width="502px" zoomAndPan="magnify"><defs><filter height="300%" id="f1gtz1sflhio9c" width="300%" x="-1" y="-1"><feGaussianBlur result="blurOut" stdDeviation="2.0"/><feColorMatrix in="blurOut" result="blurOut2" type="matrix" values="0 0 0 0 0 0 0 0 0 0 0 0 0 0 0 0 0 0 .4 0"/><feOffset dx="4.0" dy="4.0" in="blurOut2" result="blurOut3"/><feBlend in="SourceGraphic" in2="blurOut3" mode="normal"/></filter></defs><g><!--class FooMBean--><rect fill="#FEFECE" filter="url(#f1gtz1sflhio9c)" height="91.2188" id="FooMBean" style="stroke: #A80036; stroke-width: 1.5;" width="155" x="6" y="8"/><ellipse cx="47.1" cy="24" fill="#B4A7E5" rx="11" ry="11" style="stroke: #A80036; stroke-width: 1.0;"/><path d="M48.0531,20.7813 L48.0531,27.2969 L49.7719,27.2969 C50.225,27.2969 50.3656,27.3281 50.5375,27.4531 C50.7719,27.625 50.8813,27.875 50.8813,28.1563 C50.8813,28.7188 50.5219,29 49.7719,29 L44.6313,29 C44.225,29 44.0219,28.9531 43.8656,28.8281 C43.6469,28.6719 43.5063,28.4063 43.5063,28.1563 C43.5063,27.8594 43.6625,27.5781 43.9125,27.4219 C44.0688,27.3125 44.1938,27.2969 44.6313,27.2969 L46.35,27.2969 L46.35,20.7813 L44.6313,20.7813 C44.2094,20.7813 44.0219,20.75 43.8656,20.6406 C43.6469,20.4688 43.5063,20.2188 43.5063,19.9375 C43.5063,19.6563 43.6625,19.3594 43.9125,19.2031 C44.0688,19.1094 44.1938,19.0938 44.6313,19.0938 L49.7719,19.0938 C50.225,19.0938 50.3656,19.125 50.5375,19.2344 C50.7719,19.4063 50.8813,19.6719 50.8813,19.9375 C50.8813,20.2344 50.7406,20.5156 50.475,20.6719 C50.35,20.75 50.1625,20.7813 49.7719,20.7813 Z "/><text fill="#000000" font-family="sans-serif" font-size="12" font-style="italic" lengthAdjust="spacingAndGlyphs" textLength="65" x="66.9" y="28.1543">FooMBean</text><line style="stroke: #A80036; stroke-width: 1.5;" x1="7" x2="160" y1="40" y2="40"/><ellipse cx="17" cy="51.9023" fill="#84BE84" rx="3" ry="3" style="stroke: #038048; stroke-width: 1.0;"/><text fill="#000000" font-family="sans-serif" font-size="11" font-style="italic" lengthAdjust="spacingAndGlyphs" textLength="100" x="26" y="54.2104">getName(): String</text><ellipse cx="17" cy="64.707" fill="#84BE84" rx="3" ry="3" style="stroke: #038048; stroke-width: 1.0;"/><text fill="#000000" font-family="sans-serif" font-size="11" font-style="italic" lengthAdjust="spacingAndGlyphs" textLength="99" x="26" y="67.0151">getValue(): String</text><ellipse cx="17" cy="77.5117" fill="#84BE84" rx="3" ry="3" style="stroke: #038048; stroke-width: 1.0;"/><text fill="#000000" font-family="sans-serif" font-size="11" font-style="italic" lengthAdjust="spacingAndGlyphs" textLength="129" x="26" y="79.8198">setValue(value: String)</text><ellipse cx="17" cy="90.3164" fill="#84BE84" rx="3" ry="3" style="stroke: #038048; stroke-width: 1.0;"/><text fill="#000000" font-family="sans-serif" font-size="11" font-style="italic" lengthAdjust="spacingAndGlyphs" textLength="121" x="26" y="92.6245">printNameAndValue()</text><!--class Foo--><rect fill="#FEFECE" filter="url(#f1gtz1sflhio9c)" height="124.8281" id="Foo" style="stroke: #A80036; stroke-width: 1.5;" width="155" x="6" y="159"/><ellipse cx="67.75" cy="175" fill="#ADD1B2" rx="11" ry="11" style="stroke: #A80036; stroke-width: 1.0;"/><path d="M70.0938,170.6719 L70.2656,170.75 C70.4844,170.4375 70.6875,170.3438 70.9844,170.3438 C71.2813,170.3438 71.5625,170.4844 71.7188,170.75 C71.8125,170.9063 71.8281,171.0313 71.8281,171.4688 L71.8281,172.8906 C71.8281,173.3125 71.7969,173.5 71.6875,173.6563 C71.5156,173.875 71.25,174.0156 70.9844,174.0156 C70.7656,174.0156 70.5313,173.9063 70.3906,173.7656 C70.25,173.6406 70.2188,173.5156 70.1563,173.1094 C70.0625,172.7031 69.8906,172.4844 69.4063,172.2031 C68.9375,171.9531 68.3281,171.7969 67.75,171.7969 C66.0156,171.7969 64.7656,173.1094 64.7656,174.8906 L64.7656,175.9844 C64.7656,177.6875 66.0625,178.7813 68.1094,178.7813 C68.875,178.7813 69.5625,178.6563 69.9844,178.3906 C70.1719,178.2969 70.1719,178.2969 70.625,177.8125 C70.8125,177.625 71.0156,177.5469 71.2344,177.5469 C71.7031,177.5469 72.0938,177.9375 72.0938,178.3906 C72.0938,178.7813 71.7656,179.2344 71.1875,179.6406 C70.4375,180.1875 69.2813,180.4844 68.0625,180.4844 C65.1719,180.4844 63.0625,178.5938 63.0625,176.0156 L63.0625,174.8906 C63.0625,172.1719 65.0625,170.0938 67.6875,170.0938 C68.5625,170.0938 69.1563,170.2344 70.0938,170.6719 Z "/><text fill="#000000" font-family="sans-serif" font-size="12" lengthAdjust="spacingAndGlyphs" textLength="23" x="88.25" y="179.1543">Foo</text><line style="stroke: #A80036; stroke-width: 1.5;" x1="7" x2="160" y1="191" y2="191"/><rect fill="none" height="6" style="stroke: #C82930; stroke-width: 1.0;" width="6" x="14" y="199.9023"/><text fill="#000000" font-family="sans-serif" font-size="11" lengthAdjust="spacingAndGlyphs" textLength="74" x="26" y="205.2104">name: String</text><rect fill="none" height="6" style="stroke: #C82930; stroke-width: 1.0;" width="6" x="14" y="212.707"/><text fill="#000000" font-family="sans-serif" font-size="11" lengthAdjust="spacingAndGlyphs" textLength="72" x="26" y="218.0151">value: String</text><line style="stroke: #A80036; stroke-width: 1.5;" x1="7" x2="160" y1="224.6094" y2="224.6094"/><ellipse cx="17" cy="236.5117" fill="#84BE84" rx="3" ry="3" style="stroke: #038048; stroke-width: 1.0;"/><text fill="#000000" font-family="sans-serif" font-size="11" lengthAdjust="spacingAndGlyphs" textLength="101" x="26" y="238.8198">getName(): String</text><ellipse cx="17" cy="249.3164" fill="#84BE84" rx="3" ry="3" style="stroke: #038048; stroke-width: 1.0;"/><text fill="#000000" font-family="sans-serif" font-size="11" lengthAdjust="spacingAndGlyphs" textLength="99" x="26" y="251.6245">getValue(): String</text><ellipse cx="17" cy="262.1211" fill="#84BE84" rx="3" ry="3" style="stroke: #038048; stroke-width: 1.0;"/><text fill="#000000" font-family="sans-serif" font-size="11" lengthAdjust="spacingAndGlyphs" textLength="129" x="26" y="264.4292">setValue(value: String)</text><ellipse cx="17" cy="274.9258" fill="#84BE84" rx="3" ry="3" style="stroke: #038048; stroke-width: 1.0;"/><text fill="#000000" font-family="sans-serif" font-size="11" lengthAdjust="spacingAndGlyphs" textLength="119" x="26" y="277.2339">printNameAndValue()</text><!--class NamingService--><rect fill="#FEFECE" filter="url(#f1gtz1sflhio9c)" height="52.8047" id="NamingService" style="stroke: #A80036; stroke-width: 1.5;" width="295" x="196" y="195"/><ellipse cx="293.25" cy="211" fill="#ADD1B2" rx="11" ry="11" style="stroke: #A80036; stroke-width: 1.0;"/><path d="M295.5938,206.6719 L295.7656,206.75 C295.9844,206.4375 296.1875,206.3438 296.4844,206.3438 C296.7813,206.3438 297.0625,206.4844 297.2188,206.75 C297.3125,206.9063 297.3281,207.0313 297.3281,207.4688 L297.3281,208.8906 C297.3281,209.3125 297.2969,209.5 297.1875,209.6563 C297.0156,209.875 296.75,210.0156 296.4844,210.0156 C296.2656,210.0156 296.0313,209.9063 295.8906,209.7656 C295.75,209.6406 295.7188,209.5156 295.6563,209.1094 C295.5625,208.7031 295.3906,208.4844 294.9063,208.2031 C294.4375,207.9531 293.8281,207.7969 293.25,207.7969 C291.5156,207.7969 290.2656,209.1094 290.2656,210.8906 L290.2656,211.9844 C290.2656,213.6875 291.5625,214.7813 293.6094,214.7813 C294.375,214.7813 295.0625,214.6563 295.4844,214.3906 C295.6719,214.2969 295.6719,214.2969 296.125,213.8125 C296.3125,213.625 296.5156,213.5469 296.7344,213.5469 C297.2031,213.5469 297.5938,213.9375 297.5938,214.3906 C297.5938,214.7813 297.2656,215.2344 296.6875,215.6406 C295.9375,216.1875 294.7813,216.4844 293.5625,216.4844 C290.6719,216.4844 288.5625,214.5938 288.5625,212.0156 L288.5625,210.8906 C288.5625,208.1719 290.5625,206.0938 293.1875,206.0938 C294.0625,206.0938 294.6563,206.2344 295.5938,206.6719 Z "/><text fill="#000000" font-family="sans-serif" font-size="12" lengthAdjust="spacingAndGlyphs" textLength="92" x="313.75" y="215.1543">NamingService</text><line style="stroke: #A80036; stroke-width: 1.5;" x1="197" x2="490" y1="227" y2="227"/><ellipse cx="207" cy="238.9023" fill="#84BE84" rx="3" ry="3" style="stroke: #038048; stroke-width: 1.0;"/><text fill="#000000" font-family="sans-serif" font-size="11" lengthAdjust="spacingAndGlyphs" textLength="269" x="216" y="241.2104">generateUniqueNameFor(object: Object): String</text><!--link FooMBean to Foo--><path d="M83.5,119.615 C83.5,132.486 83.5,145.959 83.5,158.715 " fill="none" id="FooMBean-Foo" style="stroke: #A80036; stroke-width: 1.0; stroke-dasharray: 7.0,7.0;"/><polygon fill="none" points="76.5001,119.422,83.5,99.422,90.5001,119.422,76.5001,119.422" style="stroke: #A80036; stroke-width: 1.0;"/><!--link Foo to NamingService--><path d="M161.195,221.5 C170.999,221.5 180.803,221.5 190.607,221.5 " fill="none" id="Foo-NamingService" style="stroke: #A80036; stroke-width: 1.0;"/><polygon fill="#A80036" points="195.734,221.5,186.734,217.5,190.734,221.5,186.734,225.5,195.734,221.5" style="stroke: #A80036; stroke-width: 1.0;"/><text fill="#000000" font-family="sans-serif" font-size="13" lengthAdjust="spacingAndGlyphs" textLength="8" x="179.9086" y="218.1886">1</text><!--
@startuml
interface FooMBean {
 +{abstract} getName(): String
 +{abstract} getValue(): String
 +{abstract} setValue(value: String)
 +{abstract} printNameAndValue()
}
class Foo {
 - name: String
 - value: String
 + getName(): String
 + getValue(): String
 + setValue(value: String)
 + printNameAndValue()
}
class NamingService {
 + generateUniqueNameFor(object: Object): String
}
Foo .up.|> FooMBean
Foo -right-> "1" NamingService
hide empty members
@enduml

PlantUML version 1.2019.08(Sat Jul 13 19:25:14 UTC 2019)
(GPL source distribution)
Java Runtime: Java(TM) SE Runtime Environment
JVM: Java HotSpot(TM) 64-Bit Server VM
Java Version: 1.7.0_25-b15
Operating System: Linux
Default Encoding: UTF-8
Language: en
Country: US
--></g></svg>