<?xml version="1.0" encoding="UTF-8" standalone="no"?>
<svg xmlns="http://www.w3.org/2000/svg" xmlns:xlink="http://www.w3.org/1999/xlink" contentScriptType="application/ecmascript" contentStyleType="text/css" height="556px" preserveAspectRatio="none" style="width:1018px;height:556px;" version="1.1" viewBox="0 0 1018 556" width="1018px" zoomAndPan="magnify"><defs><filter height="300%" id="f1fuopumupsw5m" width="300%" x="-1" y="-1"><feGaussianBlur result="blurOut" stdDeviation="2.0"/><feColorMatrix in="blurOut" result="blurOut2" type="matrix" values="0 0 0 0 0 0 0 0 0 0 0 0 0 0 0 0 0 0 .4 0"/><feOffset dx="4.0" dy="4.0" in="blurOut2" result="blurOut3"/><feBlend in="SourceGraphic" in2="blurOut3" mode="normal"/></filter></defs><g><!--cluster java.lang.management--><polygon fill="#FFFFFF" filter="url(#f1fuopumupsw5m)" points="22,24,204,24,211,46.2969,996,46.2969,996,544,22,544,22,24" style="stroke: #000000; stroke-width: 1.5;"/><line style="stroke: #000000; stroke-width: 1.5;" x1="22" x2="211" y1="46.2969" y2="46.2969"/><text fill="#000000" font-family="sans-serif" font-size="14" font-weight="bold" lengthAdjust="spacingAndGlyphs" textLength="176" x="26" y="38.9951">java.lang.management</text><!--class ManagementFactory--><rect fill="#FEFECE" filter="url(#f1fuopumupsw5m)" height="91.2188" id="ManagementFactory" style="stroke: #A80036; stroke-width: 1.5;" width="348" x="289" y="233.5"/><ellipse cx="394.75" cy="249.5" fill="#ADD1B2" rx="11" ry="11" style="stroke: #A80036; stroke-width: 1.0;"/><path d="M397.0938,245.1719 L397.2656,245.25 C397.4844,244.9375 397.6875,244.8438 397.9844,244.8438 C398.2813,244.8438 398.5625,244.9844 398.7188,245.25 C398.8125,245.4063 398.8281,245.5313 398.8281,245.9688 L398.8281,247.3906 C398.8281,247.8125 398.7969,248 398.6875,248.1563 C398.5156,248.375 398.25,248.5156 397.9844,248.5156 C397.7656,248.5156 397.5313,248.4063 397.3906,248.2656 C397.25,248.1406 397.2188,248.0156 397.1563,247.6094 C397.0625,247.2031 396.8906,246.9844 396.4063,246.7031 C395.9375,246.4531 395.3281,246.2969 394.75,246.2969 C393.0156,246.2969 391.7656,247.6094 391.7656,249.3906 L391.7656,250.4844 C391.7656,252.1875 393.0625,253.2813 395.1094,253.2813 C395.875,253.2813 396.5625,253.1563 396.9844,252.8906 C397.1719,252.7969 397.1719,252.7969 397.625,252.3125 C397.8125,252.125 398.0156,252.0469 398.2344,252.0469 C398.7031,252.0469 399.0938,252.4375 399.0938,252.8906 C399.0938,253.2813 398.7656,253.7344 398.1875,254.1406 C397.4375,254.6875 396.2813,254.9844 395.0625,254.9844 C392.1719,254.9844 390.0625,253.0938 390.0625,250.5156 L390.0625,249.3906 C390.0625,246.6719 392.0625,244.5938 394.6875,244.5938 C395.5625,244.5938 396.1563,244.7344 397.0938,245.1719 Z "/><text fill="#000000" font-family="sans-serif" font-size="12" lengthAdjust="spacingAndGlyphs" textLength="128" x="415.25" y="253.6543">ManagementFactory</text><line style="stroke: #A80036; stroke-width: 1.5;" x1="290" x2="636" y1="265.5" y2="265.5"/><ellipse cx="300" cy="277.4023" fill="#84BE84" rx="3" ry="3" style="stroke: #038048; stroke-width: 1.0;"/><text fill="#000000" font-family="sans-serif" font-size="11" lengthAdjust="spacingAndGlyphs" text-decoration="underline" textLength="214" x="309" y="279.7104">getMemoryMXBean(): MemoryMXBean</text><ellipse cx="300" cy="290.207" fill="#84BE84" rx="3" ry="3" style="stroke: #038048; stroke-width: 1.0;"/><text fill="#000000" font-family="sans-serif" font-size="11" lengthAdjust="spacingAndGlyphs" text-decoration="underline" textLength="322" x="309" y="292.5151">getOperatingSystemMXBean(): OperatingSystemMXBean</text><ellipse cx="300" cy="303.0117" fill="#84BE84" rx="3" ry="3" style="stroke: #038048; stroke-width: 1.0;"/><text fill="#000000" font-family="sans-serif" font-size="11" lengthAdjust="spacingAndGlyphs" text-decoration="underline" textLength="276" x="309" y="305.3198">getClassLoadingMXBean(): ClassLoadingMXBean</text><ellipse cx="300" cy="315.8164" fill="#84BE84" rx="3" ry="3" style="stroke: #038048; stroke-width: 1.0;"/><text fill="#000000" font-family="sans-serif" font-size="11" lengthAdjust="spacingAndGlyphs" text-decoration="underline" textLength="258" x="309" y="318.1245">getCompilationMXBean(): CompilationMXBean</text><!--class OperatingSystemMXBean--><rect fill="#FEFECE" filter="url(#f1fuopumupsw5m)" height="104.0234" id="OperatingSystemMXBean" style="stroke: #A80036; stroke-width: 1.5;" width="215" x="355.5" y="59"/><ellipse cx="382.65" cy="75" fill="#B4A7E5" rx="11" ry="11" style="stroke: #A80036; stroke-width: 1.0;"/><path d="M383.6031,71.7813 L383.6031,78.2969 L385.3219,78.2969 C385.775,78.2969 385.9156,78.3281 386.0875,78.4531 C386.3219,78.625 386.4313,78.875 386.4313,79.1563 C386.4313,79.7188 386.0719,80 385.3219,80 L380.1813,80 C379.775,80 379.5719,79.9531 379.4156,79.8281 C379.1969,79.6719 379.0563,79.4063 379.0563,79.1563 C379.0563,78.8594 379.2125,78.5781 379.4625,78.4219 C379.6188,78.3125 379.7438,78.2969 380.1813,78.2969 L381.9,78.2969 L381.9,71.7813 L380.1813,71.7813 C379.7594,71.7813 379.5719,71.75 379.4156,71.6406 C379.1969,71.4688 379.0563,71.2188 379.0563,70.9375 C379.0563,70.6563 379.2125,70.3594 379.4625,70.2031 C379.6188,70.1094 379.7438,70.0938 380.1813,70.0938 L385.3219,70.0938 C385.775,70.0938 385.9156,70.125 386.0875,70.2344 C386.3219,70.4063 386.4313,70.6719 386.4313,70.9375 C386.4313,71.2344 386.2906,71.5156 386.025,71.6719 C385.9,71.75 385.7125,71.7813 385.3219,71.7813 Z "/><text fill="#000000" font-family="sans-serif" font-size="12" font-style="italic" lengthAdjust="spacingAndGlyphs" textLength="156" x="399.35" y="79.1543">OperatingSystemMXBean</text><line style="stroke: #A80036; stroke-width: 1.5;" x1="356.5" x2="569.5" y1="91" y2="91"/><ellipse cx="366.5" cy="102.9023" fill="#84BE84" rx="3" ry="3" style="stroke: #038048; stroke-width: 1.0;"/><text fill="#000000" font-family="sans-serif" font-size="11" font-style="italic" lengthAdjust="spacingAndGlyphs" textLength="93" x="375.5" y="105.2104">getArch(): String</text><ellipse cx="366.5" cy="115.707" fill="#84BE84" rx="3" ry="3" style="stroke: #038048; stroke-width: 1.0;"/><text fill="#000000" font-family="sans-serif" font-size="11" font-style="italic" lengthAdjust="spacingAndGlyphs" textLength="162" x="375.5" y="118.0151">getAvailableProcessors(): int</text><ellipse cx="366.5" cy="128.5117" fill="#84BE84" rx="3" ry="3" style="stroke: #038048; stroke-width: 1.0;"/><text fill="#000000" font-family="sans-serif" font-size="11" font-style="italic" lengthAdjust="spacingAndGlyphs" textLength="100" x="375.5" y="130.8198">getName(): String</text><ellipse cx="366.5" cy="141.3164" fill="#84BE84" rx="3" ry="3" style="stroke: #038048; stroke-width: 1.0;"/><text fill="#000000" font-family="sans-serif" font-size="11" font-style="italic" lengthAdjust="spacingAndGlyphs" textLength="189" x="375.5" y="143.6245">getSystemLoadAverage(): double</text><ellipse cx="366.5" cy="154.1211" fill="#84BE84" rx="3" ry="3" style="stroke: #038048; stroke-width: 1.0;"/><text fill="#000000" font-family="sans-serif" font-size="11" font-style="italic" lengthAdjust="spacingAndGlyphs" textLength="110" x="375.5" y="156.4292">getVersion(): String</text><!--class MemoryMXBean--><rect fill="#FEFECE" filter="url(#f1fuopumupsw5m)" height="132.8281" id="MemoryMXBean" style="stroke: #A80036; stroke-width: 1.5;" width="273" x="326.5" y="395"/><ellipse cx="409.25" cy="411" fill="#B4A7E5" rx="11" ry="11" style="stroke: #A80036; stroke-width: 1.0;"/><path d="M410.2031,407.7813 L410.2031,414.2969 L411.9219,414.2969 C412.375,414.2969 412.5156,414.3281 412.6875,414.4531 C412.9219,414.625 413.0313,414.875 413.0313,415.1563 C413.0313,415.7188 412.6719,416 411.9219,416 L406.7813,416 C406.375,416 406.1719,415.9531 406.0156,415.8281 C405.7969,415.6719 405.6563,415.4063 405.6563,415.1563 C405.6563,414.8594 405.8125,414.5781 406.0625,414.4219 C406.2188,414.3125 406.3438,414.2969 406.7813,414.2969 L408.5,414.2969 L408.5,407.7813 L406.7813,407.7813 C406.3594,407.7813 406.1719,407.75 406.0156,407.6406 C405.7969,407.4688 405.6563,407.2188 405.6563,406.9375 C405.6563,406.6563 405.8125,406.3594 406.0625,406.2031 C406.2188,406.1094 406.3438,406.0938 406.7813,406.0938 L411.9219,406.0938 C412.375,406.0938 412.5156,406.125 412.6875,406.2344 C412.9219,406.4063 413.0313,406.6719 413.0313,406.9375 C413.0313,407.2344 412.8906,407.5156 412.625,407.6719 C412.5,407.75 412.3125,407.7813 411.9219,407.7813 Z "/><text fill="#000000" font-family="sans-serif" font-size="12" font-style="italic" lengthAdjust="spacingAndGlyphs" textLength="99" x="429.75" y="415.1543">MemoryMXBean</text><line style="stroke: #A80036; stroke-width: 1.5;" x1="327.5" x2="598.5" y1="427" y2="427"/><ellipse cx="337.5" cy="438.9023" fill="#84BE84" rx="3" ry="3" style="stroke: #038048; stroke-width: 1.0;"/><text fill="#000000" font-family="sans-serif" font-size="11" font-style="italic" lengthAdjust="spacingAndGlyphs" textLength="225" x="346.5" y="441.2104">getHeapMemoryUsage(): MemoryUsage</text><ellipse cx="337.5" cy="451.707" fill="#84BE84" rx="3" ry="3" style="stroke: #038048; stroke-width: 1.0;"/><text fill="#000000" font-family="sans-serif" font-size="11" font-style="italic" lengthAdjust="spacingAndGlyphs" textLength="247" x="346.5" y="454.0151">getNonHeapMemoryUsage(): MemoryUsage</text><ellipse cx="337.5" cy="464.5117" fill="#84BE84" rx="3" ry="3" style="stroke: #038048; stroke-width: 1.0;"/><text fill="#000000" font-family="sans-serif" font-size="11" font-style="italic" lengthAdjust="spacingAndGlyphs" textLength="225" x="346.5" y="466.8198">getObjectPendingFinalizationCount(): int</text><line style="stroke: #A80036; stroke-width: 1.0; stroke-dasharray: 1.0,2.0;" x1="327.5" x2="598.5" y1="473.4141" y2="473.4141"/><ellipse cx="337.5" cy="485.3164" fill="#84BE84" rx="3" ry="3" style="stroke: #038048; stroke-width: 1.0;"/><text fill="#000000" font-family="sans-serif" font-size="11" font-style="italic" lengthAdjust="spacingAndGlyphs" textLength="117" x="346.5" y="487.6245">isVerbose(): boolean</text><ellipse cx="337.5" cy="498.1211" fill="#84BE84" rx="3" ry="3" style="stroke: #038048; stroke-width: 1.0;"/><text fill="#000000" font-family="sans-serif" font-size="11" font-style="italic" lengthAdjust="spacingAndGlyphs" textLength="156" x="346.5" y="500.4292">setVerbose(value: boolean)</text><line style="stroke: #A80036; stroke-width: 1.0; stroke-dasharray: 1.0,2.0;" x1="327.5" x2="598.5" y1="507.0234" y2="507.0234"/><ellipse cx="337.5" cy="518.9258" fill="#84BE84" rx="3" ry="3" style="stroke: #038048; stroke-width: 1.0;"/><text fill="#000000" font-family="sans-serif" font-size="11" font-style="italic" lengthAdjust="spacingAndGlyphs" textLength="21" x="346.5" y="521.2339">gc()</text><!--class ClassLoadingMXBean--><rect fill="#FEFECE" filter="url(#f1fuopumupsw5m)" height="112.0234" id="ClassLoadingMXBean" style="stroke: #A80036; stroke-width: 1.5;" width="216" x="38" y="223"/><ellipse cx="76.85" cy="239" fill="#B4A7E5" rx="11" ry="11" style="stroke: #A80036; stroke-width: 1.0;"/><path d="M77.8031,235.7813 L77.8031,242.2969 L79.5219,242.2969 C79.975,242.2969 80.1156,242.3281 80.2875,242.4531 C80.5219,242.625 80.6313,242.875 80.6313,243.1563 C80.6313,243.7188 80.2719,244 79.5219,244 L74.3813,244 C73.975,244 73.7719,243.9531 73.6156,243.8281 C73.3969,243.6719 73.2563,243.4063 73.2563,243.1563 C73.2563,242.8594 73.4125,242.5781 73.6625,242.4219 C73.8188,242.3125 73.9438,242.2969 74.3813,242.2969 L76.1,242.2969 L76.1,235.7813 L74.3813,235.7813 C73.9594,235.7813 73.7719,235.75 73.6156,235.6406 C73.3969,235.4688 73.2563,235.2188 73.2563,234.9375 C73.2563,234.6563 73.4125,234.3594 73.6625,234.2031 C73.8188,234.1094 73.9438,234.0938 74.3813,234.0938 L79.5219,234.0938 C79.975,234.0938 80.1156,234.125 80.2875,234.2344 C80.5219,234.4063 80.6313,234.6719 80.6313,234.9375 C80.6313,235.2344 80.4906,235.5156 80.225,235.6719 C80.1,235.75 79.9125,235.7813 79.5219,235.7813 Z "/><text fill="#000000" font-family="sans-serif" font-size="12" font-style="italic" lengthAdjust="spacingAndGlyphs" textLength="131" x="96.15" y="243.1543">ClassLoadingMXBean</text><line style="stroke: #A80036; stroke-width: 1.5;" x1="39" x2="253" y1="255" y2="255"/><ellipse cx="49" cy="266.9023" fill="#84BE84" rx="3" ry="3" style="stroke: #038048; stroke-width: 1.0;"/><text fill="#000000" font-family="sans-serif" font-size="11" font-style="italic" lengthAdjust="spacingAndGlyphs" textLength="152" x="58" y="269.2104">getLoadedClassCount(): int</text><ellipse cx="49" cy="279.707" fill="#84BE84" rx="3" ry="3" style="stroke: #038048; stroke-width: 1.0;"/><text fill="#000000" font-family="sans-serif" font-size="11" font-style="italic" lengthAdjust="spacingAndGlyphs" textLength="190" x="58" y="282.0151">getTotalLoadedClassCount(): long</text><ellipse cx="49" cy="292.5117" fill="#84BE84" rx="3" ry="3" style="stroke: #038048; stroke-width: 1.0;"/><text fill="#000000" font-family="sans-serif" font-size="11" font-style="italic" lengthAdjust="spacingAndGlyphs" textLength="174" x="58" y="294.8198">getUnloadedClassCount(): long</text><line style="stroke: #A80036; stroke-width: 1.0; stroke-dasharray: 1.0,2.0;" x1="39" x2="253" y1="301.4141" y2="301.4141"/><ellipse cx="49" cy="313.3164" fill="#84BE84" rx="3" ry="3" style="stroke: #038048; stroke-width: 1.0;"/><text fill="#000000" font-family="sans-serif" font-size="11" font-style="italic" lengthAdjust="spacingAndGlyphs" textLength="117" x="58" y="315.6245">isVerbose(): boolean</text><ellipse cx="49" cy="326.1211" fill="#84BE84" rx="3" ry="3" style="stroke: #038048; stroke-width: 1.0;"/><text fill="#000000" font-family="sans-serif" font-size="11" font-style="italic" lengthAdjust="spacingAndGlyphs" textLength="156" x="58" y="328.4292">setVerbose(value: boolean)</text><!--class CompilationMXBean--><rect fill="#FEFECE" filter="url(#f1fuopumupsw5m)" height="78.4141" id="CompilationMXBean" style="stroke: #A80036; stroke-width: 1.5;" width="308" x="672" y="240"/><ellipse cx="760.25" cy="256" fill="#B4A7E5" rx="11" ry="11" style="stroke: #A80036; stroke-width: 1.0;"/><path d="M761.2031,252.7813 L761.2031,259.2969 L762.9219,259.2969 C763.375,259.2969 763.5156,259.3281 763.6875,259.4531 C763.9219,259.625 764.0313,259.875 764.0313,260.1563 C764.0313,260.7188 763.6719,261 762.9219,261 L757.7813,261 C757.375,261 757.1719,260.9531 757.0156,260.8281 C756.7969,260.6719 756.6563,260.4063 756.6563,260.1563 C756.6563,259.8594 756.8125,259.5781 757.0625,259.4219 C757.2188,259.3125 757.3438,259.2969 757.7813,259.2969 L759.5,259.2969 L759.5,252.7813 L757.7813,252.7813 C757.3594,252.7813 757.1719,252.75 757.0156,252.6406 C756.7969,252.4688 756.6563,252.2188 756.6563,251.9375 C756.6563,251.6563 756.8125,251.3594 757.0625,251.2031 C757.2188,251.1094 757.3438,251.0938 757.7813,251.0938 L762.9219,251.0938 C763.375,251.0938 763.5156,251.125 763.6875,251.2344 C763.9219,251.4063 764.0313,251.6719 764.0313,251.9375 C764.0313,252.2344 763.8906,252.5156 763.625,252.6719 C763.5,252.75 763.3125,252.7813 762.9219,252.7813 Z "/><text fill="#000000" font-family="sans-serif" font-size="12" font-style="italic" lengthAdjust="spacingAndGlyphs" textLength="123" x="780.75" y="260.1543">CompilationMXBean</text><line style="stroke: #A80036; stroke-width: 1.5;" x1="673" x2="979" y1="272" y2="272"/><ellipse cx="683" cy="283.9023" fill="#84BE84" rx="3" ry="3" style="stroke: #038048; stroke-width: 1.0;"/><text fill="#000000" font-family="sans-serif" font-size="11" font-style="italic" lengthAdjust="spacingAndGlyphs" textLength="100" x="692" y="286.2104">getName(): String</text><ellipse cx="683" cy="296.707" fill="#84BE84" rx="3" ry="3" style="stroke: #038048; stroke-width: 1.0;"/><text fill="#000000" font-family="sans-serif" font-size="11" font-style="italic" lengthAdjust="spacingAndGlyphs" textLength="181" x="692" y="299.0151">getTotalCompilationTime(): long</text><ellipse cx="683" cy="309.5117" fill="#84BE84" rx="3" ry="3" style="stroke: #038048; stroke-width: 1.0;"/><text fill="#000000" font-family="sans-serif" font-size="11" font-style="italic" lengthAdjust="spacingAndGlyphs" textLength="282" x="692" y="311.8198">isCompilationTimeMonitoringSupported(): boolean</text><!--class MemoryUsage--><rect fill="#FEFECE" filter="url(#f1fuopumupsw5m)" height="91.2188" id="MemoryUsage" style="stroke: #A80036; stroke-width: 1.5;" width="146" x="635" y="416"/><ellipse cx="661.7" cy="432" fill="#ADD1B2" rx="11" ry="11" style="stroke: #A80036; stroke-width: 1.0;"/><path d="M664.0438,427.6719 L664.2156,427.75 C664.4344,427.4375 664.6375,427.3438 664.9344,427.3438 C665.2313,427.3438 665.5125,427.4844 665.6688,427.75 C665.7625,427.9063 665.7781,428.0313 665.7781,428.4688 L665.7781,429.8906 C665.7781,430.3125 665.7469,430.5 665.6375,430.6563 C665.4656,430.875 665.2,431.0156 664.9344,431.0156 C664.7156,431.0156 664.4813,430.9063 664.3406,430.7656 C664.2,430.6406 664.1688,430.5156 664.1063,430.1094 C664.0125,429.7031 663.8406,429.4844 663.3563,429.2031 C662.8875,428.9531 662.2781,428.7969 661.7,428.7969 C659.9656,428.7969 658.7156,430.1094 658.7156,431.8906 L658.7156,432.9844 C658.7156,434.6875 660.0125,435.7813 662.0594,435.7813 C662.825,435.7813 663.5125,435.6563 663.9344,435.3906 C664.1219,435.2969 664.1219,435.2969 664.575,434.8125 C664.7625,434.625 664.9656,434.5469 665.1844,434.5469 C665.6531,434.5469 666.0438,434.9375 666.0438,435.3906 C666.0438,435.7813 665.7156,436.2344 665.1375,436.6406 C664.3875,437.1875 663.2313,437.4844 662.0125,437.4844 C659.1219,437.4844 657.0125,435.5938 657.0125,433.0156 L657.0125,431.8906 C657.0125,429.1719 659.0125,427.0938 661.6375,427.0938 C662.5125,427.0938 663.1063,427.2344 664.0438,427.6719 Z "/><text fill="#000000" font-family="sans-serif" font-size="12" lengthAdjust="spacingAndGlyphs" textLength="88" x="678.3" y="436.1543">MemoryUsage</text><line style="stroke: #A80036; stroke-width: 1.5;" x1="636" x2="780" y1="448" y2="448"/><ellipse cx="646" cy="459.9023" fill="#84BE84" rx="3" ry="3" style="stroke: #038048; stroke-width: 1.0;"/><text fill="#000000" font-family="sans-serif" font-size="11" lengthAdjust="spacingAndGlyphs" textLength="120" x="655" y="462.2104">getCommitted(): long</text><ellipse cx="646" cy="472.707" fill="#84BE84" rx="3" ry="3" style="stroke: #038048; stroke-width: 1.0;"/><text fill="#000000" font-family="sans-serif" font-size="11" lengthAdjust="spacingAndGlyphs" textLength="75" x="655" y="475.0151">getInit(): long</text><ellipse cx="646" cy="485.5117" fill="#84BE84" rx="3" ry="3" style="stroke: #038048; stroke-width: 1.0;"/><text fill="#000000" font-family="sans-serif" font-size="11" lengthAdjust="spacingAndGlyphs" textLength="80" x="655" y="487.8198">getMax(): long</text><ellipse cx="646" cy="498.3164" fill="#84BE84" rx="3" ry="3" style="stroke: #038048; stroke-width: 1.0;"/><text fill="#000000" font-family="sans-serif" font-size="11" lengthAdjust="spacingAndGlyphs" textLength="87" x="655" y="500.6245">getUsed(): long</text><!--link OperatingSystemMXBean to ManagementFactory--><path d="M463,168.223 C463,189.5 463,213.406 463,233.464 " fill="none" id="OperatingSystemMXBean-ManagementFactory" style="stroke: #A80036; stroke-width: 1.0; stroke-dasharray: 7.0,7.0;"/><polygon fill="#A80036" points="463,163.16,459,172.16,463,168.16,467,172.16,463,163.16" style="stroke: #A80036; stroke-width: 1.0;"/><!--link ManagementFactory to CompilationMXBean--><path d="M637.056,279 C646.902,279 656.749,279 666.596,279 " fill="none" id="ManagementFactory-CompilationMXBean" style="stroke: #A80036; stroke-width: 1.0; stroke-dasharray: 7.0,7.0;"/><polygon fill="#A80036" points="671.745,279,662.745,275,666.745,279,662.745,283,671.745,279" style="stroke: #A80036; stroke-width: 1.0;"/><!--link ClassLoadingMXBean to ManagementFactory--><path d="M259.189,279 C269.037,279 278.884,279 288.731,279 " fill="none" id="ClassLoadingMXBean-ManagementFactory" style="stroke: #A80036; stroke-width: 1.0; stroke-dasharray: 7.0,7.0;"/><polygon fill="#A80036" points="254.04,279,263.04,283,259.04,279,263.04,275,254.04,279" style="stroke: #A80036; stroke-width: 1.0;"/><!--link ManagementFactory to MemoryMXBean--><path d="M463,324.618 C463,344.238 463,367.762 463,389.681 " fill="none" id="ManagementFactory-MemoryMXBean" style="stroke: #A80036; stroke-width: 1.0; stroke-dasharray: 7.0,7.0;"/><polygon fill="#A80036" points="463,394.919,467,385.919,463,389.919,459,385.919,463,394.919" style="stroke: #A80036; stroke-width: 1.0;"/><!--link MemoryMXBean to MemoryUsage--><path d="M599.855,461.5 C609.808,461.5 619.761,461.5 629.713,461.5 " fill="none" id="MemoryMXBean-MemoryUsage" style="stroke: #A80036; stroke-width: 1.0; stroke-dasharray: 7.0,7.0;"/><polygon fill="#A80036" points="634.918,461.5,625.918,457.5,629.918,461.5,625.918,465.5,634.918,461.5" style="stroke: #A80036; stroke-width: 1.0;"/><!--
@startuml
package java.lang.management {
 class ManagementFactory {
  +{static} getMemoryMXBean(): MemoryMXBean
  +{static} getOperatingSystemMXBean(): OperatingSystemMXBean
  +{static} getClassLoadingMXBean(): ClassLoadingMXBean
  +{static} getCompilationMXBean(): CompilationMXBean
 }
 interface OperatingSystemMXBean {
  +{abstract} getArch(): String
  +{abstract} getAvailableProcessors(): int
  +{abstract} getName(): String
  +{abstract} getSystemLoadAverage(): double
  +{abstract} getVersion(): String
 }
 interface MemoryMXBean {
  +{abstract} getHeapMemoryUsage(): MemoryUsage
  +{abstract} getNonHeapMemoryUsage(): MemoryUsage
  +{abstract} getObjectPendingFinalizationCount(): int
....
  +{abstract} isVerbose(): boolean
  +{abstract} setVerbose(value: boolean)
....
  +{abstract} gc()
 }
 interface ClassLoadingMXBean {
  +{abstract} getLoadedClassCount(): int
  +{abstract} getTotalLoadedClassCount(): long
  +{abstract} getUnloadedClassCount(): long
....
  +{abstract} isVerbose(): boolean
  +{abstract} setVerbose(value: boolean)
 }
 interface CompilationMXBean {
  +{abstract} getName(): String
  +{abstract} getTotalCompilationTime(): long
  +{abstract} isCompilationTimeMonitoringSupported(): boolean
 }
 class MemoryUsage {
  + getCommitted(): long
  + getInit(): long
  + getMax(): long
  + getUsed(): long
 }
}

ManagementFactory .up.> OperatingSystemMXBean
ManagementFactory .right.> CompilationMXBean
ManagementFactory .left.> ClassLoadingMXBean
ManagementFactory .down.> MemoryMXBean
MemoryMXBean .right.> MemoryUsage

hide empty members
@enduml

PlantUML version 1.2019.08(Sat Jul 13 19:25:14 UTC 2019)
(GPL source distribution)
Java Runtime: Java(TM) SE Runtime Environment
JVM: Java HotSpot(TM) 64-Bit Server VM
Java Version: 1.7.0_25-b15
Operating System: Linux
Default Encoding: UTF-8
Language: en
Country: US
--></g></svg>