<?xml version="1.0" encoding="UTF-8" standalone="no"?>
<svg xmlns="http://www.w3.org/2000/svg" xmlns:xlink="http://www.w3.org/1999/xlink" contentScriptType="application/ecmascript" contentStyleType="text/css" height="437px" preserveAspectRatio="none" style="width:617px;height:437px;" version="1.1" viewBox="0 0 617 437" width="617px" zoomAndPan="magnify"><defs><filter height="300%" id="fbjza9t26zhrf" width="300%" x="-1" y="-1"><feGaussianBlur result="blurOut" stdDeviation="2.0"/><feColorMatrix in="blurOut" result="blurOut2" type="matrix" values="0 0 0 0 0 0 0 0 0 0 0 0 0 0 0 0 0 0 .4 0"/><feOffset dx="4.0" dy="4.0" in="blurOut2" result="blurOut3"/><feBlend in="SourceGraphic" in2="blurOut3" mode="normal"/></filter></defs><g><!--cluster javax.management--><polygon fill="#FFFFFF" filter="url(#fbjza9t26zhrf)" points="22,131,175,131,182,153.2969,595,153.2969,595,425,22,425,22,131" style="stroke: #000000; stroke-width: 1.5;"/><line style="stroke: #000000; stroke-width: 1.5;" x1="22" x2="182" y1="153.2969" y2="153.2969"/><text fill="#000000" font-family="sans-serif" font-size="14" font-weight="bold" lengthAdjust="spacingAndGlyphs" textLength="147" x="26" y="145.9951">javax.management</text><!--cluster java.util--><polygon fill="#FFFFFF" filter="url(#fbjza9t26zhrf)" points="466,24,532,24,539,46.2969,584,46.2969,584,107,466,107,466,24" style="stroke: #000000; stroke-width: 1.5;"/><line style="stroke: #000000; stroke-width: 1.5;" x1="466" x2="539" y1="46.2969" y2="46.2969"/><text fill="#000000" font-family="sans-serif" font-size="14" font-weight="bold" lengthAdjust="spacingAndGlyphs" textLength="60" x="470" y="38.9951">java.util</text><!--class MBeanServer--><rect fill="#FEFECE" filter="url(#fbjza9t26zhrf)" height="116.8281" id="MBeanServer" style="stroke: #A80036; stroke-width: 1.5;" width="397" x="38.5" y="166"/><ellipse cx="191.75" cy="182" fill="#B4A7E5" rx="11" ry="11" style="stroke: #A80036; stroke-width: 1.0;"/><path d="M192.7031,178.7813 L192.7031,185.2969 L194.4219,185.2969 C194.875,185.2969 195.0156,185.3281 195.1875,185.4531 C195.4219,185.625 195.5313,185.875 195.5313,186.1563 C195.5313,186.7188 195.1719,187 194.4219,187 L189.2813,187 C188.875,187 188.6719,186.9531 188.5156,186.8281 C188.2969,186.6719 188.1563,186.4063 188.1563,186.1563 C188.1563,185.8594 188.3125,185.5781 188.5625,185.4219 C188.7188,185.3125 188.8438,185.2969 189.2813,185.2969 L191,185.2969 L191,178.7813 L189.2813,178.7813 C188.8594,178.7813 188.6719,178.75 188.5156,178.6406 C188.2969,178.4688 188.1563,178.2188 188.1563,177.9375 C188.1563,177.6563 188.3125,177.3594 188.5625,177.2031 C188.7188,177.1094 188.8438,177.0938 189.2813,177.0938 L194.4219,177.0938 C194.875,177.0938 195.0156,177.125 195.1875,177.2344 C195.4219,177.4063 195.5313,177.6719 195.5313,177.9375 C195.5313,178.2344 195.3906,178.5156 195.125,178.6719 C195,178.75 194.8125,178.7813 194.4219,178.7813 Z "/><text fill="#000000" font-family="sans-serif" font-size="12" font-style="italic" lengthAdjust="spacingAndGlyphs" textLength="82" x="212.25" y="186.1543">MBeanServer</text><line style="stroke: #A80036; stroke-width: 1.5;" x1="39.5" x2="434.5" y1="198" y2="198"/><ellipse cx="49.5" cy="209.9023" fill="#84BE84" rx="3" ry="3" style="stroke: #038048; stroke-width: 1.0;"/><text fill="#000000" font-family="sans-serif" font-size="11" font-style="italic" lengthAdjust="spacingAndGlyphs" textLength="325" x="58.5" y="212.2104">getAttribute(name: ObjectName, attribute: String): Object</text><ellipse cx="49.5" cy="222.707" fill="#84BE84" rx="3" ry="3" style="stroke: #038048; stroke-width: 1.0;"/><text fill="#000000" font-family="sans-serif" font-size="11" font-style="italic" lengthAdjust="spacingAndGlyphs" textLength="371" x="58.5" y="225.0151">getAttribute(name: ObjectName, attributes: String[]): AttributeList</text><ellipse cx="49.5" cy="241.9141" fill="#84BE84" rx="3" ry="3" style="stroke: #038048; stroke-width: 1.0;"/><text fill="#000000" font-family="sans-serif" font-size="11" font-style="italic" lengthAdjust="spacingAndGlyphs" textLength="286" x="58.5" y="237.8198">invoke(name: ObjectName, operationName:String,</text><text fill="#000000" font-family="sans-serif" font-size="11" font-style="italic" lengthAdjust="spacingAndGlyphs" textLength="213" x="90.5" y="250.6245">params[]: Object , signature[]: String)</text><ellipse cx="49.5" cy="261.1211" fill="#84BE84" rx="3" ry="3" style="stroke: #038048; stroke-width: 1.0;"/><text fill="#000000" font-family="sans-serif" font-size="11" font-style="italic" lengthAdjust="spacingAndGlyphs" textLength="296" x="58.5" y="263.4292">setAttribute(name: ObjectName, attribute: Attribute)</text><ellipse cx="49.5" cy="273.9258" fill="#84BE84" rx="3" ry="3" style="stroke: #038048; stroke-width: 1.0;"/><text fill="#000000" font-family="sans-serif" font-size="11" font-style="italic" lengthAdjust="spacingAndGlyphs" textLength="327" x="58.5" y="276.2339">setAttributes(name: ObjectName, attributes: AttributeList)</text><!--class AttributeList--><rect fill="#FEFECE" filter="url(#fbjza9t26zhrf)" height="32" id="AttributeList" style="stroke: #A80036; stroke-width: 1.5;" width="108" x="471" y="208.5"/><ellipse cx="486" cy="224.5" fill="#ADD1B2" rx="11" ry="11" style="stroke: #A80036; stroke-width: 1.0;"/><path d="M488.3438,220.1719 L488.5156,220.25 C488.7344,219.9375 488.9375,219.8438 489.2344,219.8438 C489.5313,219.8438 489.8125,219.9844 489.9688,220.25 C490.0625,220.4063 490.0781,220.5313 490.0781,220.9688 L490.0781,222.3906 C490.0781,222.8125 490.0469,223 489.9375,223.1563 C489.7656,223.375 489.5,223.5156 489.2344,223.5156 C489.0156,223.5156 488.7813,223.4063 488.6406,223.2656 C488.5,223.1406 488.4688,223.0156 488.4063,222.6094 C488.3125,222.2031 488.1406,221.9844 487.6563,221.7031 C487.1875,221.4531 486.5781,221.2969 486,221.2969 C484.2656,221.2969 483.0156,222.6094 483.0156,224.3906 L483.0156,225.4844 C483.0156,227.1875 484.3125,228.2813 486.3594,228.2813 C487.125,228.2813 487.8125,228.1563 488.2344,227.8906 C488.4219,227.7969 488.4219,227.7969 488.875,227.3125 C489.0625,227.125 489.2656,227.0469 489.4844,227.0469 C489.9531,227.0469 490.3438,227.4375 490.3438,227.8906 C490.3438,228.2813 490.0156,228.7344 489.4375,229.1406 C488.6875,229.6875 487.5313,229.9844 486.3125,229.9844 C483.4219,229.9844 481.3125,228.0938 481.3125,225.5156 L481.3125,224.3906 C481.3125,221.6719 483.3125,219.5938 485.9375,219.5938 C486.8125,219.5938 487.4063,219.7344 488.3438,220.1719 Z "/><text fill="#000000" font-family="sans-serif" font-size="12" lengthAdjust="spacingAndGlyphs" textLength="76" x="500" y="228.6543">AttributeList</text><!--class Attribute--><rect fill="#FEFECE" filter="url(#fbjza9t26zhrf)" height="65.6094" id="Attribute" style="stroke: #A80036; stroke-width: 1.5;" width="127" x="312.5" y="343"/><ellipse cx="345.5" cy="359" fill="#ADD1B2" rx="11" ry="11" style="stroke: #A80036; stroke-width: 1.0;"/><path d="M347.8438,354.6719 L348.0156,354.75 C348.2344,354.4375 348.4375,354.3438 348.7344,354.3438 C349.0313,354.3438 349.3125,354.4844 349.4688,354.75 C349.5625,354.9063 349.5781,355.0313 349.5781,355.4688 L349.5781,356.8906 C349.5781,357.3125 349.5469,357.5 349.4375,357.6563 C349.2656,357.875 349,358.0156 348.7344,358.0156 C348.5156,358.0156 348.2813,357.9063 348.1406,357.7656 C348,357.6406 347.9688,357.5156 347.9063,357.1094 C347.8125,356.7031 347.6406,356.4844 347.1563,356.2031 C346.6875,355.9531 346.0781,355.7969 345.5,355.7969 C343.7656,355.7969 342.5156,357.1094 342.5156,358.8906 L342.5156,359.9844 C342.5156,361.6875 343.8125,362.7813 345.8594,362.7813 C346.625,362.7813 347.3125,362.6563 347.7344,362.3906 C347.9219,362.2969 347.9219,362.2969 348.375,361.8125 C348.5625,361.625 348.7656,361.5469 348.9844,361.5469 C349.4531,361.5469 349.8438,361.9375 349.8438,362.3906 C349.8438,362.7813 349.5156,363.2344 348.9375,363.6406 C348.1875,364.1875 347.0313,364.4844 345.8125,364.4844 C342.9219,364.4844 340.8125,362.5938 340.8125,360.0156 L340.8125,358.8906 C340.8125,356.1719 342.8125,354.0938 345.4375,354.0938 C346.3125,354.0938 346.9063,354.2344 347.8438,354.6719 Z "/><text fill="#000000" font-family="sans-serif" font-size="12" lengthAdjust="spacingAndGlyphs" textLength="55" x="363.5" y="363.1543">Attribute</text><line style="stroke: #A80036; stroke-width: 1.5;" x1="313.5" x2="438.5" y1="375" y2="375"/><ellipse cx="323.5" cy="386.9023" fill="#84BE84" rx="3" ry="3" style="stroke: #038048; stroke-width: 1.0;"/><text fill="#000000" font-family="sans-serif" font-size="11" lengthAdjust="spacingAndGlyphs" textLength="101" x="332.5" y="389.2104">getName(): String</text><ellipse cx="323.5" cy="399.707" fill="#84BE84" rx="3" ry="3" style="stroke: #038048; stroke-width: 1.0;"/><text fill="#000000" font-family="sans-serif" font-size="11" lengthAdjust="spacingAndGlyphs" textLength="101" x="332.5" y="402.0151">getValue(): Object</text><!--class ArrayList--><rect fill="#FEFECE" filter="url(#fbjza9t26zhrf)" height="32" id="ArrayList" style="stroke: #A80036; stroke-width: 1.5;" width="85" x="482.5" y="59"/><ellipse cx="497.5" cy="75" fill="#ADD1B2" rx="11" ry="11" style="stroke: #A80036; stroke-width: 1.0;"/><path d="M499.8438,70.6719 L500.0156,70.75 C500.2344,70.4375 500.4375,70.3438 500.7344,70.3438 C501.0313,70.3438 501.3125,70.4844 501.4688,70.75 C501.5625,70.9063 501.5781,71.0313 501.5781,71.4688 L501.5781,72.8906 C501.5781,73.3125 501.5469,73.5 501.4375,73.6563 C501.2656,73.875 501,74.0156 500.7344,74.0156 C500.5156,74.0156 500.2813,73.9063 500.1406,73.7656 C500,73.6406 499.9688,73.5156 499.9063,73.1094 C499.8125,72.7031 499.6406,72.4844 499.1563,72.2031 C498.6875,71.9531 498.0781,71.7969 497.5,71.7969 C495.7656,71.7969 494.5156,73.1094 494.5156,74.8906 L494.5156,75.9844 C494.5156,77.6875 495.8125,78.7813 497.8594,78.7813 C498.625,78.7813 499.3125,78.6563 499.7344,78.3906 C499.9219,78.2969 499.9219,78.2969 500.375,77.8125 C500.5625,77.625 500.7656,77.5469 500.9844,77.5469 C501.4531,77.5469 501.8438,77.9375 501.8438,78.3906 C501.8438,78.7813 501.5156,79.2344 500.9375,79.6406 C500.1875,80.1875 499.0313,80.4844 497.8125,80.4844 C494.9219,80.4844 492.8125,78.5938 492.8125,76.0156 L492.8125,74.8906 C492.8125,72.1719 494.8125,70.0938 497.4375,70.0938 C498.3125,70.0938 498.9063,70.2344 499.8438,70.6719 Z "/><text fill="#000000" font-family="sans-serif" font-size="12" lengthAdjust="spacingAndGlyphs" textLength="53" x="511.5" y="79.1543">ArrayList</text><!--link MBeanServer to AttributeList--><path d="M435.562,224.5 C445.579,224.5 455.595,224.5 465.611,224.5 " fill="none" id="MBeanServer-AttributeList" style="stroke: #A80036; stroke-width: 1.0; stroke-dasharray: 7.0,7.0;"/><polygon fill="#A80036" points="470.848,224.5,461.848,220.5,465.848,224.5,461.848,228.5,470.848,224.5" style="stroke: #A80036; stroke-width: 1.0;"/><!--link ArrayList to AttributeList--><path d="M525,111.427 C525,142.242 525,185.415 525,208.132 " fill="none" id="ArrayList-AttributeList" style="stroke: #A80036; stroke-width: 1.0;"/><polygon fill="none" points="518,111.23,525,91.23,532,111.23,518,111.23" style="stroke: #A80036; stroke-width: 1.0;"/><!--link AttributeList to Attribute--><path d="M509.893,240.658 C487.072,263.556 443.15,307.624 411.836,339.043 " fill="none" id="AttributeList-Attribute" style="stroke: #A80036; stroke-width: 1.0;"/><polygon fill="#A80036" points="408.082,342.8101,417.2687,339.2597,411.6118,339.2689,411.6027,333.612,408.082,342.8101" style="stroke: #A80036; stroke-width: 1.0;"/><text fill="#000000" font-family="sans-serif" font-size="13" lengthAdjust="spacingAndGlyphs" textLength="7" x="406.7091" y="331.9176">*</text><!--link MBeanServer to Attribute--><path d="M290.741,283.301 C308.213,302.092 327.088,322.393 342.626,339.104 " fill="none" id="MBeanServer-Attribute" style="stroke: #A80036; stroke-width: 1.0; stroke-dasharray: 7.0,7.0;"/><polygon fill="#A80036" points="346.092,342.8324,342.8949,333.5169,342.6881,339.17,337.035,338.9631,346.092,342.8324" style="stroke: #A80036; stroke-width: 1.0;"/><!--
@startuml
package javax.management {
 interface MBeanServer {
  +{abstract} getAttribute(name: ObjectName, attribute: String): Object
  +{abstract} getAttribute(name: ObjectName, attributes: String[]): AttributeList
  +{abstract} invoke(name: ObjectName, operationName:String,\n\tparams[]: Object , signature[]: String)
  +{abstract} setAttribute(name: ObjectName, attribute: Attribute)
  +{abstract} setAttributes(name: ObjectName, attributes: AttributeList)
 }
 class AttributeList
 class Attribute {
  + getName(): String
  + getValue(): Object
 }
}
package java.util {
 class ArrayList
}
MBeanServer .right.> AttributeList
AttributeList -up-|> ArrayList
AttributeList - -> "*" Attribute
MBeanServer ..> Attribute
hide empty members
@enduml

PlantUML version 1.2019.08(Sat Jul 13 19:25:14 UTC 2019)
(GPL source distribution)
Java Runtime: Java(TM) SE Runtime Environment
JVM: Java HotSpot(TM) 64-Bit Server VM
Java Version: 1.7.0_25-b15
Operating System: Linux
Default Encoding: UTF-8
Language: en
Country: US
--></g></svg>