<?xml version="1.0" encoding="UTF-8" standalone="no"?>
<svg xmlns="http://www.w3.org/2000/svg" xmlns:xlink="http://www.w3.org/1999/xlink" contentScriptType="application/ecmascript" contentStyleType="text/css" height="443px" preserveAspectRatio="none" style="width:770px;height:443px;" version="1.1" viewBox="0 0 770 443" width="770px" zoomAndPan="magnify"><defs><filter height="300%" id="fp94pkwwmvvo6" width="300%" x="-1" y="-1"><feGaussianBlur result="blurOut" stdDeviation="2.0"/><feColorMatrix in="blurOut" result="blurOut2" type="matrix" values="0 0 0 0 0 0 0 0 0 0 0 0 0 0 0 0 0 0 .4 0"/><feOffset dx="4.0" dy="4.0" in="blurOut2" result="blurOut3"/><feBlend in="SourceGraphic" in2="blurOut3" mode="normal"/></filter></defs><g><!--cluster java.lang.management--><polygon fill="#FFFFFF" filter="url(#fp94pkwwmvvo6)" points="22,47,204,47,211,69.2969,314,69.2969,314,151,22,151,22,47" style="stroke: #000000; stroke-width: 1.5;"/><line style="stroke: #000000; stroke-width: 1.5;" x1="22" x2="211" y1="69.2969" y2="69.2969"/><text fill="#000000" font-family="sans-serif" font-size="14" font-weight="bold" lengthAdjust="spacingAndGlyphs" textLength="176" x="26" y="61.9951">java.lang.management</text><!--cluster javax.management--><polygon fill="#FFFFFF" filter="url(#fp94pkwwmvvo6)" points="338,24,491,24,498,46.2969,748,46.2969,748,431,338,431,338,24" style="stroke: #000000; stroke-width: 1.5;"/><line style="stroke: #000000; stroke-width: 1.5;" x1="338" x2="498" y1="46.2969" y2="46.2969"/><text fill="#000000" font-family="sans-serif" font-size="14" font-weight="bold" lengthAdjust="spacingAndGlyphs" textLength="147" x="342" y="38.9951">javax.management</text><!--class ManagementFactory--><rect fill="#FEFECE" filter="url(#fp94pkwwmvvo6)" height="52.8047" id="ManagementFactory" style="stroke: #A80036; stroke-width: 1.5;" width="260" x="38" y="82"/><ellipse cx="99.75" cy="98" fill="#ADD1B2" rx="11" ry="11" style="stroke: #A80036; stroke-width: 1.0;"/><path d="M102.0938,93.6719 L102.2656,93.75 C102.4844,93.4375 102.6875,93.3438 102.9844,93.3438 C103.2813,93.3438 103.5625,93.4844 103.7188,93.75 C103.8125,93.9063 103.8281,94.0313 103.8281,94.4688 L103.8281,95.8906 C103.8281,96.3125 103.7969,96.5 103.6875,96.6563 C103.5156,96.875 103.25,97.0156 102.9844,97.0156 C102.7656,97.0156 102.5313,96.9063 102.3906,96.7656 C102.25,96.6406 102.2188,96.5156 102.1563,96.1094 C102.0625,95.7031 101.8906,95.4844 101.4063,95.2031 C100.9375,94.9531 100.3281,94.7969 99.75,94.7969 C98.0156,94.7969 96.7656,96.1094 96.7656,97.8906 L96.7656,98.9844 C96.7656,100.6875 98.0625,101.7813 100.1094,101.7813 C100.875,101.7813 101.5625,101.6563 101.9844,101.3906 C102.1719,101.2969 102.1719,101.2969 102.625,100.8125 C102.8125,100.625 103.0156,100.5469 103.2344,100.5469 C103.7031,100.5469 104.0938,100.9375 104.0938,101.3906 C104.0938,101.7813 103.7656,102.2344 103.1875,102.6406 C102.4375,103.1875 101.2813,103.4844 100.0625,103.4844 C97.1719,103.4844 95.0625,101.5938 95.0625,99.0156 L95.0625,97.8906 C95.0625,95.1719 97.0625,93.0938 99.6875,93.0938 C100.5625,93.0938 101.1563,93.2344 102.0938,93.6719 Z "/><text fill="#000000" font-family="sans-serif" font-size="12" lengthAdjust="spacingAndGlyphs" textLength="128" x="120.25" y="102.1543">ManagementFactory</text><line style="stroke: #A80036; stroke-width: 1.5;" x1="39" x2="297" y1="114" y2="114"/><ellipse cx="49" cy="125.9023" fill="#84BE84" rx="3" ry="3" style="stroke: #038048; stroke-width: 1.0;"/><text fill="#000000" font-family="sans-serif" font-size="11" lengthAdjust="spacingAndGlyphs" text-decoration="underline" textLength="234" x="58" y="128.2104">getPlatformMBeanServer(): MBeanServer</text><!--class MBeanServer--><rect fill="#FEFECE" filter="url(#fp94pkwwmvvo6)" height="99.2188" id="MBeanServer" style="stroke: #A80036; stroke-width: 1.5;" width="311" x="370.5" y="59"/><ellipse cx="480.75" cy="75" fill="#B4A7E5" rx="11" ry="11" style="stroke: #A80036; stroke-width: 1.0;"/><path d="M481.7031,71.7813 L481.7031,78.2969 L483.4219,78.2969 C483.875,78.2969 484.0156,78.3281 484.1875,78.4531 C484.4219,78.625 484.5313,78.875 484.5313,79.1563 C484.5313,79.7188 484.1719,80 483.4219,80 L478.2813,80 C477.875,80 477.6719,79.9531 477.5156,79.8281 C477.2969,79.6719 477.1563,79.4063 477.1563,79.1563 C477.1563,78.8594 477.3125,78.5781 477.5625,78.4219 C477.7188,78.3125 477.8438,78.2969 478.2813,78.2969 L480,78.2969 L480,71.7813 L478.2813,71.7813 C477.8594,71.7813 477.6719,71.75 477.5156,71.6406 C477.2969,71.4688 477.1563,71.2188 477.1563,70.9375 C477.1563,70.6563 477.3125,70.3594 477.5625,70.2031 C477.7188,70.1094 477.8438,70.0938 478.2813,70.0938 L483.4219,70.0938 C483.875,70.0938 484.0156,70.125 484.1875,70.2344 C484.4219,70.4063 484.5313,70.6719 484.5313,70.9375 C484.5313,71.2344 484.3906,71.5156 484.125,71.6719 C484,71.75 483.8125,71.7813 483.4219,71.7813 Z "/><text fill="#000000" font-family="sans-serif" font-size="12" font-style="italic" lengthAdjust="spacingAndGlyphs" textLength="82" x="501.25" y="79.1543">MBeanServer</text><line style="stroke: #A80036; stroke-width: 1.5;" x1="371.5" x2="680.5" y1="91" y2="91"/><ellipse cx="381.5" cy="102.9023" fill="#84BE84" rx="3" ry="3" style="stroke: #038048; stroke-width: 1.0;"/><text fill="#000000" font-family="sans-serif" font-size="11" font-style="italic" lengthAdjust="spacingAndGlyphs" textLength="285" x="390.5" y="105.2104">registerMBean(object: Object, name: ObjectName)</text><ellipse cx="381.5" cy="115.707" fill="#84BE84" rx="3" ry="3" style="stroke: #038048; stroke-width: 1.0;"/><text fill="#000000" font-family="sans-serif" font-size="11" font-style="italic" lengthAdjust="spacingAndGlyphs" textLength="213" x="390.5" y="118.0151">unregisterMBean(name: ObjectName)</text><ellipse cx="381.5" cy="128.5117" fill="#84BE84" rx="3" ry="3" style="stroke: #038048; stroke-width: 1.0;"/><text fill="#000000" font-family="sans-serif" font-size="11" font-style="italic" lengthAdjust="spacingAndGlyphs" textLength="187" x="390.5" y="130.8198">isRegistered(name: ObjectName)</text><line style="stroke: #A80036; stroke-width: 1.0; stroke-dasharray: 1.0,2.0;" x1="371.5" x2="680.5" y1="137.4141" y2="137.4141"/><ellipse cx="381.5" cy="149.3164" fill="#84BE84" rx="3" ry="3" style="stroke: #038048; stroke-width: 1.0;"/><text fill="#000000" font-family="sans-serif" font-size="11" font-style="italic" lengthAdjust="spacingAndGlyphs" textLength="145" x="390.5" y="151.6245">getMBeanCount(): Integer</text><!--class ObjectName--><rect fill="#FEFECE" filter="url(#fp94pkwwmvvo6)" height="196.8516" id="ObjectName" style="stroke: #A80036; stroke-width: 1.5;" width="378" x="354" y="218"/><ellipse cx="500.75" cy="234" fill="#ADD1B2" rx="11" ry="11" style="stroke: #A80036; stroke-width: 1.0;"/><path d="M503.0938,229.6719 L503.2656,229.75 C503.4844,229.4375 503.6875,229.3438 503.9844,229.3438 C504.2813,229.3438 504.5625,229.4844 504.7188,229.75 C504.8125,229.9063 504.8281,230.0313 504.8281,230.4688 L504.8281,231.8906 C504.8281,232.3125 504.7969,232.5 504.6875,232.6563 C504.5156,232.875 504.25,233.0156 503.9844,233.0156 C503.7656,233.0156 503.5313,232.9063 503.3906,232.7656 C503.25,232.6406 503.2188,232.5156 503.1563,232.1094 C503.0625,231.7031 502.8906,231.4844 502.4063,231.2031 C501.9375,230.9531 501.3281,230.7969 500.75,230.7969 C499.0156,230.7969 497.7656,232.1094 497.7656,233.8906 L497.7656,234.9844 C497.7656,236.6875 499.0625,237.7813 501.1094,237.7813 C501.875,237.7813 502.5625,237.6563 502.9844,237.3906 C503.1719,237.2969 503.1719,237.2969 503.625,236.8125 C503.8125,236.625 504.0156,236.5469 504.2344,236.5469 C504.7031,236.5469 505.0938,236.9375 505.0938,237.3906 C505.0938,237.7813 504.7656,238.2344 504.1875,238.6406 C503.4375,239.1875 502.2813,239.4844 501.0625,239.4844 C498.1719,239.4844 496.0625,237.5938 496.0625,235.0156 L496.0625,233.8906 C496.0625,231.1719 498.0625,229.0938 500.6875,229.0938 C501.5625,229.0938 502.1563,229.2344 503.0938,229.6719 Z "/><text fill="#000000" font-family="sans-serif" font-size="12" lengthAdjust="spacingAndGlyphs" textLength="76" x="521.25" y="238.1543">ObjectName</text><line style="stroke: #A80036; stroke-width: 1.5;" x1="355" x2="731" y1="250" y2="250"/><ellipse cx="365" cy="261.9023" fill="#84BE84" rx="3" ry="3" style="stroke: #038048; stroke-width: 1.0;"/><text fill="#000000" font-family="sans-serif" font-size="11" lengthAdjust="spacingAndGlyphs" textLength="151" x="374" y="264.2104">ObjectName(name: String)</text><ellipse cx="365" cy="274.707" fill="#84BE84" rx="3" ry="3" style="stroke: #038048; stroke-width: 1.0;"/><text fill="#000000" font-family="sans-serif" font-size="11" lengthAdjust="spacingAndGlyphs" textLength="352" x="374" y="277.0151">ObjectName(domain: String, table: Hashtable&lt;String,String&gt;)</text><ellipse cx="365" cy="287.5117" fill="#84BE84" rx="3" ry="3" style="stroke: #038048; stroke-width: 1.0;"/><text fill="#000000" font-family="sans-serif" font-size="11" lengthAdjust="spacingAndGlyphs" textLength="310" x="374" y="289.8198">ObjectName(domain: String, key: String, value: String)</text><line style="stroke: #A80036; stroke-width: 1.0; stroke-dasharray: 1.0,2.0;" x1="355" x2="731" y1="296.4141" y2="296.4141"/><ellipse cx="365" cy="308.3164" fill="#84BE84" rx="3" ry="3" style="stroke: #038048; stroke-width: 1.0;"/><text fill="#000000" font-family="sans-serif" font-size="11" lengthAdjust="spacingAndGlyphs" text-decoration="underline" textLength="148" x="374" y="310.6245">getInstance(name: String)</text><ellipse cx="365" cy="321.1211" fill="#84BE84" rx="3" ry="3" style="stroke: #038048; stroke-width: 1.0;"/><text fill="#000000" font-family="sans-serif" font-size="11" lengthAdjust="spacingAndGlyphs" text-decoration="underline" textLength="349" x="374" y="323.4292">getInstance(domain: String, table: Hashtable&lt;String,String&gt;)</text><ellipse cx="365" cy="333.9258" fill="#84BE84" rx="3" ry="3" style="stroke: #038048; stroke-width: 1.0;"/><text fill="#000000" font-family="sans-serif" font-size="11" lengthAdjust="spacingAndGlyphs" text-decoration="underline" textLength="307" x="374" y="336.2339">getInstance(domain: String, key: String, value: String)</text><ellipse cx="365" cy="346.7305" fill="#84BE84" rx="3" ry="3" style="stroke: #038048; stroke-width: 1.0;"/><text fill="#000000" font-family="sans-serif" font-size="11" lengthAdjust="spacingAndGlyphs" text-decoration="underline" textLength="131" x="374" y="349.0386">quote(s: String): String</text><line style="stroke: #A80036; stroke-width: 1.0; stroke-dasharray: 1.0,2.0;" x1="355" x2="731" y1="355.6328" y2="355.6328"/><ellipse cx="365" cy="367.5352" fill="#84BE84" rx="3" ry="3" style="stroke: #038048; stroke-width: 1.0;"/><text fill="#000000" font-family="sans-serif" font-size="11" lengthAdjust="spacingAndGlyphs" textLength="156" x="374" y="369.8433">getCanonicalName(): String</text><ellipse cx="365" cy="380.3398" fill="#84BE84" rx="3" ry="3" style="stroke: #038048; stroke-width: 1.0;"/><text fill="#000000" font-family="sans-serif" font-size="11" lengthAdjust="spacingAndGlyphs" textLength="111" x="374" y="382.6479">getDomain(): String</text><ellipse cx="365" cy="393.1445" fill="#84BE84" rx="3" ry="3" style="stroke: #038048; stroke-width: 1.0;"/><text fill="#000000" font-family="sans-serif" font-size="11" lengthAdjust="spacingAndGlyphs" textLength="226" x="374" y="395.4526">getKeyProperty(property: String): String</text><ellipse cx="365" cy="405.9492" fill="#84BE84" rx="3" ry="3" style="stroke: #038048; stroke-width: 1.0;"/><text fill="#000000" font-family="sans-serif" font-size="11" lengthAdjust="spacingAndGlyphs" textLength="269" x="374" y="408.2573">getKeyPropertyList(): Hashtable&lt;String,String&gt;</text><!--link ManagementFactory to MBeanServer--><path d="M298.055,108.5 C320.405,108.5 342.756,108.5 365.107,108.5 " fill="none" id="ManagementFactory-MBeanServer" style="stroke: #A80036; stroke-width: 1.0; stroke-dasharray: 7.0,7.0;"/><polygon fill="#A80036" points="370.178,108.5,361.178,104.5,365.178,108.5,361.178,112.5,370.178,108.5" style="stroke: #A80036; stroke-width: 1.0;"/><!--link MBeanServer to ObjectName--><path d="M530.007,158.058 C531.362,174.476 532.931,193.484 534.499,212.492 " fill="none" id="MBeanServer-ObjectName" style="stroke: #A80036; stroke-width: 1.0; stroke-dasharray: 7.0,7.0;"/><polygon fill="#A80036" points="534.942,217.851,538.1878,208.5524,534.5306,212.868,530.215,209.2107,534.942,217.851" style="stroke: #A80036; stroke-width: 1.0;"/><!--
@startuml
package java.lang.management {
 class ManagementFactory {
  +{static} getPlatformMBeanServer(): MBeanServer
 }
}
package javax.management {
 interface MBeanServer {
  +{abstract} registerMBean(object: Object, name: ObjectName)
  +{abstract} unregisterMBean(name: ObjectName)
  +{abstract} isRegistered(name: ObjectName)
....
  +{abstract} getMBeanCount(): Integer
 }
 class ObjectName {
  + ObjectName(name: String)
  + ObjectName(domain: String, table: Hashtable<String,String>)
  + ObjectName(domain: String, key: String, value: String)
....
  +{static} getInstance(name: String)
  +{static} getInstance(domain: String, table: Hashtable<String,String>)
  +{static} getInstance(domain: String, key: String, value: String)
  +{static} quote(s: String): String
....
  + getCanonicalName(): String
  + getDomain(): String
  + getKeyProperty(property: String): String
  + getKeyPropertyList(): Hashtable<String,String>
 }
}

ManagementFactory .right.> MBeanServer
MBeanServer ..> ObjectName

hide empty members
@enduml

PlantUML version 1.2019.08(Sat Jul 13 19:25:14 UTC 2019)
(GPL source distribution)
Java Runtime: Java(TM) SE Runtime Environment
JVM: Java HotSpot(TM) 64-Bit Server VM
Java Version: 1.7.0_25-b15
Operating System: Linux
Default Encoding: UTF-8
Language: en
Country: US
--></g></svg>