<?xml version="1.0" encoding="UTF-8" standalone="no"?><svg xmlns="http://www.w3.org/2000/svg" xmlns:xlink="http://www.w3.org/1999/xlink" contentScriptType="application/ecmascript" contentStyleType="text/css" height="673px" preserveAspectRatio="none" style="width:1122px;height:673px;" version="1.1" viewBox="0 0 1122 673" width="1122px" zoomAndPan="magnify"><defs><filter height="300%" id="f1qntzdkgiv70t" width="300%" x="-1" y="-1"><feGaussianBlur result="blurOut" stdDeviation="2.0"/><feColorMatrix in="blurOut" result="blurOut2" type="matrix" values="0 0 0 0 0 0 0 0 0 0 0 0 0 0 0 0 0 0 .4 0"/><feOffset dx="4.0" dy="4.0" in="blurOut2" result="blurOut3"/><feBlend in="SourceGraphic" in2="blurOut3" mode="normal"/></filter></defs><g><rect fill="#FEFECE" filter="url(#f1qntzdkgiv70t)" height="50" rx="12.5" ry="12.5" style="stroke: #A80036; stroke-width: 1.5;" width="69" x="635.46" y="89"/><line style="stroke: #A80036; stroke-width: 1.5;" x1="635.46" x2="704.46" y1="115.2969" y2="115.2969"/><text fill="#000000" font-family="sans-serif" font-size="14" lengthAdjust="spacingAndGlyphs" textLength="49" x="645.46" y="106.9951">Accueil</text><rect fill="#FEFECE" filter="url(#f1qntzdkgiv70t)" height="50" rx="12.5" ry="12.5" style="stroke: #A80036; stroke-width: 1.5;" width="143" x="324.46" y="231"/><line style="stroke: #A80036; stroke-width: 1.5;" x1="324.46" x2="467.46" y1="257.2969" y2="257.2969"/><text fill="#000000" font-family="sans-serif" font-size="14" lengthAdjust="spacingAndGlyphs" textLength="123" x="334.46" y="248.9951">Liste des produits</text><rect fill="#FEFECE" filter="url(#f1qntzdkgiv70t)" height="50" rx="12.5" ry="12.5" style="stroke: #A80036; stroke-width: 1.5;" width="112" x="539.96" y="358"/><line style="stroke: #A80036; stroke-width: 1.5;" x1="539.96" x2="651.96" y1="384.2969" y2="384.2969"/><text fill="#000000" font-family="sans-serif" font-size="14" lengthAdjust="spacingAndGlyphs" textLength="92" x="549.96" y="375.9951">Détail produit</text><rect fill="#FEFECE" filter="url(#f1qntzdkgiv70t)" height="50" rx="12.5" ry="12.5" style="stroke: #A80036; stroke-width: 1.5;" width="87" x="352.46" y="485"/><line style="stroke: #A80036; stroke-width: 1.5;" x1="352.46" x2="439.46" y1="511.2969" y2="511.2969"/><text fill="#000000" font-family="sans-serif" font-size="14" lengthAdjust="spacingAndGlyphs" textLength="67" x="362.46" y="502.9951">Checkout</text><rect fill="#FEFECE" filter="url(#f1qntzdkgiv70t)" height="50" rx="12.5" ry="12.5" style="stroke: #A80036; stroke-width: 1.5;" width="85" x="353.46" y="612"/><line style="stroke: #A80036; stroke-width: 1.5;" x1="353.46" x2="438.46" y1="638.2969" y2="638.2969"/><text fill="#000000" font-family="sans-serif" font-size="14" lengthAdjust="spacingAndGlyphs" textLength="65" x="363.46" y="629.9951">Paiement</text><ellipse cx="669.96" cy="18" fill="#000000" filter="url(#f1qntzdkgiv70t)" rx="10" ry="10" style="stroke: none; stroke-width: 1.0;"/><!--link *start to welcome--><path d="M669.96,28.013 C669.96,40.698 669.96,64.409 669.96,83.57 " fill="none" id="*start-welcome" style="stroke: #A80036; stroke-width: 1.0;"/><polygon fill="#A80036" points="669.96,88.84,673.96,79.84,669.96,83.84,665.96,79.84,669.96,88.84" style="stroke: #A80036; stroke-width: 1.0;"/><!--link welcome to list--><path d="M635.393,127.275 C608.143,137.368 569.454,152.63 536.96,169 C501.837,186.695 463.874,210.117 436.197,228.048 " fill="none" id="welcome-list" style="stroke: #A80036; stroke-width: 1.0;"/><polygon fill="#A80036" points="431.846,230.877,441.572,229.3261,436.0383,228.1522,437.2122,222.6185,431.846,230.877" style="stroke: #A80036; stroke-width: 1.0;"/><text fill="#000000" font-family="sans-serif" font-size="13" lengthAdjust="spacingAndGlyphs" textLength="91" x="542.96" y="182.0669">Clic sur le titre</text><text fill="#000000" font-family="sans-serif" font-size="13" lengthAdjust="spacingAndGlyphs" textLength="105" x="537.96" y="197.1997">ou la description</text><!--link welcome to detail--><path d="M672.383,139.01 C675.472,179.905 677.317,264.779 647.96,328 C643.532,337.536 636.721,346.43 629.471,354.139 " fill="none" id="welcome-detail" style="stroke: #A80036; stroke-width: 1.0;"/><polygon fill="#A80036" points="625.886,357.826,635.0282,354.1627,629.3719,354.2415,629.293,348.5852,625.886,357.826" style="stroke: #A80036; stroke-width: 1.0;"/><text fill="#000000" font-family="sans-serif" font-size="13" lengthAdjust="spacingAndGlyphs" textLength="191" x="672.96" y="260.5669">Clic sur un composant produit</text><!--link list to detail--><path d="M409.841,281.233 C419.635,296.467 434.002,315.529 450.96,328 C464.986,338.315 501.984,352.029 535.094,363.055 " fill="none" id="list-detail" style="stroke: #A80036; stroke-width: 1.0;"/><polygon fill="#A80036" points="539.948,364.662,532.661,358.0363,535.2013,363.0907,530.1469,365.6311,539.948,364.662" style="stroke: #A80036; stroke-width: 1.0;"/><text fill="#000000" font-family="sans-serif" font-size="13" lengthAdjust="spacingAndGlyphs" textLength="191" x="451.96" y="324.0669">Clic sur un composant produit</text><!--link detail to checkout--><path d="M557.398,408.101 C523.504,429.285 474.237,460.077 439.054,482.066 " fill="none" id="detail-checkout" style="stroke: #A80036; stroke-width: 1.0;"/><polygon fill="#A80036" points="434.403,484.973,444.155,483.595,438.643,482.323,439.915,476.811,434.403,484.973" style="stroke: #A80036; stroke-width: 1.0;"/><text fill="#000000" font-family="sans-serif" font-size="13" lengthAdjust="spacingAndGlyphs" textLength="107" x="508.96" y="451.0669">Clic sur le caddie</text><!--link list to checkout--><path d="M395.96,281.163 C395.96,327.637 395.96,429.32 395.96,479.622 " fill="none" id="list-checkout" style="stroke: #A80036; stroke-width: 1.0;"/><polygon fill="#A80036" points="395.96,484.91,399.96,475.91,395.96,479.91,391.96,475.91,395.96,484.91" style="stroke: #A80036; stroke-width: 1.0;"/><text fill="#000000" font-family="sans-serif" font-size="13" lengthAdjust="spacingAndGlyphs" textLength="107" x="396.96" y="387.5669">Clic sur le caddie</text><!--link checkout to list--><path d="M352.174,501.062 C303.857,489.709 228.384,463.7 193.96,408 C156.644,347.621 247.588,303.161 319.317,278.67 " fill="none" id="checkout-list" style="stroke: #A80036; stroke-width: 1.0;"/><polygon fill="#A80036" points="324.447,276.942,314.6408,276.0261,319.7089,278.539,317.196,283.6071,324.447,276.942" style="stroke: #A80036; stroke-width: 1.0;"/><text fill="#000000" font-family="sans-serif" font-size="13" lengthAdjust="spacingAndGlyphs" textLength="192" x="194.96" y="387.5669">Clic sur Retourner au magasin</text><!--link checkout to checkout--><path d="M439.552,498.514 C458.358,497.574 474.46,501.402 474.46,510 C474.46,517.792 461.236,521.667 444.759,521.625 " fill="none" id="checkout-checkout" style="stroke: #A80036; stroke-width: 1.0;"/><polygon fill="#A80036" points="439.552,521.486,448.4425,525.7237,444.5502,521.6188,448.6551,517.7265,439.552,521.486" style="stroke: #A80036; stroke-width: 1.0;"/><text fill="#000000" font-family="sans-serif" font-size="13" lengthAdjust="spacingAndGlyphs" textLength="167" x="485.96" y="507.0669">Modification des quantités</text><text fill="#000000" font-family="sans-serif" font-size="13" lengthAdjust="spacingAndGlyphs" textLength="182" x="480.46" y="522.1997">Suppression de ligne produit</text><!--link checkout to payment--><path d="M395.96,535.101 C395.96,555.593 395.96,585.0764 395.96,606.8844 " fill="none" id="checkout-payment" style="stroke: #A80036; stroke-width: 1.0;"/><polygon fill="#A80036" points="395.96,611.9727,399.96,602.9727,395.96,606.9727,391.96,602.9727,395.96,611.9727" style="stroke: #A80036; stroke-width: 1.0;"/><text fill="#000000" font-family="sans-serif" font-size="13" lengthAdjust="spacingAndGlyphs" textLength="150" x="396.96" y="578.0669">Clic sur le bouton Payer</text><!--link payment to welcome--><path d="M438.514,634.851 C562.705,630.3548 915.96,608.9562 915.96,511 C915.96,255 915.96,255 915.96,255 C915.96,161.37 779.687,129.561 709.992,119.415 " fill="none" id="payment-welcome" style="stroke: #A80036; stroke-width: 1.0;"/><polygon fill="#A80036" points="704.684,118.665,713.0355,123.8854,709.6348,119.3649,714.1553,115.9642,704.684,118.665" style="stroke: #A80036; stroke-width: 1.0;"/><text fill="#000000" font-family="sans-serif" font-size="13" lengthAdjust="spacingAndGlyphs" textLength="194" x="916.96" y="387.5669">Clic sur le bouton Commander</text><!--link payment to list--><path d="M353.331,632.0151 C239.96,619.5113 -55.4775,573.4675 17.9599,438 C77.4321,328.293 226.877,284.344 319.047,267.284 " fill="none" id="payment-list" style="stroke: #A80036; stroke-width: 1.0;"/><polygon fill="#A80036" points="324.212,266.344,314.6417,264.018,319.2926,267.2382,316.0724,271.889,324.212,266.344" style="stroke: #A80036; stroke-width: 1.0;"/><text fill="#000000" font-family="sans-serif" font-size="13" lengthAdjust="spacingAndGlyphs" textLength="192" x="18.9599" y="451.0669">Clic sur Retourner au magasin</text><!--
@startuml
state "Accueil" as welcome
state "Liste des produits" as list
state "Détail produit" as detail
state "Checkout" as checkout
state "Paiement" as payment
[*] - -> welcome
welcome - -> list: Clic sur le titre \nou la description
welcome - -> detail: Clic sur un composant produit
list - -> detail: Clic sur un composant produit
detail - -> checkout: Clic sur le caddie
list - -> checkout: Clic sur le caddie
checkout - -> checkout: Modification des quantités \nSuppression de ligne produit
checkout - -> payment: Clic sur le bouton Payer
checkout - -> list: Clic sur Retourner au magasin
payment - -> welcome: Clic sur le bouton Commander
payment - -> list: Clic sur Retourner au magasin
@enduml

PlantUML version 1.2019.05beta1(Unknown compile time)
(GPL source distribution)
Java Runtime: Java(TM) SE Runtime Environment
JVM: Java HotSpot(TM) 64-Bit Server VM
Java Version: 1.7.0_25-b15
Operating System: Linux
Default Encoding: UTF-8
Language: en
Country: US
--></g></svg>