<?xml version="1.0" encoding="UTF-8" standalone="no"?><svg xmlns="http://www.w3.org/2000/svg" xmlns:xlink="http://www.w3.org/1999/xlink" contentScriptType="application/ecmascript" contentStyleType="text/css" preserveAspectRatio="true" version="1.1" viewBox="0 0 1264 531" zoomAndPan="magnify"><defs><filter height="300%" id="ftm8dkkx8e3wr" width="300%" x="-1" y="-1"><feGaussianBlur result="blurOut" stdDeviation="2.0"/><feColorMatrix in="blurOut" result="blurOut2" type="matrix" values="0 0 0 0 0 0 0 0 0 0 0 0 0 0 0 0 0 0 .4 0"/><feOffset dx="4.0" dy="4.0" in="blurOut2" result="blurOut3"/><feBlend in="SourceGraphic" in2="blurOut3" mode="normal"/></filter></defs><g><!--cluster javax.persistence--><polygon fill="#FFFFFF" filter="url(#ftm8dkkx8e3wr)" points="22,24,167,24,174,46.2969,1242,46.2969,1242,519,22,519,22,24" style="stroke: #000000; stroke-width: 2.0;"/><line style="stroke: #000000; stroke-width: 2.0;" x1="22" x2="174" y1="46.2969" y2="46.2969"/><text fill="#000000" font-family="sans-serif" font-size="14" font-weight="bold" lengthAdjust="spacingAndGlyphs" textLength="139" x="26" y="38.9951">javax.persistence</text><!--cluster criteria--><polygon fill="#FFFFFF" filter="url(#ftm8dkkx8e3wr)" points="472,80.5,534,80.5,541,102.7969,1218,102.7969,1218,495,472,495,472,80.5" style="stroke: #000000; stroke-width: 2.0;"/><line style="stroke: #000000; stroke-width: 2.0;" x1="472" x2="541" y1="102.7969" y2="102.7969"/><text fill="#000000" font-family="sans-serif" font-size="14" font-weight="bold" lengthAdjust="spacingAndGlyphs" textLength="56" x="476" y="95.4951">criteria</text><!--class EntityManager--><rect fill="#FEFECE" filter="url(#ftm8dkkx8e3wr)" height="166.4375" id="EntityManager" style="stroke: #A80036; stroke-width: 1.5;" width="417" x="38.5" y="59"/><ellipse cx="197.25" cy="75" fill="#B4A7E5" rx="11" ry="11" style="stroke: #A80036; stroke-width: 1.0;"/><path d="M198.2031,71.7813 L198.2031,78.2969 L199.9219,78.2969 C200.375,78.2969 200.5156,78.3281 200.6875,78.4531 C200.9219,78.625 201.0313,78.875 201.0313,79.1563 C201.0313,79.7188 200.6719,80 199.9219,80 L194.7813,80 C194.375,80 194.1719,79.9531 194.0156,79.8281 C193.7969,79.6719 193.6563,79.4063 193.6563,79.1563 C193.6563,78.8594 193.8125,78.5781 194.0625,78.4219 C194.2188,78.3125 194.3438,78.2969 194.7813,78.2969 L196.5,78.2969 L196.5,71.7813 L194.7813,71.7813 C194.3594,71.7813 194.1719,71.75 194.0156,71.6406 C193.7969,71.4688 193.6563,71.2188 193.6563,70.9375 C193.6563,70.6563 193.8125,70.3594 194.0625,70.2031 C194.2188,70.1094 194.3438,70.0938 194.7813,70.0938 L199.9219,70.0938 C200.375,70.0938 200.5156,70.125 200.6875,70.2344 C200.9219,70.4063 201.0313,70.6719 201.0313,70.9375 C201.0313,71.2344 200.8906,71.5156 200.625,71.6719 C200.5,71.75 200.3125,71.7813 199.9219,71.7813 Z "/><text fill="#000000" font-family="sans-serif" font-size="12" font-style="italic" lengthAdjust="spacingAndGlyphs" textLength="91" x="217.75" y="79.1543">EntityManager</text><line style="stroke: #A80036; stroke-width: 1.5;" x1="39.5" x2="454.5" y1="91" y2="91"/><ellipse cx="49.5" cy="102.9023" fill="#84BE84" rx="3" ry="3" style="stroke: #038048; stroke-width: 1.0;"/><text fill="#000000" font-family="sans-serif" font-size="11" font-style="italic" lengthAdjust="spacingAndGlyphs" textLength="198" x="58.5" y="105.2104">getCriteriaBuilder(): CriteriaBuilder</text><line style="stroke: #A80036; stroke-width: 1.0; stroke-dasharray: 1.0,2.0;" x1="39.5" x2="454.5" y1="111.8047" y2="111.8047"/><ellipse cx="49.5" cy="123.707" fill="#84BE84" rx="3" ry="3" style="stroke: #038048; stroke-width: 1.0;"/><text fill="#000000" font-family="sans-serif" font-size="11" font-style="italic" lengthAdjust="spacingAndGlyphs" textLength="196" x="58.5" y="126.0151">createQuery(query: String): Query</text><ellipse cx="49.5" cy="136.5117" fill="#84BE84" rx="3" ry="3" style="stroke: #038048; stroke-width: 1.0;"/><text fill="#000000" font-family="sans-serif" font-size="11" font-style="italic" lengthAdjust="spacingAndGlyphs" textLength="317" x="58.5" y="138.8198">createQuery(query: String, type: Class&lt;T&gt;): Query&lt;T&gt;</text><ellipse cx="49.5" cy="149.3164" fill="#84BE84" rx="3" ry="3" style="stroke: #038048; stroke-width: 1.0;"/><text fill="#000000" font-family="sans-serif" font-size="11" font-style="italic" lengthAdjust="spacingAndGlyphs" textLength="325" x="58.5" y="151.6245">createQuery(query: CriteriaQuery&lt;T&gt;): TypedQuery&lt;T&gt;</text><line style="stroke: #A80036; stroke-width: 1.0; stroke-dasharray: 1.0,2.0;" x1="39.5" x2="454.5" y1="158.2188" y2="158.2188"/><ellipse cx="49.5" cy="170.1211" fill="#84BE84" rx="3" ry="3" style="stroke: #038048; stroke-width: 1.0;"/><text fill="#000000" font-family="sans-serif" font-size="11" font-style="italic" lengthAdjust="spacingAndGlyphs" textLength="235" x="58.5" y="172.4292">createNamedQuery(name: String): Query</text><ellipse cx="49.5" cy="182.9258" fill="#84BE84" rx="3" ry="3" style="stroke: #038048; stroke-width: 1.0;"/><text fill="#000000" font-family="sans-serif" font-size="11" font-style="italic" lengthAdjust="spacingAndGlyphs" textLength="391" x="58.5" y="185.2339">createNamedQuery(name: String, type: Class&lt;T&gt;): TypedQuery&lt;T&gt;</text><line style="stroke: #A80036; stroke-width: 1.0; stroke-dasharray: 1.0,2.0;" x1="39.5" x2="454.5" y1="191.8281" y2="191.8281"/><ellipse cx="49.5" cy="203.7305" fill="#84BE84" rx="3" ry="3" style="stroke: #038048; stroke-width: 1.0;"/><text fill="#000000" font-family="sans-serif" font-size="11" font-style="italic" lengthAdjust="spacingAndGlyphs" textLength="232" x="58.5" y="206.0386">createNativeQuery(query: String): Query</text><ellipse cx="49.5" cy="216.5352" fill="#84BE84" rx="3" ry="3" style="stroke: #038048; stroke-width: 1.0;"/><text fill="#000000" font-family="sans-serif" font-size="11" font-style="italic" lengthAdjust="spacingAndGlyphs" textLength="328" x="58.5" y="218.8433">createNativeQuery(query: String, type: Class&lt;T&gt;): Query</text><!--class TypedQuery--><rect fill="#FEFECE" filter="url(#ftm8dkkx8e3wr)" height="78.4141" id="TypedQuery" style="stroke: #A80036; stroke-width: 1.5;" width="265" x="114.5" y="343"/><ellipse cx="200.25" cy="359" fill="#B4A7E5" rx="11" ry="11" style="stroke: #A80036; stroke-width: 1.0;"/><path d="M201.2031,355.7813 L201.2031,362.2969 L202.9219,362.2969 C203.375,362.2969 203.5156,362.3281 203.6875,362.4531 C203.9219,362.625 204.0313,362.875 204.0313,363.1563 C204.0313,363.7188 203.6719,364 202.9219,364 L197.7813,364 C197.375,364 197.1719,363.9531 197.0156,363.8281 C196.7969,363.6719 196.6563,363.4063 196.6563,363.1563 C196.6563,362.8594 196.8125,362.5781 197.0625,362.4219 C197.2188,362.3125 197.3438,362.2969 197.7813,362.2969 L199.5,362.2969 L199.5,355.7813 L197.7813,355.7813 C197.3594,355.7813 197.1719,355.75 197.0156,355.6406 C196.7969,355.4688 196.6563,355.2188 196.6563,354.9375 C196.6563,354.6563 196.8125,354.3594 197.0625,354.2031 C197.2188,354.1094 197.3438,354.0938 197.7813,354.0938 L202.9219,354.0938 C203.375,354.0938 203.5156,354.125 203.6875,354.2344 C203.9219,354.4063 204.0313,354.6719 204.0313,354.9375 C204.0313,355.2344 203.8906,355.5156 203.625,355.6719 C203.5,355.75 203.3125,355.7813 202.9219,355.7813 Z "/><text fill="#000000" font-family="sans-serif" font-size="12" font-style="italic" lengthAdjust="spacingAndGlyphs" textLength="74" x="220.75" y="363.1543">TypedQuery</text><rect fill="#FFFFFF" height="15.9688" style="stroke: #000000; stroke-width: 1.0; stroke-dasharray: 2.0,2.0;" width="9" x="373.5" y="340"/><text fill="#000000" font-family="sans-serif" font-size="12" font-style="italic" lengthAdjust="spacingAndGlyphs" textLength="7" x="374.5" y="352.1387">T</text><line style="stroke: #A80036; stroke-width: 1.5;" x1="115.5" x2="378.5" y1="375" y2="375"/><ellipse cx="125.5" cy="386.9023" fill="#84BE84" rx="3" ry="3" style="stroke: #038048; stroke-width: 1.0;"/><text fill="#000000" font-family="sans-serif" font-size="11" font-style="italic" lengthAdjust="spacingAndGlyphs" textLength="132" x="134.5" y="389.2104">getResultList(): List&lt;T&gt;</text><ellipse cx="125.5" cy="399.707" fill="#84BE84" rx="3" ry="3" style="stroke: #038048; stroke-width: 1.0;"/><text fill="#000000" font-family="sans-serif" font-size="11" font-style="italic" lengthAdjust="spacingAndGlyphs" textLength="110" x="134.5" y="402.0151">getSingleResult(): T</text><ellipse cx="125.5" cy="412.5117" fill="#84BE84" rx="3" ry="3" style="stroke: #038048; stroke-width: 1.0;"/><text fill="#000000" font-family="sans-serif" font-size="11" font-style="italic" lengthAdjust="spacingAndGlyphs" textLength="239" x="134.5" y="414.8198">setMaxResults(max: int): TypedQuery&lt;T&gt;</text><!--class CriteriaBuilder--><rect fill="#FEFECE" filter="url(#ftm8dkkx8e3wr)" height="65.6094" id="CriteriaBuilder" style="stroke: #A80036; stroke-width: 1.5;" width="303" x="488.5" y="349"/><ellipse cx="591.75" cy="365" fill="#B4A7E5" rx="11" ry="11" style="stroke: #A80036; stroke-width: 1.0;"/><path d="M592.7031,361.7813 L592.7031,368.2969 L594.4219,368.2969 C594.875,368.2969 595.0156,368.3281 595.1875,368.4531 C595.4219,368.625 595.5313,368.875 595.5313,369.1563 C595.5313,369.7188 595.1719,370 594.4219,370 L589.2813,370 C588.875,370 588.6719,369.9531 588.5156,369.8281 C588.2969,369.6719 588.1563,369.4063 588.1563,369.1563 C588.1563,368.8594 588.3125,368.5781 588.5625,368.4219 C588.7188,368.3125 588.8438,368.2969 589.2813,368.2969 L591,368.2969 L591,361.7813 L589.2813,361.7813 C588.8594,361.7813 588.6719,361.75 588.5156,361.6406 C588.2969,361.4688 588.1563,361.2188 588.1563,360.9375 C588.1563,360.6563 588.3125,360.3594 588.5625,360.2031 C588.7188,360.1094 588.8438,360.0938 589.2813,360.0938 L594.4219,360.0938 C594.875,360.0938 595.0156,360.125 595.1875,360.2344 C595.4219,360.4063 595.5313,360.6719 595.5313,360.9375 C595.5313,361.2344 595.3906,361.5156 595.125,361.6719 C595,361.75 594.8125,361.7813 594.4219,361.7813 Z "/><text fill="#000000" font-family="sans-serif" font-size="12" font-style="italic" lengthAdjust="spacingAndGlyphs" textLength="88" x="612.25" y="369.1543">CriteriaBuilder</text><line style="stroke: #A80036; stroke-width: 1.5;" x1="489.5" x2="790.5" y1="381" y2="381"/><ellipse cx="499.5" cy="392.9023" fill="#84BE84" rx="3" ry="3" style="stroke: #038048; stroke-width: 1.0;"/><text fill="#000000" font-family="sans-serif" font-size="11" font-style="italic" lengthAdjust="spacingAndGlyphs" textLength="218" x="508.5" y="395.2104">createQuery(): CriteriaQuery&lt;Object&gt;</text><ellipse cx="499.5" cy="405.707" fill="#84BE84" rx="3" ry="3" style="stroke: #038048; stroke-width: 1.0;"/><text fill="#000000" font-family="sans-serif" font-size="11" font-style="italic" lengthAdjust="spacingAndGlyphs" textLength="277" x="508.5" y="408.0151">createQuery(type: Class&lt;T&gt;): CriteriaQuery&lt;T&gt;</text><!--class CriteriaQuery--><rect fill="#FEFECE" filter="url(#ftm8dkkx8e3wr)" height="193.6563" id="CriteriaQuery" style="stroke: #A80036; stroke-width: 1.5;" width="375" x="826.5" y="285"/><ellipse cx="963.75" cy="301" fill="#B4A7E5" rx="11" ry="11" style="stroke: #A80036; stroke-width: 1.0;"/><path d="M964.7031,297.7813 L964.7031,304.2969 L966.4219,304.2969 C966.875,304.2969 967.0156,304.3281 967.1875,304.4531 C967.4219,304.625 967.5313,304.875 967.5313,305.1563 C967.5313,305.7188 967.1719,306 966.4219,306 L961.2813,306 C960.875,306 960.6719,305.9531 960.5156,305.8281 C960.2969,305.6719 960.1563,305.4063 960.1563,305.1563 C960.1563,304.8594 960.3125,304.5781 960.5625,304.4219 C960.7188,304.3125 960.8438,304.2969 961.2813,304.2969 L963,304.2969 L963,297.7813 L961.2813,297.7813 C960.8594,297.7813 960.6719,297.75 960.5156,297.6406 C960.2969,297.4688 960.1563,297.2188 960.1563,296.9375 C960.1563,296.6563 960.3125,296.3594 960.5625,296.2031 C960.7188,296.1094 960.8438,296.0938 961.2813,296.0938 L966.4219,296.0938 C966.875,296.0938 967.0156,296.125 967.1875,296.2344 C967.4219,296.4063 967.5313,296.6719 967.5313,296.9375 C967.5313,297.2344 967.3906,297.5156 967.125,297.6719 C967,297.75 966.8125,297.7813 966.4219,297.7813 Z "/><text fill="#000000" font-family="sans-serif" font-size="12" font-style="italic" lengthAdjust="spacingAndGlyphs" textLength="81" x="984.25" y="305.1543">CriteriaQuery</text><rect fill="#FFFFFF" height="15.9688" style="stroke: #000000; stroke-width: 1.0; stroke-dasharray: 2.0,2.0;" width="9" x="1195.5" y="282"/><text fill="#000000" font-family="sans-serif" font-size="12" font-style="italic" lengthAdjust="spacingAndGlyphs" textLength="7" x="1196.5" y="294.1387">T</text><line style="stroke: #A80036; stroke-width: 1.5;" x1="827.5" x2="1200.5" y1="317" y2="317"/><ellipse cx="837.5" cy="328.9023" fill="#84BE84" rx="3" ry="3" style="stroke: #038048; stroke-width: 1.0;"/><text fill="#000000" font-family="sans-serif" font-size="11" font-style="italic" lengthAdjust="spacingAndGlyphs" textLength="344" x="846.5" y="331.2104">select(selection: Selection&lt;? extends T&gt;): CriteriaQuery&lt;T&gt;</text><ellipse cx="837.5" cy="341.707" fill="#84BE84" rx="3" ry="3" style="stroke: #038048; stroke-width: 1.0;"/><text fill="#000000" font-family="sans-serif" font-size="11" font-style="italic" lengthAdjust="spacingAndGlyphs" textLength="300" x="846.5" y="344.0151">multiselect(selection: Selection...): CriteriaQuery&lt;T&gt;</text><ellipse cx="837.5" cy="354.5117" fill="#84BE84" rx="3" ry="3" style="stroke: #038048; stroke-width: 1.0;"/><text fill="#000000" font-family="sans-serif" font-size="11" font-style="italic" lengthAdjust="spacingAndGlyphs" textLength="349" x="846.5" y="356.8198">multiselect(selection: List&lt;Selection&lt;?&gt;&gt;): CriteriaQuery&lt;T&gt;</text><ellipse cx="837.5" cy="367.3164" fill="#84BE84" rx="3" ry="3" style="stroke: #038048; stroke-width: 1.0;"/><text fill="#000000" font-family="sans-serif" font-size="11" font-style="italic" lengthAdjust="spacingAndGlyphs" textLength="313" x="846.5" y="369.6245">where(expr: Expression&lt;Boolean&gt;): CriteriaQuery&lt;T&gt;</text><ellipse cx="837.5" cy="380.1211" fill="#84BE84" rx="3" ry="3" style="stroke: #038048; stroke-width: 1.0;"/><text fill="#000000" font-family="sans-serif" font-size="11" font-style="italic" lengthAdjust="spacingAndGlyphs" textLength="279" x="846.5" y="382.4292">where(predicate: Predicate...): CriteriaQuery&lt;T&gt;</text><ellipse cx="837.5" cy="392.9258" fill="#84BE84" rx="3" ry="3" style="stroke: #038048; stroke-width: 1.0;"/><text fill="#000000" font-family="sans-serif" font-size="11" font-style="italic" lengthAdjust="spacingAndGlyphs" textLength="274" x="846.5" y="395.2339">groupBy(expr: Expression...): CriteriaQuery&lt;T&gt;</text><ellipse cx="837.5" cy="405.7305" fill="#84BE84" rx="3" ry="3" style="stroke: #038048; stroke-width: 1.0;"/><text fill="#000000" font-family="sans-serif" font-size="11" font-style="italic" lengthAdjust="spacingAndGlyphs" textLength="323" x="846.5" y="408.0386">groupBy(expr: List&lt;Expression&lt;?&gt;&gt;): CriteriaQuery&lt;T&gt;</text><ellipse cx="837.5" cy="418.5352" fill="#84BE84" rx="3" ry="3" style="stroke: #038048; stroke-width: 1.0;"/><text fill="#000000" font-family="sans-serif" font-size="11" font-style="italic" lengthAdjust="spacingAndGlyphs" textLength="316" x="846.5" y="420.8433">having(expr: Expression&lt;Boolean&gt;): CriteriaQuery&lt;T&gt;</text><ellipse cx="837.5" cy="431.3398" fill="#84BE84" rx="3" ry="3" style="stroke: #038048; stroke-width: 1.0;"/><text fill="#000000" font-family="sans-serif" font-size="11" font-style="italic" lengthAdjust="spacingAndGlyphs" textLength="282" x="846.5" y="433.6479">having(predicate: Predicate...): CriteriaQuery&lt;T&gt;</text><ellipse cx="837.5" cy="444.1445" fill="#84BE84" rx="3" ry="3" style="stroke: #038048; stroke-width: 1.0;"/><text fill="#000000" font-family="sans-serif" font-size="11" font-style="italic" lengthAdjust="spacingAndGlyphs" textLength="248" x="846.5" y="446.4526">orderBy(order: Order...): CriteriaQuery&lt;T&gt;</text><ellipse cx="837.5" cy="456.9492" fill="#84BE84" rx="3" ry="3" style="stroke: #038048; stroke-width: 1.0;"/><text fill="#000000" font-family="sans-serif" font-size="11" font-style="italic" lengthAdjust="spacingAndGlyphs" textLength="273" x="846.5" y="459.2573">orderBy(order: List&lt;Order&gt;): CriteriaQuery&lt;T&gt;</text><ellipse cx="837.5" cy="469.7539" fill="#84BE84" rx="3" ry="3" style="stroke: #038048; stroke-width: 1.0;"/><text fill="#000000" font-family="sans-serif" font-size="11" font-style="italic" lengthAdjust="spacingAndGlyphs" textLength="251" x="846.5" y="472.062">distinct(distinct: boolean): CriteriaQuery&lt;T&gt;</text><!--class AbstractQuery--><rect fill="#FEFECE" filter="url(#ftm8dkkx8e3wr)" height="52.8047" id="AbstractQuery" style="stroke: #A80036; stroke-width: 1.5;" width="210" x="909" y="115.5"/><ellipse cx="960.25" cy="131.5" fill="#B4A7E5" rx="11" ry="11" style="stroke: #A80036; stroke-width: 1.0;"/><path d="M961.2031,128.2813 L961.2031,134.7969 L962.9219,134.7969 C963.375,134.7969 963.5156,134.8281 963.6875,134.9531 C963.9219,135.125 964.0313,135.375 964.0313,135.6563 C964.0313,136.2188 963.6719,136.5 962.9219,136.5 L957.7813,136.5 C957.375,136.5 957.1719,136.4531 957.0156,136.3281 C956.7969,136.1719 956.6563,135.9063 956.6563,135.6563 C956.6563,135.3594 956.8125,135.0781 957.0625,134.9219 C957.2188,134.8125 957.3438,134.7969 957.7813,134.7969 L959.5,134.7969 L959.5,128.2813 L957.7813,128.2813 C957.3594,128.2813 957.1719,128.25 957.0156,128.1406 C956.7969,127.9688 956.6563,127.7188 956.6563,127.4375 C956.6563,127.1563 956.8125,126.8594 957.0625,126.7031 C957.2188,126.6094 957.3438,126.5938 957.7813,126.5938 L962.9219,126.5938 C963.375,126.5938 963.5156,126.625 963.6875,126.7344 C963.9219,126.9063 964.0313,127.1719 964.0313,127.4375 C964.0313,127.7344 963.8906,128.0156 963.625,128.1719 C963.5,128.25 963.3125,128.2813 962.9219,128.2813 Z "/><text fill="#000000" font-family="sans-serif" font-size="12" font-style="italic" lengthAdjust="spacingAndGlyphs" textLength="88" x="980.75" y="135.6543">AbstractQuery</text><rect fill="#FFFFFF" height="15.9688" style="stroke: #000000; stroke-width: 1.0; stroke-dasharray: 2.0,2.0;" width="9" x="1113" y="112.5"/><text fill="#000000" font-family="sans-serif" font-size="12" font-style="italic" lengthAdjust="spacingAndGlyphs" textLength="7" x="1114" y="124.6387">T</text><line style="stroke: #A80036; stroke-width: 1.5;" x1="910" x2="1118" y1="147.5" y2="147.5"/><ellipse cx="920" cy="159.4023" fill="#84BE84" rx="3" ry="3" style="stroke: #038048; stroke-width: 1.0;"/><text fill="#000000" font-family="sans-serif" font-size="11" font-style="italic" lengthAdjust="spacingAndGlyphs" textLength="184" x="929" y="161.7104">from(type: Class&lt;X&gt;): Root&lt;X&gt;</text><!--link CriteriaQuery to CriteriaBuilder--><path d="M821.168,382 C811.303,382 801.437,382 791.572,382 " fill="none" id="CriteriaQuery-CriteriaBuilder" style="stroke: #A80036; stroke-width: 1.0; stroke-dasharray: 7.0,7.0;"/><polygon fill="#A80036" points="826.327,382,817.327,378,821.327,382,817.327,386,826.327,382" style="stroke: #A80036; stroke-width: 1.0;"/><!--link EntityManager to CriteriaBuilder--><path d="M384.708,225.133 C417.306,244.68 451.918,265.519 484,285 C517.162,305.137 554.146,327.884 583.777,346.179 " fill="none" id="EntityManager-CriteriaBuilder" style="stroke: #A80036; stroke-width: 1.0; stroke-dasharray: 7.0,7.0;"/><polygon fill="#A80036" points="588.094,348.846,582.5381,340.7138,583.8398,346.2189,578.3347,347.5206,588.094,348.846" style="stroke: #A80036; stroke-width: 1.0;"/><!--link EntityManager to TypedQuery--><path d="M247,225.239 C247,262.962 247,306.15 247,337.467 " fill="none" id="EntityManager-TypedQuery" style="stroke: #A80036; stroke-width: 1.0; stroke-dasharray: 7.0,7.0;"/><polygon fill="#A80036" points="247,342.779,251,333.779,247,337.779,243,333.779,247,342.779" style="stroke: #A80036; stroke-width: 1.0;"/><!--link AbstractQuery to CriteriaQuery--><path d="M1014,189.192 C1014,216.407 1014,251.876 1014,284.899 " fill="none" id="AbstractQuery-CriteriaQuery" style="stroke: #A80036; stroke-width: 1.0;"/><polygon fill="none" points="1007,188.923,1014,168.923,1021,188.923,1007,188.923" style="stroke: #A80036; stroke-width: 1.0;"/><!--
@startuml
package "javax.persistence" {
 interface EntityManager {
  + {abstract} getCriteriaBuilder(): CriteriaBuilder
 ....
  + {abstract} createQuery(query: String): Query
  + {abstract} createQuery(query: String, type: Class<T>): Query<T>
  + {abstract} createQuery(query: CriteriaQuery<T>): TypedQuery<T>
 ....
  + {abstract} createNamedQuery(name: String): Query
  + {abstract} createNamedQuery(name: String, type: Class<T>): TypedQuery<T>
 ....
  + {abstract} createNativeQuery(query: String): Query
  + {abstract} createNativeQuery(query: String, type: Class<T>): Query
 }
 interface TypedQuery<T> {
  + {abstract} getResultList(): List<T>
  + {abstract} getSingleResult(): T
  + {abstract} setMaxResults(max: int): TypedQuery<T>
 }
 package "criteria" {
  interface CriteriaBuilder {
   + {abstract} createQuery(): CriteriaQuery<Object>
   + {abstract} createQuery(type: Class<T>): CriteriaQuery<T>
  }
  interface CriteriaQuery<T> {
   + {abstract} select(selection: Selection<? extends T>): CriteriaQuery<T>
   + {abstract} multiselect(selection: Selection...): CriteriaQuery<T>
   + {abstract} multiselect(selection: List<Selection<?>>): CriteriaQuery<T>
   + {abstract} where(expr: Expression<Boolean>): CriteriaQuery<T>
   + {abstract} where(predicate: Predicate...): CriteriaQuery<T>
   + {abstract} groupBy(expr: Expression...): CriteriaQuery<T>
   + {abstract} groupBy(expr: List<Expression<?>>): CriteriaQuery<T>
   + {abstract} having(expr: Expression<Boolean>): CriteriaQuery<T>
   + {abstract} having(predicate: Predicate...): CriteriaQuery<T>
   + {abstract} orderBy(order: Order...): CriteriaQuery<T>
   + {abstract} orderBy(order: List<Order>): CriteriaQuery<T>
   + {abstract} distinct(distinct: boolean): CriteriaQuery<T>
  }
  interface AbstractQuery<T> {
   + {abstract} from(type: Class<X>): Root<X>
  }
 }
}
CriteriaBuilder .left.> CriteriaQuery
EntityManager ..> CriteriaBuilder
EntityManager ..> TypedQuery
CriteriaQuery -up-|> AbstractQuery
hide empty attributes
hide empty methods
@enduml

PlantUML version 1.2017.16(Sun Sep 03 10:53:37 UTC 2017)
(GPL source distribution)
Java Runtime: Java(TM) SE Runtime Environment
JVM: Java HotSpot(TM) 64-Bit Server VM
Java Version: 1.7.0_25-b15
Operating System: Linux
Default Encoding: UTF-8
Language: en
Country: US
--></g></svg>