<?xml version="1.0" encoding="UTF-8" standalone="no"?><svg xmlns="http://www.w3.org/2000/svg" xmlns:xlink="http://www.w3.org/1999/xlink" contentScriptType="application/ecmascript" contentStyleType="text/css" preserveAspectRatio="true" version="1.1" viewBox="0 0 800 401" zoomAndPan="magnify"><defs><filter height="300%" id="ffolmk3rmdapz" width="300%" x="-1" y="-1"><feGaussianBlur result="blurOut" stdDeviation="2.0"/><feColorMatrix in="blurOut" result="blurOut2" type="matrix" values="0 0 0 0 0 0 0 0 0 0 0 0 0 0 0 0 0 0 .4 0"/><feOffset dx="4.0" dy="4.0" in="blurOut2" result="blurOut3"/><feBlend in="SourceGraphic" in2="blurOut3" mode="normal"/></filter></defs><g><!--cluster javax.sql--><polygon fill="#FFFFFF" filter="url(#ffolmk3rmdapz)" points="22,24.5,96,24.5,103,46.7969,600,46.7969,600,389,22,389,22,24.5" style="stroke: #000000; stroke-width: 2.0;"/><line style="stroke: #000000; stroke-width: 2.0;" x1="22" x2="103" y1="46.7969" y2="46.7969"/><text fill="#000000" font-family="sans-serif" font-size="14" font-weight="bold" lengthAdjust="spacingAndGlyphs" textLength="68" x="26" y="39.4951">javax.sql</text><!--cluster java.sql--><polygon fill="#FFFFFF" filter="url(#ffolmk3rmdapz)" points="628,278.5,693,278.5,700,300.7969,764,300.7969,764,382.5,628,382.5,628,278.5" style="stroke: #000000; stroke-width: 2.0;"/><line style="stroke: #000000; stroke-width: 2.0;" x1="628" x2="700" y1="300.7969" y2="300.7969"/><text fill="#000000" font-family="sans-serif" font-size="14" font-weight="bold" lengthAdjust="spacingAndGlyphs" textLength="59" x="632" y="293.4951">java.sql</text><!--cluster java.lang--><polygon fill="#FFFFFF" filter="url(#ffolmk3rmdapz)" points="624,150.5,699,150.5,706,172.7969,778,172.7969,778,254.5,624,254.5,624,150.5" style="stroke: #000000; stroke-width: 2.0;"/><line style="stroke: #000000; stroke-width: 2.0;" x1="624" x2="706" y1="172.7969" y2="172.7969"/><text fill="#000000" font-family="sans-serif" font-size="14" font-weight="bold" lengthAdjust="spacingAndGlyphs" textLength="69" x="628" y="165.4951">java.lang</text><!--class CommonDataSource--><rect fill="#FEFECE" filter="url(#ffolmk3rmdapz)" height="32" id="CommonDataSource" style="stroke: #A80036; stroke-width: 1.5;" width="160" x="312" y="196"/><ellipse cx="327" cy="212" fill="#B4A7E5" rx="11" ry="11" style="stroke: #A80036; stroke-width: 1.0;"/><path d="M327.9531,208.7813 L327.9531,215.2969 L329.6719,215.2969 C330.125,215.2969 330.2656,215.3281 330.4375,215.4531 C330.6719,215.625 330.7813,215.875 330.7813,216.1563 C330.7813,216.7188 330.4219,217 329.6719,217 L324.5313,217 C324.125,217 323.9219,216.9531 323.7656,216.8281 C323.5469,216.6719 323.4063,216.4063 323.4063,216.1563 C323.4063,215.8594 323.5625,215.5781 323.8125,215.4219 C323.9688,215.3125 324.0938,215.2969 324.5313,215.2969 L326.25,215.2969 L326.25,208.7813 L324.5313,208.7813 C324.1094,208.7813 323.9219,208.75 323.7656,208.6406 C323.5469,208.4688 323.4063,208.2188 323.4063,207.9375 C323.4063,207.6563 323.5625,207.3594 323.8125,207.2031 C323.9688,207.1094 324.0938,207.0938 324.5313,207.0938 L329.6719,207.0938 C330.125,207.0938 330.2656,207.125 330.4375,207.2344 C330.6719,207.4063 330.7813,207.6719 330.7813,207.9375 C330.7813,208.2344 330.6406,208.5156 330.375,208.6719 C330.25,208.75 330.0625,208.7813 329.6719,208.7813 Z "/><text fill="#000000" font-family="sans-serif" font-size="12" font-style="italic" lengthAdjust="spacingAndGlyphs" textLength="128" x="341" y="216.1543">CommonDataSource</text><!--class DataSource--><rect fill="#FEFECE" filter="url(#ffolmk3rmdapz)" height="65.6094" id="DataSource" style="stroke: #A80036; stroke-width: 1.5;" width="359" x="220.5" y="307"/><ellipse cx="358.75" cy="323" fill="#B4A7E5" rx="11" ry="11" style="stroke: #A80036; stroke-width: 1.0;"/><path d="M359.7031,319.7813 L359.7031,326.2969 L361.4219,326.2969 C361.875,326.2969 362.0156,326.3281 362.1875,326.4531 C362.4219,326.625 362.5313,326.875 362.5313,327.1563 C362.5313,327.7188 362.1719,328 361.4219,328 L356.2813,328 C355.875,328 355.6719,327.9531 355.5156,327.8281 C355.2969,327.6719 355.1563,327.4063 355.1563,327.1563 C355.1563,326.8594 355.3125,326.5781 355.5625,326.4219 C355.7188,326.3125 355.8438,326.2969 356.2813,326.2969 L358,326.2969 L358,319.7813 L356.2813,319.7813 C355.8594,319.7813 355.6719,319.75 355.5156,319.6406 C355.2969,319.4688 355.1563,319.2188 355.1563,318.9375 C355.1563,318.6563 355.3125,318.3594 355.5625,318.2031 C355.7188,318.1094 355.8438,318.0938 356.2813,318.0938 L361.4219,318.0938 C361.875,318.0938 362.0156,318.125 362.1875,318.2344 C362.4219,318.4063 362.5313,318.6719 362.5313,318.9375 C362.5313,319.2344 362.3906,319.5156 362.125,319.6719 C362,319.75 361.8125,319.7813 361.4219,319.7813 Z "/><text fill="#000000" font-family="sans-serif" font-size="12" font-style="italic" lengthAdjust="spacingAndGlyphs" textLength="74" x="379.25" y="327.1543">DataSource</text><line style="stroke: #A80036; stroke-width: 1.5;" x1="221.5" x2="578.5" y1="339" y2="339"/><ellipse cx="231.5" cy="350.9023" fill="#84BE84" rx="3" ry="3" style="stroke: #038048; stroke-width: 1.0;"/><text fill="#000000" font-family="sans-serif" font-size="11" font-style="italic" lengthAdjust="spacingAndGlyphs" textLength="164" x="240.5" y="353.2104"> getConnection(): Connection</text><ellipse cx="231.5" cy="363.707" fill="#84BE84" rx="3" ry="3" style="stroke: #038048; stroke-width: 1.0;"/><text fill="#000000" font-family="sans-serif" font-size="11" font-style="italic" lengthAdjust="spacingAndGlyphs" textLength="333" x="240.5" y="366.0151"> getConnection(user: String, password: String): Connection</text><!--class XADataSource--><rect fill="#FEFECE" filter="url(#ffolmk3rmdapz)" height="65.6094" id="XADataSource" style="stroke: #A80036; stroke-width: 1.5;" width="391" x="192.5" y="59.5"/><ellipse cx="338.75" cy="75.5" fill="#B4A7E5" rx="11" ry="11" style="stroke: #A80036; stroke-width: 1.0;"/><path d="M339.7031,72.2813 L339.7031,78.7969 L341.4219,78.7969 C341.875,78.7969 342.0156,78.8281 342.1875,78.9531 C342.4219,79.125 342.5313,79.375 342.5313,79.6563 C342.5313,80.2188 342.1719,80.5 341.4219,80.5 L336.2813,80.5 C335.875,80.5 335.6719,80.4531 335.5156,80.3281 C335.2969,80.1719 335.1563,79.9063 335.1563,79.6563 C335.1563,79.3594 335.3125,79.0781 335.5625,78.9219 C335.7188,78.8125 335.8438,78.7969 336.2813,78.7969 L338,78.7969 L338,72.2813 L336.2813,72.2813 C335.8594,72.2813 335.6719,72.25 335.5156,72.1406 C335.2969,71.9688 335.1563,71.7188 335.1563,71.4375 C335.1563,71.1563 335.3125,70.8594 335.5625,70.7031 C335.7188,70.6094 335.8438,70.5938 336.2813,70.5938 L341.4219,70.5938 C341.875,70.5938 342.0156,70.625 342.1875,70.7344 C342.4219,70.9063 342.5313,71.1719 342.5313,71.4375 C342.5313,71.7344 342.3906,72.0156 342.125,72.1719 C342,72.25 341.8125,72.2813 341.4219,72.2813 Z "/><text fill="#000000" font-family="sans-serif" font-size="12" font-style="italic" lengthAdjust="spacingAndGlyphs" textLength="90" x="359.25" y="79.6543">XADataSource</text><line style="stroke: #A80036; stroke-width: 1.5;" x1="193.5" x2="582.5" y1="91.5" y2="91.5"/><ellipse cx="203.5" cy="103.4023" fill="#84BE84" rx="3" ry="3" style="stroke: #038048; stroke-width: 1.0;"/><text fill="#000000" font-family="sans-serif" font-size="11" font-style="italic" lengthAdjust="spacingAndGlyphs" textLength="196" x="212.5" y="105.7104"> getXAConnection(): XAConnection</text><ellipse cx="203.5" cy="116.207" fill="#84BE84" rx="3" ry="3" style="stroke: #038048; stroke-width: 1.0;"/><text fill="#000000" font-family="sans-serif" font-size="11" font-style="italic" lengthAdjust="spacingAndGlyphs" textLength="365" x="212.5" y="118.5151"> getXAConnection(user: String, password: String): XAConnection</text><!--class XAConnection--><rect fill="#FEFECE" filter="url(#ffolmk3rmdapz)" height="32" id="XAConnection" style="stroke: #A80036; stroke-width: 1.5;" width="119" x="38.5" y="76.5"/><ellipse cx="53.5" cy="92.5" fill="#B4A7E5" rx="11" ry="11" style="stroke: #A80036; stroke-width: 1.0;"/><path d="M54.4531,89.2813 L54.4531,95.7969 L56.1719,95.7969 C56.625,95.7969 56.7656,95.8281 56.9375,95.9531 C57.1719,96.125 57.2813,96.375 57.2813,96.6563 C57.2813,97.2188 56.9219,97.5 56.1719,97.5 L51.0313,97.5 C50.625,97.5 50.4219,97.4531 50.2656,97.3281 C50.0469,97.1719 49.9063,96.9063 49.9063,96.6563 C49.9063,96.3594 50.0625,96.0781 50.3125,95.9219 C50.4688,95.8125 50.5938,95.7969 51.0313,95.7969 L52.75,95.7969 L52.75,89.2813 L51.0313,89.2813 C50.6094,89.2813 50.4219,89.25 50.2656,89.1406 C50.0469,88.9688 49.9063,88.7188 49.9063,88.4375 C49.9063,88.1563 50.0625,87.8594 50.3125,87.7031 C50.4688,87.6094 50.5938,87.5938 51.0313,87.5938 L56.1719,87.5938 C56.625,87.5938 56.7656,87.625 56.9375,87.7344 C57.1719,87.9063 57.2813,88.1719 57.2813,88.4375 C57.2813,88.7344 57.1406,89.0156 56.875,89.1719 C56.75,89.25 56.5625,89.2813 56.1719,89.2813 Z "/><text fill="#000000" font-family="sans-serif" font-size="12" font-style="italic" lengthAdjust="spacingAndGlyphs" textLength="87" x="67.5" y="96.6543">XAConnection</text><!--class Connection--><rect fill="#FEFECE" filter="url(#ffolmk3rmdapz)" height="52.8047" id="Connection" style="stroke: #A80036; stroke-width: 1.5;" width="103" x="644.5" y="313.5"/><ellipse cx="659.5" cy="329.5" fill="#B4A7E5" rx="11" ry="11" style="stroke: #A80036; stroke-width: 1.0;"/><path d="M660.4531,326.2813 L660.4531,332.7969 L662.1719,332.7969 C662.625,332.7969 662.7656,332.8281 662.9375,332.9531 C663.1719,333.125 663.2813,333.375 663.2813,333.6563 C663.2813,334.2188 662.9219,334.5 662.1719,334.5 L657.0313,334.5 C656.625,334.5 656.4219,334.4531 656.2656,334.3281 C656.0469,334.1719 655.9063,333.9063 655.9063,333.6563 C655.9063,333.3594 656.0625,333.0781 656.3125,332.9219 C656.4688,332.8125 656.5938,332.7969 657.0313,332.7969 L658.75,332.7969 L658.75,326.2813 L657.0313,326.2813 C656.6094,326.2813 656.4219,326.25 656.2656,326.1406 C656.0469,325.9688 655.9063,325.7188 655.9063,325.4375 C655.9063,325.1563 656.0625,324.8594 656.3125,324.7031 C656.4688,324.6094 656.5938,324.5938 657.0313,324.5938 L662.1719,324.5938 C662.625,324.5938 662.7656,324.625 662.9375,324.7344 C663.1719,324.9063 663.2813,325.1719 663.2813,325.4375 C663.2813,325.7344 663.1406,326.0156 662.875,326.1719 C662.75,326.25 662.5625,326.2813 662.1719,326.2813 Z "/><text fill="#000000" font-family="sans-serif" font-size="12" font-style="italic" lengthAdjust="spacingAndGlyphs" textLength="71" x="673.5" y="333.6543">Connection</text><line style="stroke: #A80036; stroke-width: 1.5;" x1="645.5" x2="746.5" y1="345.5" y2="345.5"/><text fill="#000000" font-family="sans-serif" font-size="11" lengthAdjust="spacingAndGlyphs" textLength="12" x="650.5" y="359.7104">...</text><!--class AutoCloseable--><rect fill="#FEFECE" filter="url(#ffolmk3rmdapz)" height="52.8047" id="AutoCloseable" style="stroke: #A80036; stroke-width: 1.5;" width="121" x="640.5" y="185.5"/><ellipse cx="655.5" cy="201.5" fill="#B4A7E5" rx="11" ry="11" style="stroke: #A80036; stroke-width: 1.0;"/><path d="M656.4531,198.2813 L656.4531,204.7969 L658.1719,204.7969 C658.625,204.7969 658.7656,204.8281 658.9375,204.9531 C659.1719,205.125 659.2813,205.375 659.2813,205.6563 C659.2813,206.2188 658.9219,206.5 658.1719,206.5 L653.0313,206.5 C652.625,206.5 652.4219,206.4531 652.2656,206.3281 C652.0469,206.1719 651.9063,205.9063 651.9063,205.6563 C651.9063,205.3594 652.0625,205.0781 652.3125,204.9219 C652.4688,204.8125 652.5938,204.7969 653.0313,204.7969 L654.75,204.7969 L654.75,198.2813 L653.0313,198.2813 C652.6094,198.2813 652.4219,198.25 652.2656,198.1406 C652.0469,197.9688 651.9063,197.7188 651.9063,197.4375 C651.9063,197.1563 652.0625,196.8594 652.3125,196.7031 C652.4688,196.6094 652.5938,196.5938 653.0313,196.5938 L658.1719,196.5938 C658.625,196.5938 658.7656,196.625 658.9375,196.7344 C659.1719,196.9063 659.2813,197.1719 659.2813,197.4375 C659.2813,197.7344 659.1406,198.0156 658.875,198.1719 C658.75,198.25 658.5625,198.2813 658.1719,198.2813 Z "/><text fill="#000000" font-family="sans-serif" font-size="12" font-style="italic" lengthAdjust="spacingAndGlyphs" textLength="89" x="669.5" y="205.6543">AutoCloseable</text><line style="stroke: #A80036; stroke-width: 1.5;" x1="641.5" x2="760.5" y1="217.5" y2="217.5"/><ellipse cx="651.5" cy="229.4023" fill="#84BE84" rx="3" ry="3" style="stroke: #038048; stroke-width: 1.0;"/><text fill="#000000" font-family="sans-serif" font-size="11" font-style="italic" lengthAdjust="spacingAndGlyphs" textLength="41" x="660.5" y="231.7104"> close()</text><!--link CommonDataSource to DataSource--><path d="M394.266,248.685 C395.43,267.018 396.837,289.179 397.966,306.9605 " fill="none" id="CommonDataSource-DataSource" style="stroke: #A80036; stroke-width: 1.0;"/><polygon fill="none" points="387.262,248.853,392.981,228.45,401.234,247.966,387.262,248.853" style="stroke: #A80036; stroke-width: 1.0;"/><!--link XADataSource to CommonDataSource--><path d="M389.093,125.607 C389.621,141.125 390.257,159.789 390.798,175.705 " fill="none" id="XADataSource-CommonDataSource" style="stroke: #A80036; stroke-width: 1.0;"/><polygon fill="none" points="397.797,175.533,391.481,195.759,383.805,176.009,397.797,175.533" style="stroke: #A80036; stroke-width: 1.0;"/><!--link XAConnection to XADataSource--><path d="M162.896,92.5 C172.725,92.5 182.554,92.5 192.382,92.5 " fill="none" id="XAConnection-XADataSource" style="stroke: #A80036; stroke-width: 1.0; stroke-dasharray: 7.0,7.0;"/><polygon fill="#A80036" points="157.756,92.5,166.756,96.5,162.756,92.5,166.756,88.5,157.756,92.5" style="stroke: #A80036; stroke-width: 1.0;"/><!--link Connection to DataSource--><path d="M639.076,340 C619.22,340 599.364,340 579.508,340 " fill="none" id="Connection-DataSource" style="stroke: #A80036; stroke-width: 1.0; stroke-dasharray: 7.0,7.0;"/><polygon fill="#A80036" points="644.125,340,635.125,336,639.125,340,635.125,344,644.125,340" style="stroke: #A80036; stroke-width: 1.0;"/><!--link AutoCloseable to Connection--><path d="M699.178,258.924 C698.451,277.227 697.642,297.611 697.023,313.2325 " fill="none" id="AutoCloseable-Connection" style="stroke: #A80036; stroke-width: 1.0;"/><polygon fill="none" points="692.188,258.509,699.976,238.802,706.177,259.064,692.188,258.509" style="stroke: #A80036; stroke-width: 1.0;"/><!--
@startuml
package "javax.sql" {
 interface CommonDataSource
 interface DataSource {
  + {abstract} getConnection(): Connection
  + {abstract} getConnection(user: String, password: String): Connection
 }
 interface XADataSource {
  + {abstract} getXAConnection(): XAConnection
  + {abstract} getXAConnection(user: String, password: String): XAConnection
 }
 interface XAConnection
 DataSource -up-|> CommonDataSource
 XADataSource -down-|> CommonDataSource
 XADataSource .left.> XAConnection
}
package "java.sql" {
 interface Connection {
  ...
 }
}
package "java.lang" {
 interface AutoCloseable {
  + {abstract} close()
 }
}
DataSource .left.> Connection
Connection -up-|> AutoCloseable
hide empty attributes
hide empty methods
@enduml

PlantUML version 1.2017.16(Sun Sep 03 10:53:37 UTC 2017)
(GPL source distribution)
Java Runtime: Java(TM) SE Runtime Environment
JVM: Java HotSpot(TM) 64-Bit Server VM
Java Version: 1.7.0_25-b15
Operating System: Linux
Default Encoding: UTF-8
Language: en
Country: US
--></g></svg>